<?xml version="1.0" encoding="UTF-8" ?>
<!DOCTYPE svg PUBLIC "-//W3C//DTD SVG 1.1//EN" "http://www.w3.org/Graphics/SVG/1.1/DTD/svg11.dtd">
<svg width="149pt" height="191pt" viewBox="0 0 149 191" version="1.1" xmlns="http://www.w3.org/2000/svg">
<g id="#959595fe">
<path fill="#959595" opacity="1.00" d=" M 0.00 0.00 L 149.00 0.00 L 149.00 191.00 L 0.00 191.00 L 0.00 0.00 M 4.80 9.83 C 4.78 68.59 4.80 127.35 4.79 186.11 C 51.26 186.12 97.74 186.12 144.21 186.11 C 144.20 127.35 144.22 68.59 144.20 9.83 C 97.73 9.83 51.27 9.83 4.80 9.83 Z" />
</g>
<g id="#d0d0d1ff">
<path fill="#d0d0d1" opacity="1.00" d=" M 9.59 14.77 C 52.86 14.77 96.14 14.77 139.41 14.77 C 139.38 22.99 139.36 31.21 139.43 39.42 C 96.14 39.44 52.86 39.44 9.57 39.42 C 9.64 31.21 9.62 22.99 9.59 14.77 Z" />
<path fill="#d0d0d1" opacity="1.00" d=" M 9.57 48.11 C 52.86 48.11 96.14 48.11 139.43 48.11 C 139.44 48.67 139.48 49.80 139.49 50.37 C 137.34 50.63 135.16 50.52 133.00 50.52 C 94.33 50.52 55.67 50.53 17.00 50.52 C 14.50 50.50 11.99 50.66 9.51 50.37 C 9.52 49.80 9.56 48.67 9.57 48.11 Z" />
<path fill="#d0d0d1" opacity="1.00" d=" M 9.60 54.23 C 52.81 54.29 96.03 54.17 139.25 54.29 C 139.36 54.85 139.60 55.96 139.72 56.52 C 138.48 56.60 137.24 56.65 136.00 56.68 C 96.00 56.66 56.00 56.67 16.00 56.67 C 13.82 56.61 11.60 56.91 9.46 56.41 C 9.49 55.87 9.56 54.78 9.60 54.23 Z" />
<path fill="#d0d0d1" opacity="1.00" d=" M 9.47 60.62 C 11.62 60.18 13.82 60.43 15.99 60.39 C 55.00 60.39 94.00 60.39 133.00 60.39 C 135.17 60.43 137.38 60.18 139.53 60.62 C 139.50 61.17 139.45 62.27 139.42 62.81 C 96.14 62.81 52.86 62.81 9.58 62.81 C 9.55 62.27 9.50 61.17 9.47 60.62 Z" />
<path fill="#d0d0d1" opacity="1.00" d=" M 9.59 149.14 C 52.86 149.14 96.14 149.14 139.42 149.14 C 139.45 149.70 139.50 150.80 139.53 151.36 C 137.38 151.72 135.18 151.54 133.00 151.57 C 94.00 151.56 55.00 151.56 16.00 151.57 C 13.82 151.54 11.62 151.73 9.46 151.35 C 9.49 150.80 9.55 149.69 9.59 149.14 Z" />
<path fill="#d0d0d1" opacity="1.00" d=" M 9.99 155.37 C 51.99 155.15 94.00 155.37 136.00 155.26 C 137.41 155.47 140.84 154.52 139.54 157.45 C 137.73 157.92 135.84 157.66 134.00 157.72 C 92.99 157.69 51.98 157.73 10.98 157.70 C 10.60 157.63 9.84 157.51 9.46 157.44 L 9.46 155.64 L 9.99 155.37 Z" />
<path fill="#d0d0d1" opacity="1.00" d=" M 9.46 161.64 C 11.62 161.27 13.82 161.44 16.00 161.43 C 55.00 161.43 94.00 161.43 133.00 161.43 C 135.18 161.44 137.38 161.27 139.54 161.64 C 139.51 162.19 139.44 163.30 139.41 163.85 C 96.14 163.85 52.86 163.85 9.59 163.85 C 9.56 163.30 9.49 162.19 9.46 161.64 Z" />
</g>
<g id="#cacacbf8">
<path fill="#cacacb" opacity="0.97" d=" M 9.46 66.53 C 52.82 66.53 96.18 66.53 139.54 66.53 C 139.47 67.14 139.34 68.37 139.28 68.98 C 96.10 69.07 52.90 69.07 9.72 68.98 C 9.66 68.37 9.53 67.14 9.46 66.53 Z" />
</g>
<g id="#969696ff">
<path fill="#969696" opacity="1.00" d=" M 9.59 80.14 C 52.86 80.14 96.14 80.14 139.41 80.14 C 139.39 100.25 139.34 120.36 139.44 140.46 C 96.15 140.49 52.85 140.49 9.56 140.46 C 9.66 120.36 9.61 100.25 9.59 80.14 Z" />
</g>
<g id="#cececffc">
<path fill="#cececf" opacity="1.00" d=" M 9.47 167.58 C 52.82 167.57 96.18 167.57 139.53 167.58 C 139.47 168.19 139.35 169.42 139.29 170.03 C 96.10 170.15 52.90 170.15 9.71 170.03 C 9.65 169.42 9.53 168.19 9.47 167.58 Z" />
</g>
</svg>
