<?xml version="1.0" encoding="UTF-8" ?>
<!DOCTYPE svg PUBLIC "-//W3C//DTD SVG 1.1//EN" "http://www.w3.org/Graphics/SVG/1.1/DTD/svg11.dtd">
<svg width="149pt" height="191pt" viewBox="0 0 149 191" version="1.1" xmlns="http://www.w3.org/2000/svg">
<g id="#969696ff">
<path fill="#969696" opacity="1.00" d=" M 0.00 0.00 L 149.00 0.00 L 149.00 191.00 L 0.00 191.00 L 0.00 0.00 M 4.78 9.83 C 4.80 68.59 4.79 127.35 4.79 186.12 C 51.26 186.12 97.74 186.12 144.21 186.12 C 144.22 127.35 144.20 68.59 144.22 9.83 C 97.74 9.83 51.26 9.82 4.78 9.83 Z" />
<path fill="#969696" opacity="1.00" d=" M 9.46 91.36 C 23.17 91.11 36.90 91.12 50.61 91.36 C 50.30 101.54 50.53 111.74 50.48 121.93 C 36.86 122.01 23.24 121.79 9.62 122.05 C 9.51 111.82 9.80 101.59 9.46 91.36 Z" />
<path fill="#969696" opacity="1.00" d=" M 54.04 91.25 C 67.68 91.19 81.33 91.18 94.97 91.25 C 94.85 101.46 94.83 111.67 94.98 121.87 C 81.33 121.98 67.68 121.97 54.03 121.88 C 54.17 111.67 54.15 101.45 54.04 91.25 Z" />
<path fill="#969696" opacity="1.00" d=" M 98.41 91.33 C 112.08 91.05 125.75 91.28 139.41 91.22 C 139.37 101.45 139.39 111.69 139.40 121.93 C 125.77 121.94 112.15 121.94 98.52 121.93 C 98.48 111.73 98.67 101.53 98.41 91.33 Z" />
</g>
<g id="#d2d2d1ff">
<path fill="#d2d2d1" opacity="1.00" d=" M 9.58 14.77 C 52.86 14.76 96.14 14.76 139.42 14.77 C 139.39 22.99 139.35 31.20 139.44 39.42 C 96.15 39.44 52.85 39.44 9.56 39.42 C 9.65 31.20 9.61 22.99 9.58 14.77 Z" />
<path fill="#d2d2d1" opacity="1.00" d=" M 9.49 51.73 C 9.04 50.11 9.54 49.31 11.00 49.34 C 53.34 49.28 95.68 49.30 138.02 49.33 C 140.28 48.47 140.04 52.57 138.09 51.73 C 95.22 51.73 52.36 51.74 9.49 51.73 Z" />
<path fill="#d2d2d1" opacity="1.00" d=" M 9.51 57.86 C 9.05 56.14 9.58 55.34 11.10 55.48 C 52.39 55.41 93.69 55.50 134.99 55.44 C 136.96 55.60 140.55 54.58 139.49 57.86 C 96.16 57.88 52.84 57.88 9.51 57.86 Z" />
<path fill="#d2d2d1" opacity="1.00" d=" M 9.49 61.63 C 52.83 61.59 96.17 61.60 139.50 61.63 C 139.47 62.25 139.39 63.50 139.36 64.12 C 96.12 64.12 52.88 64.12 9.65 64.12 C 9.61 63.50 9.53 62.25 9.49 61.63 Z" />
<path fill="#d2d2d1" opacity="1.00" d=" M 9.57 67.76 C 52.86 67.75 96.14 67.75 139.43 67.76 C 139.43 68.38 139.43 69.63 139.44 70.25 C 96.15 70.26 52.85 70.26 9.56 70.25 C 9.57 69.63 9.57 68.38 9.57 67.76 Z" />
<path fill="#d2d2d1" opacity="1.00" d=" M 9.84 74.33 C 53.06 74.17 96.29 74.31 139.52 74.26 C 139.91 75.86 139.42 76.66 138.05 76.67 C 98.02 76.73 57.98 76.66 17.95 76.70 C 15.02 76.69 12.09 76.76 9.18 76.51 C 9.34 75.97 9.68 74.88 9.84 74.33 Z" />
<path fill="#d2d2d1" opacity="1.00" d=" M 9.56 80.60 C 12.69 80.21 15.86 80.46 19.00 80.41 C 57.67 80.39 96.34 80.44 135.01 80.39 C 136.97 80.55 140.55 79.56 139.50 82.83 C 96.16 82.84 52.83 82.84 9.49 82.82 C 9.51 82.27 9.54 81.15 9.56 80.60 Z" />
<path fill="#d2d2d1" opacity="1.00" d=" M 9.53 130.62 C 11.99 130.05 14.54 130.39 17.05 130.32 C 55.04 130.33 93.02 130.32 131.01 130.33 C 133.83 130.38 136.68 130.09 139.47 130.58 C 139.48 131.12 139.49 132.20 139.50 132.74 C 96.17 132.76 52.84 132.75 9.51 132.75 C 9.51 132.22 9.52 131.15 9.53 130.62 Z" />
<path fill="#d2d2d1" opacity="1.00" d=" M 9.51 138.88 C 9.05 137.12 9.61 136.33 11.17 136.50 C 53.92 136.55 96.69 136.28 139.42 136.63 C 139.44 137.19 139.48 138.32 139.50 138.88 C 96.17 138.90 52.84 138.89 9.51 138.88 Z" />
<path fill="#d2d2d1" opacity="1.00" d=" M 9.50 142.65 C 52.83 142.62 96.17 142.62 139.50 142.65 C 139.47 143.27 139.40 144.51 139.37 145.14 C 96.12 145.13 52.88 145.13 9.63 145.14 C 9.60 144.51 9.53 143.27 9.50 142.65 Z" />
<path fill="#d2d2d1" opacity="1.00" d=" M 9.58 148.78 C 52.86 148.77 96.14 148.77 139.42 148.78 C 139.43 149.40 139.44 150.65 139.44 151.27 C 96.15 151.28 52.85 151.28 9.56 151.27 C 9.56 150.65 9.57 149.40 9.58 148.78 Z" />
<path fill="#d2d2d1" opacity="1.00" d=" M 9.79 154.99 C 52.93 154.85 96.07 154.85 139.20 154.99 C 139.31 155.59 139.54 156.79 139.65 157.39 C 96.21 157.44 52.78 157.45 9.35 157.39 C 9.46 156.79 9.68 155.59 9.79 154.99 Z" />
<path fill="#d2d2d1" opacity="1.00" d=" M 9.50 161.17 C 52.83 161.15 96.17 161.15 139.50 161.17 C 139.49 161.72 139.46 162.83 139.44 163.39 C 137.30 163.70 135.13 163.57 132.98 163.59 C 92.33 163.53 51.67 163.63 11.02 163.54 C 9.55 163.64 9.05 162.85 9.50 161.17 Z" />
<path fill="#d2d2d1" opacity="1.00" d=" M 9.34 167.62 C 52.77 167.55 96.21 167.56 139.65 167.62 C 139.54 168.22 139.32 169.42 139.21 170.02 C 96.08 170.16 52.93 170.16 9.80 170.02 C 9.68 169.42 9.45 168.22 9.34 167.62 Z" />
</g>
</svg>
