<?xml version="1.0" encoding="UTF-8" ?>
<!DOCTYPE svg PUBLIC "-//W3C//DTD SVG 1.1//EN" "http://www.w3.org/Graphics/SVG/1.1/DTD/svg11.dtd">
<svg width="149pt" height="191pt" viewBox="0 0 149 191" version="1.1" xmlns="http://www.w3.org/2000/svg">
<g id="#969696ff">
<path fill="#969696" opacity="1.00" d=" M 0.00 0.00 L 149.00 0.00 L 149.00 191.00 L 0.00 191.00 L 0.00 0.00 M 4.78 9.83 C 4.79 68.59 4.79 127.35 4.79 186.12 C 51.26 186.12 97.74 186.12 144.21 186.12 C 144.21 127.35 144.21 68.59 144.22 9.83 C 97.74 9.83 51.26 9.83 4.78 9.83 Z" />
<path fill="#969696" opacity="1.00" d=" M 9.59 96.16 C 23.22 96.15 36.86 96.15 50.49 96.16 C 50.45 106.40 50.45 116.63 50.49 126.87 C 36.86 126.88 23.22 126.88 9.59 126.87 C 9.62 116.63 9.63 106.40 9.59 96.16 Z" />
<path fill="#969696" opacity="1.00" d=" M 54.05 96.19 C 67.68 96.13 81.32 96.13 94.95 96.19 C 94.85 106.41 94.86 116.63 94.94 126.85 C 81.31 126.90 67.69 126.89 54.06 126.85 C 54.14 116.63 54.15 106.41 54.05 96.19 Z" />
<path fill="#969696" opacity="1.00" d=" M 98.51 96.16 C 112.14 96.14 125.78 96.15 139.41 96.16 C 139.37 106.40 139.38 116.63 139.41 126.87 C 125.78 126.88 112.14 126.88 98.51 126.87 C 98.54 116.63 98.55 106.40 98.51 96.16 Z" />
</g>
<g id="#d0d0d1ff">
<path fill="#d0d0d1" opacity="1.00" d=" M 9.58 14.77 C 52.86 14.76 96.14 14.76 139.42 14.77 C 139.38 22.99 139.35 31.21 139.43 39.42 C 96.14 39.44 52.86 39.44 9.57 39.42 C 9.65 31.21 9.62 22.99 9.58 14.77 Z" />
<path fill="#d0d0d1" opacity="1.00" d=" M 9.27 48.22 C 52.75 48.04 96.25 48.03 139.74 48.23 C 139.73 50.06 138.82 50.95 136.98 50.53 C 94.60 50.43 52.20 50.69 9.82 50.40 C 9.68 49.86 9.40 48.77 9.27 48.22 Z" />
<path fill="#d0d0d1" opacity="1.00" d=" M 9.26 54.35 C 52.75 54.18 96.26 54.17 139.75 54.36 C 139.52 54.92 139.07 56.05 138.84 56.61 C 100.24 56.75 61.61 56.63 23.01 56.67 C 18.60 56.57 14.18 56.89 9.79 56.52 C 9.66 55.98 9.39 54.89 9.26 54.35 Z" />
<path fill="#d0d0d1" opacity="1.00" d=" M 9.26 62.70 C 9.25 60.88 10.15 59.92 12.01 60.38 C 54.40 60.49 96.81 60.20 139.19 60.52 C 139.33 61.07 139.61 62.15 139.75 62.70 C 96.26 62.90 52.75 62.88 9.26 62.70 Z" />
<path fill="#d0d0d1" opacity="1.00" d=" M 9.10 66.68 C 49.72 66.36 90.34 66.64 130.97 66.54 C 133.94 66.54 136.92 66.50 139.89 66.68 C 139.68 67.24 139.25 68.38 139.04 68.94 C 99.39 69.19 59.71 68.98 20.05 69.01 C 16.69 69.05 13.31 69.24 9.96 68.88 C 9.74 68.33 9.31 67.23 9.10 66.68 Z" />
<path fill="#d0d0d1" opacity="1.00" d=" M 9.59 75.19 C 9.58 74.36 9.56 73.53 9.54 72.70 C 52.84 72.68 96.15 72.68 139.46 72.70 C 139.44 73.53 139.42 74.36 139.41 75.19 C 96.14 75.20 52.87 75.19 9.59 75.19 Z" />
<path fill="#d0d0d1" opacity="1.00" d=" M 9.52 81.32 C 9.55 80.49 9.58 79.66 9.61 78.83 C 52.87 78.83 96.13 78.83 139.38 78.83 C 139.41 79.66 139.44 80.49 139.48 81.32 C 96.16 81.35 52.84 81.35 9.52 81.32 Z" />
<path fill="#d0d0d1" opacity="1.00" d=" M 9.93 85.18 C 52.30 84.96 94.67 85.15 137.04 85.08 C 138.76 84.77 139.71 85.52 139.90 87.34 C 99.27 87.69 58.63 87.38 18.00 87.49 C 15.03 87.49 12.06 87.54 9.10 87.34 C 9.31 86.80 9.72 85.72 9.93 85.18 Z" />
<path fill="#d0d0d1" opacity="1.00" d=" M 9.11 135.68 C 23.06 135.46 37.04 135.45 50.99 135.69 C 50.79 137.51 49.83 138.29 48.09 138.04 C 35.38 138.00 22.65 138.26 9.95 137.91 C 9.74 137.35 9.32 136.24 9.11 135.68 Z" />
<path fill="#d0d0d1" opacity="1.00" d=" M 53.58 135.65 C 67.53 135.48 81.49 135.47 95.44 135.65 C 95.21 136.23 94.75 137.39 94.52 137.97 C 81.17 138.11 67.79 138.19 54.44 137.93 C 54.22 137.36 53.79 136.22 53.58 135.65 Z" />
<path fill="#d0d0d1" opacity="1.00" d=" M 97.99 135.70 C 111.95 135.43 125.93 135.47 139.89 135.68 C 139.81 139.06 136.26 137.86 134.01 138.09 C 122.31 137.94 110.59 138.28 98.89 137.92 C 98.67 137.37 98.22 136.26 97.99 135.70 Z" />
<path fill="#d0d0d1" opacity="1.00" d=" M 9.60 144.20 C 9.58 143.37 9.56 142.54 9.54 141.71 C 23.21 141.69 36.88 141.68 50.55 141.71 C 50.52 142.54 50.50 143.37 50.48 144.20 C 36.85 144.20 23.23 144.20 9.60 144.20 Z" />
<path fill="#d0d0d1" opacity="1.00" d=" M 53.97 141.72 C 67.66 141.68 81.34 141.68 95.03 141.72 C 95.00 142.34 94.95 143.58 94.93 144.19 C 81.31 144.21 67.69 144.21 54.07 144.19 C 54.05 143.58 54.00 142.34 53.97 141.72 Z" />
<path fill="#d0d0d1" opacity="1.00" d=" M 98.52 144.20 C 98.49 143.37 98.47 142.54 98.46 141.71 C 112.12 141.69 125.79 141.69 139.46 141.71 C 139.44 142.54 139.42 143.37 139.40 144.20 C 125.77 144.20 112.15 144.20 98.52 144.20 Z" />
<path fill="#d0d0d1" opacity="1.00" d=" M 9.52 150.33 C 9.55 149.50 9.58 148.67 9.61 147.84 C 23.23 147.84 36.84 147.84 50.46 147.84 C 50.50 148.67 50.53 149.50 50.57 150.33 C 36.89 150.36 23.20 150.35 9.52 150.33 Z" />
<path fill="#d0d0d1" opacity="1.00" d=" M 54.11 147.84 C 67.70 147.84 81.30 147.84 94.89 147.84 C 94.93 148.46 95.00 149.70 95.04 150.32 C 81.35 150.37 67.65 150.37 53.96 150.32 C 54.00 149.70 54.07 148.46 54.11 147.84 Z" />
<path fill="#d0d0d1" opacity="1.00" d=" M 98.43 150.33 C 98.47 149.50 98.50 148.67 98.54 147.84 C 112.15 147.84 125.77 147.84 139.39 147.84 C 139.42 148.67 139.45 149.50 139.48 150.33 C 125.80 150.35 112.12 150.36 98.43 150.33 Z" />
<path fill="#d0d0d1" opacity="1.00" d=" M 9.93 154.18 C 23.33 154.02 36.75 154.03 50.14 154.17 C 50.36 154.71 50.79 155.79 51.01 156.33 C 37.04 156.61 23.06 156.59 9.10 156.35 C 9.31 155.81 9.73 154.72 9.93 154.18 Z" />
<path fill="#d0d0d1" opacity="1.00" d=" M 54.40 154.15 C 67.79 154.04 81.21 154.04 94.61 154.15 C 94.81 154.71 95.21 155.83 95.41 156.39 C 81.47 156.56 67.53 156.56 53.59 156.39 C 53.79 155.83 54.20 154.71 54.40 154.15 Z" />
<path fill="#d0d0d1" opacity="1.00" d=" M 98.86 154.17 C 112.26 154.03 125.67 154.02 139.06 154.18 C 139.27 154.72 139.69 155.80 139.90 156.35 C 125.94 156.59 111.95 156.62 97.99 156.33 C 98.21 155.79 98.64 154.71 98.86 154.17 Z" />
<path fill="#d0d0d1" opacity="1.00" d=" M 9.26 160.33 C 23.11 160.15 36.97 160.14 50.82 160.34 C 51.22 163.55 47.97 162.52 45.97 162.65 C 33.91 162.54 21.84 162.84 9.80 162.51 C 9.66 161.96 9.39 160.88 9.26 160.33 Z" />
<path fill="#d0d0d1" opacity="1.00" d=" M 54.03 160.27 C 67.67 160.19 81.32 160.19 94.97 160.27 C 94.97 160.85 94.96 162.03 94.95 162.62 C 81.32 162.66 67.68 162.66 54.05 162.62 C 54.04 162.03 54.03 160.85 54.03 160.27 Z" />
<path fill="#d0d0d1" opacity="1.00" d=" M 98.17 160.35 C 112.03 160.13 125.90 160.14 139.76 160.34 C 139.50 160.90 138.99 162.02 138.73 162.58 C 125.39 162.64 112.03 162.79 98.70 162.51 C 98.57 161.97 98.30 160.89 98.17 160.35 Z" />
<path fill="#d0d0d1" opacity="1.00" d=" M 10.23 166.44 C 23.58 166.36 36.97 166.23 50.31 166.50 C 50.44 167.04 50.69 168.13 50.82 168.67 C 36.96 168.87 23.10 168.87 9.25 168.67 C 9.49 168.11 9.98 166.99 10.23 166.44 Z" />
<path fill="#d0d0d1" opacity="1.00" d=" M 54.04 166.39 C 67.69 166.35 81.33 166.34 94.97 166.40 C 94.97 166.99 94.96 168.16 94.96 168.75 C 81.32 168.81 67.67 168.82 54.03 168.74 C 54.03 168.16 54.04 166.98 54.04 166.39 Z" />
<path fill="#d0d0d1" opacity="1.00" d=" M 99.06 166.43 C 112.42 166.38 125.85 166.21 139.21 166.51 C 139.34 167.05 139.60 168.14 139.73 168.68 C 125.89 168.85 112.03 168.88 98.18 168.67 C 98.40 168.11 98.84 166.99 99.06 166.43 Z" />
</g>
</svg>
