<?xml version="1.0" encoding="UTF-8" ?>
<!DOCTYPE svg PUBLIC "-//W3C//DTD SVG 1.1//EN" "http://www.w3.org/Graphics/SVG/1.1/DTD/svg11.dtd">
<svg width="149pt" height="191pt" viewBox="0 0 149 191" version="1.1" xmlns="http://www.w3.org/2000/svg">
<g id="#969696ff">
<path fill="#969696" opacity="1.00" d=" M 0.00 0.00 L 149.00 0.00 L 149.00 191.00 L 0.00 191.00 L 0.00 0.00 M 4.78 9.83 C 4.79 68.59 4.79 127.35 4.79 186.12 C 51.26 186.12 97.74 186.12 144.21 186.12 C 144.21 127.35 144.21 68.59 144.22 9.83 C 97.74 9.83 51.26 9.83 4.78 9.83 Z" />
<path fill="#969696" opacity="1.00" d=" M 9.61 89.91 C 30.45 89.91 51.29 89.90 72.12 89.91 C 72.14 102.23 72.12 114.55 72.13 126.87 C 51.29 126.87 30.44 126.88 9.59 126.87 C 9.63 114.55 9.60 102.23 9.61 89.91 Z" />
<path fill="#969696" opacity="1.00" d=" M 76.88 89.91 C 97.71 89.90 118.55 89.91 139.39 89.91 C 139.40 102.23 139.37 114.55 139.41 126.87 C 118.56 126.88 97.71 126.87 76.87 126.87 C 76.88 114.55 76.86 102.23 76.88 89.91 Z" />
</g>
<g id="#d0d0d1ff">
<path fill="#d0d0d1" opacity="1.00" d=" M 9.58 14.77 C 52.86 14.76 96.14 14.77 139.42 14.77 C 139.38 22.99 139.35 31.20 139.44 39.42 C 96.15 39.44 52.85 39.44 9.56 39.42 C 9.65 31.21 9.62 22.99 9.58 14.77 Z" />
<path fill="#d0d0d1" opacity="1.00" d=" M 9.44 48.14 C 52.81 48.09 96.19 48.09 139.56 48.14 C 139.94 50.17 138.90 50.88 137.00 50.52 C 94.55 50.43 52.09 50.70 9.65 50.39 C 9.60 49.83 9.49 48.70 9.44 48.14 Z" />
<path fill="#d0d0d1" opacity="1.00" d=" M 10.97 56.61 C 8.59 57.57 8.94 53.40 10.97 54.25 C 53.83 54.24 96.69 54.22 139.55 54.27 C 140.01 56.29 138.95 56.99 137.06 56.66 C 95.03 56.64 52.99 56.75 10.97 56.61 Z" />
<path fill="#d0d0d1" opacity="1.00" d=" M 9.44 62.78 C 9.02 60.73 10.12 60.05 12.02 60.39 C 54.47 60.50 96.94 60.17 139.38 60.55 C 139.43 61.11 139.51 62.23 139.56 62.78 C 96.18 62.83 52.81 62.84 9.44 62.78 Z" />
<path fill="#d0d0d1" opacity="1.00" d=" M 9.31 66.60 C 52.77 66.51 96.23 66.51 139.69 66.60 C 139.58 67.16 139.35 68.28 139.24 68.84 C 125.83 69.47 112.38 68.72 98.96 69.06 C 72.67 69.12 46.39 68.87 20.10 69.06 C 16.66 69.02 13.20 69.24 9.77 68.85 C 9.65 68.28 9.42 67.16 9.31 66.60 Z" />
<path fill="#d0d0d1" opacity="1.00" d=" M 9.60 75.19 C 9.58 74.36 9.56 73.53 9.54 72.70 C 52.85 72.68 96.15 72.68 139.46 72.70 C 139.44 73.53 139.42 74.36 139.40 75.19 C 96.13 75.19 52.87 75.19 9.60 75.19 Z" />
<path fill="#d0d0d1" opacity="1.00" d=" M 9.51 81.33 C 9.56 80.49 9.60 79.66 9.64 78.83 C 52.89 78.84 96.13 78.83 139.38 78.83 C 139.41 79.66 139.44 80.49 139.48 81.33 C 96.16 81.35 52.84 81.35 9.51 81.33 Z" />
<path fill="#d0d0d1" opacity="1.00" d=" M 9.29 135.61 C 30.25 135.47 51.21 135.58 72.17 135.55 C 72.15 136.18 72.13 137.44 72.11 138.07 C 51.35 138.01 30.59 138.19 9.83 137.98 C 9.70 137.39 9.43 136.20 9.29 135.61 Z" />
<path fill="#d0d0d1" opacity="1.00" d=" M 76.83 135.55 C 97.79 135.58 118.76 135.46 139.72 135.61 C 139.58 136.20 139.30 137.39 139.16 137.98 C 118.41 138.19 97.64 138.01 76.89 138.07 C 76.87 137.44 76.85 136.18 76.83 135.55 Z" />
<path fill="#d0d0d1" opacity="1.00" d=" M 9.60 144.20 C 9.58 143.37 9.56 142.53 9.54 141.70 C 30.41 141.69 51.28 141.70 72.15 141.70 C 72.14 142.32 72.13 143.58 72.13 144.20 C 51.29 144.20 30.44 144.20 9.60 144.20 Z" />
<path fill="#d0d0d1" opacity="1.00" d=" M 76.85 141.70 C 97.72 141.70 118.59 141.69 139.46 141.70 C 139.44 142.53 139.42 143.37 139.40 144.20 C 118.56 144.20 97.71 144.20 76.87 144.20 C 76.87 143.58 76.86 142.32 76.85 141.70 Z" />
<path fill="#d0d0d1" opacity="1.00" d=" M 9.51 150.33 C 9.56 149.50 9.60 148.67 9.64 147.83 C 30.47 147.85 51.30 147.84 72.13 147.84 C 72.13 148.47 72.15 149.72 72.15 150.34 C 51.27 150.34 30.39 150.36 9.51 150.33 Z" />
<path fill="#d0d0d1" opacity="1.00" d=" M 76.87 147.84 C 97.70 147.84 118.53 147.85 139.36 147.84 C 139.40 148.67 139.44 149.50 139.49 150.33 C 118.61 150.36 97.73 150.34 76.85 150.34 C 76.85 149.72 76.87 148.47 76.87 147.84 Z" />
<path fill="#d0d0d1" opacity="1.00" d=" M 9.79 154.16 C 30.57 153.98 51.35 154.14 72.13 154.09 C 72.14 154.69 72.15 155.89 72.16 156.49 C 51.20 156.46 30.25 156.58 9.29 156.43 C 9.42 155.87 9.67 154.73 9.79 154.16 Z" />
<path fill="#d0d0d1" opacity="1.00" d=" M 76.87 154.09 C 97.65 154.14 118.43 153.98 139.21 154.17 C 139.33 154.73 139.58 155.87 139.71 156.43 C 118.75 156.58 97.80 156.46 76.84 156.49 C 76.85 155.89 76.86 154.69 76.87 154.09 Z" />
<path fill="#d0d0d1" opacity="1.00" d=" M 9.44 160.25 C 30.34 160.18 51.24 160.24 72.15 160.22 C 72.14 160.83 72.14 162.04 72.14 162.65 C 51.30 162.53 30.44 162.88 9.61 162.47 C 9.57 161.92 9.49 160.81 9.44 160.25 Z" />
<path fill="#d0d0d1" opacity="1.00" d=" M 76.85 160.22 C 97.75 160.24 118.65 160.18 139.56 160.25 C 140.46 163.49 137.03 162.50 135.05 162.66 C 115.66 162.62 96.26 162.65 76.87 162.65 C 76.87 162.04 76.85 160.83 76.85 160.22 Z" />
<path fill="#d0d0d1" opacity="1.00" d=" M 10.21 166.46 C 30.85 166.23 51.50 166.44 72.14 166.36 C 72.14 166.97 72.14 168.18 72.15 168.79 C 51.25 168.77 30.35 168.83 9.45 168.76 C 9.64 168.19 10.02 167.04 10.21 166.46 Z" />
<path fill="#d0d0d1" opacity="1.00" d=" M 76.86 166.36 C 97.70 166.48 118.56 166.13 139.40 166.54 C 139.43 167.09 139.50 168.21 139.54 168.77 C 118.65 168.82 97.75 168.78 76.86 168.79 C 76.86 168.18 76.86 166.97 76.86 166.36 Z" />
</g>
</svg>
