<?xml version="1.0" encoding="UTF-8" ?>
<!DOCTYPE svg PUBLIC "-//W3C//DTD SVG 1.1//EN" "http://www.w3.org/Graphics/SVG/1.1/DTD/svg11.dtd">
<svg width="149pt" height="191pt" viewBox="0 0 149 191" version="1.1" xmlns="http://www.w3.org/2000/svg">
<g id="#969696ff">
<path fill="#969696" opacity="1.00" d=" M 0.00 0.00 L 149.00 0.00 L 149.00 191.00 L 0.00 191.00 L 0.00 0.00 M 4.78 9.83 C 4.80 68.59 4.78 127.35 4.79 186.12 C 51.26 186.12 97.73 186.12 144.21 186.12 C 144.22 127.35 144.20 68.59 144.22 9.82 C 97.74 9.82 51.26 9.81 4.78 9.83 Z" />
<path fill="#969696" opacity="1.00" d=" M 9.49 91.35 C 23.18 91.11 36.88 91.16 50.57 91.33 C 50.35 101.52 50.51 111.72 50.48 121.92 C 36.85 121.93 23.22 121.93 9.60 121.92 C 9.55 111.73 9.75 101.54 9.49 91.35 Z" />
<path fill="#969696" opacity="1.00" d=" M 54.07 91.23 C 67.70 91.22 81.32 91.19 94.94 91.24 C 94.86 101.45 94.84 111.67 94.95 121.88 C 81.32 121.95 67.68 121.98 54.05 121.89 C 54.16 111.67 54.12 101.45 54.07 91.23 Z" />
<path fill="#969696" opacity="1.00" d=" M 98.54 91.19 C 112.16 91.24 125.78 91.21 139.40 91.21 C 139.39 101.45 139.38 111.68 139.40 121.92 C 125.78 121.93 112.15 121.93 98.52 121.92 C 98.56 111.68 98.51 101.44 98.54 91.19 Z" />
<path fill="#969696" opacity="1.00" d=" M 9.57 130.63 C 30.42 130.60 51.28 130.62 72.14 130.62 C 72.15 142.91 72.06 155.20 72.19 167.50 C 51.31 167.66 30.43 167.58 9.55 167.54 C 9.66 155.24 9.63 142.93 9.57 130.63 Z" />
<path fill="#969696" opacity="1.00" d=" M 76.56 130.63 C 97.42 130.60 118.27 130.61 139.13 130.62 C 139.14 142.91 139.05 155.21 139.18 167.50 C 118.30 167.65 97.42 167.60 76.53 167.53 C 76.66 155.23 76.61 142.93 76.56 130.63 Z" />
</g>
<g id="#d2d2d1ff">
<path fill="#d2d2d1" opacity="1.00" d=" M 9.58 14.77 C 52.86 14.76 96.14 14.76 139.42 14.77 C 139.39 22.98 139.35 31.20 139.44 39.42 C 96.15 39.44 52.85 39.44 9.56 39.42 C 9.65 31.20 9.61 22.98 9.58 14.77 Z" />
<path fill="#d2d2d1" opacity="1.00" d=" M 10.23 49.42 C 53.24 49.19 96.27 49.31 139.28 49.36 C 139.27 49.94 139.25 51.10 139.23 51.68 C 97.17 51.83 55.09 51.66 13.02 51.76 C 11.60 51.50 8.10 52.51 9.46 49.53 L 10.23 49.42 Z" />
<path fill="#d2d2d1" opacity="1.00" d=" M 9.31 55.55 C 52.76 55.39 96.23 55.41 139.68 55.54 C 139.57 56.10 139.35 57.24 139.24 57.80 C 96.08 57.91 52.91 57.92 9.75 57.80 C 9.64 57.23 9.42 56.11 9.31 55.55 Z" />
<path fill="#d2d2d1" opacity="1.00" d=" M 9.41 61.63 C 52.81 61.59 96.20 61.58 139.60 61.64 C 139.51 62.24 139.33 63.45 139.24 64.05 C 96.08 64.16 52.91 64.17 9.75 64.05 C 9.67 63.45 9.49 62.24 9.41 61.63 Z" />
<path fill="#d2d2d1" opacity="1.00" d=" M 9.58 67.76 C 52.86 67.75 96.14 67.75 139.42 67.76 C 139.43 68.38 139.43 69.63 139.44 70.25 C 96.15 70.26 52.86 70.26 9.57 70.25 C 9.57 69.63 9.57 68.38 9.58 67.76 Z" />
<path fill="#d2d2d1" opacity="1.00" d=" M 9.76 73.96 C 52.92 73.85 96.09 73.84 139.24 73.96 C 139.33 74.56 139.51 75.77 139.60 76.37 C 96.20 76.42 52.79 76.43 9.39 76.37 C 9.48 75.77 9.67 74.56 9.76 73.96 Z" />
<path fill="#d2d2d1" opacity="1.00" d=" M 9.54 80.14 C 52.77 80.17 96.00 80.06 139.23 80.20 C 139.35 80.77 139.58 81.89 139.70 82.46 C 97.82 82.70 55.94 82.47 14.06 82.57 C 12.08 82.39 8.37 83.47 9.54 80.14 Z" />
</g>
</svg>
