<?xml version="1.0" encoding="UTF-8" ?>
<!DOCTYPE svg PUBLIC "-//W3C//DTD SVG 1.1//EN" "http://www.w3.org/Graphics/SVG/1.1/DTD/svg11.dtd">
<svg width="149pt" height="191pt" viewBox="0 0 149 191" version="1.1" xmlns="http://www.w3.org/2000/svg">
<g id="#969696ff">
<path fill="#969696" opacity="1.00" d=" M 0.00 0.00 L 149.00 0.00 L 149.00 191.00 L 0.00 191.00 L 0.00 0.00 M 4.78 9.83 C 4.80 68.59 4.79 127.36 4.78 186.12 C 51.26 186.12 97.74 186.12 144.21 186.12 C 144.21 127.35 144.20 68.59 144.22 9.83 C 97.74 9.83 51.26 9.83 4.78 9.83 Z" />
<path fill="#969696" opacity="1.00" d=" M 9.58 91.22 C 30.43 91.21 51.29 91.21 72.14 91.21 C 72.12 103.54 72.13 115.86 72.13 128.18 C 51.29 128.18 30.44 128.18 9.59 128.18 C 9.62 115.86 9.63 103.54 9.58 91.22 Z" />
<path fill="#969696" opacity="1.00" d=" M 76.86 91.21 C 97.71 91.22 118.57 91.20 139.42 91.22 C 139.36 103.54 139.39 115.86 139.41 128.18 C 118.56 128.18 97.71 128.18 76.87 128.18 C 76.87 115.86 76.88 103.53 76.86 91.21 Z" />
</g>
<g id="#d2d2d1ff">
<path fill="#d2d2d1" opacity="1.00" d=" M 9.59 14.77 C 52.86 14.77 96.14 14.77 139.41 14.77 C 139.38 22.99 139.36 31.21 139.43 39.43 C 96.14 39.44 52.86 39.44 9.57 39.43 C 9.64 31.21 9.62 22.99 9.59 14.77 Z" />
<path fill="#d2d2d1" opacity="1.00" d=" M 8.54 51.25 C 9.54 50.35 10.34 48.81 11.96 49.26 C 53.65 49.33 95.36 49.34 137.05 49.26 C 138.67 48.81 139.45 50.36 140.45 51.25 C 138.64 51.57 136.81 51.73 134.97 51.75 C 96.65 51.71 58.33 51.74 20.00 51.73 C 16.18 51.70 12.32 51.98 8.54 51.25 Z" />
<path fill="#d2d2d1" opacity="1.00" d=" M 8.65 57.38 C 9.53 56.35 10.35 55.00 11.95 55.46 C 53.64 55.45 95.34 55.45 137.03 55.46 C 138.63 55.00 139.46 56.34 140.35 57.38 C 136.60 58.12 132.77 57.84 128.98 57.87 C 92.64 57.87 56.31 57.87 19.97 57.87 C 16.19 57.84 12.38 58.12 8.65 57.38 Z" />
<path fill="#d2d2d1" opacity="1.00" d=" M 9.50 61.61 C 52.83 61.61 96.17 61.61 139.50 61.61 C 139.47 62.24 139.41 63.50 139.37 64.12 C 96.12 64.12 52.88 64.12 9.63 64.12 C 9.59 63.50 9.53 62.24 9.50 61.61 Z" />
<path fill="#d2d2d1" opacity="1.00" d=" M 9.57 67.76 C 52.86 67.75 96.14 67.76 139.43 67.76 C 139.43 68.38 139.44 69.63 139.44 70.26 C 96.15 70.26 52.85 70.26 9.56 70.26 C 9.56 69.63 9.57 68.38 9.57 67.76 Z" />
<path fill="#d2d2d1" opacity="1.00" d=" M 9.63 73.89 C 52.88 73.89 96.12 73.89 139.37 73.89 C 139.41 74.52 139.47 75.77 139.50 76.40 C 96.17 76.40 52.83 76.41 9.49 76.40 C 9.53 75.77 9.60 74.52 9.63 73.89 Z" />
<path fill="#d2d2d1" opacity="1.00" d=" M 8.63 80.64 C 12.38 79.88 16.22 80.17 20.01 80.14 C 56.36 80.14 92.71 80.14 129.05 80.14 C 132.83 80.16 136.63 79.89 140.36 80.63 C 139.47 81.65 138.67 83.02 137.07 82.54 C 95.34 82.57 53.61 82.56 11.88 82.54 C 10.30 83.01 9.53 81.61 8.63 80.64 Z" />
<path fill="#d2d2d1" opacity="1.00" d=" M 9.57 136.76 C 52.86 136.76 96.14 136.76 139.43 136.76 C 139.43 137.39 139.44 138.64 139.44 139.27 C 96.15 139.27 52.85 139.27 9.56 139.27 C 9.56 138.64 9.57 137.38 9.57 136.76 Z" />
<path fill="#d2d2d1" opacity="1.00" d=" M 8.83 145.24 C 9.31 143.49 10.36 142.70 12.00 142.88 C 54.27 142.98 96.55 142.76 138.81 142.99 C 139.15 143.55 139.83 144.68 140.17 145.24 C 101.11 145.64 62.04 145.29 22.98 145.41 C 18.26 145.37 13.54 145.55 8.83 145.24 Z" />
<path fill="#d2d2d1" opacity="1.00" d=" M 8.63 149.64 C 10.42 149.31 12.23 149.14 14.05 149.12 C 54.37 149.16 94.69 149.15 135.00 149.12 C 136.81 149.14 138.60 149.32 140.37 149.64 C 139.47 150.64 138.67 152.01 137.09 151.54 C 95.36 151.58 53.63 151.58 11.91 151.54 C 10.32 152.01 9.52 150.64 8.63 149.64 Z" />
<path fill="#d2d2d1" opacity="1.00" d=" M 8.54 157.23 C 9.54 156.33 10.32 154.79 11.94 155.25 C 52.96 155.32 93.98 155.29 135.00 155.27 C 136.83 155.28 138.66 155.45 140.47 155.77 C 139.46 156.67 138.65 158.20 137.03 157.74 C 98.05 157.67 59.06 157.73 20.08 157.71 C 16.23 157.68 12.35 157.95 8.54 157.23 Z" />
<path fill="#d2d2d1" opacity="1.00" d=" M 8.63 163.36 C 9.53 162.31 10.37 160.96 11.98 161.44 C 53.66 161.42 95.34 161.42 137.02 161.44 C 138.63 160.97 139.47 162.31 140.37 163.35 C 136.62 164.10 132.79 163.82 128.99 163.86 C 92.64 163.85 56.29 163.85 19.95 163.86 C 16.17 163.83 12.36 164.10 8.63 163.36 Z" />
<path fill="#d2d2d1" opacity="1.00" d=" M 8.83 167.76 C 15.56 167.39 22.31 167.65 29.04 167.58 C 66.08 167.69 103.13 167.36 140.17 167.75 C 139.71 169.47 138.69 170.26 137.11 170.11 C 95.38 170.09 53.64 170.09 11.91 170.12 C 10.32 170.26 9.29 169.48 8.83 167.76 Z" />
</g>
</svg>
