<?xml version="1.0" encoding="UTF-8" ?>
<!DOCTYPE svg PUBLIC "-//W3C//DTD SVG 1.1//EN" "http://www.w3.org/Graphics/SVG/1.1/DTD/svg11.dtd">
<svg width="150pt" height="97pt" viewBox="0 0 150 97" version="1.1" xmlns="http://www.w3.org/2000/svg">
<g id="#1d1d1d80">
<path fill="#1d1d1d" opacity="0.50" d=" M 5.40 0.00 L 144.58 0.00 C 146.78 1.35 148.66 3.19 150.00 5.40 L 150.00 51.75 C 148.55 54.42 146.50 57.63 143.06 57.59 C 130.15 57.93 117.21 57.29 104.30 57.92 C 103.21 57.50 102.12 57.07 100.99 56.77 C 99.47 57.20 98.16 58.10 96.69 58.67 C 95.36 57.97 95.00 56.20 93.71 55.44 C 92.23 55.39 90.75 55.55 89.27 55.52 C 87.67 52.73 88.07 49.39 87.45 46.34 C 86.92 42.27 80.16 40.26 78.34 44.44 C 76.75 48.68 78.12 53.34 78.35 57.71 C 57.57 57.60 36.79 57.70 16.01 57.66 C 12.50 57.60 8.96 57.94 5.49 57.40 C 2.79 56.64 1.30 54.02 0.00 51.76 L 0.00 5.67 C 1.21 3.30 3.11 1.34 5.40 0.00 Z" />
</g>
<g id="#161616b8">
<path fill="#161616" opacity="0.72" d=" M 78.34 44.44 C 80.16 40.26 86.92 42.27 87.45 46.34 C 88.07 49.39 87.67 52.73 89.27 55.52 C 90.75 55.55 92.23 55.39 93.71 55.44 C 95.00 56.20 95.36 57.97 96.69 58.67 C 98.16 58.10 99.47 57.20 100.99 56.77 C 102.12 57.07 103.21 57.50 104.30 57.92 C 105.33 58.71 106.12 60.74 107.76 60.03 C 108.97 59.95 110.21 59.29 111.41 59.73 C 112.88 60.67 114.63 61.98 114.43 63.95 C 114.99 71.41 117.26 79.51 113.49 86.52 C 110.68 90.55 106.86 94.54 101.77 95.28 C 95.13 96.15 87.75 93.89 83.62 88.41 C 78.77 82.26 73.54 76.43 68.52 70.42 C 66.42 68.00 66.82 62.03 71.03 62.48 C 74.31 61.82 76.28 65.68 79.34 65.37 C 79.92 62.76 78.98 60.21 78.35 57.71 C 78.12 53.34 76.75 48.68 78.34 44.44 M 80.12 47.20 C 81.12 51.11 79.24 55.09 80.52 58.92 C 80.87 60.75 80.49 62.63 80.76 64.46 C 82.16 66.35 83.66 68.35 82.72 70.86 L 80.97 70.71 C 79.71 68.36 77.13 67.45 75.40 65.56 C 74.10 64.29 72.22 63.78 70.46 63.56 C 69.22 64.90 68.66 66.79 68.53 68.58 C 71.57 72.18 76.22 74.44 78.20 78.88 C 81.23 81.32 82.63 84.97 84.86 88.04 C 86.23 88.65 87.72 89.00 89.06 89.70 C 90.22 90.83 91.10 92.61 93.00 92.43 C 96.39 93.50 99.99 93.50 103.51 93.22 C 105.24 92.03 106.76 90.52 107.80 88.68 C 109.65 88.55 110.58 87.51 110.62 85.66 C 113.58 85.93 111.89 82.44 113.18 80.87 C 113.26 74.95 113.84 68.83 111.44 63.25 C 110.45 61.90 108.56 61.07 107.10 62.28 C 103.87 62.59 107.70 68.64 103.34 66.85 C 103.34 65.21 103.18 63.58 102.86 61.98 L 102.82 61.40 C 104.61 60.26 101.86 58.97 100.92 58.71 C 99.70 59.39 98.76 60.48 97.80 61.49 C 96.92 63.14 99.16 67.41 95.36 65.84 C 95.61 63.03 95.04 60.43 93.99 57.86 C 92.40 57.52 90.54 57.91 89.76 59.48 C 89.55 62.60 89.88 65.73 89.55 68.84 L 87.35 68.84 C 86.99 64.55 87.64 60.24 87.09 55.96 C 86.62 54.30 85.26 52.83 85.81 50.99 C 85.92 49.35 87.11 46.56 84.32 46.69 C 84.05 46.24 83.52 45.32 83.26 44.86 C 81.76 44.61 81.02 46.35 80.12 47.20 Z" />
</g>
<g id="#8c8c8cbf">
<path fill="#8c8c8c" opacity="0.75" d=" M 84.32 46.69 C 83.76 47.14 83.76 47.14 84.32 46.69 Z" />
</g>
<g id="#7f7f7f7f">
<path fill="#7f7f7f" opacity="0.50" d=" M 92.25 59.33 L 92.71 59.33 L 92.71 59.79 L 92.25 59.79 L 92.25 59.33 Z" />
<path fill="#7f7f7f" opacity="0.50" d=" M 102.86 61.98 C 102.85 61.83 102.83 61.54 102.82 61.40 L 102.86 61.98 Z" />
</g>
</svg>
