<?xml version="1.0" encoding="UTF-8" ?>
<!DOCTYPE svg PUBLIC "-//W3C//DTD SVG 1.1//EN" "http://www.w3.org/Graphics/SVG/1.1/DTD/svg11.dtd">
<svg width="48pt" height="32pt" viewBox="0 0 48 32" version="1.1" xmlns="http://www.w3.org/2000/svg">
<g id="#939393ff">
<path fill="#939393" opacity="1.00" d=" M 0.00 0.00 L 48.00 0.00 L 48.00 32.00 L 0.00 32.00 L 0.00 0.00 M 2.09 1.97 C 1.98 11.33 2.01 20.69 2.08 30.04 C 16.61 30.40 31.29 30.64 45.79 29.92 C 46.08 20.61 45.97 11.28 45.92 1.97 C 31.35 1.50 16.66 1.49 2.09 1.97 Z" />
<path fill="#939393" opacity="1.00" d=" M 30.47 5.43 C 36.39 3.89 40.53 11.49 36.68 16.01 C 39.62 18.68 43.65 22.27 41.85 26.73 C 35.49 26.62 28.98 27.11 22.70 26.33 C 21.70 23.69 23.41 19.59 26.01 17.97 C 26.77 17.32 28.78 16.65 27.68 15.34 C 25.48 11.94 26.58 6.99 30.47 5.43 M 30.38 8.10 C 27.81 9.71 28.17 14.39 31.19 15.29 C 33.74 16.09 36.42 13.70 35.96 11.08 C 35.93 8.43 32.60 6.68 30.38 8.10 M 28.40 18.49 C 26.77 19.97 23.93 22.29 25.28 24.67 C 30.10 24.66 34.93 24.63 39.75 24.68 C 40.06 19.15 32.94 16.21 28.40 18.49 Z" />
<path fill="#939393" opacity="1.00" d=" M 6.13 6.98 C 11.03 6.47 16.03 6.50 20.93 6.92 C 20.91 7.38 20.85 8.30 20.83 8.75 C 16.89 8.87 12.96 8.69 9.02 8.80 C 7.88 8.93 5.44 8.79 6.13 6.98 Z" />
<path fill="#939393" opacity="1.00" d=" M 6.22 15.20 C 11.13 14.73 16.09 14.96 21.02 15.01 C 21.02 15.51 21.01 16.49 21.00 16.98 C 16.08 17.06 11.13 17.26 6.23 16.80 C 6.22 16.40 6.22 15.60 6.22 15.20 Z" />
<path fill="#939393" opacity="1.00" d=" M 7.30 23.25 C 10.50 23.10 13.70 23.19 16.90 23.22 C 18.05 26.68 12.95 24.88 10.99 25.37 C 9.32 25.59 3.67 25.20 7.30 23.25 Z" />
</g>
</svg>
