<?xml version="1.0" encoding="UTF-8" ?>
<!DOCTYPE svg PUBLIC "-//W3C//DTD SVG 1.1//EN" "http://www.w3.org/Graphics/SVG/1.1/DTD/svg11.dtd">
<svg width="120pt" height="70pt" viewBox="0 0 120 70" version="1.1" xmlns="http://www.w3.org/2000/svg">
<g id="#1d1d1d80">
<path fill="#1d1d1d" opacity="0.50" d=" M 12.46 0.00 L 80.86 0.00 C 82.13 1.98 84.43 3.58 82.68 6.57 C 79.90 16.07 78.08 25.82 75.39 35.33 C 75.23 35.94 74.91 37.15 74.75 37.75 C 73.41 39.10 72.10 40.48 70.87 41.93 C 48.01 42.02 25.14 42.12 2.28 41.86 C 1.97 41.33 1.34 40.26 1.02 39.72 C 3.98 26.69 4.04 10.80 12.46 0.00 Z" />
<path fill="#1d1d1d" opacity="0.50" d=" M 31.99 52.98 C 33.80 53.01 37.41 53.07 39.22 53.09 C 37.88 55.26 35.82 55.92 33.02 55.09 C 33.02 55.80 33.02 57.20 33.02 57.91 C 37.55 55.60 39.20 59.65 40.03 62.66 C 39.24 63.71 38.56 64.83 37.84 65.93 C 36.13 65.95 32.72 65.99 31.01 66.01 C 31.01 65.51 31.00 64.50 31.00 64.00 C 31.75 64.00 33.24 64.00 33.99 64.00 L 34.01 65.00 L 34.67 64.71 C 35.23 64.49 36.36 64.04 36.92 63.82 C 36.96 62.56 36.99 61.29 37.02 60.03 L 32.00 60.00 C 32.00 58.24 31.99 54.74 31.99 52.98 Z" />
<path fill="#1d1d1d" opacity="0.50" d=" M 42.10 55.16 C 44.03 52.69 47.00 52.78 49.96 52.94 C 49.97 53.46 49.99 54.49 50.01 55.01 C 49.51 55.01 48.51 55.00 48.01 55.00 L 47.93 53.95 C 47.52 54.03 46.70 54.18 46.29 54.25 C 45.74 54.49 44.64 54.97 44.09 55.21 C 44.07 55.87 44.02 57.21 43.99 57.87 C 45.53 58.16 48.61 58.73 50.14 59.01 C 50.54 61.55 50.16 63.92 49.00 66.12 C 45.30 67.60 41.88 66.01 41.57 62.37 C 40.87 60.87 40.60 59.02 41.75 57.66 C 41.84 57.04 42.02 55.79 42.10 55.16 M 44.00 60.00 C 44.00 61.33 44.00 62.67 44.00 64.00 L 45.00 64.00 L 45.00 65.00 C 45.50 65.00 46.50 65.00 47.00 65.00 L 47.00 64.00 L 48.00 64.00 C 48.00 62.67 48.00 61.33 48.00 60.00 C 46.67 60.00 45.33 60.00 44.00 60.00 Z" />
<path fill="#1d1d1d" opacity="0.50" d=" M 52.00 53.00 C 55.01 52.99 58.04 53.00 61.06 53.03 C 60.98 53.71 60.83 55.06 60.75 55.74 C 57.74 58.61 58.70 65.64 53.87 66.07 C 54.43 63.81 55.60 61.78 56.63 59.72 C 57.01 58.71 57.36 57.70 57.67 56.67 C 57.77 56.27 57.97 55.47 58.07 55.06 C 56.55 55.05 53.51 55.01 52.00 55.00 C 52.00 54.50 52.00 53.50 52.00 53.00 Z" />
</g>
<g id="#0e0e0e40">
<path fill="#0e0e0e" opacity="0.25" d=" M 80.86 0.00 L 115.70 0.00 C 116.02 0.58 116.66 1.73 116.98 2.30 C 115.99 14.38 111.75 26.03 108.83 37.75 C 99.48 47.78 82.92 39.22 70.87 41.93 C 72.10 40.48 73.41 39.10 74.75 37.75 C 74.91 37.15 75.23 35.94 75.39 35.33 C 78.08 25.82 79.90 16.07 82.68 6.57 C 84.43 3.58 82.13 1.98 80.86 0.00 Z" />
</g>
<g id="#161d206b">
<path fill="#161d20" opacity="0.42" d=" M 20.09 53.06 C 20.80 53.04 22.24 53.01 22.96 52.99 C 22.97 55.60 23.01 58.20 23.09 60.80 C 23.83 61.46 24.54 62.14 25.23 62.85 C 24.66 62.89 23.54 62.98 22.98 63.03 C 22.98 63.77 23.00 65.25 23.00 65.99 C 22.50 66.00 21.50 66.00 21.00 66.00 C 21.00 65.25 21.00 63.75 21.00 63.00 C 19.49 62.99 16.46 62.97 14.95 62.96 C 15.02 62.28 15.16 60.92 15.24 60.24 C 16.94 57.91 18.46 55.44 20.09 53.06 M 20.26 55.15 C 19.51 57.28 18.38 59.24 16.90 60.95 C 18.27 60.98 19.64 61.00 21.02 61.01 C 21.01 59.51 21.00 56.50 21.00 55.00 L 20.26 55.15 Z" />
<path fill="#161d20" opacity="0.42" d=" M 68.00 56.00 C 69.50 56.00 72.50 56.00 74.00 56.00 C 74.00 56.50 74.00 57.50 74.00 58.00 C 72.67 58.00 71.33 58.00 70.00 58.00 C 70.00 60.67 70.00 63.33 70.00 66.00 C 69.50 66.00 68.50 66.00 68.00 66.00 C 68.00 63.50 68.00 58.50 68.00 56.00 Z" />
</g>
<g id="#0203030c">
<path fill="#020303" opacity="0.05" d=" M 20.26 55.15 L 21.00 55.00 C 21.00 56.50 21.01 59.51 21.02 61.01 C 19.64 61.00 18.27 60.98 16.90 60.95 C 18.38 59.24 19.51 57.28 20.26 55.15 Z" />
</g>
<g id="#161d1f6a">
<path fill="#161d1f" opacity="0.42" d=" M 75.15 55.88 C 76.00 56.13 76.85 56.38 77.70 56.64 C 79.09 56.31 80.50 56.07 81.91 55.83 C 83.68 58.04 84.86 60.62 83.94 63.67 C 83.19 64.47 82.46 65.28 81.74 66.10 C 80.12 65.88 78.51 65.57 76.92 65.17 C 76.96 66.78 76.99 68.39 77.03 70.00 L 74.99 70.00 C 74.99 65.29 75.05 60.59 75.15 55.88 M 78.00 58.00 L 78.00 59.00 L 77.00 59.00 C 77.00 60.33 77.00 61.67 77.00 63.00 L 77.99 63.00 L 78.01 63.99 L 79.00 64.01 L 79.00 65.00 C 79.50 65.00 80.50 65.00 81.00 65.00 C 81.00 64.50 81.00 63.50 81.00 63.00 L 82.00 63.00 C 82.00 61.67 82.00 60.33 82.00 59.00 L 81.00 59.00 L 81.00 58.00 C 80.25 58.00 78.75 58.00 78.00 58.00 Z" />
</g>
<g id="#151c1e67">
<path fill="#151c1e" opacity="0.40" d=" M 86.00 56.00 C 86.50 56.00 87.50 56.00 88.00 56.00 C 88.00 57.33 88.00 58.67 88.00 60.00 L 93.00 60.00 C 93.00 58.67 93.00 57.33 93.00 56.00 C 93.50 56.00 94.50 56.00 95.00 56.00 C 95.00 58.50 95.00 63.50 95.00 66.00 C 94.50 66.00 93.50 66.00 93.00 66.00 C 93.00 64.67 93.00 63.33 93.00 62.00 L 88.00 62.00 C 88.00 63.33 88.00 64.67 88.00 66.00 C 87.50 66.00 86.50 66.00 86.00 66.00 C 86.00 63.50 86.00 58.50 86.00 56.00 Z" />
</g>
</svg>
