<?xml version="1.0" encoding="UTF-8" ?>
<!DOCTYPE svg PUBLIC "-//W3C//DTD SVG 1.1//EN" "http://www.w3.org/Graphics/SVG/1.1/DTD/svg11.dtd">
<svg width="57pt" height="38pt" viewBox="0 0 57 38" version="1.1" xmlns="http://www.w3.org/2000/svg">
<g id="#27272766">
<path fill="#272727" opacity="0.40" d=" M 2.01 0.00 L 53.99 0.00 C 54.02 4.62 54.09 9.25 53.91 13.87 C 36.64 13.96 19.36 13.96 2.09 13.87 C 1.91 9.25 1.98 4.62 2.01 0.00 Z" />
<path fill="#272727" opacity="0.40" d=" M 2.09 24.13 C 19.36 24.04 36.64 24.04 53.91 24.13 C 54.09 28.75 54.02 33.38 53.99 38.00 L 2.01 38.00 C 1.98 33.38 1.91 28.75 2.09 24.13 Z" />
</g>
<g id="#1d1d1d80">
<path fill="#1d1d1d" opacity="0.50" d=" M 0.00 18.00 C 18.67 18.05 37.34 17.90 56.00 18.07 C 56.00 18.53 56.00 19.47 56.00 19.93 C 37.34 20.10 18.67 19.95 0.00 20.00 L 0.00 18.00 Z" />
</g>
</svg>
