<?xml version="1.0" encoding="UTF-8" ?>
<!DOCTYPE svg PUBLIC "-//W3C//DTD SVG 1.1//EN" "http://www.w3.org/Graphics/SVG/1.1/DTD/svg11.dtd">
<svg width="56pt" height="37pt" viewBox="0 0 56 37" version="1.1" xmlns="http://www.w3.org/2000/svg">
<g id="#1d1d1d80">
<path fill="#1d1d1d" opacity="0.50" d=" M 0.00 1.00 C 18.67 1.00 37.33 1.00 56.00 1.00 L 56.00 3.00 C 37.33 3.00 18.67 3.00 0.00 3.00 L 0.00 1.00 Z" />
<path fill="#1d1d1d" opacity="0.50" d=" M 0.00 8.00 C 18.67 8.00 37.33 8.00 56.00 8.00 L 56.00 10.00 C 37.33 10.00 18.67 10.00 0.00 10.00 L 0.00 8.00 Z" />
<path fill="#1d1d1d" opacity="0.50" d=" M 0.00 15.00 C 12.67 15.02 25.33 14.97 38.00 15.02 C 38.00 15.51 38.00 16.49 38.00 16.98 C 25.34 17.03 12.67 16.98 0.00 17.00 L 0.00 15.00 Z" />
<path fill="#1d1d1d" opacity="0.50" d=" M 0.00 22.00 C 18.67 22.00 37.33 22.00 56.00 22.00 L 56.00 37.00 L 0.00 37.00 L 0.00 22.00 Z" />
</g>
</svg>
