<?xml version="1.0" encoding="UTF-8" ?>
<!DOCTYPE svg PUBLIC "-//W3C//DTD SVG 1.1//EN" "http://www.w3.org/Graphics/SVG/1.1/DTD/svg11.dtd">
<svg width="61pt" height="42pt" viewBox="0 0 61 42" version="1.1" xmlns="http://www.w3.org/2000/svg">
<g id="#1d1d1d80">
<path fill="#1d1d1d" opacity="0.50" d=" M 0.00 0.00 L 28.88 0.00 C 28.89 6.65 28.89 13.30 28.88 19.94 C 19.26 19.64 9.62 19.66 0.00 19.93 L 0.00 0.00 M 1.36 1.05 C 1.32 6.97 1.56 12.90 1.25 18.82 C 10.08 18.92 18.91 18.90 27.73 18.82 C 27.49 12.90 27.59 6.98 27.62 1.05 C 18.87 0.71 10.11 0.79 1.36 1.05 Z" />
<path fill="#1d1d1d" opacity="0.50" d=" M 32.11 0.00 L 61.00 0.00 L 61.00 19.90 C 51.37 19.70 41.74 19.63 32.11 19.94 C 32.10 13.30 32.11 6.65 32.11 0.00 M 33.34 1.06 C 33.32 6.97 33.56 12.89 33.25 18.80 C 42.07 18.91 50.91 18.95 59.73 18.82 C 59.49 12.90 59.59 6.98 59.63 1.07 C 50.87 0.77 42.10 0.74 33.34 1.06 Z" />
<path fill="#1d1d1d" opacity="0.50" d=" M 3.06 4.06 C 3.31 2.47 5.64 2.16 6.45 3.57 C 7.99 4.89 6.00 6.65 4.94 7.52 C 3.85 6.68 2.19 5.71 3.06 4.06 Z" />
<path fill="#1d1d1d" opacity="0.50" d=" M 35.29 3.32 C 37.16 1.21 40.42 4.56 38.32 6.35 C 36.42 8.36 33.62 5.40 35.29 3.32 Z" />
<path fill="#1d1d1d" opacity="0.50" d=" M 11.22 13.82 C 13.33 11.00 15.03 7.82 17.68 5.44 C 20.65 9.69 23.79 13.82 26.60 18.18 C 18.53 18.30 10.45 18.31 2.38 18.19 C 4.18 15.38 6.11 12.67 8.14 10.03 C 9.16 11.31 10.20 12.55 11.22 13.82 Z" />
<path fill="#1d1d1d" opacity="0.50" d=" M 43.22 13.83 C 45.34 11.01 47.01 7.79 49.71 5.44 C 52.64 9.72 55.82 13.82 58.60 18.20 C 50.53 18.32 42.46 18.32 34.39 18.17 C 36.19 15.38 38.11 12.67 40.13 10.04 C 41.15 11.31 42.21 12.55 43.22 13.83 Z" />
<path fill="#1d1d1d" opacity="0.50" d=" M 0.00 22.10 C 9.63 21.94 19.27 21.98 28.90 22.07 C 28.88 28.71 28.89 35.35 28.88 42.00 L 0.00 42.00 L 0.00 22.10 M 1.34 23.07 C 1.33 28.99 1.55 34.91 1.26 40.82 C 10.08 40.93 18.91 40.94 27.74 40.81 C 27.48 34.89 27.59 28.97 27.62 23.05 C 18.87 22.84 10.10 22.82 1.34 23.07 Z" />
<path fill="#1d1d1d" opacity="0.50" d=" M 32.10 22.06 C 41.73 21.97 51.37 21.95 61.00 22.08 L 61.00 42.00 L 32.12 42.00 C 32.10 35.35 32.11 28.71 32.10 22.06 M 33.34 23.07 C 33.33 28.98 33.55 34.90 33.25 40.82 C 42.08 40.92 50.91 40.94 59.74 40.80 C 59.48 34.88 59.60 28.96 59.62 23.04 C 50.86 22.86 42.09 22.80 33.34 23.07 Z" />
<path fill="#1d1d1d" opacity="0.50" d=" M 3.28 25.32 C 5.63 23.02 8.61 27.29 5.84 28.84 C 3.55 29.80 2.05 27.19 3.28 25.32 Z" />
<path fill="#1d1d1d" opacity="0.50" d=" M 34.92 25.98 C 36.15 23.57 38.64 25.15 39.44 26.97 C 38.44 29.77 33.90 29.40 34.92 25.98 Z" />
<path fill="#1d1d1d" opacity="0.50" d=" M 11.22 35.83 C 13.32 33.00 15.04 29.84 17.66 27.44 C 20.66 31.67 23.77 35.82 26.60 40.18 C 18.53 40.34 10.45 40.32 2.38 40.20 C 4.17 37.39 6.11 34.67 8.15 32.04 C 9.16 33.31 10.20 34.56 11.22 35.83 Z" />
<path fill="#1d1d1d" opacity="0.50" d=" M 43.22 35.83 C 45.37 33.03 46.97 29.72 49.76 27.47 C 52.63 31.75 55.80 35.82 58.59 40.16 C 50.52 40.36 42.45 40.30 34.38 40.19 C 36.18 37.39 38.10 34.68 40.13 32.04 C 41.15 33.31 42.20 34.55 43.22 35.83 Z" />
</g>
</svg>
