<?xml version="1.0" encoding="UTF-8" ?>
<!DOCTYPE svg PUBLIC "-//W3C//DTD SVG 1.1//EN" "http://www.w3.org/Graphics/SVG/1.1/DTD/svg11.dtd">
<svg width="33pt" height="21pt" viewBox="0 0 33 21" version="1.1" xmlns="http://www.w3.org/2000/svg">
<g id="#2f2f2fcc">
<path fill="#2f2f2f" opacity="0.80" d=" M 0.64 0.00 L 3.97 0.00 C 3.98 3.00 3.99 5.99 4.02 8.99 C 7.02 9.02 10.03 9.02 13.03 8.97 C 13.08 5.98 13.10 2.99 13.09 0.00 L 16.40 0.00 C 16.39 6.81 16.45 13.62 16.37 20.43 C 15.56 20.45 13.94 20.48 13.13 20.50 C 13.10 17.49 13.06 14.48 12.98 11.48 C 10.01 11.44 7.03 11.44 4.06 11.47 C 4.01 14.47 3.98 17.47 3.95 20.48 C 3.12 20.47 1.46 20.45 0.63 20.44 C 0.56 13.63 0.58 6.81 0.64 0.00 Z" />
<path fill="#2f2f2f" opacity="0.80" d=" M 22.19 2.38 C 24.33 1.78 26.49 1.21 28.66 0.71 C 29.16 6.43 28.83 12.18 28.94 17.91 C 29.81 17.95 31.55 18.04 32.42 18.09 C 32.56 18.66 32.85 19.82 32.99 20.39 C 29.22 20.49 25.45 20.49 21.67 20.43 C 21.81 19.85 22.09 18.69 22.22 18.12 C 23.36 18.00 24.49 17.92 25.63 17.87 C 25.58 13.34 25.61 8.81 25.57 4.28 C 24.35 4.60 23.13 4.91 21.91 5.22 C 21.98 4.51 22.12 3.09 22.19 2.38 Z" />
</g>
</svg>
