<?xml version="1.0" encoding="UTF-8" ?>
<!DOCTYPE svg PUBLIC "-//W3C//DTD SVG 1.1//EN" "http://www.w3.org/Graphics/SVG/1.1/DTD/svg11.dtd">
<svg width="40pt" height="24pt" viewBox="0 0 40 24" version="1.1" xmlns="http://www.w3.org/2000/svg">
<g id="#2f2f2fcc">
<path fill="#2f2f2f" opacity="0.80" d=" M 1.54 0.00 L 5.40 0.00 C 5.38 2.99 5.40 5.97 5.40 8.96 C 9.01 9.02 12.63 9.03 16.25 8.97 C 16.26 5.98 16.29 2.99 16.26 0.00 L 20.06 0.00 C 20.07 7.81 20.12 15.61 20.03 23.42 C 19.09 23.45 17.22 23.50 16.28 23.53 C 16.31 19.86 16.25 16.20 16.22 12.53 C 12.62 12.44 9.02 12.42 5.42 12.48 C 5.42 16.13 5.37 19.79 5.40 23.44 C 4.43 23.45 2.51 23.47 1.55 23.49 C 1.52 15.66 1.54 7.83 1.54 0.00 Z" />
<path fill="#2f2f2f" opacity="0.80" d=" M 29.51 0.00 L 34.33 0.00 C 36.79 0.74 38.74 2.41 40.00 4.62 L 40.00 6.88 C 38.20 13.16 30.38 14.07 27.80 19.88 C 31.87 20.01 35.93 20.01 40.00 20.10 L 40.00 23.42 C 34.64 23.38 29.26 23.76 23.92 23.15 C 22.90 16.60 29.06 12.86 33.66 9.68 C 35.52 8.73 36.82 5.76 34.62 4.46 C 31.83 2.16 28.50 4.43 25.82 5.68 C 25.22 4.75 24.61 3.82 23.99 2.89 C 25.78 1.83 27.57 0.76 29.51 0.00 Z" />
</g>
</svg>
