<?xml version="1.0" encoding="UTF-8" ?>
<!DOCTYPE svg PUBLIC "-//W3C//DTD SVG 1.1//EN" "http://www.w3.org/Graphics/SVG/1.1/DTD/svg11.dtd">
<svg width="51pt" height="51pt" viewBox="0 0 51 51" version="1.1" xmlns="http://www.w3.org/2000/svg">
<g id="#9a9a9aff">
<path fill="#9a9a9a" opacity="1.00" d=" M 19.59 4.55 C 25.17 1.80 32.59 3.91 35.73 9.31 C 37.95 12.91 37.64 17.46 36.15 21.27 C 34.00 27.12 29.43 31.56 25.12 35.88 C 19.97 31.29 15.02 25.96 13.14 19.14 C 11.36 13.56 14.11 6.85 19.59 4.55 M 22.43 9.53 C 17.68 11.20 16.72 18.35 20.85 21.24 C 24.85 24.80 31.98 21.33 31.71 16.00 C 32.18 11.21 26.73 7.66 22.43 9.53 Z" />
<path fill="#9a9a9a" opacity="1.00" d=" M 6.82 19.28 C 8.36 19.82 9.89 20.38 11.37 21.05 C 10.51 21.30 8.78 21.81 7.92 22.06 C 5.86 27.64 4.95 33.55 3.31 39.25 C 6.10 40.98 8.86 42.74 11.62 44.52 C 12.60 39.80 12.77 34.89 14.22 30.30 L 15.61 29.35 C 15.13 34.56 14.05 39.68 13.42 44.87 C 16.89 43.92 20.35 42.94 23.78 41.87 C 24.13 40.44 24.55 39.03 25.04 37.64 C 25.49 39.04 25.88 40.46 26.19 41.90 C 29.64 42.97 33.13 43.90 36.62 44.85 C 35.85 39.81 35.33 34.74 34.36 29.74 C 34.79 29.77 35.64 29.83 36.07 29.86 C 36.78 34.77 37.69 39.66 38.33 44.58 C 41.06 42.84 43.93 41.30 46.56 39.40 C 45.44 33.52 43.72 27.74 42.15 21.96 C 40.96 21.71 39.78 21.42 38.61 21.10 C 40.08 20.40 41.61 19.82 43.15 19.29 C 45.01 26.22 46.80 33.17 48.60 40.11 C 45.01 42.34 41.37 44.47 37.83 46.76 C 33.50 45.91 29.37 44.24 25.02 43.54 C 20.66 44.22 16.54 45.93 12.21 46.76 C 8.63 44.51 4.95 42.42 1.40 40.11 C 3.35 33.21 4.88 26.19 6.82 19.28 Z" />
</g>
</svg>
