<?xml version="1.0" encoding="UTF-8" ?>
<!DOCTYPE svg PUBLIC "-//W3C//DTD SVG 1.1//EN" "http://www.w3.org/Graphics/SVG/1.1/DTD/svg11.dtd">
<svg width="47pt" height="42pt" viewBox="0 0 47 42" version="1.1" xmlns="http://www.w3.org/2000/svg">
<g id="#1d1d1d80">
<path fill="#1d1d1d" opacity="0.50" d=" M 0.39 0.00 L 46.55 0.00 C 46.77 9.61 46.82 19.24 46.54 28.85 C 31.67 28.83 16.80 29.00 1.93 28.79 C -0.24 29.18 0.51 26.26 0.25 25.03 C 0.35 16.68 0.21 8.34 0.39 0.00 M 2.13 2.09 C 2.13 10.34 2.23 18.59 2.06 26.84 C 16.35 26.87 30.64 26.85 44.92 26.85 C 44.78 18.60 44.86 10.34 44.86 2.09 C 30.62 2.07 16.37 2.06 2.13 2.09 Z" />
<path fill="#1d1d1d" opacity="0.50" d=" M 5.46 5.44 C 7.82 2.54 13.46 6.54 10.39 9.38 C 8.05 12.68 1.93 8.28 5.46 5.44 Z" />
<path fill="#1d1d1d" opacity="0.50" d=" M 18.14 19.77 C 21.44 15.92 24.51 11.88 28.09 8.28 C 33.76 13.59 38.32 19.95 43.35 25.85 C 30.11 25.83 16.87 25.83 3.63 25.85 C 6.05 22.85 8.47 19.84 11.01 16.94 C 11.79 16.13 12.60 15.06 13.87 15.12 C 15.53 16.43 16.78 18.16 18.14 19.77 Z" />
<path fill="#1d1d1d" opacity="0.50" d=" M 0.00 33.00 C 15.67 33.00 31.33 33.00 47.00 33.00 L 47.00 35.00 C 31.33 35.00 15.67 35.00 0.00 35.00 L 0.00 33.00 Z" />
<path fill="#1d1d1d" opacity="0.50" d=" M 0.00 40.00 C 10.00 40.02 20.00 39.98 30.00 39.98 C 31.74 39.68 32.93 40.95 34.10 42.00 L 0.00 42.00 L 0.00 40.00 Z" />
</g>
</svg>
