<?xml version="1.0" encoding="UTF-8" ?>
<!DOCTYPE svg PUBLIC "-//W3C//DTD SVG 1.1//EN" "http://www.w3.org/Graphics/SVG/1.1/DTD/svg11.dtd">
<svg width="38pt" height="31pt" viewBox="0 0 38 31" version="1.1" xmlns="http://www.w3.org/2000/svg">
<g id="#2c2c2c49">
<path fill="#2c2c2c" opacity="0.29" d=" M 0.00 0.00 L 0.19 0.00 C 0.14 0.06 0.05 0.17 0.00 0.23 L 0.00 0.00 Z" />
<path fill="#2c2c2c" opacity="0.29" d=" M 37.77 0.00 L 38.00 0.00 L 38.00 0.19 C 37.94 0.14 37.83 0.05 37.77 0.00 Z" />
</g>
<g id="#9a9a9aff">
<path fill="#9a9a9a" opacity="1.00" d=" M 0.19 0.00 L 37.77 0.00 C 37.83 0.05 37.94 0.14 38.00 0.19 L 38.00 6.41 C 36.36 6.76 34.69 7.04 33.01 7.02 C 25.67 7.00 18.33 6.99 10.99 7.00 C 7.32 6.99 3.61 7.25 0.00 6.46 L 0.00 0.23 C 0.05 0.17 0.14 0.06 0.19 0.00 Z" />
<path fill="#9a9a9a" opacity="1.00" d=" M 0.00 12.60 C 1.64 12.24 3.31 11.96 5.00 11.98 C 14.00 12.00 23.00 12.03 32.00 11.97 C 34.02 11.93 36.02 12.16 38.00 12.55 L 38.00 18.41 C 36.36 18.77 34.69 19.03 33.00 19.02 C 24.00 19.00 15.00 18.97 6.00 19.03 C 3.98 19.07 1.98 18.84 0.00 18.46 L 0.00 12.60 Z" />
<path fill="#9a9a9a" opacity="1.00" d=" M 0.00 24.60 C 3.27 23.76 6.66 24.00 9.99 23.99 C 17.33 24.00 24.67 24.01 32.00 23.97 C 34.02 23.93 36.02 24.16 38.00 24.54 L 38.00 30.77 C 37.95 30.83 37.86 30.94 37.81 31.00 L 0.23 31.00 C 0.17 30.95 0.06 30.86 0.00 30.81 L 0.00 24.60 Z" />
</g>
<g id="#2c2c2c4a">
<path fill="#2c2c2c" opacity="0.29" d=" M 0.00 30.81 C 0.06 30.86 0.17 30.95 0.23 31.00 L 0.00 31.00 L 0.00 30.81 Z" />
<path fill="#2c2c2c" opacity="0.29" d=" M 37.81 31.00 C 37.86 30.94 37.95 30.83 38.00 30.77 L 38.00 31.00 L 37.81 31.00 Z" />
</g>
</svg>
