<?xml version="1.0" encoding="UTF-8" ?>
<!DOCTYPE svg PUBLIC "-//W3C//DTD SVG 1.1//EN" "http://www.w3.org/Graphics/SVG/1.1/DTD/svg11.dtd">
<svg width="50pt" height="16pt" viewBox="0 0 50 16" version="1.1" xmlns="http://www.w3.org/2000/svg">
<g id="#2f2f2fcb">
<path fill="#2f2f2f" opacity="0.80" d=" M 5.38 0.00 L 8.42 0.00 C 6.92 2.52 5.56 5.12 4.13 7.68 C 5.65 10.10 7.11 12.55 8.53 15.02 C 7.72 15.00 6.11 14.96 5.30 14.94 C 3.87 12.60 2.21 10.37 1.18 7.82 C 1.72 4.90 3.84 2.49 5.38 0.00 Z" />
<path fill="#2f2f2f" opacity="0.80" d=" M 10.95 0.00 L 13.97 0.00 C 12.52 2.59 11.07 5.18 9.63 7.77 C 11.17 10.16 12.66 12.57 14.12 15.00 C 13.35 15.00 11.81 15.01 11.04 15.01 C 9.55 12.46 7.15 10.13 6.80 7.13 C 7.84 4.57 9.40 2.27 10.95 0.00 Z" />
<path fill="#2f2f2f" opacity="0.80" d=" M 36.34 0.00 L 39.46 0.00 C 41.01 2.32 42.64 4.64 43.69 7.24 C 43.17 10.06 41.04 12.34 39.69 14.83 C 38.83 14.88 37.10 14.99 36.23 15.04 C 37.71 12.58 39.20 10.14 40.73 7.70 C 39.32 5.11 37.94 2.49 36.34 0.00 Z" />
<path fill="#2f2f2f" opacity="0.80" d=" M 41.95 0.00 L 45.08 0.00 C 46.59 2.29 48.16 4.57 49.20 7.12 C 48.82 10.11 46.44 12.44 44.98 15.01 C 44.21 15.01 42.66 15.01 41.88 15.00 C 43.34 12.57 44.83 10.16 46.37 7.78 C 44.91 5.17 43.53 2.53 41.95 0.00 Z" />
<path fill="#2f2f2f" opacity="0.80" d=" M 18.10 11.91 C 20.68 11.50 20.19 14.33 20.56 16.00 L 17.48 16.00 C 17.20 14.57 16.53 12.86 18.10 11.91 Z" />
<path fill="#2f2f2f" opacity="0.80" d=" M 23.69 16.00 C 23.47 14.29 23.37 11.53 25.92 11.89 C 27.41 12.90 26.71 14.56 26.51 16.00 L 23.69 16.00 Z" />
<path fill="#2f2f2f" opacity="0.80" d=" M 29.73 16.00 C 29.39 14.32 29.42 11.47 31.91 11.91 C 33.44 12.89 32.70 14.57 32.51 16.00 L 29.73 16.00 Z" />
</g>
</svg>
