<?xml version="1.0" encoding="UTF-8" ?>
<!DOCTYPE svg PUBLIC "-//W3C//DTD SVG 1.1//EN" "http://www.w3.org/Graphics/SVG/1.1/DTD/svg11.dtd">
<svg width="200pt" height="176pt" viewBox="0 0 200 176" version="1.1" xmlns="http://www.w3.org/2000/svg">
<g id="#1b1a1a36">
<path fill="#1b1a1a" opacity="0.21" d=" M 84.93 0.00 L 94.05 0.00 C 97.73 1.71 101.80 2.57 105.19 4.88 C 96.59 1.52 87.10 2.02 78.11 3.13 C 80.37 2.07 82.63 1.00 84.93 0.00 Z" />
</g>
<g id="#4542428a">
<path fill="#454242" opacity="0.54" d=" M 78.11 3.13 C 87.10 2.02 96.59 1.52 105.19 4.88 C 112.17 9.50 118.45 15.98 121.00 24.11 C 121.95 28.67 121.45 33.37 121.56 37.99 C 121.87 45.25 117.75 51.86 113.03 57.03 C 107.85 61.73 101.28 66.00 93.99 65.55 C 88.41 65.33 82.51 66.33 77.25 63.95 C 68.84 60.75 62.45 53.49 58.93 45.37 C 57.15 38.43 57.15 30.99 58.82 24.03 C 61.83 14.68 69.52 7.48 78.11 3.13 M 87.47 5.57 C 76.66 5.44 67.55 13.35 62.86 22.56 C 61.13 29.45 60.85 36.82 62.56 43.76 C 65.48 51.93 72.44 58.01 80.23 61.41 C 86.59 62.34 93.17 62.58 99.49 61.23 C 109.02 57.03 118.53 48.24 117.83 36.99 C 117.77 33.07 118.05 29.11 117.47 25.22 C 114.50 17.13 108.11 10.64 100.47 6.81 C 96.24 5.75 91.82 5.34 87.47 5.57 Z" />
</g>
<g id="#7e7a7afb">
<path fill="#7e7a7a" opacity="1.00" d=" M 85.37 27.43 C 85.07 23.78 85.53 19.73 89.07 17.76 C 92.16 17.04 95.37 17.40 98.50 17.50 C 98.55 19.07 98.59 20.65 98.64 22.23 C 96.90 22.73 95.18 23.25 93.44 23.73 C 93.40 25.59 93.40 27.46 93.40 29.32 C 95.06 29.38 96.73 29.45 98.40 29.55 C 98.45 31.09 98.50 32.64 98.54 34.19 C 96.90 34.75 95.25 35.29 93.59 35.78 C 91.81 41.32 93.18 47.17 92.42 52.84 C 90.25 52.81 88.08 52.80 85.92 52.57 C 84.43 48.01 86.16 42.85 85.09 38.13 C 83.46 35.57 80.57 33.40 81.40 29.98 C 82.73 29.15 84.05 28.28 85.37 27.43 Z" />
</g>
<g id="#44424289">
<path fill="#444242" opacity="0.54" d=" M 146.55 34.81 C 153.93 33.18 161.53 33.83 168.98 34.56 C 170.67 37.00 173.98 37.06 176.16 38.86 C 181.97 43.63 187.26 49.57 189.30 56.96 C 189.67 59.62 189.50 62.32 189.53 65.01 C 189.44 69.88 190.20 75.11 187.50 79.47 C 183.82 88.18 175.95 94.52 167.06 97.32 C 164.38 97.67 161.67 97.48 158.98 97.50 C 154.40 97.37 149.52 98.22 145.31 95.93 C 136.75 92.88 130.62 85.41 126.85 77.42 C 125.28 70.14 125.07 62.43 127.02 55.20 C 130.42 46.07 138.05 39.18 146.55 34.81 M 155.47 37.58 C 144.66 37.44 135.55 45.35 130.86 54.56 C 129.42 60.25 129.02 66.27 129.85 72.10 C 130.59 79.38 135.86 85.24 141.45 89.50 C 144.05 91.25 146.67 93.48 149.94 93.66 C 155.76 94.30 161.73 94.46 167.48 93.23 C 177.01 89.03 186.53 80.24 185.82 68.99 C 185.76 65.07 186.04 61.11 185.47 57.22 C 182.49 49.13 176.11 42.65 168.47 38.82 C 164.24 37.76 159.83 37.33 155.47 37.58 Z" />
<path fill="#444242" opacity="0.54" d=" M 152.14 112.10 C 155.06 110.20 158.64 110.09 162.01 109.83 C 166.59 109.64 171.23 109.71 175.74 110.60 C 184.86 113.79 192.11 121.13 196.32 129.72 C 198.16 133.19 197.66 137.23 197.76 141.01 C 197.63 144.79 198.10 148.69 197.09 152.39 C 195.53 156.43 193.13 160.11 190.44 163.49 C 186.92 167.89 181.66 170.21 176.99 173.11 C 168.30 173.32 159.10 174.73 150.89 171.10 C 145.46 168.10 140.85 163.74 137.58 158.45 C 133.14 152.32 133.36 144.29 133.89 137.10 C 134.77 126.13 143.08 117.44 152.14 112.10 M 163.47 113.58 C 152.79 113.27 144.34 121.42 139.13 129.94 C 137.40 134.91 137.23 140.35 137.56 145.57 C 137.94 153.89 143.07 161.54 150.00 165.94 C 152.49 167.45 154.89 169.54 157.94 169.67 C 163.53 170.33 169.22 170.35 174.78 169.43 C 182.16 166.65 188.49 161.11 192.03 154.03 C 194.24 150.77 193.72 146.70 193.83 142.99 C 193.77 139.73 193.98 136.44 193.47 133.22 C 190.50 125.13 184.11 118.64 176.47 114.82 C 172.24 113.75 167.83 113.33 163.47 113.58 Z" />
</g>
<g id="#686565d1">
<path fill="#686565" opacity="0.82" d=" M 147.62 54.77 C 151.27 53.70 155.10 53.47 158.87 53.85 L 158.86 54.85 C 158.79 57.71 158.81 60.58 158.61 63.44 C 158.21 65.07 156.57 66.19 156.40 67.87 C 157.43 70.47 160.73 71.93 160.68 74.99 C 161.33 80.05 155.65 83.93 150.97 83.38 C 147.35 83.03 142.44 81.38 142.38 77.01 C 141.87 72.81 146.21 71.15 148.95 69.12 C 147.05 66.89 144.52 64.95 143.65 62.02 C 143.16 59.07 145.50 56.51 147.62 54.77 M 149.90 63.05 C 150.40 65.24 152.91 64.44 154.53 64.63 C 154.66 62.00 155.15 58.62 151.95 57.64 C 148.87 57.08 148.69 61.16 149.90 63.05 M 150.26 72.98 C 149.00 73.90 146.96 74.93 147.42 76.80 C 148.10 80.11 153.36 80.59 155.35 78.31 C 158.52 75.54 153.05 71.09 150.26 72.98 Z" />
</g>
<g id="#5c5959b8">
<path fill="#5c5959" opacity="0.72" d=" M 158.86 54.85 C 160.22 56.52 160.38 58.72 160.82 60.75 C 162.39 60.36 163.95 59.95 165.51 59.54 C 165.89 58.12 166.27 56.70 166.63 55.27 C 167.61 55.24 168.59 55.22 169.57 55.21 C 169.92 56.56 170.27 57.90 170.61 59.25 C 172.89 59.65 176.27 60.29 174.82 63.37 C 173.36 63.68 171.90 64.02 170.46 64.37 C 170.09 65.77 169.71 67.16 169.36 68.56 C 168.49 68.58 167.64 68.59 166.78 68.59 C 166.44 66.84 165.92 65.15 165.25 63.50 C 163.04 63.47 160.82 63.46 158.61 63.44 C 158.81 60.58 158.79 57.71 158.86 54.85 Z" />
</g>
<g id="#12121225">
<path fill="#121212" opacity="0.15" d=" M 82.87 66.36 C 87.25 65.48 91.77 65.46 96.16 66.32 C 92.27 69.02 86.82 68.86 82.87 66.36 Z" />
<path fill="#121212" opacity="0.15" d=" M 150.87 98.38 C 155.25 97.48 159.78 97.44 164.17 98.32 C 160.28 101.05 154.83 100.82 150.87 98.38 Z" />
</g>
<g id="#3d3b3b7a">
<path fill="#3d3b3b" opacity="0.48" d=" M 55.23 84.13 C 58.17 84.22 61.95 83.15 63.96 85.99 C 68.38 91.15 74.47 94.34 80.08 97.98 C 90.74 104.96 101.00 112.56 111.71 119.44 C 112.20 122.45 113.13 127.07 109.59 128.55 C 98.01 134.96 87.65 143.24 76.89 150.87 C 72.05 154.38 67.48 158.39 62.05 160.99 C 59.47 162.38 55.62 161.37 54.78 158.36 C 53.54 152.37 55.35 146.14 53.92 140.19 C 52.88 139.29 51.48 139.14 50.17 139.29 C 43.78 140.01 37.26 141.07 31.62 144.35 C 23.11 147.98 16.69 154.86 10.66 161.64 C 9.50 162.90 9.03 164.56 8.45 166.13 C 32.95 166.61 57.48 166.23 82.00 166.42 C 85.69 166.47 89.38 166.33 93.06 166.09 C 95.98 157.37 92.93 148.03 95.27 139.20 C 97.25 139.26 99.28 139.13 101.20 139.72 C 102.59 150.19 102.14 160.80 101.34 171.32 C 100.79 171.45 99.68 171.71 99.12 171.84 C 100.28 161.76 99.77 151.58 99.66 141.46 C 98.97 141.36 97.59 141.16 96.90 141.06 C 95.04 149.11 97.72 157.53 95.52 165.52 C 94.58 168.14 91.37 168.18 89.06 168.34 C 65.03 168.43 40.99 168.24 16.97 168.33 C 13.71 168.09 8.29 170.22 6.94 165.96 C 7.20 163.85 8.03 161.86 8.86 159.93 C 16.40 151.43 24.89 143.19 35.69 139.08 C 40.50 137.89 45.21 136.23 50.10 135.40 C 53.15 134.83 56.43 136.70 57.04 139.84 C 58.55 146.13 56.52 152.58 57.24 158.94 C 62.20 159.05 65.71 155.16 69.59 152.69 C 80.70 145.12 90.99 136.36 102.61 129.55 C 105.55 127.70 108.17 125.41 110.69 123.03 C 104.69 117.61 97.60 113.64 91.13 108.84 C 82.28 102.25 72.51 96.98 63.78 90.22 C 62.06 89.00 60.29 87.53 58.08 87.49 C 56.56 88.42 57.33 90.55 57.12 92.01 C 57.49 97.53 57.79 103.05 57.50 108.57 C 49.65 110.39 41.54 111.55 34.19 115.05 C 26.14 118.91 18.15 123.84 13.10 131.41 C 12.80 130.98 12.20 130.13 11.90 129.70 C 14.56 124.29 19.97 121.24 24.47 117.57 C 29.85 113.75 35.95 109.93 42.86 110.66 C 41.93 110.16 41.01 109.66 40.08 109.16 C 44.89 108.00 49.82 107.45 54.76 107.57 L 54.62 106.87 C 54.65 99.29 54.22 91.67 55.23 84.13 Z" />
<path fill="#3d3b3b" opacity="0.48" d=" M 0.00 96.05 C 11.64 95.05 23.34 95.74 35.00 95.55 C 40.49 95.70 46.20 94.72 51.46 96.80 C 51.37 99.02 51.27 101.23 51.16 103.45 C 35.95 104.77 20.68 104.00 5.44 104.43 C 5.50 115.29 5.37 126.14 5.36 137.00 C 6.72 136.12 8.08 135.26 9.41 134.34 C 8.45 136.17 7.33 137.90 6.09 139.54 C 4.51 138.08 2.63 136.50 3.29 134.09 C 4.27 125.40 4.35 116.66 3.97 107.94 C 3.61 105.07 5.28 101.67 8.51 101.68 C 14.33 101.38 20.17 101.64 26.00 101.36 C 33.33 101.06 40.72 102.03 48.00 100.91 C 49.99 98.14 45.98 97.61 44.03 97.62 C 34.02 97.55 24.01 97.73 14.00 97.59 C 9.30 97.49 4.57 97.72 0.00 98.88 L 0.00 96.05 Z" />
</g>
<g id="#7a7777f5">
<path fill="#7a7777" opacity="0.96" d=" M 57.12 92.01 C 57.33 90.55 56.56 88.42 58.08 87.49 C 60.29 87.53 62.06 89.00 63.78 90.22 C 72.51 96.98 82.28 102.25 91.13 108.84 C 97.60 113.64 104.69 117.61 110.69 123.03 C 108.17 125.41 105.55 127.70 102.61 129.55 C 90.99 136.36 80.70 145.12 69.59 152.69 C 65.71 155.16 62.20 159.05 57.24 158.94 C 56.52 152.58 58.55 146.13 57.04 139.84 C 56.43 136.70 53.15 134.83 50.10 135.40 C 45.21 136.23 40.50 137.89 35.69 139.08 C 24.89 143.19 16.40 151.43 8.86 159.93 C 5.44 162.95 5.84 167.83 5.08 171.94 C 3.39 171.90 1.69 171.85 0.00 171.81 L 0.00 144.41 C 2.78 142.33 5.93 140.79 8.62 138.59 C 10.86 136.76 12.03 134.02 13.10 131.41 C 18.15 123.84 26.14 118.91 34.19 115.05 C 41.54 111.55 49.65 110.39 57.50 108.57 C 57.79 103.05 57.49 97.53 57.12 92.01 Z" />
</g>
<g id="#605d5dc1">
<path fill="#605d5d" opacity="0.76" d=" M 0.00 98.88 C 4.57 97.72 9.30 97.49 14.00 97.59 C 24.01 97.73 34.02 97.55 44.03 97.62 C 45.98 97.61 49.99 98.14 48.00 100.91 C 40.72 102.03 33.33 101.06 26.00 101.36 C 20.17 101.64 14.33 101.38 8.51 101.68 C 5.28 101.67 3.61 105.07 3.97 107.94 C 4.35 116.66 4.27 125.40 3.29 134.09 C 2.63 136.50 4.51 138.08 6.09 139.54 C 7.33 137.90 8.45 136.17 9.41 134.34 C 10.26 132.80 11.05 131.24 11.90 129.70 C 12.20 130.13 12.80 130.98 13.10 131.41 C 12.03 134.02 10.86 136.76 8.62 138.59 C 5.93 140.79 2.78 142.33 0.00 144.41 L 0.00 98.88 Z" />
</g>
<g id="#403e3e80">
<path fill="#403e3e" opacity="0.50" d=" M 171.43 127.59 C 176.23 126.48 181.02 128.32 185.82 128.58 C 186.95 130.82 186.41 133.17 185.21 135.25 C 183.17 138.82 184.20 143.33 181.81 146.75 C 178.81 152.46 173.76 157.07 167.76 159.42 C 162.92 160.00 158.00 159.89 153.15 159.53 C 151.01 159.57 150.46 157.30 150.18 155.63 C 152.06 154.85 153.92 153.98 155.75 153.06 C 153.75 148.25 148.88 144.26 149.61 138.66 C 149.59 135.32 147.38 131.87 150.24 129.04 C 155.24 130.91 158.84 136.32 164.69 135.75 C 167.48 133.60 168.07 129.26 171.43 127.59 M 169.80 130.71 C 168.83 133.23 168.90 136.67 166.48 138.32 C 160.88 138.90 156.70 134.42 151.81 132.57 C 152.21 135.88 152.13 139.24 152.67 142.52 C 153.61 144.79 154.86 146.92 155.89 149.14 C 157.12 150.07 159.37 150.79 158.78 152.77 C 157.79 154.69 156.26 156.24 154.95 157.93 C 162.63 159.56 171.17 157.43 176.57 151.58 C 181.07 146.13 182.47 138.96 183.22 132.12 C 180.54 130.89 178.02 129.04 175.04 128.64 C 173.18 128.97 171.50 129.92 169.80 130.71 Z" />
</g>
<g id="#807c7cff">
<path fill="#807c7c" opacity="1.00" d=" M 169.80 130.71 C 171.50 129.92 173.18 128.97 175.04 128.64 C 178.02 129.04 180.54 130.89 183.22 132.12 C 182.47 138.96 181.07 146.13 176.57 151.58 C 171.17 157.43 162.63 159.56 154.95 157.93 C 156.26 156.24 157.79 154.69 158.78 152.77 C 159.37 150.79 157.12 150.07 155.89 149.14 C 154.86 146.92 153.61 144.79 152.67 142.52 C 152.13 139.24 152.21 135.88 151.81 132.57 C 156.70 134.42 160.88 138.90 166.48 138.32 C 168.90 136.67 168.83 133.23 169.80 130.71 Z" />
</g>
<g id="#615e5ec2">
<path fill="#615e5e" opacity="0.76" d=" M 96.90 141.06 C 97.59 141.16 98.97 141.36 99.66 141.46 C 99.77 151.58 100.28 161.76 99.12 171.84 C 96.09 172.11 93.04 172.04 89.99 172.02 C 61.69 171.93 33.39 172.09 5.08 171.94 C 5.84 167.83 5.44 162.95 8.86 159.93 C 8.03 161.86 7.20 163.85 6.94 165.96 C 8.29 170.22 13.71 168.09 16.97 168.33 C 40.99 168.24 65.03 168.43 89.06 168.34 C 91.37 168.18 94.58 168.14 95.52 165.52 C 97.72 157.53 95.04 149.11 96.90 141.06 Z" />
</g>
<g id="#10101021">
<path fill="#101010" opacity="0.13" d=" M 150.89 171.10 C 159.10 174.73 168.30 173.32 176.99 173.11 C 175.81 174.06 174.69 175.06 173.51 176.00 L 157.52 176.00 C 155.28 174.41 153.17 172.64 150.89 171.10 Z" />
</g>
</svg>
