<?xml version="1.0" encoding="UTF-8" ?>
<!DOCTYPE svg PUBLIC "-//W3C//DTD SVG 1.1//EN" "http://www.w3.org/Graphics/SVG/1.1/DTD/svg11.dtd">
<svg width="200pt" height="180pt" viewBox="0 0 200 180" version="1.1" xmlns="http://www.w3.org/2000/svg">
<g id="#1b1a1a36">
<path fill="#1b1a1a" opacity="0.21" d=" M 82.83 0.00 L 92.08 0.00 C 94.40 0.93 96.65 2.01 98.89 3.12 C 89.92 2.19 80.44 1.51 71.87 4.95 C 75.36 2.95 79.08 1.42 82.83 0.00 Z" />
</g>
<g id="#4543438a">
<path fill="#454343" opacity="0.54" d=" M 71.87 4.95 C 80.44 1.51 89.92 2.19 98.89 3.12 C 106.65 6.85 113.47 12.98 117.30 20.76 C 120.37 26.71 119.66 33.60 119.60 40.05 C 119.17 50.96 110.99 59.84 102.02 65.13 C 93.81 68.35 84.73 67.77 76.14 66.88 C 69.35 63.91 63.05 59.27 59.25 52.79 C 53.71 44.31 53.52 33.37 55.87 23.81 C 58.79 15.94 64.56 9.08 71.87 4.95 M 85.51 5.63 C 74.34 5.20 65.04 13.60 60.24 23.00 C 57.81 30.48 57.92 38.79 60.00 46.35 C 62.90 52.80 68.19 58.13 74.27 61.67 C 78.34 64.33 83.39 63.55 87.99 63.72 C 91.97 63.57 96.34 64.19 99.85 61.86 C 107.16 58.15 112.73 51.44 115.33 43.70 C 115.95 37.94 115.91 32.05 115.36 26.28 C 113.14 19.19 108.12 13.09 101.85 9.16 C 97.11 5.89 91.09 5.51 85.51 5.63 Z" />
<path fill="#454343" opacity="0.54" d=" M 145.13 35.73 C 152.85 34.79 160.99 33.72 168.47 36.52 C 177.66 40.93 185.60 49.03 188.23 59.06 C 188.91 64.69 188.71 70.42 188.40 76.06 C 186.39 85.55 179.37 93.50 170.93 97.99 C 162.81 101.47 153.71 100.65 145.13 99.98 C 141.99 98.52 139.06 96.64 136.25 94.64 C 131.09 91.08 127.73 85.51 125.26 79.88 C 122.57 72.21 123.55 63.95 124.75 56.11 C 127.48 51.79 129.70 47.04 133.45 43.48 C 136.84 40.19 141.17 38.21 145.13 35.73 M 154.51 38.63 C 143.05 38.15 133.76 46.99 128.99 56.63 C 126.90 63.98 126.93 72.00 129.00 79.35 C 131.90 85.80 137.19 91.13 143.28 94.67 C 147.35 97.33 152.39 96.55 156.99 96.72 C 160.98 96.56 165.35 97.19 168.85 94.86 C 176.16 91.14 181.79 84.48 184.33 76.70 C 184.95 70.93 184.90 65.05 184.36 59.28 C 182.14 52.20 177.13 46.09 170.85 42.16 C 166.11 38.89 160.09 38.51 154.51 38.63 Z" />
<path fill="#454343" opacity="0.54" d=" M 147.46 116.57 C 155.47 110.74 166.20 110.77 175.49 112.86 C 183.40 115.54 189.87 121.68 194.23 128.69 C 198.61 135.67 197.79 144.22 197.45 152.07 C 196.06 162.10 188.46 170.16 180.01 175.11 C 171.82 178.34 162.73 177.82 154.16 176.81 C 146.83 173.78 140.24 168.55 136.47 161.47 C 132.78 155.36 132.12 147.96 132.63 140.98 C 133.00 131.00 139.37 122.01 147.46 116.57 M 163.52 115.63 C 152.06 115.15 142.76 123.99 137.99 133.63 C 135.89 140.97 135.94 149.00 138.00 156.35 C 140.90 162.80 146.19 168.13 152.27 171.66 C 156.34 174.33 161.39 173.55 165.99 173.72 C 169.97 173.56 174.34 174.19 177.85 171.86 C 185.16 168.14 190.79 161.47 193.33 153.70 C 193.95 147.93 193.90 142.05 193.36 136.28 C 191.15 129.19 186.12 123.09 179.85 119.16 C 175.11 115.89 169.09 115.51 163.52 115.63 Z" />
</g>
<g id="#3f3d3d7e">
<path fill="#3f3d3d" opacity="0.49" d=" M 85.58 17.69 C 89.01 16.27 93.09 16.14 96.58 17.43 C 97.83 18.94 97.82 21.19 97.10 22.93 C 94.97 24.28 92.64 25.33 90.72 26.99 C 92.23 28.79 94.67 29.11 96.76 29.85 C 96.72 31.96 96.80 34.11 96.28 36.17 C 94.75 37.14 93.04 37.79 91.39 38.51 C 91.24 43.33 91.67 48.16 91.17 52.96 C 90.84 57.39 84.09 56.70 81.75 54.29 C 81.06 49.28 81.65 44.19 81.36 39.14 C 80.02 37.66 78.48 36.29 77.57 34.48 C 76.66 31.97 78.93 30.02 79.99 27.99 C 82.15 24.73 81.97 19.92 85.58 17.69 M 85.91 19.94 C 83.81 22.55 83.82 26.13 83.17 29.27 C 81.90 30.03 80.63 30.79 79.37 31.56 C 79.45 32.43 79.52 33.29 79.61 34.16 C 80.90 35.22 82.28 36.21 83.35 37.51 C 84.32 42.76 82.50 48.36 84.45 53.42 C 86.02 53.95 87.64 54.29 89.25 54.67 C 89.95 48.73 89.12 42.73 89.85 36.81 C 91.53 35.57 93.54 34.90 95.44 34.07 C 95.44 33.02 95.44 31.97 95.44 30.92 C 93.67 30.54 91.90 30.16 90.14 29.74 C 90.15 27.66 90.19 25.58 90.24 23.51 C 91.98 23.07 93.72 22.64 95.47 22.22 C 95.47 21.27 95.47 19.36 95.47 18.40 C 92.29 18.62 88.63 17.88 85.91 19.94 Z" />
</g>
<g id="#7f7b7bfd">
<path fill="#7f7b7b" opacity="1.00" d=" M 85.91 19.94 C 88.63 17.88 92.29 18.62 95.47 18.40 C 95.47 19.36 95.47 21.27 95.47 22.22 C 93.72 22.64 91.98 23.07 90.24 23.51 C 90.19 25.58 90.15 27.66 90.14 29.74 C 91.90 30.16 93.67 30.54 95.44 30.92 C 95.44 31.97 95.44 33.02 95.44 34.07 C 93.54 34.90 91.53 35.57 89.85 36.81 C 89.12 42.73 89.95 48.73 89.25 54.67 C 87.64 54.29 86.02 53.95 84.45 53.42 C 82.50 48.36 84.32 42.76 83.35 37.51 C 82.28 36.21 80.90 35.22 79.61 34.16 C 79.52 33.29 79.45 32.43 79.37 31.56 C 80.63 30.79 81.90 30.03 83.17 29.27 C 83.82 26.13 83.81 22.55 85.91 19.94 Z" />
</g>
<g id="#676464cf">
<path fill="#676464" opacity="0.81" d=" M 143.24 59.41 C 146.25 54.36 152.77 55.64 157.69 55.45 C 157.65 58.40 157.70 61.35 157.59 64.30 C 157.53 66.42 155.66 67.84 154.58 69.49 C 156.90 72.58 160.74 75.58 159.40 79.93 C 156.24 86.60 146.46 87.66 141.61 82.32 C 140.12 81.03 140.25 78.85 140.71 77.12 C 142.32 74.53 145.04 73.00 147.33 71.11 C 144.54 68.00 140.13 63.80 143.24 59.41 M 147.69 59.16 C 147.79 60.99 147.04 63.08 148.04 64.74 C 148.74 66.53 150.78 66.55 152.33 67.10 C 152.93 64.73 153.60 62.19 152.10 60.00 C 150.66 59.57 149.16 59.41 147.69 59.16 M 147.10 76.13 C 145.18 77.42 146.02 79.60 146.44 81.42 C 148.69 81.57 151.50 83.34 153.27 81.21 C 155.63 80.06 154.09 77.39 153.97 75.44 C 151.63 74.98 148.75 73.62 147.10 76.13 Z" />
</g>
<g id="#605d5dc1">
<path fill="#605d5d" opacity="0.76" d=" M 157.69 55.45 C 158.36 57.81 158.55 60.27 158.73 62.71 C 160.58 62.31 162.42 61.86 164.27 61.44 C 164.83 59.54 165.41 57.65 166.01 55.77 C 167.73 57.27 168.91 59.20 169.79 61.28 C 171.05 61.47 172.32 61.67 173.58 61.86 C 173.60 62.72 173.63 64.43 173.64 65.29 C 172.24 65.43 170.83 65.56 169.43 65.69 C 168.97 67.24 168.53 68.79 168.12 70.34 C 167.31 70.44 166.51 70.53 165.72 70.63 C 165.28 68.98 164.82 67.33 164.37 65.69 C 162.11 65.23 159.86 64.72 157.59 64.30 C 157.70 61.35 157.65 58.40 157.69 55.45 Z" />
</g>
<g id="#1615152d">
<path fill="#161515" opacity="0.18" d=" M 76.14 66.88 C 84.73 67.77 93.81 68.35 102.02 65.13 C 97.74 67.65 92.94 69.58 87.91 69.63 C 83.83 69.72 79.87 68.42 76.14 66.88 Z" />
<path fill="#161515" opacity="0.18" d=" M 145.13 99.98 C 153.71 100.65 162.81 101.47 170.93 97.99 C 163.63 103.64 153.33 103.69 145.13 99.98 Z" />
<path fill="#161515" opacity="0.18" d=" M 154.16 176.81 C 162.73 177.82 171.82 178.34 180.01 175.11 C 176.28 177.25 172.28 178.92 168.12 180.00 L 162.87 180.00 C 159.94 178.99 157.02 177.99 154.16 176.81 Z" />
</g>
<g id="#00000030">
<path fill="#000000" opacity="0.19" d=" M 50.15 73.24 C 50.88 73.22 52.34 73.19 53.06 73.17 C 48.95 79.31 48.76 86.76 47.94 93.84 C 46.88 103.16 39.69 110.97 31.02 114.04 C 20.90 117.29 10.06 112.67 0.00 116.34 L 0.00 114.35 C 5.77 112.37 11.92 111.51 18.01 111.94 C 22.94 112.16 28.18 113.17 32.85 110.99 C 37.39 108.91 42.23 105.95 43.84 100.92 C 46.92 91.91 46.15 82.00 50.15 73.24 Z" />
<path fill="#000000" opacity="0.19" d=" M 30.67 119.91 C 33.79 117.67 37.38 116.26 40.89 114.75 C 38.10 116.88 34.78 118.61 32.86 121.64 C 31.97 124.67 32.28 127.89 32.25 131.01 C 32.59 142.69 32.22 154.38 32.30 166.06 C 32.57 167.85 32.11 170.89 34.54 171.26 C 40.63 172.30 46.86 171.48 53.00 171.62 C 61.31 171.41 69.63 172.08 77.92 171.53 C 80.78 171.49 82.72 169.19 84.68 167.43 C 81.04 165.96 77.13 165.04 73.74 163.00 C 72.29 161.10 72.82 158.08 74.69 156.64 C 78.73 155.58 82.99 156.79 87.05 155.88 C 89.37 155.35 89.08 152.64 88.42 150.93 C 84.95 149.82 81.15 149.83 77.84 148.23 C 77.17 146.55 76.81 144.76 76.37 143.01 C 82.25 142.26 88.15 141.70 94.03 141.08 C 93.97 141.65 93.83 142.78 93.76 143.35 C 89.42 143.88 85.09 144.56 80.85 145.67 C 85.46 146.91 89.68 149.27 92.69 153.03 C 90.43 155.05 88.38 158.01 85.07 158.17 C 81.30 158.43 77.28 158.42 74.31 161.13 C 78.00 162.92 82.56 163.66 85.24 167.02 C 84.22 170.21 82.43 173.08 80.84 176.01 C 65.24 176.11 49.63 175.99 34.02 176.02 C 31.82 172.02 30.06 167.63 30.46 162.97 C 31.15 148.62 30.37 134.26 30.67 119.91 Z" />
</g>
<g id="#00000062">
<path fill="#000000" opacity="0.38" d=" M 53.06 73.17 C 57.62 73.11 62.18 72.94 66.74 73.10 C 69.36 78.25 73.20 82.94 74.24 88.77 C 75.73 96.56 74.03 104.45 74.03 112.29 C 74.12 114.01 74.29 115.72 74.44 117.44 C 72.74 116.86 70.99 116.36 69.40 115.52 C 68.31 112.74 68.46 109.67 68.43 106.74 C 68.89 98.66 70.24 89.66 65.63 82.45 C 64.33 80.52 62.80 77.83 60.09 78.14 C 57.05 78.41 54.97 81.26 54.12 83.97 C 52.63 89.79 54.40 96.15 51.78 101.74 C 49.32 106.88 45.70 111.61 40.89 114.75 C 37.38 116.26 33.79 117.67 30.67 119.91 C 29.72 120.58 28.79 121.28 27.87 121.97 C 26.90 121.25 25.93 120.52 24.98 119.77 C 24.95 119.33 24.89 118.44 24.85 118.00 C 24.12 118.01 22.66 118.02 21.93 118.02 C 15.99 118.08 10.05 118.05 4.11 118.08 C 4.08 135.86 3.99 153.65 4.06 171.43 C 4.44 171.60 5.21 171.95 5.60 172.12 C 5.82 173.34 6.02 174.57 6.20 175.80 C 4.13 175.84 2.07 175.87 0.00 175.90 L 0.00 116.34 C 10.06 112.67 20.90 117.29 31.02 114.04 C 39.69 110.97 46.88 103.16 47.94 93.84 C 48.76 86.76 48.95 79.31 53.06 73.17 Z" />
</g>
<g id="#00000021">
<path fill="#000000" opacity="0.13" d=" M 66.74 73.10 C 68.56 73.91 70.45 74.88 71.46 76.69 C 74.37 81.36 75.86 86.74 77.12 92.05 C 78.67 98.61 76.70 105.23 75.78 111.72 C 84.63 110.78 93.77 110.60 102.27 113.62 C 102.42 113.98 102.73 114.69 102.88 115.05 C 93.38 112.65 83.33 115.54 74.03 112.29 C 74.03 104.45 75.73 96.56 74.24 88.77 C 73.20 82.94 69.36 78.25 66.74 73.10 Z" />
</g>
<g id="#00000049">
<path fill="#000000" opacity="0.29" d=" M 69.37 117.73 C 64.99 115.57 68.07 110.29 68.43 106.74 C 68.46 109.67 68.31 112.74 69.40 115.52 C 70.99 116.36 72.74 116.86 74.44 117.44 C 74.29 115.72 74.12 114.01 74.03 112.29 C 83.33 115.54 93.38 112.65 102.88 115.05 C 103.14 118.71 103.04 122.38 102.93 126.04 C 97.78 127.58 92.41 127.95 87.11 128.60 C 85.04 128.76 83.67 130.45 82.22 131.72 C 86.56 133.19 91.29 133.59 95.35 135.81 C 97.67 138.17 95.34 141.31 93.76 143.35 C 93.83 142.78 93.97 141.65 94.03 141.08 C 94.00 139.60 94.68 137.74 93.50 136.55 C 89.79 135.14 85.72 135.04 82.01 133.64 C 81.34 131.64 81.49 129.43 82.40 127.53 C 86.94 126.34 91.71 127.09 96.28 126.15 C 98.53 124.70 98.29 120.33 95.48 119.70 C 86.90 117.86 77.71 120.98 69.37 117.73 Z" />
</g>
<g id="#8f8f8fff">
<path fill="#8f8f8f" opacity="1.00" d=" M 4.11 118.08 C 10.05 118.05 15.99 118.08 21.93 118.02 C 22.36 129.17 21.81 140.33 22.57 151.46 C 22.98 154.51 21.71 157.35 19.73 159.60 C 17.30 159.80 14.10 158.55 12.43 160.94 C 12.21 163.19 12.77 165.40 13.46 167.52 C 12.94 167.52 11.90 167.52 11.39 167.52 C 11.28 169.01 11.18 170.50 11.07 172.00 C 9.24 172.02 7.42 172.09 5.60 172.12 C 5.21 171.95 4.44 171.60 4.06 171.43 C 3.99 153.65 4.08 135.86 4.11 118.08 Z" />
</g>
<g id="#868686e7">
<path fill="#868686" opacity="0.91" d=" M 21.93 118.02 C 22.66 118.02 24.12 118.01 24.85 118.00 C 24.89 118.44 24.95 119.33 24.98 119.77 C 25.03 137.18 24.96 154.59 25.01 172.00 C 20.36 172.01 15.72 171.96 11.07 172.00 C 11.18 170.50 11.28 169.01 11.39 167.52 C 11.90 167.52 12.94 167.52 13.46 167.52 C 15.50 167.35 17.97 167.94 19.43 166.09 C 19.67 163.93 19.64 161.76 19.73 159.60 C 21.71 157.35 22.98 154.51 22.57 151.46 C 21.81 140.33 22.36 129.17 21.93 118.02 Z" />
</g>
<g id="#00000048">
<path fill="#000000" opacity="0.28" d=" M 24.98 119.77 C 25.93 120.52 26.90 121.25 27.87 121.97 C 28.79 121.28 29.72 120.58 30.67 119.91 C 30.37 134.26 31.15 148.62 30.46 162.97 C 30.06 167.63 31.82 172.02 34.02 176.02 C 24.75 176.00 15.48 175.50 6.20 175.80 C 6.02 174.57 5.82 173.34 5.60 172.12 C 7.42 172.09 9.24 172.02 11.07 172.00 C 15.72 171.96 20.36 172.01 25.01 172.00 C 24.96 154.59 25.03 137.18 24.98 119.77 Z" />
</g>
<g id="#0000005f">
<path fill="#000000" opacity="0.37" d=" M 87.11 128.60 C 92.41 127.95 97.78 127.58 102.93 126.04 C 102.75 130.82 102.68 135.61 102.55 140.40 C 100.55 142.03 98.23 143.46 96.88 145.73 C 96.61 148.95 97.68 152.14 97.29 155.36 C 95.69 158.50 92.63 160.56 90.83 163.56 C 89.13 166.90 89.10 170.86 87.32 174.17 C 85.86 176.13 82.98 175.62 80.84 176.01 C 82.43 173.08 84.22 170.21 85.24 167.02 C 82.56 163.66 78.00 162.92 74.31 161.13 C 77.28 158.42 81.30 158.43 85.07 158.17 C 88.38 158.01 90.43 155.05 92.69 153.03 C 89.68 149.27 85.46 146.91 80.85 145.67 C 85.09 144.56 89.42 143.88 93.76 143.35 C 95.34 141.31 97.67 138.17 95.35 135.81 C 91.29 133.59 86.56 133.19 82.22 131.72 C 83.67 130.45 85.04 128.76 87.11 128.60 Z" />
</g>
<g id="#413f3f83">
<path fill="#413f3f" opacity="0.51" d=" M 172.60 129.70 C 177.14 129.28 181.47 131.28 185.95 131.75 C 184.26 139.95 183.67 149.22 177.62 155.63 C 174.34 159.32 170.06 162.45 165.08 163.19 C 160.16 163.88 155.17 163.37 150.30 162.56 C 149.96 161.52 149.62 160.47 149.29 159.43 C 151.32 158.42 153.35 157.40 155.37 156.35 C 152.40 151.33 148.30 146.32 148.53 140.16 C 148.64 137.56 147.65 134.48 149.39 132.25 C 155.09 133.13 158.63 139.41 164.89 138.74 C 166.72 135.28 168.36 130.75 172.60 129.70 M 166.38 141.36 C 160.67 141.66 156.01 137.70 151.22 135.19 C 151.26 137.50 151.31 139.81 151.49 142.11 C 151.58 145.94 153.87 149.17 155.35 152.57 C 156.60 153.27 157.85 153.98 159.11 154.69 C 157.69 156.94 156.24 159.16 154.81 161.40 C 162.34 162.48 170.67 160.75 176.00 155.01 C 180.88 149.49 181.96 141.89 183.02 134.87 C 179.84 133.53 176.72 130.83 173.08 131.58 C 168.82 133.08 168.88 138.27 166.38 141.36 Z" />
</g>
<g id="#807c7cff">
<path fill="#807c7c" opacity="1.00" d=" M 166.38 141.36 C 168.88 138.27 168.82 133.08 173.08 131.58 C 176.72 130.83 179.84 133.53 183.02 134.87 C 181.96 141.89 180.88 149.49 176.00 155.01 C 170.67 160.75 162.34 162.48 154.81 161.40 C 156.24 159.16 157.69 156.94 159.11 154.69 C 157.85 153.98 156.60 153.27 155.35 152.57 C 153.87 149.17 151.58 145.94 151.49 142.11 C 151.31 139.81 151.26 137.50 151.22 135.19 C 156.01 137.70 160.67 141.66 166.38 141.36 Z" />
</g>
</svg>
