<?xml version="1.0" encoding="UTF-8" ?>
<!DOCTYPE svg PUBLIC "-//W3C//DTD SVG 1.1//EN" "http://www.w3.org/Graphics/SVG/1.1/DTD/svg11.dtd">
<svg width="56pt" height="38pt" viewBox="0 0 56 38" version="1.1" xmlns="http://www.w3.org/2000/svg">
<g id="#444444b3">
<path fill="#444444" opacity="0.70" d=" M 0.00 0.00 L 56.00 0.00 L 56.00 38.00 L 0.00 38.00 L 0.00 0.00 M 2.00 2.00 C 2.00 13.33 2.00 24.67 2.00 36.00 C 19.33 36.00 36.67 36.00 54.00 36.00 C 54.00 24.67 54.00 13.33 54.00 2.00 C 36.67 2.00 19.33 2.00 2.00 2.00 Z" />
<path fill="#444444" opacity="0.70" d=" M 5.09 7.44 C 19.41 7.48 33.74 7.48 48.06 7.43 C 49.70 7.45 51.32 7.74 52.92 8.05 C 49.31 8.63 45.65 8.63 42.00 8.54 C 29.70 8.54 17.40 8.51 5.09 8.56 C 5.09 8.28 5.09 7.72 5.09 7.44 Z" />
<path fill="#444444" opacity="0.70" d=" M 5.09 14.44 C 20.70 14.48 36.30 14.48 51.91 14.44 C 51.91 14.72 51.91 15.28 51.91 15.56 C 36.30 15.52 20.70 15.52 5.09 15.56 C 5.09 15.28 5.09 14.72 5.09 14.44 Z" />
<path fill="#444444" opacity="0.70" d=" M 5.09 21.44 C 20.70 21.48 36.30 21.48 51.91 21.44 C 51.91 21.72 51.91 22.28 51.91 22.56 C 36.30 22.52 20.70 22.52 5.09 22.56 C 5.09 22.28 5.09 21.72 5.09 21.44 Z" />
<path fill="#444444" opacity="0.70" d=" M 5.09 28.44 C 16.03 28.48 26.97 28.48 37.91 28.44 C 37.91 28.72 37.90 29.28 37.90 29.56 C 26.97 29.52 16.03 29.52 5.09 29.56 C 5.09 29.28 5.09 28.72 5.09 28.44 Z" />
</g>
<g id="#0d0d0d24">
<path fill="#0d0d0d" opacity="0.14" d=" M 2.00 2.00 C 19.33 2.00 36.67 2.00 54.00 2.00 C 54.00 13.33 54.00 24.67 54.00 36.00 C 36.67 36.00 19.33 36.00 2.00 36.00 C 2.00 24.67 2.00 13.33 2.00 2.00 M 5.09 7.44 C 5.09 7.72 5.09 8.28 5.09 8.56 C 17.40 8.51 29.70 8.54 42.00 8.54 C 45.65 8.63 49.31 8.63 52.92 8.05 C 51.32 7.74 49.70 7.45 48.06 7.43 C 33.74 7.48 19.41 7.48 5.09 7.44 M 5.09 14.44 C 5.09 14.72 5.09 15.28 5.09 15.56 C 20.70 15.52 36.30 15.52 51.91 15.56 C 51.91 15.28 51.91 14.72 51.91 14.44 C 36.30 14.48 20.70 14.48 5.09 14.44 M 5.09 21.44 C 5.09 21.72 5.09 22.28 5.09 22.56 C 20.70 22.52 36.30 22.52 51.91 22.56 C 51.91 22.28 51.91 21.72 51.91 21.44 C 36.30 21.48 20.70 21.48 5.09 21.44 M 5.09 28.44 C 5.09 28.72 5.09 29.28 5.09 29.56 C 16.03 29.52 26.97 29.52 37.90 29.56 C 37.90 29.28 37.91 28.72 37.91 28.44 C 26.97 28.48 16.03 28.48 5.09 28.44 Z" />
</g>
</svg>
