<?xml version="1.0" encoding="UTF-8" ?>
<!DOCTYPE svg PUBLIC "-//W3C//DTD SVG 1.1//EN" "http://www.w3.org/Graphics/SVG/1.1/DTD/svg11.dtd">
<svg width="56pt" height="37pt" viewBox="0 0 56 37" version="1.1" xmlns="http://www.w3.org/2000/svg">
<g id="#1d1d1d80">
<path fill="#1d1d1d" opacity="0.50" d=" M 0.00 0.00 L 56.00 0.00 L 56.00 2.00 C 37.33 2.01 18.67 1.99 0.00 2.00 L 0.00 0.00 Z" />
<path fill="#1d1d1d" opacity="0.50" d=" M 0.00 7.00 C 18.67 7.00 37.33 7.00 56.00 7.00 L 56.00 9.00 C 37.33 9.00 18.67 9.00 0.00 9.00 L 0.00 7.00 Z" />
<path fill="#1d1d1d" opacity="0.50" d=" M 0.00 14.00 C 18.67 14.00 37.33 14.00 56.00 14.00 L 56.00 16.00 C 37.33 16.01 18.67 16.00 0.00 16.00 L 0.00 14.00 Z" />
<path fill="#1d1d1d" opacity="0.50" d=" M 0.00 21.00 C 18.67 21.00 37.33 21.00 56.00 21.00 L 56.00 23.00 C 37.33 22.99 18.67 23.00 0.00 23.00 L 0.00 21.00 Z" />
<path fill="#1d1d1d" opacity="0.50" d=" M 0.00 28.00 C 18.67 28.00 37.33 28.00 56.00 28.00 L 56.00 30.00 C 37.33 30.00 18.67 30.01 0.00 30.00 L 0.00 28.00 Z" />
<path fill="#1d1d1d" opacity="0.50" d=" M 0.00 35.00 C 11.68 35.03 23.36 34.97 35.03 34.98 C 36.80 34.74 37.97 36.17 39.32 37.00 L 0.00 37.00 L 0.00 35.00 Z" />
</g>
</svg>
