<?xml version="1.0" encoding="UTF-8" ?>
<!DOCTYPE svg PUBLIC "-//W3C//DTD SVG 1.1//EN" "http://www.w3.org/Graphics/SVG/1.1/DTD/svg11.dtd">
<svg width="57pt" height="42pt" viewBox="0 0 57 42" version="1.1" xmlns="http://www.w3.org/2000/svg">
<g id="#1d1d1d80">
<path fill="#1d1d1d" opacity="0.50" d=" M 0.00 0.00 L 57.00 0.00 L 57.00 42.00 L 0.00 42.00 L 0.00 0.00 M 2.01 2.01 C 1.99 14.67 1.99 27.33 2.01 39.99 C 19.67 40.01 37.33 40.01 54.99 39.99 C 55.01 27.33 55.01 14.67 54.99 2.01 C 37.33 1.99 19.67 2.00 2.01 2.01 Z" />
<path fill="#1d1d1d" opacity="0.50" d=" M 25.38 10.43 C 32.20 8.25 39.92 13.86 39.99 21.00 C 40.52 27.90 33.75 34.07 26.92 32.89 C 20.23 32.17 15.38 24.79 17.44 18.35 C 18.50 14.57 21.60 11.48 25.38 10.43 M 25.01 16.01 C 24.99 19.67 24.99 23.33 25.01 26.99 C 28.34 25.17 31.67 23.33 35.00 21.51 C 31.67 19.67 28.35 17.83 25.01 16.01 Z" />
</g>
<g id="#8c8c8cc0">
<path fill="#8c8c8c" opacity="0.75" d=" M 25.01 16.01 C 28.35 17.83 31.67 19.67 35.00 21.51 C 31.67 23.33 28.34 25.17 25.01 26.99 C 24.99 23.33 24.99 19.67 25.01 16.01 Z" />
</g>
</svg>
