<?xml version="1.0" encoding="UTF-8" ?>
<!DOCTYPE svg PUBLIC "-//W3C//DTD SVG 1.1//EN" "http://www.w3.org/Graphics/SVG/1.1/DTD/svg11.dtd">
<svg width="30pt" height="25pt" viewBox="0 0 30 25" version="1.1" xmlns="http://www.w3.org/2000/svg">
<g id="#c5d3d8ff">
<path fill="#c5d3d8" opacity="1.00" d=" M 15.32 1.88 C 15.97 1.45 17.26 0.60 17.91 0.18 C 21.94 4.02 25.88 7.99 29.67 12.07 L 29.70 12.94 C 25.94 16.93 22.09 20.88 18.06 24.61 C 17.56 24.51 16.55 24.33 16.05 24.23 L 15.65 22.86 C 18.09 19.71 21.20 17.18 23.99 14.35 C 16.01 13.67 7.91 14.91 0.00 13.68 L 0.00 11.32 C 0.48 11.20 1.43 10.97 1.90 10.85 C 9.27 10.59 16.65 11.07 24.01 10.62 C 21.02 7.80 18.13 4.88 15.32 1.88 Z" />
</g>
</svg>
