<?xml version="1.0" encoding="UTF-8" ?>
<!DOCTYPE svg PUBLIC "-//W3C//DTD SVG 1.1//EN" "http://www.w3.org/Graphics/SVG/1.1/DTD/svg11.dtd">
<svg width="30pt" height="30pt" viewBox="0 0 30 30" version="1.1" xmlns="http://www.w3.org/2000/svg">
<g id="#acbbc0ff">
<path fill="#acbbc0" opacity="1.00" d=" M 11.30 0.00 L 16.64 0.00 C 17.07 1.56 17.45 3.14 17.86 4.71 C 19.29 3.84 20.71 2.94 22.13 2.04 C 23.47 3.23 24.73 4.50 25.91 5.85 C 25.02 7.26 24.16 8.69 23.30 10.13 C 24.79 10.51 26.33 10.74 27.77 11.32 C 28.88 12.57 28.27 14.48 28.28 16.00 C 27.22 17.52 24.91 17.18 23.32 17.84 C 24.19 19.29 25.05 20.75 25.94 22.19 C 24.72 23.47 23.48 24.72 22.20 25.94 C 20.75 25.05 19.30 24.19 17.84 23.31 C 17.45 24.82 17.17 26.36 16.63 27.82 C 15.37 28.87 13.50 28.27 12.00 28.28 C 10.41 27.24 10.77 24.90 10.12 23.29 C 8.69 24.15 7.27 25.03 5.85 25.91 C 4.51 24.72 3.24 23.46 2.03 22.14 C 2.93 20.72 3.83 19.29 4.71 17.85 C 3.14 17.45 1.57 17.06 0.00 16.67 L 0.00 11.35 C 1.56 10.90 3.13 10.53 4.70 10.12 C 3.83 8.70 2.94 7.28 2.05 5.87 C 3.23 4.51 4.50 3.23 5.87 2.06 C 7.28 2.96 8.71 3.84 10.14 4.71 C 10.53 3.14 10.92 1.57 11.30 0.00 M 12.41 1.05 C 12.16 2.40 11.91 3.75 11.66 5.10 C 10.82 5.39 9.99 5.69 9.15 5.99 C 8.10 5.19 7.04 4.40 5.99 3.59 C 5.20 4.40 4.40 5.20 3.60 5.99 C 4.40 7.05 5.20 8.11 6.00 9.17 C 5.70 10.00 5.40 10.83 5.10 11.66 C 3.75 11.91 2.40 12.16 1.05 12.41 C 1.07 13.47 1.09 14.54 1.11 15.60 C 2.41 15.85 3.72 16.09 5.03 16.32 C 5.35 17.14 5.66 17.97 5.98 18.79 C 5.33 19.85 4.30 20.75 4.04 22.00 C 4.52 22.90 5.14 23.71 5.89 24.43 C 6.98 23.60 8.09 22.79 9.19 21.97 C 10.01 22.30 10.83 22.63 11.65 22.96 C 11.91 24.34 12.18 25.73 12.46 27.11 C 13.48 27.09 14.50 27.09 15.52 27.12 C 15.80 25.72 16.07 24.33 16.34 22.93 C 17.15 22.62 17.96 22.32 18.78 22.01 C 19.83 22.70 20.78 23.64 22.01 24.01 C 22.87 23.49 23.62 22.83 24.24 22.02 C 23.49 20.94 22.75 19.85 22.01 18.77 C 22.32 17.96 22.62 17.15 22.93 16.34 C 24.33 16.07 25.72 15.80 27.11 15.52 C 27.11 14.50 27.10 13.48 27.11 12.47 C 25.72 12.19 24.34 11.92 22.96 11.66 C 22.63 10.84 22.30 10.01 21.97 9.19 C 22.78 8.10 23.61 7.01 24.44 5.93 C 23.99 5.53 23.10 4.72 22.65 4.32 C 21.11 3.61 20.02 5.34 18.82 5.97 C 17.98 5.66 17.15 5.35 16.32 5.03 C 16.09 3.72 15.85 2.41 15.60 1.11 C 14.54 1.09 13.47 1.07 12.41 1.05 Z" />
<path fill="#acbbc0" opacity="1.00" d=" M 11.42 9.50 C 15.06 7.13 20.14 10.92 19.08 15.06 C 18.46 18.63 13.75 20.47 10.93 18.14 C 7.89 16.16 8.28 11.20 11.42 9.50 M 12.42 10.55 C 9.24 11.69 9.68 17.13 13.07 17.63 C 15.71 18.49 18.48 15.72 17.63 13.08 C 17.29 10.76 14.44 9.64 12.42 10.55 Z" />
</g>
</svg>
