<?xml version="1.0" encoding="UTF-8" ?>
<!DOCTYPE svg PUBLIC "-//W3C//DTD SVG 1.1//EN" "http://www.w3.org/Graphics/SVG/1.1/DTD/svg11.dtd">
<svg width="40pt" height="40pt" viewBox="0 0 40 40" version="1.1" xmlns="http://www.w3.org/2000/svg">
<g id="#a5b3b8ff">
<path fill="#a5b3b8" opacity="1.00" d=" M 15.39 0.00 L 24.61 0.00 C 28.25 1.08 31.85 2.71 34.53 5.48 C 37.25 8.19 38.92 11.76 40.00 15.41 L 40.00 24.58 C 38.20 32.12 32.16 38.20 24.62 40.00 L 15.41 40.00 C 11.77 38.91 8.18 37.26 5.46 34.53 C 2.69 31.84 1.07 28.22 0.00 24.57 L 0.00 15.39 C 1.84 7.88 7.85 1.79 15.39 0.00 M 3.23 12.92 C 3.78 14.84 6.20 14.62 7.70 15.34 C 10.07 12.75 12.54 10.24 15.11 7.85 C 14.81 6.27 14.51 4.69 14.22 3.11 C 9.09 4.11 5.21 8.25 3.23 12.92 M 25.16 6.83 L 24.75 7.50 C 27.22 10.06 29.74 12.58 32.17 15.19 C 33.83 14.66 35.48 14.14 37.14 13.61 C 34.87 8.91 31.27 4.58 26.02 3.21 C 23.95 2.34 22.89 6.75 25.16 6.83 M 18.52 9.73 C 13.44 10.90 8.82 16.05 9.74 21.47 C 10.63 24.89 13.04 28.21 16.43 29.47 C 20.07 30.28 24.48 30.11 27.16 27.15 C 30.25 24.29 30.44 19.46 29.19 15.69 C 27.23 11.94 22.88 8.97 18.52 9.73 M 3.02 26.08 C 3.85 27.86 4.83 29.56 6.00 31.14 C 7.99 33.53 10.67 37.60 14.28 36.21 C 15.01 34.24 15.60 30.18 12.55 30.18 C 11.53 28.96 10.51 27.74 9.50 26.51 C 9.02 25.69 8.55 24.86 8.07 24.03 C 7.85 24.24 7.42 24.66 7.20 24.87 C 6.28 23.17 2.57 24.00 3.02 26.08 M 31.16 24.70 L 30.84 25.72 L 31.18 26.46 C 31.07 26.53 30.85 26.67 30.74 26.73 C 29.23 27.78 27.83 29.00 26.51 30.28 C 26.43 30.37 26.26 30.54 26.18 30.63 C 23.75 32.34 24.88 35.05 26.09 37.13 C 26.37 36.85 26.94 36.28 27.22 36.00 C 27.31 35.90 27.49 35.70 27.58 35.60 L 28.64 35.81 L 29.94 35.31 L 30.51 34.43 L 31.18 34.00 C 31.32 33.89 31.59 33.69 31.73 33.59 C 31.88 33.46 32.19 33.20 32.34 33.08 C 32.73 32.68 33.52 31.90 33.92 31.51 C 34.05 31.36 34.33 31.04 34.47 30.88 L 34.83 30.43 C 34.92 30.30 35.10 30.03 35.19 29.90 C 36.06 28.61 36.52 27.10 36.78 25.58 C 35.46 25.12 34.11 24.73 32.77 24.32 L 32.01 24.13 L 31.16 24.70 Z" />
</g>
<g id="#1315161f">
<path fill="#131516" opacity="0.12" d=" M 31.16 24.70 L 32.01 24.13 L 32.77 24.32 C 32.81 25.40 32.28 26.11 31.18 26.46 L 30.84 25.72 L 31.16 24.70 Z" />
<path fill="#131516" opacity="0.12" d=" M 30.74 26.73 C 30.85 26.67 31.07 26.53 31.18 26.46 C 31.07 26.53 30.85 26.67 30.74 26.73 Z" />
<path fill="#131516" opacity="0.12" d=" M 33.26 26.26 C 33.79 26.71 33.79 26.71 33.26 26.26 Z" />
<path fill="#131516" opacity="0.12" d=" M 34.83 30.43 C 34.92 30.30 35.10 30.03 35.19 29.90 C 35.10 30.03 34.92 30.30 34.83 30.43 Z" />
<path fill="#131516" opacity="0.12" d=" M 26.18 30.63 C 26.26 30.54 26.43 30.37 26.51 30.28 C 26.43 30.37 26.26 30.54 26.18 30.63 Z" />
<path fill="#131516" opacity="0.12" d=" M 30.42 30.41 L 30.87 30.41 L 30.87 30.86 L 30.42 30.86 L 30.42 30.41 Z" />
<path fill="#131516" opacity="0.12" d=" M 33.92 31.51 C 34.05 31.36 34.33 31.04 34.47 30.88 C 34.33 31.04 34.05 31.36 33.92 31.51 Z" />
<path fill="#131516" opacity="0.12" d=" M 31.73 33.59 C 31.88 33.46 32.19 33.20 32.34 33.08 C 32.19 33.20 31.88 33.46 31.73 33.59 Z" />
<path fill="#131516" opacity="0.12" d=" M 27.58 35.60 C 28.06 34.46 29.35 33.74 30.51 34.43 L 29.94 35.31 L 28.64 35.81 L 27.58 35.60 Z" />
<path fill="#131516" opacity="0.12" d=" M 31.18 34.00 C 31.32 33.89 31.59 33.69 31.73 33.59 C 31.59 33.69 31.32 33.89 31.18 34.00 Z" />
<path fill="#131516" opacity="0.12" d=" M 27.22 36.00 C 27.31 35.90 27.49 35.70 27.58 35.60 C 27.49 35.70 27.31 35.90 27.22 36.00 Z" />
</g>
</svg>
