<?xml version="1.0" encoding="UTF-8" ?>
<!DOCTYPE svg PUBLIC "-//W3C//DTD SVG 1.1//EN" "http://www.w3.org/Graphics/SVG/1.1/DTD/svg11.dtd">
<svg width="154pt" height="112pt" viewBox="0 0 154 112" version="1.1" xmlns="http://www.w3.org/2000/svg">
<g id="#8b8b8bfd">
<path fill="#8b8b8b" opacity="1.00" d=" M 4.43 5.47 C 6.60 5.21 8.78 4.97 10.97 4.99 C 52.66 5.02 94.36 4.99 136.06 5.00 C 140.53 5.03 145.04 4.75 149.48 5.51 C 150.03 29.32 149.71 53.15 149.81 76.97 C 149.59 87.14 150.04 97.33 149.51 107.49 C 147.33 107.78 145.14 108.03 142.94 108.02 C 98.63 107.98 54.32 108.00 10.02 108.00 C 8.17 107.99 6.34 107.77 4.51 107.53 C 3.96 99.69 4.33 91.83 4.15 83.98 C 4.28 57.81 3.83 31.63 4.43 5.47 M 10.67 10.54 C 10.56 39.69 10.81 68.84 10.60 98.00 C 10.61 99.57 10.98 101.10 11.28 102.64 C 55.31 102.68 99.35 103.02 143.37 102.46 C 143.31 71.79 143.27 41.11 143.31 10.44 C 99.10 10.59 54.88 10.39 10.67 10.54 Z" />
<path fill="#8b8b8b" opacity="1.00" d=" M 22.86 21.59 C 26.82 20.07 32.12 19.24 35.19 22.92 C 38.98 26.23 39.17 31.79 37.56 36.24 C 35.47 38.57 32.82 40.22 30.03 41.57 C 28.35 41.50 26.68 41.27 25.00 41.15 C 22.15 39.47 20.10 36.92 18.41 34.14 C 18.14 31.66 18.19 29.17 18.44 26.70 C 19.91 25.00 21.38 23.29 22.86 21.59 Z" />
<path fill="#8b8b8b" opacity="1.00" d=" M 85.68 40.74 C 87.47 38.24 89.63 35.43 92.99 35.28 C 97.41 39.58 100.45 45.00 104.13 49.90 C 115.21 66.32 127.36 82.00 138.45 98.40 C 101.97 98.50 65.48 98.31 29.00 98.41 C 24.34 98.43 19.67 98.83 15.02 98.38 C 23.06 87.04 31.57 76.03 39.29 64.47 C 41.13 61.65 43.67 58.49 47.46 59.24 C 52.21 64.11 55.73 70.01 59.00 75.93 C 61.79 75.92 62.97 73.20 64.38 71.25 C 71.18 60.86 78.70 50.99 85.68 40.74 Z" />
</g>
</svg>
