<?xml version="1.0" encoding="UTF-8" ?>
<!DOCTYPE svg PUBLIC "-//W3C//DTD SVG 1.1//EN" "http://www.w3.org/Graphics/SVG/1.1/DTD/svg11.dtd">
<svg width="600pt" height="150pt" viewBox="0 0 600 150" version="1.1" xmlns="http://www.w3.org/2000/svg">
<g id="#ffda00ff">
<path fill="#ffda00" opacity="1.00" d=" M 12.53 0.00 L 13.62 0.00 C 21.78 7.59 29.90 15.42 39.72 20.86 C 38.77 14.56 38.14 7.37 41.86 1.80 C 44.54 9.59 46.89 18.02 53.23 23.76 C 56.73 23.68 60.48 23.60 63.61 25.43 C 65.55 26.44 66.78 28.29 68.03 30.00 C 65.84 30.33 63.47 30.27 61.56 31.56 C 59.58 32.87 57.96 34.64 56.16 36.19 C 52.72 39.30 48.40 41.31 43.93 42.47 C 38.99 43.71 33.82 44.08 29.09 46.08 C 23.94 48.27 19.30 51.52 14.98 55.04 C 11.52 57.83 8.70 61.29 5.32 64.17 C 5.24 62.98 4.93 61.72 5.49 60.60 C 8.16 54.33 12.11 48.66 16.64 43.60 C 20.41 39.41 25.00 36.09 29.38 32.58 C 20.84 26.10 14.83 16.40 12.75 5.90 C 12.34 3.96 12.45 1.97 12.53 0.00 Z" />
</g>
<g id="#55db30ff">
<path fill="#55db30" opacity="1.00" d=" M 81.60 37.51 C 87.17 34.86 93.73 33.49 99.74 35.39 C 102.47 36.29 104.33 38.62 105.63 41.07 C 102.31 40.89 99.35 42.29 96.93 44.45 C 100.41 47.75 103.25 51.69 105.26 56.04 C 106.75 59.32 108.35 62.71 108.40 66.38 C 105.65 64.99 103.89 62.37 101.65 60.35 C 98.30 57.01 94.45 54.23 90.30 51.99 C 91.02 55.59 92.15 59.32 91.16 62.99 C 87.67 58.60 84.90 53.69 81.24 49.42 C 71.61 49.31 63.94 56.01 56.75 61.54 C 56.98 58.53 59.12 56.23 60.85 53.94 C 66.56 47.15 73.59 41.37 81.60 37.51 Z" />
<path fill="#55db30" opacity="1.00" d=" M 115.26 77.96 C 115.10 75.45 116.63 72.92 119.01 72.04 C 120.91 71.19 123.03 71.66 125.02 71.75 C 125.04 76.29 125.01 80.84 125.12 85.38 C 129.78 84.36 134.81 83.76 139.37 85.52 C 143.43 87.10 146.39 90.81 147.51 94.96 C 149.00 100.73 149.01 107.12 146.53 112.62 C 144.16 117.83 138.58 120.99 132.98 121.22 C 127.88 121.43 122.67 121.01 117.84 119.29 C 116.86 118.80 115.06 118.48 115.29 117.00 C 115.20 103.99 115.26 90.97 115.26 77.96 M 125.04 93.65 C 125.03 99.90 125.04 106.15 125.03 112.40 C 128.26 113.01 131.92 113.65 134.87 111.80 C 137.80 109.95 138.28 106.16 138.29 103.00 C 138.29 99.81 137.79 96.07 135.02 94.05 C 132.06 92.06 128.28 93.04 125.04 93.65 Z" />
<path fill="#55db30" opacity="1.00" d=" M 158.31 72.36 C 160.35 71.14 162.78 71.62 165.01 71.75 C 165.05 76.29 165.02 80.83 165.07 85.37 C 169.74 84.37 174.79 83.75 179.37 85.52 C 183.62 87.17 186.62 91.16 187.65 95.53 C 189.02 101.33 188.92 107.72 186.26 113.15 C 183.77 118.06 178.38 120.98 172.98 121.22 C 167.34 121.43 161.46 121.00 156.27 118.61 C 154.76 118.09 155.36 116.19 155.18 115.02 C 155.22 102.66 155.14 90.30 155.21 77.95 C 155.13 75.70 156.29 73.41 158.31 72.36 M 165.04 93.64 C 165.03 99.90 165.03 106.16 165.03 112.41 C 168.46 113.05 172.48 113.73 175.43 111.38 C 178.15 109.14 178.30 105.28 178.24 102.03 C 178.17 98.92 177.36 95.22 174.34 93.66 C 171.43 92.20 168.06 93.08 165.04 93.64 Z" />
<path fill="#55db30" opacity="1.00" d=" M 76.66 87.72 C 78.48 85.25 81.87 84.94 84.67 85.37 L 85.14 86.05 C 85.49 93.05 84.99 100.08 85.39 107.08 C 85.51 109.20 86.27 111.60 88.36 112.54 C 91.18 113.75 94.35 113.12 97.31 112.99 C 97.32 105.98 97.29 98.98 97.32 91.98 C 97.14 89.72 98.22 87.36 100.21 86.22 C 102.28 84.92 104.83 85.18 107.13 85.57 C 107.06 95.72 107.25 105.88 107.04 116.02 C 107.15 118.35 105.33 120.39 103.04 120.66 C 98.09 121.46 93.01 121.63 88.03 121.06 C 83.80 120.60 79.34 118.64 77.40 114.62 C 74.63 108.82 75.65 102.20 75.43 95.99 C 75.56 93.23 74.88 90.10 76.66 87.72 Z" />
<path fill="#55db30" opacity="1.00" d=" M 222.37 85.49 C 228.37 83.65 235.73 84.01 240.62 88.34 C 244.66 92.00 245.95 97.74 245.88 103.00 C 245.89 108.23 244.61 113.94 240.56 117.57 C 236.66 121.02 231.10 121.60 226.10 121.19 C 221.97 120.88 217.68 119.19 215.27 115.67 C 211.74 110.61 211.39 104.01 212.27 98.09 C 213.17 92.51 216.87 87.27 222.37 85.49 M 226.18 93.31 C 223.65 94.44 222.62 97.31 222.22 99.86 C 221.79 103.17 221.90 106.71 223.29 109.81 C 224.98 113.84 231.32 114.11 233.72 110.62 C 235.69 107.81 235.76 104.19 235.58 100.90 C 235.37 98.45 234.85 95.73 232.86 94.08 C 231.03 92.54 228.33 92.51 226.18 93.31 Z" />
<path fill="#55db30" opacity="1.00" d=" M 254.18 86.28 C 255.80 84.92 258.03 84.91 260.03 84.70 C 266.90 84.30 274.22 85.46 279.79 89.76 C 278.99 91.51 278.28 93.54 276.39 94.39 C 274.05 95.78 271.34 94.78 269.01 93.95 C 266.98 93.16 264.77 93.38 262.64 93.37 C 262.54 102.42 262.76 111.47 262.53 120.51 C 259.29 120.59 256.05 120.65 252.82 120.40 C 252.80 110.93 252.83 101.47 252.80 92.01 C 252.86 90.06 252.62 87.75 254.18 86.28 Z" />
<path fill="#55db30" opacity="1.00" d=" M 286.58 89.55 C 289.94 85.86 295.14 84.50 299.99 84.63 C 304.74 84.74 309.67 85.12 314.00 87.24 C 315.58 87.79 315.17 89.70 315.26 91.01 C 315.21 100.00 315.30 108.99 315.22 117.98 C 315.16 122.72 313.74 127.79 309.99 130.93 C 306.08 134.28 300.85 135.30 295.91 136.05 C 294.94 133.99 294.14 131.50 295.48 129.40 C 297.16 126.07 301.63 126.49 303.90 123.82 C 305.05 122.72 305.11 121.04 305.58 119.62 C 300.05 120.64 293.78 121.42 288.75 118.30 C 284.53 115.79 282.60 110.80 282.18 106.10 C 281.58 100.35 282.52 93.95 286.58 89.55 M 296.03 93.86 C 293.16 95.42 292.30 98.94 292.28 101.97 C 292.22 105.06 292.40 108.83 295.11 110.86 C 298.13 113.04 302.07 112.03 305.44 111.44 C 305.43 105.47 305.44 99.51 305.43 93.54 C 302.35 93.03 298.94 92.34 296.03 93.86 Z" />
<path fill="#55db30" opacity="1.00" d=" M 343.54 87.50 C 345.55 85.02 349.09 84.92 351.96 85.62 C 352.00 92.42 351.89 99.23 352.01 106.03 C 352.09 108.33 352.46 111.15 354.73 112.35 C 357.59 113.80 360.93 113.13 364.00 113.00 C 364.09 105.34 363.82 97.68 364.13 90.03 C 364.98 85.94 369.81 84.42 373.44 85.50 C 374.07 86.90 373.72 88.51 373.83 90.01 C 373.77 98.35 373.85 106.70 373.80 115.04 C 373.79 116.77 373.50 118.83 371.88 119.81 C 369.81 121.07 367.28 120.96 364.96 121.23 C 359.95 121.46 354.72 121.70 349.96 119.85 C 346.83 118.69 344.32 116.03 343.33 112.84 C 341.50 107.07 342.32 100.95 342.11 95.00 C 342.19 92.48 341.70 89.55 343.54 87.50 Z" />
<path fill="#55db30" opacity="1.00" d=" M 383.31 86.80 C 388.57 84.79 394.30 84.15 399.91 84.51 C 403.59 84.75 407.56 86.10 409.63 89.37 C 411.90 92.80 411.46 97.09 411.51 101.00 C 411.41 106.36 411.66 111.74 411.40 117.09 C 411.27 118.63 409.54 119.01 408.40 119.54 C 403.16 121.24 397.53 121.52 392.07 121.13 C 388.05 120.76 383.51 119.37 381.40 115.63 C 378.85 110.52 380.14 103.26 385.30 100.27 C 390.28 97.18 396.38 98.31 401.93 97.93 C 401.61 96.25 401.70 94.05 399.91 93.15 C 396.01 91.12 391.56 93.53 387.53 92.37 C 385.03 91.60 383.81 89.17 383.31 86.80 M 391.60 112.40 C 394.60 114.35 398.37 113.38 401.65 112.84 C 401.69 110.10 401.69 107.36 401.69 104.62 C 398.77 104.72 395.77 104.31 392.94 105.15 C 390.10 106.19 389.32 110.47 391.60 112.40 Z" />
<path fill="#55db30" opacity="1.00" d=" M 198.41 109.49 C 202.04 108.33 206.37 111.12 206.36 115.03 C 206.64 118.13 204.07 121.12 200.98 121.34 C 197.34 121.95 193.49 118.73 193.93 114.96 C 193.98 112.39 195.99 110.16 198.41 109.49 Z" />
<path fill="#55db30" opacity="1.00" d=" M 327.52 109.56 C 330.46 108.56 334.04 110.01 335.22 112.94 C 336.56 115.88 335.05 119.72 332.02 120.88 C 328.74 122.36 324.40 120.53 323.43 117.02 C 322.41 113.93 324.44 110.42 327.52 109.56 Z" />
</g>
<g id="#00cfffff">
<path fill="#00cfff" opacity="1.00" d=" M 23.42 68.50 C 25.48 67.62 28.06 67.43 29.96 68.79 C 32.61 70.58 33.17 74.14 32.76 77.10 C 32.02 81.87 29.12 86.44 24.75 88.65 C 22.35 89.88 19.07 89.98 17.05 87.97 C 14.69 85.69 14.63 82.04 15.22 79.03 C 16.32 74.61 19.17 70.40 23.42 68.50 Z" />
<path fill="#00cfff" opacity="1.00" d=" M 2.09 77.04 C 4.35 76.79 4.48 79.33 4.81 80.94 C 5.54 87.81 6.44 94.92 9.96 101.01 C 11.40 103.56 13.81 105.87 16.87 106.08 C 21.28 106.35 25.36 104.18 29.01 101.96 C 37.53 96.36 44.85 89.20 52.58 82.61 C 54.13 81.52 55.79 79.89 57.83 80.17 C 60.27 81.49 57.85 84.32 56.72 85.73 C 49.15 94.12 40.60 102.92 38.96 114.64 C 35.75 123.67 36.01 134.83 42.89 142.13 C 42.71 137.80 39.97 133.00 42.57 128.99 C 49.45 137.49 60.57 140.01 70.34 143.62 C 71.76 144.37 74.35 144.92 74.15 146.98 C 71.65 149.69 67.49 149.31 64.14 150.00 L 57.70 150.00 C 47.48 149.10 37.45 145.82 28.81 140.24 C 12.18 129.72 1.20 111.05 0.00 91.41 L 0.00 84.11 C 0.36 81.70 0.40 78.98 2.09 77.04 Z" />
</g>
<g id="#7a95a9fd">
<path fill="#7a95a9" opacity="1.00" d=" M 476.17 82.34 C 477.99 81.70 478.92 84.71 477.11 85.30 C 475.25 85.93 474.18 82.81 476.17 82.34 Z" />
<path fill="#7a95a9" opacity="1.00" d=" M 531.79 85.77 C 532.54 85.80 534.05 85.86 534.81 85.89 C 536.07 89.83 537.46 93.72 538.66 97.68 C 536.49 98.17 535.42 97.04 535.00 95.13 C 533.81 95.13 532.62 95.13 531.44 95.13 C 531.21 95.70 530.76 96.84 530.53 97.41 C 529.86 97.47 528.51 97.59 527.84 97.65 C 529.07 93.66 530.42 89.71 531.79 85.77 M 533.24 89.15 C 531.92 90.07 531.29 94.15 533.91 93.05 L 534.35 92.33 C 534.54 90.98 534.17 89.92 533.24 89.15 Z" />
<path fill="#7a95a9" opacity="1.00" d=" M 572.30 85.67 C 576.57 84.39 574.44 90.98 578.49 90.67 C 578.62 89.11 578.63 87.53 578.80 85.97 C 579.39 85.91 580.57 85.78 581.16 85.71 C 581.26 87.39 581.28 89.07 581.47 90.74 C 584.18 90.51 584.34 87.88 585.16 85.89 C 585.78 85.83 587.02 85.71 587.65 85.65 C 587.20 87.57 586.70 89.47 585.83 91.25 C 587.24 93.08 587.55 95.42 588.15 97.60 C 587.48 97.57 586.13 97.52 585.46 97.50 C 584.87 95.19 584.57 91.67 581.30 92.14 C 581.26 93.95 581.23 95.76 581.23 97.57 C 580.38 97.56 579.54 97.55 578.70 97.56 C 578.68 95.74 578.66 93.93 578.63 92.12 C 578.06 92.23 576.92 92.46 576.35 92.57 C 575.03 93.80 575.13 95.89 574.38 97.46 C 573.73 97.51 572.45 97.61 571.80 97.65 C 572.33 95.46 572.69 93.11 574.11 91.27 C 573.29 89.48 572.76 87.57 572.30 85.67 Z" />
</g>
<g id="#7a96aafe">
<path fill="#7a96aa" opacity="1.00" d=" M 479.23 82.64 C 480.68 81.54 482.33 84.00 480.81 84.99 C 479.32 86.23 477.67 83.59 479.23 82.64 Z" />
<path fill="#7a96aa" opacity="1.00" d=" M 432.01 85.77 C 432.72 85.77 434.13 85.77 434.84 85.77 C 435.61 87.91 436.38 90.05 437.19 92.18 C 437.86 90.04 438.53 87.89 439.22 85.76 C 439.93 85.76 441.35 85.77 442.06 85.78 C 440.75 89.21 439.67 92.73 438.25 96.12 C 437.58 98.26 435.03 97.74 433.34 97.82 C 433.36 97.34 433.42 96.39 433.44 95.91 C 434.50 95.68 435.54 95.38 436.56 95.01 C 434.03 92.53 433.49 88.86 432.01 85.77 Z" />
<path fill="#7a96aa" opacity="1.00" d=" M 443.69 85.75 C 444.32 85.80 445.58 85.90 446.21 85.96 C 446.33 87.49 446.36 89.03 446.44 90.57 C 449.42 90.91 449.61 87.98 450.42 85.92 C 451.04 85.85 452.27 85.71 452.89 85.64 C 452.45 87.55 451.85 89.42 451.16 91.25 C 452.36 93.15 452.85 95.37 453.41 97.52 C 452.53 97.55 451.65 97.55 450.78 97.53 C 450.36 96.12 450.02 94.68 449.49 93.32 C 448.90 92.14 447.40 92.43 446.35 92.14 C 446.32 93.94 446.30 95.75 446.30 97.56 C 445.42 97.55 444.56 97.55 443.69 97.56 C 443.68 93.62 443.68 89.69 443.69 85.75 Z" />
<path fill="#7a96aa" opacity="1.00" d=" M 561.94 85.86 C 564.29 85.88 566.70 85.56 569.01 86.12 C 571.16 87.16 571.70 90.30 570.12 92.03 C 568.71 93.62 566.37 93.18 564.50 93.39 C 564.49 94.77 564.50 96.15 564.51 97.53 C 563.86 97.54 562.56 97.55 561.91 97.56 C 561.86 93.66 561.84 89.76 561.94 85.86 M 564.50 87.95 C 564.50 89.07 564.51 90.19 564.52 91.32 C 565.38 91.22 567.08 91.02 567.93 90.92 C 569.46 88.39 566.34 87.70 564.50 87.95 Z" />
<path fill="#7a96aa" opacity="1.00" d=" M 593.19 85.89 C 593.93 85.85 595.42 85.77 596.16 85.72 C 597.47 89.51 598.78 93.29 600.00 97.10 L 600.00 97.57 C 599.33 97.56 597.99 97.55 597.32 97.55 C 597.14 96.94 596.78 95.73 596.60 95.12 C 595.41 95.13 594.24 95.14 593.07 95.15 C 592.37 96.76 591.39 98.15 589.33 97.82 C 590.47 93.80 591.89 89.86 593.19 85.89 M 594.64 88.69 C 594.24 90.13 593.85 91.56 593.47 93.00 C 594.10 93.00 595.36 92.99 595.99 92.99 C 595.54 91.55 595.09 90.12 594.64 88.69 Z" />
<path fill="#7a96aa" opacity="1.00" d=" M 446.40 107.36 C 449.00 107.02 451.64 107.21 454.26 107.19 C 454.58 111.11 454.41 115.04 454.42 118.97 C 453.77 118.97 452.47 118.97 451.82 118.97 C 451.81 115.79 451.81 112.61 451.81 109.43 C 450.74 109.44 449.68 109.45 448.62 109.46 C 448.29 113.13 448.80 118.49 444.16 119.55 C 442.76 117.59 445.11 116.64 445.57 115.06 C 446.10 112.52 445.93 109.90 446.40 107.36 Z" />
</g>
<g id="#7b97abff">
<path fill="#7b97ab" opacity="1.00" d=" M 455.21 85.94 C 457.50 85.84 459.84 85.58 462.11 86.08 C 464.55 87.02 465.02 90.47 463.24 92.26 C 461.77 93.61 459.61 93.18 457.79 93.38 C 457.80 94.42 457.81 96.51 457.82 97.56 C 457.16 97.55 455.85 97.53 455.19 97.53 C 455.18 93.66 455.17 89.80 455.21 85.94 M 457.82 87.87 C 457.82 88.70 457.82 90.36 457.82 91.19 C 458.70 91.17 460.46 91.13 461.34 91.11 C 461.20 90.20 462.04 88.78 460.88 88.31 C 460.12 88.20 458.58 87.98 457.82 87.87 Z" />
<path fill="#7b97ab" opacity="1.00" d=" M 468.30 85.92 C 469.45 85.84 471.45 85.30 471.77 86.95 C 472.98 90.50 474.21 94.06 475.23 97.67 C 473.24 98.00 471.85 97.20 471.62 95.13 C 470.40 95.12 469.18 95.12 467.97 95.12 C 467.78 95.72 467.41 96.93 467.22 97.53 C 466.30 97.55 465.38 97.55 464.47 97.53 C 465.73 93.65 467.06 89.81 468.30 85.92 M 469.90 93.27 C 471.94 92.97 470.80 90.05 469.87 89.14 C 468.65 89.88 467.89 93.01 469.90 93.27 Z" />
<path fill="#7b97ab" opacity="1.00" d=" M 482.42 85.97 C 483.07 85.92 484.37 85.82 485.03 85.77 C 485.02 87.28 485.03 88.79 485.04 90.31 C 486.53 90.31 488.02 90.31 489.53 90.31 C 489.61 88.88 489.37 87.38 489.76 85.98 C 490.35 85.91 491.53 85.77 492.12 85.70 C 492.08 89.70 492.28 93.71 491.91 97.70 C 491.33 97.64 490.15 97.53 489.56 97.48 C 489.56 95.84 489.55 94.20 489.56 92.56 C 488.06 92.56 486.56 92.56 485.07 92.56 C 485.01 94.26 485.00 95.95 484.92 97.65 C 484.30 97.61 483.06 97.53 482.44 97.49 C 482.43 93.65 482.44 89.81 482.42 85.97 Z" />
<path fill="#7b97ab" opacity="1.00" d=" M 516.98 85.72 C 517.60 85.77 518.85 85.87 519.47 85.92 C 519.59 87.44 519.58 88.97 519.62 90.50 C 522.69 91.03 522.85 87.95 523.69 85.88 C 524.32 85.83 525.57 85.72 526.20 85.66 C 525.70 87.58 525.09 89.46 524.34 91.29 C 525.71 93.18 526.12 95.48 526.65 97.70 C 522.74 98.86 524.10 93.91 521.95 92.57 C 521.36 92.45 520.19 92.22 519.61 92.10 C 519.56 93.91 519.56 95.71 519.55 97.52 C 518.93 97.55 517.68 97.61 517.06 97.64 C 516.89 93.67 516.97 89.69 516.98 85.72 Z" />
<path fill="#7b97ab" opacity="1.00" d=" M 556.57 86.02 C 557.21 85.94 558.48 85.79 559.12 85.72 C 559.12 89.66 559.14 93.61 559.09 97.56 C 558.45 97.55 557.15 97.53 556.50 97.52 C 556.55 93.69 556.39 89.85 556.57 86.02 Z" />
<path fill="#7b97ab" opacity="1.00" d=" M 510.79 103.59 C 511.80 104.09 512.83 104.58 513.87 105.07 C 514.99 104.53 516.14 104.07 517.32 103.67 C 516.94 107.52 510.19 107.93 510.79 103.59 Z" />
<path fill="#7b97ab" opacity="1.00" d=" M 433.26 107.26 C 435.88 107.17 438.51 107.18 441.13 107.19 C 441.11 107.75 441.08 108.87 441.06 109.43 C 439.28 109.43 437.51 109.44 435.75 109.44 L 435.75 111.38 C 437.47 111.51 439.32 111.22 440.92 112.01 C 443.21 113.44 442.95 117.39 440.47 118.47 C 438.17 119.38 435.61 118.85 433.22 118.86 C 433.18 114.99 433.13 111.12 433.26 107.26 M 435.78 113.54 C 435.77 114.33 435.76 115.90 435.75 116.68 C 437.13 116.48 439.82 117.22 439.69 115.00 C 439.78 113.12 437.02 113.77 435.78 113.54 Z" />
<path fill="#7b97ab" opacity="1.00" d=" M 460.14 107.15 C 460.82 107.14 462.17 107.14 462.85 107.14 C 464.37 111.00 465.55 114.98 466.90 118.91 C 466.23 118.93 464.89 118.97 464.22 118.99 C 463.99 118.37 463.54 117.12 463.32 116.49 C 462.08 116.50 460.84 116.50 459.61 116.50 C 459.40 117.12 458.97 118.37 458.76 118.99 C 458.09 118.97 456.76 118.92 456.10 118.90 C 457.42 114.97 458.60 110.99 460.14 107.15 M 460.24 114.37 C 460.85 114.37 462.08 114.38 462.70 114.38 C 462.31 112.85 461.89 111.32 461.54 109.79 C 461.10 111.31 460.68 112.84 460.24 114.37 Z" />
<path fill="#7b97ab" opacity="1.00" d=" M 469.14 108.05 C 471.37 106.46 474.34 107.43 476.90 107.21 C 476.88 107.75 476.83 108.84 476.80 109.39 C 474.91 109.45 473.01 109.45 471.14 109.60 C 471.12 112.72 471.12 115.84 471.12 118.96 C 470.48 118.96 469.22 118.96 468.58 118.96 C 468.78 115.34 467.97 111.55 469.14 108.05 Z" />
<path fill="#7b97ab" opacity="1.00" d=" M 492.50 107.50 C 494.84 106.78 497.46 107.34 499.91 107.24 C 500.10 110.23 499.90 113.24 500.15 116.23 C 500.44 116.54 501.03 117.15 501.32 117.46 C 501.28 118.80 501.24 120.14 501.20 121.48 C 500.69 121.57 499.67 121.76 499.16 121.85 C 499.10 121.13 498.98 119.69 498.92 118.97 C 496.45 118.96 493.97 118.96 491.50 118.98 C 491.64 120.70 491.11 121.94 489.22 121.93 C 489.11 120.37 489.02 118.81 488.99 117.25 C 492.78 115.51 490.81 110.44 492.50 107.50 M 494.42 109.43 C 494.11 111.87 493.76 114.30 493.33 116.73 C 494.35 116.71 496.41 116.68 497.44 116.67 C 497.43 114.26 497.43 111.86 497.43 109.45 C 496.68 109.45 495.17 109.43 494.42 109.43 Z" />
<path fill="#7b97ab" opacity="1.00" d=" M 503.38 107.24 C 504.03 107.22 505.33 107.17 505.97 107.15 C 506.01 111.09 506.01 115.02 505.97 118.96 C 505.33 118.96 504.04 118.95 503.39 118.95 C 503.37 115.05 503.36 111.14 503.38 107.24 Z" />
<path fill="#7b97ab" opacity="1.00" d=" M 508.76 107.19 C 509.40 107.18 510.68 107.18 511.31 107.18 C 511.30 109.80 511.30 112.43 511.33 115.06 C 512.94 112.43 514.54 109.79 516.17 107.17 C 516.81 107.21 518.09 107.30 518.73 107.34 C 518.77 111.21 518.76 115.09 518.74 118.96 C 518.11 118.96 516.84 118.96 516.21 118.96 C 516.20 116.34 516.19 113.73 516.19 111.11 C 514.53 113.68 513.21 116.53 511.19 118.85 C 510.64 118.90 509.54 118.99 508.98 119.04 C 508.57 115.10 508.80 111.14 508.76 107.19 Z" />
<path fill="#7b97ab" opacity="1.00" d=" M 521.44 107.22 C 522.08 107.21 523.35 107.18 523.99 107.16 C 524.01 108.67 524.02 110.18 524.05 111.69 C 525.55 111.68 527.05 111.68 528.55 111.69 C 528.55 110.18 528.56 108.68 528.58 107.18 C 529.22 107.19 530.48 107.19 531.12 107.19 C 531.12 111.11 531.12 115.04 531.11 118.96 C 530.48 118.96 529.20 118.96 528.56 118.96 C 528.56 117.30 528.57 115.64 528.59 113.98 C 527.07 113.89 525.55 113.89 524.04 113.84 C 524.03 115.55 524.02 117.26 524.02 118.96 C 523.38 118.96 522.09 118.95 521.45 118.95 C 521.43 115.04 521.43 111.13 521.44 107.22 Z" />
<path fill="#7b97ab" opacity="1.00" d=" M 556.28 107.22 C 559.33 107.19 562.38 107.11 565.43 107.22 C 565.51 107.77 565.66 108.86 565.74 109.41 C 564.87 109.42 563.12 109.44 562.25 109.45 C 562.25 112.61 562.25 115.78 562.24 118.95 C 561.59 118.96 560.30 118.98 559.65 118.99 C 559.62 115.80 559.62 112.62 559.61 109.44 C 558.80 109.43 557.17 109.42 556.35 109.41 C 556.34 108.86 556.30 107.77 556.28 107.22 Z" />
</g>
<g id="#7894a7fa">
<path fill="#7894a7" opacity="0.98" d=" M 477.01 85.94 C 477.69 85.94 479.03 85.94 479.71 85.94 C 479.70 89.80 479.70 93.65 479.70 97.51 C 479.04 97.53 477.73 97.59 477.07 97.61 C 476.98 93.72 477.03 89.83 477.01 85.94 Z" />
<path fill="#7894a7" opacity="0.98" d=" M 567.51 107.17 C 568.15 107.17 569.43 107.17 570.07 107.17 C 570.16 111.11 570.12 115.04 570.11 118.98 C 569.46 118.98 568.17 118.98 567.52 118.98 C 567.48 115.05 567.47 111.11 567.51 107.17 Z" />
</g>
<g id="#7b97aafe">
<path fill="#7b97aa" opacity="1.00" d=" M 497.20 86.23 C 499.15 85.15 501.41 85.86 503.45 86.20 C 503.25 86.70 502.85 87.71 502.65 88.21 C 501.39 88.15 500.13 88.11 498.88 88.07 C 496.46 89.63 496.99 92.81 497.89 95.10 C 499.99 95.93 503.17 93.50 504.07 96.58 C 501.36 98.04 497.30 98.54 495.28 95.73 C 493.67 92.72 493.95 88.06 497.20 86.23 Z" />
<path fill="#7b97aa" opacity="1.00" d=" M 545.16 85.97 C 547.81 85.77 550.46 85.79 553.12 85.83 C 553.12 86.38 553.11 87.48 553.11 88.03 C 551.32 88.03 549.53 88.04 547.76 88.04 C 547.76 88.51 547.75 89.43 547.74 89.89 C 549.74 90.14 552.16 89.70 553.71 91.32 C 554.89 92.97 554.74 95.73 552.88 96.84 C 550.50 98.15 547.66 97.46 545.09 97.37 C 545.14 93.57 545.09 89.77 545.16 85.97 M 547.76 92.15 C 547.76 92.93 547.77 94.47 547.77 95.24 C 548.68 95.23 550.49 95.21 551.39 95.20 C 551.46 94.71 551.59 93.74 551.65 93.26 C 551.03 91.68 549.00 92.49 547.76 92.15 Z" />
</g>
<g id="#7a96aafd">
<path fill="#7a96aa" opacity="1.00" d=" M 505.75 85.97 C 506.37 85.91 507.62 85.78 508.24 85.72 C 508.23 87.12 508.23 88.52 508.23 89.92 C 510.14 90.12 512.36 89.69 513.97 91.01 C 515.88 92.91 515.07 96.52 512.46 97.31 C 510.31 97.77 508.08 97.51 505.91 97.60 C 505.54 93.74 505.63 89.84 505.75 85.97 M 508.26 92.11 C 508.25 92.91 508.23 94.51 508.22 95.31 C 509.55 95.22 510.88 95.12 512.21 95.02 C 512.08 94.36 511.82 93.05 511.69 92.39 C 510.54 92.25 509.40 92.16 508.26 92.11 Z" />
<path fill="#7a96aa" opacity="1.00" d=" M 480.36 107.41 C 483.00 106.20 486.79 107.40 487.46 110.46 C 488.12 113.14 488.07 116.74 485.48 118.41 C 482.83 119.87 478.53 119.19 477.73 115.85 C 476.88 112.95 477.22 108.79 480.36 107.41 M 482.99 116.82 C 483.71 116.33 484.39 115.77 485.03 115.16 C 485.00 113.70 485.00 112.25 485.02 110.80 C 484.53 110.42 483.55 109.64 483.06 109.26 C 479.05 109.06 478.84 117.06 482.99 116.82 Z" />
<path fill="#7a96aa" opacity="1.00" d=" M 536.37 107.42 C 538.57 106.47 541.56 106.97 542.91 109.10 C 544.09 111.25 544.11 113.95 543.31 116.23 C 541.87 120.25 534.80 120.13 533.76 115.87 C 532.93 112.97 533.25 108.81 536.37 107.42 M 537.39 116.49 C 538.86 117.45 540.07 116.07 541.09 115.18 C 540.96 113.01 541.57 110.27 539.11 109.19 C 535.62 109.25 535.16 114.59 537.39 116.49 Z" />
</g>
<g id="#7b96aafe">
<path fill="#7b96aa" opacity="1.00" d=" M 548.62 107.63 C 550.51 106.50 552.75 107.19 554.77 107.57 C 554.57 108.31 554.34 109.05 554.08 109.77 C 552.88 109.65 551.67 109.26 550.48 109.47 C 548.13 110.55 548.11 113.85 549.20 115.85 C 550.75 117.58 553.14 115.90 555.04 116.63 L 555.04 118.18 C 552.34 119.61 548.01 119.73 546.45 116.61 C 545.16 113.67 545.55 109.32 548.62 107.63 Z" />
</g>
<g id="#00bae5ff">
<path fill="#00bae5" opacity="1.00" d=" M 42.89 142.13 C 36.01 134.83 35.75 123.67 38.96 114.64 C 38.46 119.70 39.87 124.73 42.57 128.99 C 39.97 133.00 42.71 137.80 42.89 142.13 Z" />
</g>
</svg>
