<?xml version="1.0" encoding="UTF-8" ?>
<!DOCTYPE svg PUBLIC "-//W3C//DTD SVG 1.1//EN" "http://www.w3.org/Graphics/SVG/1.1/DTD/svg11.dtd">
<svg width="300pt" height="242pt" viewBox="0 0 300 242" version="1.1" xmlns="http://www.w3.org/2000/svg">
<g id="#ffda00ff">
<path fill="#ffda00" opacity="1.00" d=" M 20.63 0.00 L 21.93 0.00 C 26.11 3.49 29.84 7.49 33.90 11.12 C 43.26 19.55 53.06 27.67 64.21 33.63 C 62.38 24.62 62.33 15.03 65.40 6.28 C 65.70 4.98 66.81 4.25 67.80 3.51 C 69.74 8.59 71.03 13.91 73.15 18.93 C 75.99 26.18 80.15 32.94 85.78 38.36 C 90.18 38.18 94.70 38.06 98.94 39.43 C 103.49 40.82 107.63 44.10 109.40 48.60 C 106.33 48.89 103.06 48.76 100.29 50.31 C 96.69 52.21 94.05 55.40 91.03 58.04 C 85.09 63.41 77.62 66.88 69.88 68.75 C 61.58 70.65 52.88 71.35 45.11 75.11 C 35.55 79.66 26.92 86.01 19.17 93.18 C 15.57 96.38 12.69 100.36 8.74 103.18 C 7.27 100.95 8.54 98.50 9.47 96.37 C 16.64 80.62 28.21 67.12 42.03 56.80 C 47.38 58.28 52.76 59.83 58.33 60.24 C 54.94 57.40 51.17 55.08 47.54 52.56 C 34.89 43.22 25.87 29.29 21.65 14.21 C 20.51 9.60 19.22 4.70 20.63 0.00 Z" />
</g>
<g id="#e5c400ff">
<path fill="#e5c400" opacity="1.00" d=" M 47.54 52.56 C 51.17 55.08 54.94 57.40 58.33 60.24 C 52.76 59.83 47.38 58.28 42.03 56.80 C 43.83 55.35 45.68 53.95 47.54 52.56 Z" />
</g>
<g id="#55db30ff">
<path fill="#55db30" opacity="1.00" d=" M 122.02 65.91 C 131.75 59.64 143.10 54.61 154.94 55.88 C 161.37 56.19 168.46 60.00 170.00 66.65 C 167.66 66.69 165.20 66.31 162.99 67.28 C 160.47 68.29 158.49 70.20 156.42 71.89 C 165.38 79.95 170.98 91.05 174.43 102.45 C 174.97 103.99 175.04 105.60 174.14 107.04 C 171.07 104.74 168.58 101.81 165.87 99.13 C 159.93 93.18 153.34 87.71 145.72 84.05 C 146.75 89.69 148.75 95.62 147.08 101.32 C 144.38 99.44 143.23 96.19 141.34 93.62 C 138.35 88.68 134.68 84.23 130.97 79.84 C 126.91 79.67 122.79 80.16 119.02 81.71 C 111.03 84.95 103.57 89.49 97.01 95.08 C 95.42 96.42 93.95 97.92 92.12 98.94 L 91.55 98.11 C 92.07 95.27 93.98 92.91 95.53 90.53 C 102.70 80.76 111.92 72.57 122.02 65.91 Z" />
<path fill="#55db30" opacity="1.00" d=" M 133.73 125.24 C 134.26 122.73 137.05 122.66 139.09 122.63 C 139.12 125.21 139.15 127.80 139.15 130.38 C 142.48 129.91 146.42 129.33 149.18 131.75 C 152.60 134.77 152.75 139.95 151.84 144.10 C 151.12 147.37 148.27 149.88 145.01 150.46 C 141.16 151.02 137.09 150.57 133.57 148.84 C 133.77 140.97 133.44 133.10 133.73 125.24 M 139.15 134.98 C 139.12 138.58 139.10 142.18 139.16 145.79 C 141.29 145.92 143.94 146.49 145.47 144.55 C 146.95 142.17 146.95 138.81 145.63 136.37 C 144.25 134.07 141.35 134.86 139.15 134.98 Z" />
<path fill="#55db30" opacity="1.00" d=" M 156.86 124.01 C 157.90 122.35 159.98 122.77 161.62 122.86 C 161.62 125.36 161.63 127.87 161.62 130.38 C 164.89 129.94 168.69 129.34 171.47 131.60 C 174.82 134.34 175.15 139.19 174.50 143.17 C 174.03 146.54 171.50 149.54 168.13 150.31 C 164.12 151.22 159.92 150.46 156.11 149.05 C 155.94 142.03 156.08 135.01 156.02 127.99 C 156.14 126.65 155.75 125.03 156.86 124.01 M 161.64 135.00 C 161.63 138.60 161.62 142.20 161.64 145.80 C 163.89 145.97 166.96 146.50 168.22 144.07 C 169.41 141.65 169.39 138.44 167.93 136.14 C 166.54 134.01 163.70 134.94 161.64 135.00 Z" />
<path fill="#55db30" opacity="1.00" d=" M 111.28 133.90 C 111.11 130.98 114.39 130.04 116.75 130.41 C 117.01 134.98 116.48 139.59 117.10 144.14 C 118.22 146.72 121.32 146.03 123.57 146.03 C 123.63 141.70 123.42 137.37 123.65 133.04 C 124.10 130.49 126.97 130.30 129.03 130.44 C 128.96 136.32 129.18 142.20 128.94 148.07 C 128.91 150.54 125.83 150.49 124.07 150.67 C 120.17 150.78 115.08 151.13 112.62 147.41 C 110.47 143.28 111.44 138.38 111.28 133.90 Z" />
<path fill="#55db30" opacity="1.00" d=" M 193.51 130.63 C 197.96 128.99 204.22 130.15 206.07 135.04 C 207.82 139.83 207.51 146.68 202.65 149.55 C 198.13 151.67 191.04 151.21 188.90 145.97 C 186.84 140.75 187.56 132.93 193.51 130.63 M 195.35 135.34 C 193.06 137.51 193.39 141.18 194.15 143.97 C 195.16 146.53 199.09 146.72 200.39 144.32 C 201.53 142.06 201.46 139.29 200.73 136.91 C 200.03 134.76 197.10 133.93 195.35 135.34 Z" />
<path fill="#55db30" opacity="1.00" d=" M 210.94 133.01 C 210.65 131.27 212.36 130.22 213.87 130.18 C 217.88 129.73 222.19 130.30 225.62 132.56 C 226.40 134.25 224.48 135.63 223.04 136.01 C 220.83 135.66 218.68 134.98 216.43 134.95 C 216.45 140.02 216.44 145.10 216.43 150.18 C 214.58 150.23 212.73 150.25 210.89 150.26 C 210.92 144.51 210.76 138.76 210.94 133.01 Z" />
<path fill="#55db30" opacity="1.00" d=" M 233.46 130.57 C 237.61 129.45 242.10 130.12 246.00 131.83 C 245.98 137.22 246.03 142.62 246.00 148.02 C 245.99 150.70 245.51 153.61 243.55 155.60 C 241.31 157.95 237.94 158.43 234.90 159.05 C 234.57 157.57 233.96 155.53 235.44 154.45 C 237.52 153.27 240.02 152.47 240.72 149.88 C 237.49 150.09 233.86 150.88 230.97 148.95 C 227.48 146.68 226.98 141.99 227.45 138.19 C 227.79 134.78 230.09 131.54 233.46 130.57 M 234.12 136.11 C 232.73 138.43 232.60 141.60 233.90 143.98 C 235.33 146.21 238.28 145.42 240.44 145.18 C 240.43 141.79 240.43 138.39 240.43 135.00 C 238.31 134.84 235.71 134.28 234.12 136.11 Z" />
<path fill="#55db30" opacity="1.00" d=" M 283.83 131.41 C 287.72 130.05 292.06 129.34 296.09 130.53 C 298.29 131.11 299.41 133.24 300.00 135.26 L 300.00 149.00 C 295.64 150.79 290.58 151.36 286.06 149.88 C 281.19 148.45 281.30 140.73 285.60 138.66 C 288.47 137.24 291.78 137.74 294.86 137.51 C 294.25 136.53 294.31 134.83 292.89 134.62 C 290.76 134.32 288.60 134.71 286.48 134.40 C 285.18 133.90 284.67 132.41 283.83 131.41 M 288.51 142.44 C 287.89 143.55 287.99 145.06 289.02 145.90 C 290.79 146.53 292.67 146.16 294.49 145.99 C 294.49 144.42 294.49 142.84 294.49 141.27 C 292.51 141.52 290.02 140.74 288.51 142.44 Z" />
<path fill="#55db30" opacity="1.00" d=" M 261.71 131.85 C 262.71 130.18 264.86 130.58 266.47 130.31 C 266.79 134.84 266.19 139.43 266.89 143.94 C 267.61 146.79 271.14 145.95 273.31 146.08 C 273.39 141.73 273.14 137.37 273.43 133.02 C 273.95 130.54 276.76 130.23 278.86 130.48 C 278.88 135.66 278.89 140.83 278.88 146.01 C 278.83 147.32 278.95 148.80 277.97 149.83 C 275.45 150.90 272.63 150.72 269.96 150.70 C 267.27 150.60 264.14 150.03 262.54 147.61 C 260.62 144.43 261.12 140.55 261.01 137.01 C 261.17 135.30 260.64 133.33 261.71 131.85 Z" />
<path fill="#55db30" opacity="1.00" d=" M 179.35 144.46 C 181.35 143.00 184.78 144.43 184.81 147.03 C 185.25 150.01 181.24 151.95 179.08 149.95 C 177.16 148.70 177.45 145.60 179.35 144.46 Z" />
<path fill="#55db30" opacity="1.00" d=" M 252.25 144.32 C 254.64 142.82 258.18 145.21 257.37 148.00 C 257.10 150.40 253.86 151.55 251.99 150.16 C 249.77 148.99 249.90 145.25 252.25 144.32 Z" />
</g>
<g id="#00cfffff">
<path fill="#00cfff" opacity="1.00" d=" M 38.24 110.38 C 41.32 109.14 45.04 108.95 47.95 110.75 C 51.12 112.66 52.72 116.38 52.97 119.96 C 53.48 126.64 50.66 133.30 46.21 138.21 C 42.88 141.83 38.19 144.78 33.09 144.39 C 29.40 144.15 26.21 141.41 25.00 137.99 C 23.07 132.89 24.14 127.14 26.37 122.31 C 28.82 117.17 32.88 112.55 38.24 110.38 Z" />
<path fill="#00cfff" opacity="1.00" d=" M 1.52 127.37 C 1.89 126.08 2.71 124.96 3.91 124.33 C 7.23 124.41 7.26 128.46 7.82 130.92 C 8.84 141.68 10.41 152.74 15.69 162.35 C 17.81 166.26 21.08 169.80 25.53 170.97 C 22.16 172.88 18.73 174.70 15.52 176.89 C 21.25 177.04 26.90 175.40 31.99 172.85 C 32.89 172.44 33.22 171.45 33.77 170.71 C 40.19 168.74 46.08 165.38 51.45 161.39 C 62.90 153.01 73.30 143.31 83.98 134.00 C 86.38 132.09 88.83 129.88 91.94 129.29 C 93.86 128.96 95.69 130.94 94.90 132.83 C 93.67 136.27 90.97 138.88 88.60 141.56 C 80.67 150.14 72.80 159.06 67.56 169.61 C 63.88 176.89 62.32 185.17 62.91 193.30 C 62.52 191.71 62.05 190.15 61.56 188.60 C 60.83 190.98 60.21 193.42 60.11 195.93 C 59.67 204.01 59.60 212.47 62.97 220.01 C 64.60 223.56 66.12 227.71 69.91 229.49 C 68.28 221.94 65.03 214.18 67.55 206.42 C 71.41 212.22 77.10 216.54 83.15 219.86 C 92.44 224.99 102.74 227.82 112.67 231.41 C 115.25 232.47 118.22 233.40 119.73 235.95 C 119.58 236.43 119.27 237.40 119.11 237.88 C 113.97 241.52 107.27 241.25 101.26 242.00 L 94.22 242.00 C 73.81 240.62 53.89 232.93 37.96 220.09 C 19.80 205.63 6.79 184.78 2.10 162.02 C 1.04 157.17 0.58 152.22 0.00 147.30 L 0.00 137.49 C 0.24 134.09 0.49 130.64 1.52 127.37 Z" />
</g>
<g id="#677f90d7">
<path fill="#677f90" opacity="0.84" d=" M 148.21 168.28 L 149.02 167.94 L 149.83 168.30 L 150.17 169.15 L 149.83 169.98 L 148.99 170.32 L 148.16 169.97 L 147.85 169.11 L 148.21 168.28 Z" />
</g>
<g id="#688090d8">
<path fill="#688090" opacity="0.85" d=" M 151.17 168.30 L 151.98 167.94 L 152.80 168.28 L 153.16 169.11 L 152.85 169.96 L 152.02 170.32 L 151.17 169.98 L 150.83 169.14 L 151.17 168.30 Z" />
</g>
<g id="#00bae6ff">
<path fill="#00bae6" opacity="1.00" d=" M 25.53 170.97 C 28.27 171.13 31.04 171.13 33.77 170.71 C 33.22 171.45 32.89 172.44 31.99 172.85 C 26.90 175.40 21.25 177.04 15.52 176.89 C 18.73 174.70 22.16 172.88 25.53 170.97 Z" />
</g>
<g id="#7b97abff">
<path fill="#7b97ab" opacity="1.00" d=" M 110.01 170.85 C 110.65 170.90 111.95 171.00 112.60 171.04 C 113.24 172.90 113.89 174.76 114.53 176.61 C 115.67 174.48 115.15 169.92 118.82 170.81 C 117.50 174.19 116.69 177.80 114.88 180.96 C 113.65 181.63 110.78 182.19 110.87 179.85 C 111.92 179.62 112.98 179.39 114.03 179.15 C 111.96 176.79 111.20 173.68 110.01 170.85 Z" />
<path fill="#7b97ab" opacity="1.00" d=" M 120.25 170.98 C 120.81 170.98 121.93 170.98 122.49 170.98 C 122.50 172.32 122.52 173.66 122.53 175.01 C 123.11 174.92 124.26 174.76 124.83 174.68 C 125.60 172.91 125.63 170.11 128.34 170.77 C 127.93 172.39 127.44 173.99 126.73 175.51 C 127.75 177.32 128.27 179.34 128.77 181.35 C 125.63 182.29 126.13 178.61 125.01 176.97 C 124.39 176.85 123.16 176.60 122.54 176.48 C 122.51 178.06 122.50 179.64 122.49 181.22 C 121.93 181.23 120.81 181.24 120.25 181.25 C 120.25 177.82 120.25 174.40 120.25 170.98 Z" />
<path fill="#7b97ab" opacity="1.00" d=" M 130.36 170.97 C 132.24 170.97 134.13 170.87 136.01 171.09 C 138.63 171.59 139.08 175.61 136.90 176.93 C 135.61 177.65 134.10 177.42 132.70 177.58 C 132.23 179.02 133.75 182.66 130.47 181.29 C 130.13 177.86 130.36 174.41 130.36 170.97 M 132.61 175.61 C 133.30 175.62 134.67 175.64 135.36 175.65 C 135.73 174.74 136.37 173.69 135.15 173.12 C 134.53 173.05 133.28 172.91 132.66 172.84 C 132.64 173.76 132.62 174.69 132.61 175.61 Z" />
<path fill="#7b97ab" opacity="1.00" d=" M 149.38 170.96 C 149.96 170.95 151.11 170.92 151.68 170.91 C 151.62 174.32 151.84 177.74 151.55 181.14 L 149.41 181.37 C 149.33 177.90 149.36 174.43 149.38 170.96 Z" />
<path fill="#7b97ab" opacity="1.00" d=" M 166.58 171.61 C 168.25 170.27 170.46 171.02 172.36 171.17 C 172.27 171.66 172.09 172.64 172.00 173.13 C 170.62 173.22 168.53 172.22 167.66 173.77 C 166.58 175.29 166.68 177.68 168.01 179.03 C 169.59 179.87 171.97 177.90 172.89 180.00 C 172.02 181.67 169.61 181.33 168.04 181.30 C 163.74 180.51 163.47 173.93 166.58 171.61 Z" />
<path fill="#7b97ab" opacity="1.00" d=" M 174.44 170.98 C 175.02 170.98 176.17 170.98 176.75 170.98 C 176.75 171.87 176.75 173.66 176.75 174.55 C 178.18 174.66 179.67 174.55 181.05 175.05 C 183.29 176.20 183.02 179.69 180.92 180.87 C 178.82 181.55 176.58 181.21 174.43 181.06 C 174.44 177.70 174.44 174.34 174.44 170.98 M 176.75 176.45 C 176.75 177.17 176.77 178.59 176.78 179.30 C 177.58 179.21 179.17 179.03 179.96 178.93 C 181.25 176.37 178.29 176.53 176.75 176.45 Z" />
<path fill="#7b97ab" opacity="1.00" d=" M 184.33 170.98 C 184.90 170.98 186.05 170.97 186.62 170.97 C 186.63 172.37 186.66 173.76 186.68 175.16 C 190.38 175.68 188.75 169.91 192.41 170.76 C 191.99 172.39 191.52 174.01 190.83 175.56 C 191.88 177.35 192.34 179.38 192.86 181.37 C 189.60 182.30 190.26 178.55 189.01 176.88 C 188.43 176.79 187.26 176.61 186.68 176.52 C 186.64 178.13 186.63 179.74 186.60 181.36 L 184.43 181.15 C 184.17 177.77 184.36 174.37 184.33 170.98 Z" />
<path fill="#7b97ab" opacity="1.00" d=" M 218.98 170.98 C 219.54 170.98 220.68 170.98 221.24 170.98 C 221.21 174.33 221.35 177.69 221.18 181.05 C 220.63 181.13 219.52 181.30 218.97 181.38 C 218.93 177.91 218.96 174.44 218.98 170.98 Z" />
<path fill="#7b97ab" opacity="1.00" d=" M 232.75 170.75 C 236.41 169.89 234.69 175.54 238.27 175.18 C 238.29 173.78 238.31 172.37 238.33 170.97 C 238.88 170.97 239.99 170.98 240.54 170.98 C 240.56 172.39 240.60 173.81 240.64 175.22 C 244.24 175.49 242.47 169.82 246.22 170.75 C 245.81 172.39 245.31 174.01 244.57 175.54 C 245.69 177.29 246.14 179.33 246.66 181.32 C 243.55 182.22 243.93 178.85 242.94 177.01 C 242.36 176.86 241.19 176.56 240.61 176.40 C 240.57 178.05 240.56 179.71 240.53 181.37 C 236.93 182.43 238.82 178.14 238.25 176.44 C 234.06 175.65 236.48 182.50 232.26 181.37 C 232.75 179.37 233.24 177.33 234.29 175.53 C 233.62 173.98 233.12 172.38 232.75 170.75 Z" />
<path fill="#7b97ab" opacity="1.00" d=" M 172.45 189.63 C 173.02 189.64 174.17 189.64 174.74 189.64 C 174.76 193.10 174.76 196.55 174.72 200.01 C 174.15 199.99 173.01 199.94 172.44 199.92 C 172.44 196.49 172.43 193.06 172.45 189.63 Z" />
<path fill="#7b97ab" opacity="1.00" d=" M 188.26 189.64 C 188.83 189.64 189.98 189.64 190.55 189.63 C 190.55 190.94 190.56 192.24 190.57 193.55 C 191.53 193.55 193.46 193.56 194.42 193.56 C 194.43 192.23 194.45 190.92 194.47 189.60 L 196.74 189.67 C 196.76 193.11 196.76 196.56 196.71 200.01 C 196.14 199.99 195.01 199.95 194.44 199.92 C 194.44 198.45 194.45 196.97 194.45 195.50 C 193.48 195.50 191.52 195.50 190.55 195.50 C 190.55 196.97 190.55 198.45 190.56 199.93 C 189.99 199.94 188.85 199.98 188.28 200.00 C 188.24 196.55 188.24 193.09 188.26 189.64 Z" />
<path fill="#7b97ab" opacity="1.00" d=" M 228.50 189.64 C 229.28 189.64 230.06 189.65 230.85 189.68 C 230.80 193.13 230.82 196.58 230.78 200.03 C 230.21 199.99 229.07 199.93 228.50 199.89 C 228.51 196.47 228.49 193.05 228.50 189.64 Z" />
<path fill="#7b97ab" opacity="1.00" d=" M 111.02 189.74 C 113.34 189.62 115.67 189.61 118.00 189.63 C 118.00 190.12 118.00 191.12 117.99 191.61 C 116.43 191.62 114.87 191.62 113.31 191.63 L 113.31 193.30 C 115.71 193.05 119.70 193.50 119.17 196.91 C 118.72 200.86 113.88 199.91 111.09 199.91 C 110.96 196.52 110.99 193.13 111.02 189.74 M 113.31 195.15 C 113.32 195.89 113.33 197.36 113.33 198.10 C 114.79 197.94 117.03 198.15 116.91 196.05 C 115.96 195.06 114.54 195.31 113.31 195.15 Z" />
<path fill="#7b97ab" opacity="1.00" d=" M 120.13 198.84 C 123.40 196.81 121.22 192.33 123.07 189.71 C 125.20 189.53 127.33 189.63 129.46 189.61 C 129.74 193.05 129.61 196.51 129.61 199.96 C 129.06 199.96 127.94 199.96 127.38 199.97 C 127.38 197.19 127.37 194.41 127.37 191.63 C 126.67 191.63 125.26 191.63 124.56 191.63 C 124.18 194.62 124.85 199.43 120.97 200.21 C 120.76 199.87 120.34 199.19 120.13 198.84 Z" />
<path fill="#7b97ab" opacity="1.00" d=" M 131.09 200.11 C 132.25 196.66 132.99 192.93 134.77 189.77 C 135.33 189.70 136.46 189.56 137.02 189.48 C 138.29 192.97 139.46 196.50 140.54 200.05 C 138.60 200.59 137.82 199.26 137.24 197.73 C 136.55 197.79 135.18 197.91 134.50 197.97 C 133.91 199.48 132.68 200.21 131.09 200.11 M 135.79 196.23 C 137.39 195.92 136.79 193.39 135.82 192.68 C 134.65 193.27 134.26 195.81 135.79 196.23 Z" />
<path fill="#7b97ab" opacity="1.00" d=" M 151.34 190.44 C 153.56 188.58 157.77 189.40 158.51 192.41 C 159.26 195.05 158.92 198.75 155.99 199.90 C 153.93 200.34 151.18 200.09 150.26 197.87 C 149.33 195.49 149.31 192.27 151.34 190.44 M 153.01 191.93 C 151.69 193.55 151.70 196.22 153.07 197.82 C 157.72 199.89 157.51 189.41 153.01 191.93 Z" />
<path fill="#7b97ab" opacity="1.00" d=" M 159.90 198.45 C 163.02 196.74 161.85 192.55 162.78 189.65 C 165.05 189.60 167.33 189.54 169.59 189.90 C 169.55 192.41 169.55 194.93 169.58 197.45 C 171.39 198.48 170.33 200.69 170.55 202.34 L 168.67 202.39 C 168.64 201.79 168.59 200.58 168.56 199.97 C 166.42 199.96 164.28 199.96 162.14 199.97 C 162.04 200.55 161.85 201.72 161.76 202.30 C 159.08 203.22 160.18 200.00 159.90 198.45 M 163.68 197.99 C 164.57 197.98 166.36 197.96 167.25 197.96 C 167.25 195.81 167.25 193.67 167.25 191.53 C 166.61 191.58 165.33 191.68 164.69 191.73 C 164.25 193.79 164.04 195.90 163.68 197.99 Z" />
<path fill="#7b97ab" opacity="1.00" d=" M 200.36 190.45 C 202.44 188.70 206.43 189.28 207.37 192.03 C 208.09 193.86 208.00 196.00 207.28 197.82 C 205.73 201.20 199.68 200.81 198.96 197.00 C 198.46 194.79 198.50 192.03 200.36 190.45 M 202.04 191.91 C 200.33 193.84 200.67 198.76 204.14 198.02 C 206.53 196.32 205.71 190.04 202.04 191.91 Z" />
<path fill="#7b97ab" opacity="1.00" d=" M 210.55 198.54 C 208.87 196.00 209.12 191.68 211.99 190.06 C 213.64 188.97 215.65 189.79 217.43 189.91 C 217.30 190.39 217.05 191.35 216.92 191.83 C 215.50 191.85 213.44 190.93 212.54 192.55 C 211.75 193.97 211.64 195.98 212.65 197.33 C 214.19 199.06 217.44 196.13 218.07 199.19 C 215.72 200.07 212.33 200.86 210.55 198.54 Z" />
<path fill="#7b97ab" opacity="1.00" d=" M 218.84 189.78 C 221.55 189.48 224.28 189.64 227.00 189.66 C 226.98 190.15 226.94 191.11 226.92 191.60 C 226.19 191.61 224.73 191.62 224.00 191.62 C 224.00 194.39 224.00 197.17 223.98 199.94 C 223.40 199.95 222.23 199.96 221.65 199.97 C 221.63 197.19 221.62 194.41 221.62 191.63 C 220.89 191.63 219.43 191.61 218.70 191.60 L 218.84 189.78 Z" />
</g>
<g id="#7995a9fc">
<path fill="#7995a9" opacity="1.00" d=" M 141.87 170.85 C 142.53 170.96 143.85 171.19 144.52 171.31 C 145.83 174.59 146.80 178.00 147.90 181.36 C 145.99 181.68 144.91 180.91 144.65 179.04 C 143.65 179.07 142.65 179.15 141.66 179.27 C 141.12 180.82 140.04 181.52 138.40 181.37 C 139.47 177.84 140.69 174.35 141.87 170.85 M 143.17 174.21 C 142.00 174.67 141.58 177.19 143.06 177.54 C 144.55 177.26 144.55 174.62 143.17 174.21 Z" />
<path fill="#7995a9" opacity="1.00" d=" M 178.69 186.62 C 180.56 187.58 182.47 188.05 184.16 186.47 C 185.07 189.98 178.41 190.28 178.69 186.62 Z" />
<path fill="#7995a9" opacity="1.00" d=" M 177.23 189.77 C 177.78 189.70 178.87 189.55 179.42 189.48 C 179.44 191.77 179.43 194.06 179.42 196.35 C 180.95 194.17 182.03 191.62 183.91 189.72 C 184.41 189.70 185.41 189.66 185.92 189.63 C 186.00 193.05 185.98 196.47 185.95 199.89 C 185.39 199.92 184.27 199.98 183.70 200.01 C 183.69 197.71 183.68 195.41 183.67 193.11 C 182.17 195.44 180.95 197.97 179.13 200.07 C 178.67 199.99 177.75 199.85 177.29 199.78 C 177.07 196.45 177.13 193.10 177.23 189.77 Z" />
</g>
<g id="#7b97abfe">
<path fill="#7b97ab" opacity="1.00" d=" M 154.12 170.98 C 154.70 170.98 155.86 170.98 156.44 170.98 C 156.44 172.28 156.43 173.58 156.43 174.88 C 157.72 174.88 159.02 174.88 160.31 174.88 C 160.32 173.58 160.32 172.28 160.33 170.98 C 160.91 170.98 162.06 170.98 162.63 170.98 C 162.63 174.45 162.66 177.92 162.59 181.39 C 159.13 182.41 160.71 178.53 160.27 176.85 C 159.31 176.83 157.41 176.81 156.46 176.80 C 156.45 178.19 156.46 179.59 156.37 180.98 C 155.81 181.08 154.69 181.28 154.13 181.39 C 154.11 177.91 154.12 174.44 154.12 170.98 Z" />
<path fill="#7b97ab" opacity="1.00" d=" M 197.24 171.03 C 197.91 171.01 199.24 170.97 199.90 170.94 C 201.05 174.41 202.27 177.84 203.29 181.35 C 201.51 181.61 200.45 180.78 200.06 179.13 C 199.31 179.13 197.83 179.13 197.08 179.13 C 196.70 180.80 195.54 181.52 193.84 181.37 C 194.89 177.90 196.09 174.47 197.24 171.03 M 197.99 177.06 C 199.71 178.38 199.89 174.82 198.62 174.29 C 197.65 174.95 197.44 175.87 197.99 177.06 Z" />
<path fill="#7b97ab" opacity="1.00" d=" M 209.02 170.98 C 211.32 170.97 213.62 170.96 215.92 170.98 C 215.95 171.44 216.00 172.36 216.03 172.83 C 214.37 173.31 210.82 171.61 211.07 174.49 C 212.66 174.69 214.36 174.49 215.85 175.22 C 217.94 176.63 217.38 180.08 215.09 181.00 C 213.08 181.42 211.01 181.21 208.98 181.18 C 208.96 177.78 208.94 174.38 209.02 170.98 M 211.27 176.44 C 211.26 177.17 211.24 178.62 211.24 179.35 C 212.67 179.31 215.10 179.41 214.78 177.29 C 213.80 176.44 212.46 176.61 211.27 176.44 Z" />
<path fill="#7b97ab" opacity="1.00" d=" M 251.05 170.94 C 251.72 170.96 253.04 171.00 253.70 171.02 C 254.85 174.47 256.03 177.90 257.12 181.36 C 255.41 181.53 254.21 180.84 253.78 179.14 C 253.04 179.14 251.55 179.13 250.81 179.12 C 250.38 180.72 249.46 181.71 247.62 181.33 C 248.69 177.84 249.88 174.39 251.05 170.94 M 252.36 174.30 C 251.44 175.12 251.23 176.09 251.74 177.22 C 253.40 178.05 253.80 174.59 252.36 174.30 Z" />
<path fill="#7b97ab" opacity="1.00" d=" M 142.21 191.06 C 143.53 188.59 147.00 189.99 149.26 189.61 C 150.18 192.79 145.91 191.24 144.24 191.80 C 144.26 194.52 144.25 197.25 144.24 199.97 C 143.69 199.96 142.58 199.95 142.03 199.94 C 142.06 196.98 141.77 194.00 142.21 191.06 Z" />
</g>
<g id="#7792a6f7">
<path fill="#7792a6" opacity="0.97" d=" M 223.71 170.96 C 225.75 171.01 227.84 170.77 229.86 171.21 C 231.93 172.10 232.17 175.13 230.67 176.64 C 229.36 177.73 227.55 177.43 225.98 177.60 C 225.98 178.55 225.99 180.43 226.00 181.37 C 225.42 181.28 224.26 181.10 223.68 181.01 C 223.50 177.66 223.61 174.31 223.71 170.96 M 225.95 172.89 C 226.00 173.63 226.09 175.11 226.14 175.85 C 227.56 175.81 230.50 175.31 228.78 173.17 C 228.08 173.10 226.66 172.96 225.95 172.89 Z" />
</g>
<g id="#00b9e4ff">
<path fill="#00b9e4" opacity="1.00" d=" M 60.11 195.93 C 60.21 193.42 60.83 190.98 61.56 188.60 C 62.05 190.15 62.52 191.71 62.91 193.30 C 63.56 197.94 65.23 202.36 67.55 206.42 C 65.03 214.18 68.28 221.94 69.91 229.49 C 66.12 227.71 64.60 223.56 62.97 220.01 C 59.60 212.47 59.67 204.01 60.11 195.93 Z" />
</g>
</svg>
