<?xml version="1.0" encoding="UTF-8" ?>
<!DOCTYPE svg PUBLIC "-//W3C//DTD SVG 1.1//EN" "http://www.w3.org/Graphics/SVG/1.1/DTD/svg11.dtd">
<svg width="85pt" height="85pt" viewBox="0 0 85 85" version="1.1" xmlns="http://www.w3.org/2000/svg">
<g id="#d3e0e5fe">
<path fill="#d3e0e5" opacity="1.00" d=" M 40.40 0.00 L 44.05 0.00 C 57.79 0.47 70.98 8.04 78.32 19.64 C 82.30 25.81 84.52 33.01 85.00 40.32 L 85.00 44.44 C 84.37 59.04 75.69 72.94 62.79 79.81 C 57.25 82.95 50.95 84.50 44.63 85.00 L 40.85 85.00 C 27.15 84.49 14.01 76.94 6.68 65.36 C 2.68 59.18 0.50 51.94 0.00 44.62 L 0.00 40.56 C 0.56 29.62 5.39 18.90 13.49 11.48 C 20.74 4.62 30.45 0.61 40.40 0.00 M 39.08 3.17 C 24.00 4.30 10.24 14.99 5.29 29.26 C 0.31 42.81 3.62 58.97 13.64 69.40 C 22.61 79.23 36.83 83.92 49.89 81.28 C 65.73 78.47 78.95 65.02 81.44 49.11 C 83.96 35.28 78.25 20.44 67.23 11.75 C 59.42 5.40 49.11 2.26 39.08 3.17 Z" />
</g>
<g id="#d4e1e6ff">
<path fill="#d4e1e6" opacity="1.00" d=" M 30.01 21.00 C 42.34 27.98 54.65 35.03 66.99 42.00 C 54.65 48.98 42.35 56.02 30.01 63.00 C 30.00 49.00 30.00 35.00 30.01 21.00 Z" />
</g>
</svg>
