<?xml version="1.0" encoding="UTF-8" ?>
<!DOCTYPE svg PUBLIC "-//W3C//DTD SVG 1.1//EN" "http://www.w3.org/Graphics/SVG/1.1/DTD/svg11.dtd">
<svg width="48pt" height="48pt" viewBox="0 0 48 48" version="1.1" xmlns="http://www.w3.org/2000/svg">
<g id="#9cabb1ff">
<path fill="#9cabb1" opacity="1.00" d=" M 15.01 9.00 C 18.00 6.00 20.99 3.00 24.00 0.01 C 27.01 3.00 30.00 6.00 32.99 9.00 C 30.99 9.00 29.00 9.00 27.00 9.00 C 27.00 12.00 27.00 15.00 27.00 18.00 C 25.00 18.00 23.00 18.00 21.00 18.00 C 21.00 15.00 21.00 12.00 21.00 9.00 C 19.00 9.00 17.00 9.00 15.01 9.00 Z" />
<path fill="#9cabb1" opacity="1.00" d=" M 0.01 24.00 C 3.00 20.99 6.00 18.00 9.00 15.01 C 9.00 17.00 9.00 19.00 9.00 21.00 C 12.00 21.00 15.00 21.00 18.00 21.00 C 18.00 23.00 18.00 25.00 18.00 27.00 C 15.00 27.00 12.00 27.00 9.00 27.00 C 9.00 29.00 9.00 30.99 9.00 32.99 C 6.00 30.00 3.00 27.01 0.01 24.00 Z" />
<path fill="#9cabb1" opacity="1.00" d=" M 39.00 15.01 C 42.00 18.00 45.00 20.99 47.99 24.00 C 45.00 27.01 42.00 30.00 39.00 32.99 C 39.00 30.99 39.00 29.00 39.00 27.00 C 36.00 27.00 33.00 27.00 30.00 27.00 C 30.00 25.00 30.00 23.00 30.00 21.00 C 33.00 21.00 36.00 21.00 39.00 21.00 C 39.00 19.00 39.00 17.01 39.00 15.01 Z" />
<path fill="#9cabb1" opacity="1.00" d=" M 21.00 30.00 C 23.00 30.00 25.00 30.00 27.00 30.00 C 27.00 33.00 27.00 36.00 27.00 39.00 C 29.00 39.00 30.99 39.00 32.99 39.00 C 30.00 42.00 27.01 45.00 24.00 47.99 C 20.99 45.00 18.00 42.00 15.01 39.00 C 17.00 39.00 19.00 39.00 21.00 39.00 C 21.00 36.00 21.00 33.00 21.00 30.00 Z" />
</g>
</svg>
