<?xml version="1.0" encoding="UTF-8" ?>
<!DOCTYPE svg PUBLIC "-//W3C//DTD SVG 1.1//EN" "http://www.w3.org/Graphics/SVG/1.1/DTD/svg11.dtd">
<svg width="48pt" height="48pt" viewBox="0 0 48 48" version="1.1" xmlns="http://www.w3.org/2000/svg">
<g id="#cedbe0ff">
<path fill="#cedbe0" opacity="1.00" d=" M 23.88 0.00 L 23.98 0.00 C 27.01 2.97 29.98 6.00 32.99 8.99 C 30.99 9.00 29.00 9.00 27.00 9.00 C 27.00 12.00 27.00 15.00 27.00 18.00 C 25.00 18.00 23.00 18.00 21.00 18.00 C 21.00 15.00 21.00 12.00 21.00 9.00 C 19.00 9.00 17.01 9.00 15.01 8.99 C 17.95 5.98 21.03 3.10 23.88 0.00 Z" />
<path fill="#cedbe0" opacity="1.00" d=" M 0.00 23.37 C 3.49 21.27 5.92 17.71 8.99 15.01 C 9.00 17.01 9.00 19.00 9.00 21.00 C 12.00 21.00 15.00 21.00 18.00 21.00 C 18.00 23.00 18.00 24.99 18.00 26.99 C 15.48 27.05 12.96 27.05 10.46 26.78 C 7.81 27.09 10.01 30.91 8.28 31.80 C 5.27 29.69 3.45 26.10 0.00 24.57 L 0.00 23.37 Z" />
<path fill="#cedbe0" opacity="1.00" d=" M 39.01 15.01 C 42.02 17.96 44.92 21.03 48.00 23.90 L 48.00 23.98 C 45.03 27.01 42.00 29.98 39.01 32.99 C 39.00 30.99 39.00 29.00 39.00 27.00 C 36.00 27.00 33.00 27.00 30.00 27.00 C 30.00 25.00 30.00 23.00 30.00 21.00 C 33.00 21.00 36.00 21.00 39.00 21.00 C 39.00 19.00 39.00 17.01 39.01 15.01 Z" />
<path fill="#cedbe0" opacity="1.00" d=" M 21.00 30.00 C 23.00 30.00 25.00 30.00 27.00 30.00 C 27.00 33.00 27.00 36.00 27.00 39.00 C 29.00 39.00 30.99 39.00 32.99 39.01 C 30.04 42.02 26.97 44.91 24.10 48.00 L 24.02 48.00 C 20.99 45.03 18.02 42.00 15.01 39.01 C 17.01 39.00 19.00 39.00 21.00 39.00 C 21.00 36.00 21.00 33.00 21.00 30.00 Z" />
</g>
</svg>
