<?xml version="1.0" encoding="UTF-8" ?>
<!DOCTYPE svg PUBLIC "-//W3C//DTD SVG 1.1//EN" "http://www.w3.org/Graphics/SVG/1.1/DTD/svg11.dtd">
<svg width="27pt" height="29pt" viewBox="0 0 27 29" version="1.1" xmlns="http://www.w3.org/2000/svg">
<g id="#849196df">
<path fill="#849196" opacity="0.87" d=" M 7.02 0.00 L 18.92 0.00 C 21.53 2.27 23.91 4.79 26.40 7.20 C 26.32 12.87 26.64 18.56 26.28 24.22 C 25.21 25.92 22.89 25.18 21.23 25.51 C 20.89 26.38 20.20 28.12 19.85 28.99 L 20.90 29.00 L 2.03 29.00 C 1.69 28.73 1.00 28.20 0.66 27.93 C 0.59 20.21 0.42 12.48 0.72 4.78 C 1.79 3.05 4.11 3.83 5.77 3.50 C 6.16 2.32 6.57 1.16 7.02 0.00 M 7.88 1.82 C 7.88 9.09 7.73 16.36 7.97 23.62 C 13.51 23.59 19.05 23.63 24.60 23.60 C 24.61 18.75 24.60 13.90 24.61 9.05 C 22.12 9.07 19.55 9.30 17.20 8.30 C 17.24 6.16 17.24 4.01 17.25 1.86 C 14.12 1.79 11.00 1.78 7.88 1.82 M 18.92 1.83 C 19.01 3.64 19.07 5.44 19.10 7.25 C 20.76 7.28 22.42 7.34 24.09 7.27 C 22.99 5.04 20.65 3.60 18.92 1.83 M 2.36 27.11 C 7.90 27.21 13.46 27.31 19.01 27.10 C 18.99 26.68 18.95 25.85 18.93 25.43 C 14.86 25.21 10.79 25.44 6.71 25.33 C 5.48 18.79 6.52 12.03 6.14 5.41 C 5.21 5.40 3.36 5.38 2.44 5.37 C 2.32 12.62 2.47 19.87 2.36 27.11 Z" />
<path fill="#849196" opacity="0.87" d=" M 11.78 12.67 C 11.78 12.07 11.77 11.46 11.76 10.86 C 14.59 10.84 17.44 10.73 20.27 10.99 C 20.43 11.39 20.74 12.20 20.90 12.60 C 17.86 12.71 14.82 12.67 11.78 12.67 Z" />
<path fill="#849196" opacity="0.87" d=" M 12.89 15.00 C 14.78 14.44 16.76 14.46 18.71 14.41 C 18.72 14.90 18.74 15.89 18.75 16.38 C 16.73 16.28 14.28 16.94 12.89 15.00 Z" />
<path fill="#849196" opacity="0.87" d=" M 11.80 18.22 C 14.86 17.97 17.94 18.04 21.00 18.25 C 20.85 18.62 20.55 19.35 20.41 19.71 C 17.56 20.11 14.65 19.95 11.78 19.79 C 11.78 19.39 11.79 18.61 11.80 18.22 Z" />
</g>
</svg>
