<?xml version="1.0" encoding="UTF-8" ?>
<!DOCTYPE svg PUBLIC "-//W3C//DTD SVG 1.1//EN" "http://www.w3.org/Graphics/SVG/1.1/DTD/svg11.dtd">
<svg width="27pt" height="29pt" viewBox="0 0 27 29" version="1.1" xmlns="http://www.w3.org/2000/svg">
<g id="#cedbe0ff">
<path fill="#cedbe0" opacity="1.00" d=" M 9.69 0.00 L 17.31 0.00 C 17.72 0.31 18.54 0.93 18.95 1.24 C 18.98 1.91 19.05 3.24 19.08 3.91 C 21.07 3.92 23.07 3.82 25.05 4.07 C 26.64 4.80 25.87 6.78 26.15 8.13 C 25.68 8.48 24.73 9.16 24.26 9.50 C 24.22 15.51 24.49 21.53 24.16 27.52 C 23.99 27.89 23.64 28.63 23.46 29.00 L 3.53 29.00 C 2.20 22.62 3.19 16.01 2.93 9.53 C 2.41 9.09 1.38 8.20 0.86 7.76 C 1.03 6.44 0.80 4.79 2.22 4.06 C 4.08 3.83 5.97 3.92 7.85 3.91 C 8.02 2.41 8.46 0.98 9.69 0.00 M 10.00 2.01 C 10.00 2.50 10.00 3.49 10.00 3.98 C 12.44 3.97 14.88 3.97 17.33 3.98 C 17.42 3.50 17.61 2.56 17.70 2.08 C 15.13 1.98 12.56 2.01 10.00 2.01 M 3.34 7.39 C 10.62 7.32 17.95 7.77 25.22 7.15 C 25.01 6.70 24.59 5.80 24.39 5.34 C 17.59 5.13 10.78 5.30 3.99 5.26 C 2.45 4.62 1.71 7.40 3.34 7.39 M 4.25 9.23 C 4.39 15.19 4.34 21.16 4.28 27.12 C 10.48 27.49 16.72 27.41 22.92 27.17 C 22.83 21.16 22.90 15.15 22.89 9.14 C 21.60 9.09 20.30 9.07 19.01 9.07 C 19.00 13.91 19.03 18.76 18.99 23.60 C 18.58 23.47 17.76 23.22 17.35 23.09 C 17.49 18.37 17.66 13.63 17.35 8.92 C 16.57 9.03 15.03 9.25 14.26 9.36 C 14.41 13.88 14.44 18.42 14.34 22.94 L 12.98 23.83 C 12.68 18.98 12.93 14.10 12.86 9.24 C 12.14 9.18 10.69 9.06 9.96 9.00 C 9.98 13.81 9.94 18.63 10.01 23.44 C 9.51 23.39 8.51 23.29 8.01 23.24 C 8.24 18.50 8.14 13.75 8.09 9.01 C 6.81 9.05 5.53 9.12 4.25 9.23 Z" />
</g>
</svg>
