<?xml version="1.0" encoding="UTF-8" ?>
<!DOCTYPE svg PUBLIC "-//W3C//DTD SVG 1.1//EN" "http://www.w3.org/Graphics/SVG/1.1/DTD/svg11.dtd">
<svg width="25pt" height="28pt" viewBox="0 0 25 28" version="1.1" xmlns="http://www.w3.org/2000/svg">
<g id="#bcc7cce2">
<path fill="#bcc7cc" opacity="0.89" d=" M 1.31 0.00 L 14.26 0.00 C 17.31 2.84 21.64 5.48 21.62 10.16 L 20.65 10.03 C 18.52 8.15 15.49 8.83 12.91 8.26 C 12.92 6.11 12.93 3.96 12.94 1.81 C 9.31 1.72 5.68 1.72 2.05 1.79 C 2.10 9.92 2.09 18.05 2.06 26.17 C 3.63 26.22 5.21 26.26 6.78 26.31 C 7.06 26.73 7.61 27.58 7.88 28.00 L 1.55 28.00 C 0.02 24.90 0.90 21.33 0.70 18.01 C 0.99 12.01 0.06 5.92 1.31 0.00 M 14.26 1.70 C 14.26 3.47 14.28 5.23 14.33 7.00 C 16.09 7.00 17.85 6.99 19.62 6.96 C 17.95 5.09 16.17 3.33 14.26 1.70 Z" />
<path fill="#bcc7cc" opacity="0.89" d=" M 9.16 23.45 C 12.93 19.61 16.69 15.76 20.60 12.07 C 22.10 13.48 23.60 14.89 25.00 16.39 L 25.00 16.84 C 21.16 20.49 17.56 24.39 13.68 28.00 L 9.54 28.00 C 9.40 26.48 9.27 24.97 9.16 23.45 M 19.72 17.28 C 20.81 19.19 22.05 17.63 23.17 16.71 C 22.25 15.85 21.32 14.99 20.40 14.14 C 19.76 15.01 17.99 16.42 19.72 17.28 M 17.51 17.30 C 16.13 18.66 14.75 20.02 13.34 21.35 C 13.04 22.54 12.74 23.73 12.23 24.85 L 11.18 23.05 C 11.12 23.85 11.01 25.44 10.96 26.24 C 11.95 26.23 12.94 26.21 13.93 26.19 L 12.92 24.70 C 16.04 24.32 17.89 21.70 20.04 19.71 C 19.20 18.90 18.36 18.10 17.51 17.30 Z" />
</g>
</svg>
