<?xml version="1.0" encoding="UTF-8" ?>
<!DOCTYPE svg PUBLIC "-//W3C//DTD SVG 1.1//EN" "http://www.w3.org/Graphics/SVG/1.1/DTD/svg11.dtd">
<svg width="27pt" height="29pt" viewBox="0 0 27 29" version="1.1" xmlns="http://www.w3.org/2000/svg">
<g id="#97a6acff">
<path fill="#97a6ac" opacity="1.00" d=" M 9.50 0.00 L 17.31 0.00 C 17.71 0.30 18.50 0.91 18.90 1.21 C 18.96 1.89 19.09 3.26 19.16 3.94 C 21.14 3.93 23.12 3.85 25.09 4.07 C 26.44 4.85 25.83 6.80 26.27 8.07 C 25.77 8.42 24.77 9.12 24.27 9.47 C 23.99 15.96 25.01 22.61 23.67 29.00 L 3.37 29.00 C 2.39 22.67 3.20 16.24 2.84 9.87 C 2.23 9.00 1.56 8.18 0.83 7.41 C 1.07 6.23 0.98 4.78 2.18 4.07 C 4.00 3.86 5.83 3.93 7.66 3.94 C 8.09 2.54 8.62 1.18 9.50 0.00 M 9.99 2.00 C 9.99 2.50 9.99 3.50 9.99 4.00 C 12.43 4.00 14.87 4.00 17.30 4.00 C 17.42 3.52 17.66 2.54 17.77 2.06 C 15.18 1.99 12.59 1.97 9.99 2.00 M 2.24 7.33 C 9.95 7.40 17.69 7.71 25.39 7.16 C 25.12 6.72 24.59 5.83 24.33 5.38 C 17.56 5.08 10.77 5.32 3.99 5.26 C 2.50 4.69 2.79 6.61 2.24 7.33 M 4.36 9.28 C 4.24 15.24 4.39 21.21 4.31 27.17 C 10.50 27.46 16.71 27.38 22.90 27.23 C 22.86 21.19 22.88 15.16 22.89 9.13 C 21.61 9.12 20.32 9.08 19.04 9.01 C 18.95 13.93 19.09 18.85 18.94 23.77 C 18.56 23.57 17.80 23.17 17.41 22.97 C 17.35 18.32 17.80 13.63 17.30 9.00 C 16.69 9.02 15.48 9.06 14.87 9.08 L 14.42 9.49 C 14.22 13.79 14.48 18.10 14.40 22.40 C 14.05 22.82 13.35 23.65 13.00 24.07 C 12.68 19.12 12.93 14.15 12.85 9.20 C 12.13 9.14 10.69 9.04 9.97 8.99 C 9.95 13.88 9.98 18.76 9.97 23.65 C 9.50 23.50 8.58 23.20 8.11 23.05 C 8.08 18.33 8.20 13.61 8.10 8.89 C 6.85 8.96 5.60 9.09 4.36 9.28 Z" />
</g>
<g id="#0708080d">
<path fill="#070808" opacity="0.05" d=" M 9.99 2.00 C 12.59 1.97 15.18 1.99 17.77 2.06 C 17.66 2.54 17.42 3.52 17.30 4.00 C 14.87 4.00 12.43 4.00 9.99 4.00 C 9.99 3.50 9.99 2.50 9.99 2.00 Z" />
</g>
</svg>
