<?xml version="1.0" encoding="UTF-8" ?>
<!DOCTYPE svg PUBLIC "-//W3C//DTD SVG 1.1//EN" "http://www.w3.org/Graphics/SVG/1.1/DTD/svg11.dtd">
<svg width="25pt" height="28pt" viewBox="0 0 25 28" version="1.1" xmlns="http://www.w3.org/2000/svg">
<g id="#869398e2">
<path fill="#869398" opacity="0.89" d=" M 1.86 0.00 L 14.24 0.00 C 17.08 2.94 22.23 5.47 21.32 10.25 L 20.19 10.30 C 19.65 6.86 14.94 10.16 12.97 7.92 C 12.84 5.93 12.98 3.93 12.93 1.94 C 9.33 1.58 5.65 1.66 2.05 1.90 C 2.09 9.96 2.10 18.03 2.05 26.10 C 3.63 26.41 5.25 26.19 6.84 26.24 C 7.11 26.68 7.65 27.56 7.92 28.00 L 1.85 28.00 C 1.58 27.72 1.06 27.17 0.80 26.90 C 0.63 18.32 0.67 9.68 0.78 1.09 C 1.05 0.82 1.59 0.27 1.86 0.00 M 14.16 1.99 C 14.22 3.66 14.29 5.33 14.36 7.00 C 16.04 7.01 17.73 7.00 19.42 6.98 C 18.73 5.05 16.30 4.48 15.67 2.50 L 14.16 1.99 Z" />
<path fill="#869398" opacity="0.89" d=" M 9.32 23.40 C 12.97 19.58 16.60 15.63 20.63 12.23 C 22.28 13.38 23.53 14.99 25.00 16.35 L 25.00 16.86 C 21.29 20.28 17.96 24.10 14.16 27.42 L 14.39 28.00 L 9.78 28.00 C 9.04 26.56 9.12 24.95 9.32 23.40 M 19.78 17.25 C 20.56 19.18 22.56 17.84 23.02 16.49 C 22.20 15.82 21.42 15.10 20.67 14.34 C 19.54 14.62 17.95 16.57 19.78 17.25 M 13.30 21.36 C 11.96 22.75 14.28 23.78 14.94 24.76 C 16.48 23.00 18.14 21.33 19.98 19.88 C 19.43 18.83 18.36 18.15 17.53 17.34 C 16.04 18.60 14.81 20.13 13.30 21.36 M 11.29 23.53 C 9.96 25.30 11.86 27.56 13.74 26.04 C 13.58 24.97 12.28 23.81 11.29 23.53 Z" />
</g>
</svg>
