<?xml version="1.0" encoding="UTF-8" ?>
<!DOCTYPE svg PUBLIC "-//W3C//DTD SVG 1.1//EN" "http://www.w3.org/Graphics/SVG/1.1/DTD/svg11.dtd">
<svg width="27pt" height="29pt" viewBox="0 0 27 29" version="1.1" xmlns="http://www.w3.org/2000/svg">
<g id="#b4c0c4e0">
<path fill="#b4c0c4" opacity="0.88" d=" M 7.19 0.00 L 18.93 0.00 C 21.53 2.28 23.91 4.79 26.39 7.20 C 26.35 12.88 26.58 18.57 26.31 24.24 C 25.16 25.97 22.89 25.18 21.17 25.46 C 20.79 26.66 20.48 27.90 19.85 29.00 L 1.84 29.00 C 1.58 28.70 1.06 28.09 0.81 27.79 C 0.30 20.52 0.69 13.18 0.61 5.89 C 0.35 2.97 3.99 3.73 5.83 3.53 C 6.20 2.33 6.42 1.04 7.19 0.00 M 7.87 1.82 C 7.88 9.08 7.74 16.35 7.95 23.61 C 13.50 23.60 19.05 23.63 24.60 23.60 C 24.61 18.75 24.60 13.90 24.60 9.05 C 22.27 8.87 19.66 9.62 17.54 8.38 C 16.89 6.30 17.37 4.02 17.24 1.86 C 14.12 1.78 11.00 1.79 7.87 1.82 M 18.92 1.83 C 19.04 3.64 19.08 5.45 19.14 7.26 C 20.91 7.29 22.69 7.30 24.47 7.29 C 22.75 5.34 20.87 3.54 18.92 1.83 M 2.41 5.42 C 2.36 12.66 2.44 19.89 2.36 27.12 C 7.93 27.19 13.51 27.35 19.06 27.05 C 19.10 26.63 19.18 25.79 19.21 25.37 C 15.13 25.24 11.03 25.59 6.96 25.18 C 6.78 24.88 6.44 24.26 6.27 23.96 C 5.98 17.77 6.32 11.56 6.11 5.37 C 4.88 5.38 3.64 5.40 2.41 5.42 Z" />
<path fill="#b4c0c4" opacity="0.88" d=" M 11.64 10.87 C 14.50 10.85 17.37 10.75 20.23 10.95 C 20.39 11.36 20.70 12.18 20.85 12.60 C 17.86 12.55 14.75 13.05 11.82 12.37 L 11.64 10.87 Z" />
<path fill="#b4c0c4" opacity="0.88" d=" M 13.87 15.18 C 15.10 14.50 18.13 14.04 18.65 15.57 C 17.34 15.95 14.49 16.55 13.87 15.18 Z" />
<path fill="#b4c0c4" opacity="0.88" d=" M 12.08 18.28 C 14.99 17.88 17.95 18.10 20.88 18.21 C 20.77 18.60 20.56 19.38 20.45 19.77 C 17.66 20.01 14.83 20.04 12.05 19.73 L 11.36 18.98 L 12.08 18.28 Z" />
</g>
</svg>
