<?xml version="1.0" encoding="UTF-8" ?>
<!DOCTYPE svg PUBLIC "-//W3C//DTD SVG 1.1//EN" "http://www.w3.org/Graphics/SVG/1.1/DTD/svg11.dtd">
<svg width="50pt" height="58pt" viewBox="0 0 50 58" version="1.1" xmlns="http://www.w3.org/2000/svg">
<g id="#7e878bde">
<path fill="#7e878b" opacity="0.87" d=" M 21.66 0.00 L 29.28 0.00 C 32.16 2.99 35.68 5.68 37.20 9.68 C 38.03 12.47 38.08 15.43 38.93 18.21 C 41.43 19.52 44.31 19.93 46.75 21.36 C 48.59 22.75 49.38 25.05 50.00 27.18 L 50.00 50.93 C 48.99 53.65 47.21 56.00 45.14 58.00 L 5.98 58.00 C 3.49 56.59 1.46 54.52 0.00 52.08 L 0.00 26.02 C 1.04 24.43 2.12 22.83 3.59 21.61 C 6.16 19.95 9.31 19.61 11.99 18.17 C 13.09 14.49 12.68 10.29 14.98 7.04 C 16.88 4.41 19.32 2.23 21.66 0.00 M 24.67 6.85 C 22.77 7.63 20.98 8.88 19.82 10.60 C 19.29 12.77 19.23 15.11 19.74 17.30 C 21.98 20.35 26.27 19.78 29.54 19.36 C 32.67 17.74 32.88 13.76 31.94 10.78 C 30.56 8.28 27.76 5.62 24.67 6.85 M 9.38 27.49 C 7.33 27.97 7.42 30.30 7.39 31.96 C 7.46 37.26 7.33 42.56 7.47 47.86 C 7.43 49.43 8.29 51.57 10.14 51.55 C 16.75 51.79 23.38 51.55 30.00 51.63 C 33.77 51.55 37.59 51.94 41.34 51.32 C 43.19 49.83 43.23 47.20 43.31 45.02 C 43.28 39.33 43.49 33.61 42.76 27.96 C 36.34 25.51 29.60 27.81 23.00 27.30 C 18.47 27.16 13.78 25.91 9.38 27.49 Z" />
<path fill="#7e878b" opacity="0.87" d=" M 25.44 39.62 C 27.48 39.16 29.19 40.75 30.97 41.46 C 30.18 42.76 29.71 44.36 28.49 45.35 C 26.91 45.75 25.22 45.77 23.63 45.38 C 22.22 44.11 22.54 42.03 22.16 40.35 C 23.24 40.07 24.34 39.83 25.44 39.62 Z" />
</g>
</svg>
