<svg xmlns="http://www.w3.org/2000/svg">
<defs>
<font id="Calibri-Bold" horiz-adv-x="1099" >
  <font-face 
    font-family="Calibri"
    font-weight="700"
    font-stretch="normal"
    units-per-em="2048"
    panose-1="2 15 7 2 3 4 4 3 2 4"
    ascent="1536"
    descent="-512"
    x-height="959.996"
    cap-height="1294"
    bbox="-906.143 -380.999 2538 1950"
    underline-thickness="186"
    underline-position="-86"
    unicode-range="U+0020-U+FB04"
  />
<missing-glyph horiz-adv-x="1038" 
d="M987 1294v-1294h-945v1294h945zM879 101v1092h-732v-1092h732zM780 845c0 -38 -5.50098 -71.668 -16.501 -101.001s-26.333 -54.333 -46 -75s-43.334 -37 -71.001 -49s-57.834 -20 -90.501 -24l-5 -121c-0.666992 -8.66699 -8.16699 -14.834 -22.5 -18.501
s-33.833 -5.5 -58.5 -5.5c-15.333 0 -28.166 0.333008 -38.499 1s-18.666 1.83398 -24.999 3.50098s-10.833 4 -13.5 7s-4 7.16699 -4 12.5l-8 157c-2 26.667 2.16699 45 12.5 55s25.5 15 45.5 15h13c24.667 0 45.5 3.5 62.5 10.5s30.833 16.5 41.5 28.5
s18.5 26.167 23.5 42.5s7.5 33.833 7.5 52.5c0 40.667 -12.5 73.5 -37.5 98.5s-63.167 37.5 -114.5 37.5c-23.333 0 -44 -2.16699 -62 -6.5s-33.667 -9 -47 -14s-24.333 -9.66699 -33 -14s-14.667 -6.5 -18 -6.5c-2.66699 0 -5.33398 0.833008 -8.00098 2.5
s-5 4.83398 -7 9.50098s-3.5 11.5 -4.5 20.5s-1.5 21.167 -1.5 36.5c0 17.333 0.833008 30.666 2.5 39.999s5.16699 16.333 10.5 21c4.66699 5.33301 13.5 10.833 26.5 16.5s28.5 10.834 46.5 15.501s38 8.66699 60 12s44.667 5 68 5c56.667 0 104.834 -7 144.501 -21
s71.834 -33 96.501 -57s42.667 -52.167 54 -84.5s17 -66.5 17 -102.5zM573.999 283.999c0 -17.333 -1.66699 -32.166 -5 -44.499s-9 -22.333 -17 -30s-18.5 -13.167 -31.5 -16.5s-28.833 -5 -47.5 -5c-19.333 0 -35.5 1.66699 -48.5 5s-23.5 8.83301 -31.5 16.5
s-13.667 17.667 -17 30s-5 27.166 -5 44.499c0 18.667 1.66699 34.167 5 46.5s9 22.5 17 30.5s18.5 13.667 31.5 17s29.167 5 48.5 5c18.667 0 34.5 -1.66699 47.5 -5s23.5 -9 31.5 -17s13.667 -18.167 17 -30.5s5 -27.833 5 -46.5zM-0.000976562 -397.001z" />
    <glyph glyph-name="uniFB00" unicode="ff" horiz-adv-x="1230" 
d="M1247 1268c0 -32 -2.16895 -54.666 -6.50195 -67.999s-11.5 -20 -21.5 -20c-4.66699 0 -9.83398 1 -15.501 3s-12.667 4.33301 -21 7s-17.833 5 -28.5 7s-23 3 -37 3c-38.667 0 -66.5 -12 -83.5 -36s-25.5 -63.667 -25.5 -119v-85h163c6 0 11.5 -1.66699 16.5 -5
s9.33301 -8.83301 13 -16.5s6.33398 -18.167 8.00098 -31.5s2.5 -29.666 2.5 -48.999c0 -36.667 -3.5 -62.834 -10.5 -78.501s-16.5 -23.5 -28.5 -23.5h-164v-722c0 -6.66699 -2 -12.5 -6 -17.5s-10.667 -9.16699 -20 -12.5s-22.166 -5.83301 -38.499 -7.5
s-36.5 -2.5 -60.5 -2.5c-24.667 0 -45.167 0.833008 -61.5 2.5s-29.166 4.16699 -38.499 7.5s-16 7.5 -20 12.5s-6 10.833 -6 17.5v722h-331v-722c0 -6.66699 -2 -12.5 -6 -17.5s-10.833 -9.16699 -20.5 -12.5s-22.667 -5.83301 -39 -7.5s-36.5 -2.5 -60.5 -2.5
s-44.167 0.833008 -60.5 2.5s-29.333 4.16699 -39 7.5s-16.334 7.5 -20.001 12.5s-5.5 10.833 -5.5 17.5v722h-112c-12.667 0 -22.167 7.83301 -28.5 23.5s-9.5 41.834 -9.5 78.501c0 19.333 0.833008 35.666 2.5 48.999s4 23.833 7 31.5s7 13.167 12 16.5s10.833 5 17.5 5
h111v66c0 60 6.16699 112.667 18.5 158s31.333 83.166 57 113.499s58 53.166 97 68.499s85.167 23 138.5 23c29.333 0 55.666 -2.5 78.999 -7.5s43.333 -10.5 60 -16.5c8 -2.66699 14.333 -6.16699 19 -10.5s8.5 -10.666 11.5 -18.999s5.16699 -19 6.5 -32
s2 -29.167 2 -48.5c0 -32.667 -2.16699 -55.667 -6.5 -69s-11.5 -20 -21.5 -20c-4.66699 0 -10 1 -16 3l-21 7c-8 2.66699 -17.5 5.16699 -28.5 7.5s-23.167 3.5 -36.5 3.5c-38.667 0 -66.334 -12.167 -83.001 -36.5s-25 -64.166 -25 -119.499v-71h331v79
c0 60.667 6.33301 113.667 19 159s31.834 83.166 57.501 113.499s58 53 97 68s85.5 22.5 139.5 22.5c28.667 0 54.834 -2.33301 78.501 -7s43.834 -10 60.501 -16c7.33301 -2.66699 13.5 -6.33398 18.5 -11.001s8.83301 -11 11.5 -19s4.66699 -18.667 6 -32
s2 -29.666 2 -48.999z" />
    <glyph glyph-name="uniFB01" unicode="fi" horiz-adv-x="1135" 
d="M1027 1226c0 -24.667 -2.16699 -45.5 -6.5 -62.5s-11.833 -30.667 -22.5 -41s-25.167 -17.666 -43.5 -21.999s-41.166 -6.5 -68.499 -6.5s-50.333 2.16699 -69 6.5s-33.5 11.666 -44.5 21.999s-18.667 24 -23 41s-6.5 37.833 -6.5 62.5c0 24 2.16699 44.333 6.5 61
s12 30.334 23 41.001s25.833 18.334 44.5 23.001s41.667 7 69 7s50.166 -2.33301 68.499 -7s32.833 -12.334 43.5 -23.001s18.167 -24.334 22.5 -41.001s6.5 -37 6.5 -61zM1008 34c0 -6.66699 -2.00195 -12.498 -6.00195 -17.498s-10.667 -9.16699 -20 -12.5
s-22.166 -5.83301 -38.499 -7.5s-36.5 -2.5 -60.5 -2.5c-24.667 0 -45.167 0.833008 -61.5 2.5s-29.166 4.16699 -38.499 7.5s-16 7.5 -20 12.5s-6 10.833 -6 17.5v722h-331v-722c0 -6.66699 -2 -12.5 -6 -17.5s-10.667 -9.16699 -20 -12.5s-22.166 -5.83301 -38.499 -7.5
s-36.833 -2.5 -61.5 -2.5c-24 0 -44.167 0.833008 -60.5 2.5s-29.333 4.16699 -39 7.5s-16.334 7.5 -20.001 12.5s-5.5 10.833 -5.5 17.5v722h-112c-12.667 0 -22.167 7.83301 -28.5 23.5s-9.5 41.834 -9.5 78.501c0 19.333 0.833008 35.666 2.5 48.999s4 23.833 7 31.5
s7 13.167 12 16.5s10.833 5 17.5 5h111v79c0 60.667 6.16699 113.667 18.5 159s31.166 83.166 56.499 113.499s57.333 53 96 68s84.334 22.5 137.001 22.5c14.667 0 29.5 -0.666992 44.5 -2s29.167 -3.33301 42.5 -6s25 -5.66699 35 -9s16.833 -6.83301 20.5 -10.5
s6.66699 -7.83398 9 -12.501s4.33301 -10.667 6 -18s2.83398 -16.833 3.50098 -28.5s1 -26.167 1 -43.5c0 -32 -1.83301 -54.5 -5.5 -67.5s-10.834 -19.5 -21.501 -19.5c-4 0 -8.5 0.666992 -13.5 2l-18 5c-7 2 -15.167 3.83301 -24.5 5.5s-21 2.5 -35 2.5
c-35.333 0 -61 -12 -77 -36s-24 -63.667 -24 -119v-85h506c25.333 0 44.333 -5.5 57 -16.5s19 -28.5 19 -52.5v-857z" />
    <glyph glyph-name="uniFB02" unicode="fl" horiz-adv-x="1135" 
d="M1008 34c0 -6.66699 -1.99609 -12.501 -5.99609 -17.501s-10.667 -9.16699 -20 -12.5s-22.166 -5.83301 -38.499 -7.5s-36.5 -2.5 -60.5 -2.5c-24.667 0 -45.167 0.833008 -61.5 2.5s-29.166 4.16699 -38.499 7.5s-16 7.5 -20 12.5s-6 10.833 -6 17.5v1158
c-2 -4 -4.83301 -7 -8.5 -9s-8.16699 -3 -13.5 -3c-7.33301 0 -17 1.33301 -29 4s-25.333 5.16699 -40 7.5s-29.167 4 -43.5 5s-28.5 1.5 -42.5 1.5c-30 0 -55 -3 -75 -9s-35.833 -15.167 -47.5 -27.5s-19.834 -28.5 -24.501 -48.5s-7 -43.667 -7 -71v-82h148
c6.66699 0 12.5 -1.66699 17.5 -5s9.16699 -8.83301 12.5 -16.5s5.83301 -18.167 7.5 -31.5s2.5 -29.666 2.5 -48.999c0 -36.667 -3.33301 -62.834 -10 -78.501s-16.334 -23.5 -29.001 -23.5h-149v-722c0 -6.66699 -2 -12.5 -6 -17.5s-10.667 -9.16699 -20 -12.5
s-22.166 -5.83301 -38.499 -7.5s-36.833 -2.5 -61.5 -2.5c-24 0 -44.167 0.833008 -60.5 2.5s-29.333 4.16699 -39 7.5s-16.334 7.5 -20.001 12.5s-5.5 10.833 -5.5 17.5v722h-112c-12.667 0 -22.167 7.83301 -28.5 23.5s-9.5 41.834 -9.5 78.501
c0 19.333 0.833008 35.666 2.5 48.999s4 23.833 7 31.5s7 13.167 12 16.5s10.833 5 17.5 5h111v77c0 60 6.66699 112.833 20 158.5s34.5 83.667 63.5 114s65.667 53 110 68s97.833 22.5 160.5 22.5c18 0 37.167 -0.666992 57.5 -2s40.166 -3.16602 59.499 -5.49902
s36 -5 50 -8s25 -6 33 -9s14.333 -6.5 19 -10.5s8 -9 10 -15c0.666992 6 2.5 11.333 5.5 16s8.66699 9 17 13s20.666 7.16699 36.999 9.5s38.166 3.5 65.499 3.5c24 0 44.167 -1 60.5 -3s29.166 -4.83301 38.499 -8.5s16 -8.16699 20 -13.5s6 -11.333 6 -18v-1315z" />
    <glyph glyph-name="uniFB03" unicode="ffi" horiz-adv-x="1718" 
d="M1611 1226c0 -24.667 -2.16699 -45.5 -6.5 -62.5s-12 -30.667 -23 -41s-25.667 -17.666 -44 -21.999s-41.5 -6.5 -69.5 -6.5c-27.333 0 -50.166 2.16699 -68.499 6.5s-33 11.666 -44 21.999s-18.833 24 -23.5 41s-7 37.833 -7 62.5c0 24 2.33301 44.333 7 61
s12.5 30.334 23.5 41.001s25.667 18.334 44 23.001s41.166 7 68.499 7c28 0 51.167 -2.33301 69.5 -7s33 -12.334 44 -23.001s18.667 -24.334 23 -41.001s6.5 -37 6.5 -61zM1592 34c0 -6.66699 -2.00293 -12.4971 -6.00293 -17.4971s-10.833 -9.16699 -20.5 -12.5
s-22.5 -5.83301 -38.5 -7.5s-36.333 -2.5 -61 -2.5s-45 0.833008 -61 2.5s-28.833 4.16699 -38.5 7.5s-16.5 7.5 -20.5 12.5s-6 10.833 -6 17.5v722h-332v-722c0 -6.66699 -2 -12.5 -6 -17.5s-10.667 -9.16699 -20 -12.5s-22.166 -5.83301 -38.499 -7.5
s-36.5 -2.5 -60.5 -2.5c-24.667 0 -45.167 0.833008 -61.5 2.5s-29.166 4.16699 -38.499 7.5s-16 7.5 -20 12.5s-6 10.833 -6 17.5v722h-331v-722c0 -6.66699 -2 -12.5 -6 -17.5s-10.667 -9.16699 -20 -12.5s-22.333 -5.83301 -39 -7.5s-37 -2.5 -61 -2.5
s-44.167 0.833008 -60.5 2.5s-29.333 4.16699 -39 7.5s-16.334 7.5 -20.001 12.5s-5.5 10.833 -5.5 17.5v722h-112c-12.667 0 -22.167 7.83301 -28.5 23.5s-9.5 41.834 -9.5 78.501c0 19.333 0.833008 35.666 2.5 48.999s4 23.833 7 31.5s7 13.167 12 16.5s10.833 5 17.5 5
h111v66c0 60 6.16699 112.667 18.5 158s31.333 83.166 57 113.499s58 53.166 97 68.499s85.167 23 138.5 23c29.333 0 55.5 -2.33301 78.5 -7s40.833 -9.33398 53.5 -14.001s21.334 -9.16699 26.001 -13.5s8.5 -10.666 11.5 -18.999s5.16699 -19 6.5 -32s2 -29.167 2 -48.5
c0 -32.667 -2.16699 -55.667 -6.5 -69s-11.5 -20 -21.5 -20c-4.66699 0 -10 1 -16 3l-21.5 7c-8.33301 2.66699 -18 5.16699 -29 7.5s-23.167 3.5 -36.5 3.5c-38 0 -65.333 -12.167 -82 -36.5s-25 -64.166 -25 -119.499v-71h331v79c0 60.667 6.33301 113.667 19 159
s31.667 83.166 57 113.499s57.333 53 96 68s84.334 22.5 137.001 22.5c14 0 28.833 -0.666992 44.5 -2s30 -3.33301 43 -6s24.5 -5.66699 34.5 -9s16.833 -6.83301 20.5 -10.5s6.66699 -7.83398 9 -12.501s4.33301 -10.667 6 -18s2.83398 -16.833 3.50098 -28.5
s1 -26.167 1 -43.5c0 -32 -1.83301 -54.5 -5.5 -67.5s-10.834 -19.5 -21.501 -19.5c-4 0 -8.5 0.666992 -13.5 2l-18 5c-7 2 -15.333 3.83301 -25 5.5s-21.167 2.5 -34.5 2.5c-36 0 -62 -12 -78 -36s-24 -63.667 -24 -119v-85h507c25.333 0 44.5 -5.5 57.5 -16.5
s19.5 -28.5 19.5 -52.5v-857z" />
    <glyph glyph-name="uniFB04" unicode="ffl" horiz-adv-x="1718" 
d="M1592 34c0 -6.66699 -2.00293 -12.5 -6.00293 -17.5s-10.833 -9.16699 -20.5 -12.5s-22.5 -5.83301 -38.5 -7.5s-36.333 -2.5 -61 -2.5s-45 0.833008 -61 2.5s-28.833 4.16699 -38.5 7.5s-16.5 7.5 -20.5 12.5s-6 10.833 -6 17.5v1161
c-2.66699 -4 -5.66699 -7.16699 -9 -9.5s-8 -3.5 -14 -3.5c-6.66699 0 -16 1.33301 -28 4s-25.333 5.16699 -40 7.5s-29.167 4 -43.5 5s-28.5 1.5 -42.5 1.5c-30 0 -55 -2.83301 -75 -8.5s-35.833 -14.834 -47.5 -27.501s-20 -28.834 -25 -48.501s-7.5 -43.167 -7.5 -70.5
v-85h149c6.66699 0 12.334 -1.66699 17.001 -5s8.83398 -8.83301 12.501 -16.5s6.33398 -18.167 8.00098 -31.5s2.5 -29.666 2.5 -48.999c0 -36.667 -3.5 -62.834 -10.5 -78.501s-16.5 -23.5 -28.5 -23.5h-150v-722c0 -6.66699 -2 -12.5 -6 -17.5
s-10.667 -9.16699 -20 -12.5s-22.166 -5.83301 -38.499 -7.5s-36.5 -2.5 -60.5 -2.5c-24.667 0 -45.167 0.833008 -61.5 2.5s-29.166 4.16699 -38.499 7.5s-16 7.5 -20 12.5s-6 10.833 -6 17.5v722h-331v-722c0 -6.66699 -2 -12.5 -6 -17.5s-10.667 -9.16699 -20 -12.5
s-22.333 -5.83301 -39 -7.5s-37 -2.5 -61 -2.5s-44.167 0.833008 -60.5 2.5s-29.333 4.16699 -39 7.5s-16.334 7.5 -20.001 12.5s-5.5 10.833 -5.5 17.5v722h-112c-12.667 0 -22.167 7.83301 -28.5 23.5s-9.5 41.834 -9.5 78.501c0 19.333 0.833008 35.666 2.5 48.999
s4 23.833 7 31.5s7 13.167 12 16.5s10.833 5 17.5 5h111v66c0 60 6.16699 112.667 18.5 158s31.333 83.166 57 113.499s58 53.166 97 68.499s85.167 23 138.5 23c29.333 0 55.666 -2.5 78.999 -7.5s41.166 -9.66699 53.499 -14s20.833 -8.66602 25.5 -12.999
s8.5 -10.666 11.5 -18.999s5.16699 -19 6.5 -32s2 -29.167 2 -48.5c0 -32.667 -2.16699 -55.667 -6.5 -69s-11.5 -20 -21.5 -20c-4.66699 0 -10 1 -16 3l-21 7c-8 2.66699 -17.5 5.16699 -28.5 7.5s-23.167 3.5 -36.5 3.5c-38.667 0 -66.334 -12.167 -83.001 -36.5
s-25 -64.166 -25 -119.499v-71h331v79c0 60.667 6.83301 113.667 20.5 159s35 83.166 64 113.499s65.667 53 110 68s97.833 22.5 160.5 22.5c18 0 37.333 -0.666992 58 -2s40.334 -3.16602 59.001 -5.49902s35.167 -5 49.5 -8s25.5 -5.83301 33.5 -8.5
s14.167 -6.16699 18.5 -10.5s7.83301 -10.166 10.5 -17.499c0.666992 6 2.33398 11.333 5.00098 16s8.5 9 17.5 13s21.667 7.16699 38 9.5s37.833 3.5 64.5 3.5c24.667 0 45 -1 61 -3s28.833 -4.83301 38.5 -8.5s16.5 -8.16699 20.5 -13.5s6 -11.333 6 -18v-1315z" />
    <glyph glyph-name="f_b.liga" unicode="fb" horiz-adv-x="1730" 
d="M1655 492c0 -79.333 -8.49219 -150.667 -25.4922 -214s-42 -117.333 -75 -162s-73.333 -79 -121 -103s-101.834 -36 -162.501 -36c-30 0 -57.833 2.83301 -83.5 8.5s-50.5 14.834 -74.5 27.501s-47.333 28.667 -70 48s-46 42.666 -70 69.999v-97
c0 -7.33301 -2 -13.5 -6 -18.5s-10.167 -9.16699 -18.5 -12.5s-19.5 -5.66602 -33.5 -6.99902s-31 -2 -51 -2c-20.667 0 -37.834 0.666992 -51.501 2s-24.667 3.66602 -33 6.99902s-14.166 7.5 -17.499 12.5s-5 11.167 -5 18.5v1158c-2.66699 -4 -6 -7 -10 -9
s-8.33301 -3 -13 -3c-6.66699 0 -16.167 1.33301 -28.5 4s-25.333 5.16699 -39 7.5s-27.834 4 -42.501 5s-29.334 1.5 -44.001 1.5c-30 0 -55 -3 -75 -9s-35.833 -15.167 -47.5 -27.5s-19.834 -28.5 -24.501 -48.5s-7 -43.667 -7 -71v-82h148
c6.66699 0 12.5 -1.66699 17.5 -5s9.16699 -8.83301 12.5 -16.5s5.83301 -18.167 7.5 -31.5s2.5 -29.666 2.5 -48.999c0 -36.667 -3.33301 -62.834 -10 -78.501s-16.334 -23.5 -29.001 -23.5h-149v-722c0 -6.66699 -2 -12.5 -6 -17.5s-10.833 -9.16699 -20.5 -12.5
s-22.667 -5.83301 -39 -7.5s-36.5 -2.5 -60.5 -2.5s-44.167 0.833008 -60.5 2.5s-29.333 4.16699 -39 7.5s-16.334 7.5 -20.001 12.5s-5.5 10.833 -5.5 17.5v722h-112c-12.667 0 -22.167 7.83301 -28.5 23.5s-9.5 41.834 -9.5 78.501c0 19.333 0.833008 35.666 2.5 48.999
s4 23.833 7 31.5s7 13.167 12 16.5s10.833 5 17.5 5h111v77c0 60 6.66699 112.833 20 158.5s34.5 83.667 63.5 114s65.667 53 110 68s97.833 22.5 160.5 22.5c18 0 37.333 -0.666992 58 -2s40.334 -3.16602 59.001 -5.49902s35.167 -5 49.5 -8s25.5 -6 33.5 -9
s14.333 -6.5 19 -10.5s8 -9 10 -15c0.666992 6 2.5 11.333 5.5 16s8.66699 9 17 13s20.666 7.16699 36.999 9.5s38.166 3.5 65.499 3.5c24 0 44.167 -1 60.5 -3s29.166 -4.83301 38.499 -8.5s16 -8.16699 20 -13.5s6 -11.333 6 -18v-493c24 22.667 47.167 42 69.5 58
s45 29.167 68 39.5s46.5 17.833 70.5 22.5s49.333 7 76 7c65.333 0 121 -13.167 167 -39.5s83.5 -61.833 112.5 -106.5s50.167 -96.834 63.5 -156.501s20 -122.5 20 -188.5zM1394.01 473.999c0 38 -2.83105 74.668 -8.49805 110.001s-15.334 66.666 -29.001 93.999
s-31.834 49.166 -54.501 65.499s-50.667 24.5 -84 24.5c-16.667 0 -33.167 -2.33301 -49.5 -7s-32.833 -12.667 -49.5 -24s-34.167 -26 -52.5 -44s-37.833 -40.333 -58.5 -67v-296c36 -45.333 70.167 -79.833 102.5 -103.5s66.166 -35.5 101.499 -35.5
c32.667 0 60.5 8.33301 83.5 25s41.833 38.334 56.5 65.001s25.334 57 32.001 91s10 68 10 102z" />
    <glyph glyph-name="f_f_b.liga" unicode="ffb" horiz-adv-x="2313" 
d="M1976 474c0 38 -2.83398 74.668 -8.50098 110.001s-15.334 66.666 -29.001 93.999s-31.667 49.166 -54 65.499s-50.5 24.5 -84.5 24.5c-16.667 0 -33 -2.33301 -49 -7s-32.5 -12.667 -49.5 -24s-34.5 -26 -52.5 -44s-37 -40.333 -57 -67v-296
c34.667 -45.333 68.334 -79.833 101.001 -103.5s66.667 -35.5 102 -35.5c32 0 59.5 8.33301 82.5 25s41.833 38.334 56.5 65.001s25.334 57 32.001 91s10 68 10 102zM756.999 960.001l-0.00292969 79.001c0 60.667 6.83301 113.667 20.5 159s35 83.166 64 113.499
s65.667 53 110 68s97.833 22.5 160.5 22.5c18 0 37.333 -0.666992 58 -2s40.167 -3.16602 58.5 -5.49902s34.833 -5 49.5 -8s26 -5.83301 34 -8.5s14.167 -6.16699 18.5 -10.5s7.83301 -10.166 10.5 -17.499c0.666992 6 2.33398 11.333 5.00098 16s8.5 9 17.5 13
s21.667 7.16699 38 9.5s37.833 3.5 64.5 3.5c24.667 0 45 -1 61 -3s28.833 -4.83301 38.5 -8.5s16.5 -8.16699 20.5 -13.5s6 -11.333 6 -18v-493c22.667 22.667 45.334 42 68.001 58s45.334 29.167 68.001 39.5s46 17.833 70 22.5s49.333 7 76 7
c65.333 0 121.166 -13.167 167.499 -39.5s84 -61.833 113 -106.5s50.167 -96.834 63.5 -156.501s20 -122.5 20 -188.5c0 -79.333 -8.66699 -150.666 -26 -213.999s-42.333 -117.333 -75 -162s-72.834 -79 -120.5 -103c-47.667 -24 -101.834 -36 -162.501 -36
c-30 0 -58 2.83301 -84 8.5s-50.833 14.834 -74.5 27.501s-47 28.667 -70 48s-46.5 42.666 -70.5 69.999v-98c0 -7.33301 -1.83301 -13.5 -5.5 -18.5s-9.66699 -9 -18 -12s-19.5 -5.16699 -33.5 -6.5s-31.333 -2 -52 -2c-20 0 -36.833 0.666992 -50.5 2s-24.667 3.5 -33 6.5
s-14.166 7 -17.499 12s-5 11.167 -5 18.5v1162c-2.66699 -4 -6 -7.16699 -10 -9.5s-8.33301 -3.5 -13 -3.5c-6.66699 0 -16.334 1.33301 -29.001 4s-25.667 5.16699 -39 7.5s-27.333 4 -42 5s-29.334 1.5 -44.001 1.5c-30 0 -55 -2.83301 -75 -8.5
s-35.833 -14.834 -47.5 -27.501s-20 -28.834 -25 -48.501s-7.5 -43.167 -7.5 -70.5v-85h149c6.66699 0 12.334 -1.66699 17.001 -5s8.83398 -8.83301 12.501 -16.5s6.33398 -18.167 8.00098 -31.5s2.5 -29.666 2.5 -48.999c0 -36.667 -3.5 -62.834 -10.5 -78.501
s-16.5 -23.5 -28.5 -23.5h-150v-722c0 -6.66699 -2 -12.5 -6 -17.5s-10.667 -9.16699 -20 -12.5s-22.166 -5.83301 -38.499 -7.5s-36.5 -2.5 -60.5 -2.5c-24.667 0 -45.167 0.833008 -61.5 2.5s-29.166 4.16699 -38.499 7.5s-16 7.5 -20 12.5s-6 10.833 -6 17.5v722h-331
v-722c0 -6.66699 -2 -12.5 -6 -17.5s-10.667 -9.16699 -20 -12.5s-22.166 -5.83301 -38.499 -7.5s-36.833 -2.5 -61.5 -2.5c-24 0 -44.167 0.833008 -60.5 2.5s-29.333 4.16699 -39 7.5s-16.334 7.5 -20.001 12.5s-5.5 10.833 -5.5 17.5v722h-112
c-12.667 0 -22.167 7.83301 -28.5 23.5s-9.5 41.834 -9.5 78.501c0 19.333 0.833008 35.666 2.5 48.999s4 23.833 7 31.5s7 13.167 12 16.5s10.833 5 17.5 5h111v66c0 60 6.16699 112.667 18.5 158s31.333 83.166 57 113.499s58 53.166 97 68.499s85.167 23 138.5 23
c29.333 0 55.666 -2.5 78.999 -7.5s43.333 -10.5 60 -16.5c8 -2.66699 14.333 -6.16699 19 -10.5s8.5 -10.666 11.5 -18.999s5.16699 -19 6.5 -32s2 -29.167 2 -48.5c0 -32.667 -2.16699 -55.667 -6.5 -69s-11.5 -20 -21.5 -20c-4.66699 0 -10 1 -16 3l-21 7
c-8 2.66699 -17.5 5.16699 -28.5 7.5s-23.167 3.5 -36.5 3.5c-38.667 0 -66.334 -12.167 -83.001 -36.5s-25 -64.166 -25 -119.499v-71h331z" />
    <glyph glyph-name="f_h.liga" unicode="fh" horiz-adv-x="1730" 
d="M1609 34c0 -6.66699 -1.99902 -12.5029 -5.99902 -17.5029s-10.667 -9.16699 -20 -12.5s-22.166 -5.83301 -38.499 -7.5s-36.5 -2.5 -60.5 -2.5c-24.667 0 -45 0.833008 -61 2.5s-29 4.16699 -39 7.5s-16.833 7.5 -20.5 12.5s-5.5 10.833 -5.5 17.5v509
c0 43.333 -3 77.333 -9 102s-15.167 45.834 -27.5 63.501s-27.833 31.334 -46.5 41.001s-40.667 14.5 -66 14.5c-32.667 0 -65.167 -11.667 -97.5 -35s-66.833 -57.333 -103.5 -102v-593c0 -6.66699 -2 -12.5 -6 -17.5s-10.667 -9.16699 -20 -12.5
s-22.166 -5.83301 -38.499 -7.5s-36.5 -2.5 -60.5 -2.5c-24.667 0 -45.167 0.833008 -61.5 2.5s-29.166 4.16699 -38.499 7.5s-16 7.5 -20 12.5s-6 10.833 -6 17.5v1158c-2.66699 -4 -6 -7 -10 -9s-8.33301 -3 -13 -3c-6.66699 0 -16.167 1.33301 -28.5 4
s-25.333 5.16699 -39 7.5s-27.667 4 -42 5s-29.166 1.5 -44.499 1.5c-30 0 -55 -3 -75 -9s-35.833 -15.167 -47.5 -27.5s-19.834 -28.5 -24.501 -48.5s-7 -43.667 -7 -71v-82h148c6.66699 0 12.5 -1.66699 17.5 -5s9.16699 -8.83301 12.5 -16.5s5.83301 -18.167 7.5 -31.5
s2.5 -29.666 2.5 -48.999c0 -36.667 -3.33301 -62.834 -10 -78.501s-16.334 -23.5 -29.001 -23.5h-149v-722c0 -6.66699 -2 -12.5 -6 -17.5s-10.667 -9.16699 -20 -12.5s-22.166 -5.83301 -38.499 -7.5s-36.833 -2.5 -61.5 -2.5c-24 0 -44.167 0.833008 -60.5 2.5
s-29.333 4.16699 -39 7.5s-16.334 7.5 -20.001 12.5s-5.5 10.833 -5.5 17.5v722h-112c-12.667 0 -22.167 7.83301 -28.5 23.5s-9.5 41.834 -9.5 78.501c0 19.333 0.833008 35.666 2.5 48.999s4 23.833 7 31.5s7 13.167 12 16.5s10.833 5 17.5 5h111v77
c0 60 6.66699 112.833 20 158.5s34.5 83.667 63.5 114s65.667 53 110 68s97.833 22.5 160.5 22.5c18 0 37.333 -0.666992 58 -2s40.334 -3.16602 59.001 -5.49902s35.167 -5 49.5 -8s25.5 -6 33.5 -9s14.333 -6.5 19 -10.5s8 -9 10 -15c0.666992 6 2.5 11.333 5.5 16
s8.66699 9 17 13s20.666 7.16699 36.999 9.5s38.166 3.5 65.499 3.5c24 0 44.167 -1 60.5 -3s29.166 -4.83301 38.499 -8.5s16 -8.16699 20 -13.5s6 -11.333 6 -18v-493c44 42.667 88.5 74.5 133.5 95.5s91.833 31.5 140.5 31.5c61.333 0 112.666 -10 153.999 -30
s74.833 -47.333 100.5 -82s44.167 -75.167 55.5 -121.5s17 -102.5 17 -168.5v-547z" />
    <glyph glyph-name="f_f_h.liga" unicode="ffh" horiz-adv-x="2313" 
d="M757 1039c0 60.667 6.83105 113.666 20.498 158.999s35 83.166 64 113.499s65.667 53 110 68s97.833 22.5 160.5 22.5c18 0 37.333 -0.666992 58 -2s40.167 -3.16602 58.5 -5.49902s34.833 -5 49.5 -8s26 -5.83301 34 -8.5s14.167 -6.16699 18.5 -10.5
s7.83301 -10.166 10.5 -17.499c0.666992 6 2.33398 11.333 5.00098 16s8.5 9 17.5 13s21.667 7.16699 38 9.5s37.833 3.5 64.5 3.5c24.667 0 45 -1 61 -3s28.833 -4.83301 38.5 -8.5s16.5 -8.16699 20.5 -13.5s6 -11.333 6 -18v-493c43.333 42.667 87.5 74.5 132.5 95.5
s91.833 31.5 140.5 31.5c60.667 0 111.834 -10 153.501 -30s75.334 -47.333 101 -82c25.667 -34.667 44.167 -75.167 55.5 -121.5s17 -102.5 17 -168.5v-547c0 -6.66699 -2 -12.5 -6 -17.5s-10.833 -9.16699 -20.5 -12.5s-22.5 -5.83301 -38.5 -7.5s-36 -2.5 -60 -2.5
c-24.667 0 -45.167 0.833008 -61.5 2.5s-29.166 4.16699 -38.499 7.5s-16 7.5 -20 12.5s-6 10.833 -6 17.5v509c0 43.333 -3 77.333 -9 102s-15.167 45.834 -27.5 63.501s-28 31.334 -47 41.001s-41.167 14.5 -66.5 14.5c-32 0 -64.333 -11.667 -97 -35
s-66.667 -57.333 -102 -102v-593c0 -6.66699 -2 -12.5 -6 -17.5s-10.833 -9.16699 -20.5 -12.5s-22.5 -5.83301 -38.5 -7.5s-36.333 -2.5 -61 -2.5s-45 0.833008 -61 2.5s-28.833 4.16699 -38.5 7.5s-16.5 7.5 -20.5 12.5s-6 10.833 -6 17.5v1161
c-2.66699 -4 -6 -7.16699 -10 -9.5s-8.33301 -3.5 -13 -3.5c-6 0 -14.833 1.33301 -26.5 4s-24.834 5.16699 -39.501 7.5s-29.334 4 -44.001 5s-29.334 1.5 -44.001 1.5c-30 0 -55 -2.83301 -75 -8.5s-35.833 -14.834 -47.5 -27.501s-20 -28.834 -25 -48.501
s-7.5 -43.167 -7.5 -70.5v-85h149c6.66699 0 12.334 -1.66699 17.001 -5s8.83398 -8.83301 12.501 -16.5s6.33398 -18.167 8.00098 -31.5s2.5 -29.666 2.5 -48.999c0 -36.667 -3.5 -62.834 -10.5 -78.501s-16.5 -23.5 -28.5 -23.5h-150v-722c0 -6.66699 -2 -12.5 -6 -17.5
s-10.667 -9.16699 -20 -12.5s-22.166 -5.83301 -38.499 -7.5s-36.5 -2.5 -60.5 -2.5c-24.667 0 -45.167 0.833008 -61.5 2.5s-29.166 4.16699 -38.499 7.5s-16 7.5 -20 12.5s-6 10.833 -6 17.5v722h-331v-722c0 -6.66699 -2 -12.5 -6 -17.5s-10.667 -9.16699 -20 -12.5
s-22.333 -5.83301 -39 -7.5s-37 -2.5 -61 -2.5s-44.167 0.833008 -60.5 2.5s-29.333 4.16699 -39 7.5s-16.334 7.5 -20.001 12.5s-5.5 10.833 -5.5 17.5v722h-112c-12.667 0 -22.167 7.83301 -28.5 23.5s-9.5 41.834 -9.5 78.501c0 19.333 0.833008 35.666 2.5 48.999
s4 23.833 7 31.5s7 13.167 12 16.5s10.833 5 17.5 5h111v66c0 60 6.16699 112.667 18.5 158s31.333 83.166 57 113.499s58 53.166 97 68.499s85.167 23 138.5 23c29.333 0 55.666 -2.5 78.999 -7.5s43.333 -10.5 60 -16.5c8 -2.66699 14.333 -6.16699 19 -10.5
s8.5 -10.666 11.5 -18.999s5.16699 -19 6.5 -32s2 -29.167 2 -48.5c0 -32.667 -2.16699 -55.667 -6.5 -69s-11.5 -20 -21.5 -20c-4.66699 0 -10 1 -16 3l-21 7c-8 2.66699 -17.5 5.16699 -28.5 7.5s-23.167 3.5 -36.5 3.5c-38.667 0 -66.334 -12.167 -83.001 -36.5
s-25 -64.166 -25 -119.499v-71h331v79z" />
    <glyph glyph-name="f_igrave.liga" unicode="f&#xec;" horiz-adv-x="1135" 
d="M1008 34c0 -6.66699 -2.00098 -12.5 -6.00098 -17.5s-10.667 -9.16699 -20 -12.5s-22.166 -5.83301 -38.499 -7.5s-36.5 -2.5 -60.5 -2.5c-24.667 0 -45.167 0.833008 -61.5 2.5s-29.166 4.16699 -38.499 7.5s-16 7.5 -20 12.5s-6 10.833 -6 17.5v722h-331v-722
c0 -6.66699 -2 -12.5 -6 -17.5s-10.667 -9.16699 -20 -12.5s-22.333 -5.83301 -39 -7.5s-37 -2.5 -61 -2.5s-44.167 0.833008 -60.5 2.5s-29.333 4.16699 -39 7.5s-16.334 7.5 -20.001 12.5s-5.5 10.833 -5.5 17.5v722h-112c-12.667 0 -22.167 7.83301 -28.5 23.5
s-9.5 41.834 -9.5 78.501c0 19.333 0.833008 35.666 2.5 48.999s4 23.833 7 31.5s7 13.167 12 16.5s10.833 5 17.5 5h111v86c0 58 6.16699 109 18.5 153s31 80.833 56 110.5s56.5 52.167 94.5 67.5s82.333 23 133 23c18.667 0 37.167 -1.33301 55.5 -4
s33.5 -6.16699 45.5 -10.5s20.5 -8.83301 25.5 -13.5s8.83301 -11.334 11.5 -20.001s4.5 -19.5 5.5 -32.5s1.5 -29.167 1.5 -48.5c0 -32 -2 -54.5 -6 -67.5s-11 -19.5 -21 -19.5c-4 0 -8.16699 0.666992 -12.5 2s-9.5 2.83301 -15.5 4.5s-13.167 3.33398 -21.5 5.00098
s-17.833 2.5 -28.5 2.5c-30.667 0 -53.5 -11.5 -68.5 -34.5s-22.5 -60.167 -22.5 -111.5v-92h506c25.333 0 44.333 -5.5 57 -16.5s19 -28.5 19 -52.5v-857zM1001 1131c3.33301 -9.33301 4.99902 -17.333 4.99902 -24s-3.16699 -12.167 -9.5 -16.5s-16.5 -7.5 -30.5 -9.5
s-32.667 -3 -56 -3c-19.333 0 -35 0.666992 -47 2s-21.833 3.33301 -29.5 6s-13.667 6.16699 -18 10.5s-8.5 9.83301 -12.5 16.5l-141 232c-4.66699 7.33301 -6.5 14.333 -5.5 21s5.83301 12.5 14.5 17.5s22.167 9 40.5 12s42.833 4.5 73.5 4.5
c22.667 0 41.167 -0.666992 55.5 -2s26 -3.5 35 -6.5s15.833 -7.16699 20.5 -12.5s8.33398 -12 11.001 -20z" />
    <glyph glyph-name="f_iacute.liga" unicode="f&#xed;" horiz-adv-x="1135" 
d="M1008 34c0 -6.66699 -2.00488 -12.499 -6.00488 -17.499s-10.667 -9.16699 -20 -12.5s-22.166 -5.83301 -38.499 -7.5s-36.5 -2.5 -60.5 -2.5c-24.667 0 -45.167 0.833008 -61.5 2.5s-29.166 4.16699 -38.499 7.5s-16 7.5 -20 12.5s-6 10.833 -6 17.5v722h-331v-722
c0 -6.66699 -2 -12.5 -6 -17.5s-10.667 -9.16699 -20 -12.5s-22.166 -5.83301 -38.499 -7.5s-36.833 -2.5 -61.5 -2.5c-24 0 -44.167 0.833008 -60.5 2.5s-29.333 4.16699 -39 7.5s-16.334 7.5 -20.001 12.5s-5.5 10.833 -5.5 17.5v722h-112
c-12.667 0 -22.167 7.83301 -28.5 23.5s-9.5 41.834 -9.5 78.501c0 19.333 0.833008 35.666 2.5 48.999s4 23.833 7 31.5s7 13.167 12 16.5s10.833 5 17.5 5h111v77c0 60 6.16699 112.667 18.5 158s31.333 83.166 57 113.499s58 53.166 97 68.499s84.833 23 137.5 23
c26.667 0 51.834 -2.16699 75.501 -6.5s41.5 -9 53.5 -14s20.333 -9.66699 25 -14s8.33398 -10.666 11.001 -18.999s4.5 -19 5.5 -32s1.5 -29.167 1.5 -48.5c0 -32.667 -1.83301 -55.5 -5.5 -68.5s-10.834 -19.5 -21.501 -19.5c-4 0 -9 1 -15 3s-13 4.16699 -21 6.5
s-17.167 4.66602 -27.5 6.99902s-22.166 3.5 -35.499 3.5c-37.333 0 -64.166 -12.167 -80.499 -36.5s-24.5 -64.166 -24.5 -119.499v-82h506c25.333 0 44.333 -5.5 57 -16.5s19 -28.5 19 -52.5v-857zM912.995 1361c4.66699 7.33301 10.3291 13.666 16.9961 18.999
s15 9.5 25 12.5s22.667 5.16699 38 6.5s34 2 56 2c30.667 0 54.834 -1.33301 72.501 -4s30.334 -6.5 38.001 -11.5s11.167 -10.833 10.5 -17.5s-4 -13.667 -10 -21l-194 -232c-5.33301 -6.66699 -10.666 -12.167 -15.999 -16.5s-12.166 -7.83301 -20.499 -10.5
s-18.833 -4.66699 -31.5 -6s-28.667 -2 -48 -2c-23.333 0 -41.833 1 -55.5 3s-23.167 5.16699 -28.5 9.5s-7.5 9.83301 -6.5 16.5s4.5 14.334 10.5 23.001zM656.99 957.001z" />
    <glyph glyph-name="f_icircumflex.liga" unicode="f&#xee;" horiz-adv-x="1135" 
d="M1008 34c0 -6.66699 -2.00391 -12.501 -6.00391 -17.501s-10.667 -9.16699 -20 -12.5s-22.166 -5.83301 -38.499 -7.5s-36.5 -2.5 -60.5 -2.5c-24.667 0 -45.167 0.833008 -61.5 2.5s-29.166 4.16699 -38.499 7.5s-16 7.5 -20 12.5s-6 10.833 -6 17.5v722h-331v-722
c0 -6.66699 -2 -12.5 -6 -17.5s-10.667 -9.16699 -20 -12.5s-22.166 -5.83301 -38.499 -7.5s-36.833 -2.5 -61.5 -2.5c-24 0 -44.167 0.833008 -60.5 2.5s-29.333 4.16699 -39 7.5s-16.334 7.5 -20.001 12.5s-5.5 10.833 -5.5 17.5v722h-112
c-12.667 0 -22.167 7.83301 -28.5 23.5s-9.5 41.834 -9.5 78.501c0 19.333 0.833008 35.666 2.5 48.999s4 23.833 7 31.5s7 13.167 12 16.5s10.833 5 17.5 5h111v86c0 58 6.16699 109 18.5 153s31 80.833 56 110.5s56.5 52.167 94.5 67.5s82.333 23 133 23
c18.667 0 37.334 -1.5 56.001 -4.5s33.667 -6.5 45 -10.5s19.333 -8.16699 24 -12.5s8.33398 -10.333 11.001 -18s4.5 -17.667 5.5 -30s1.5 -28.166 1.5 -47.499c0 -32 -2 -54.667 -6 -68s-11 -20 -21 -20c-4 0 -8.16699 0.666992 -12.5 2l-15.5 5
c-6 2 -13.167 3.66699 -21.5 5s-17.833 2 -28.5 2c-30.667 0 -53.167 -11.5 -67.5 -34.5s-21.5 -60.167 -21.5 -111.5v-97h506c25.333 0 44.333 -5.5 57 -16.5s19 -28.5 19 -52.5v-857zM811.996 1112c-4 -8 -8.16699 -14.333 -12.5 -19s-10.333 -8.16699 -18 -10.5
s-17.834 -3.83301 -30.501 -4.5s-28.667 -1 -48 -1c-22 0 -39.333 1 -52 3s-21 5.66699 -25 11s-4.5 13 -1.5 23s8.83301 22.667 17.5 38l132 214c3.33301 6.66699 8 12 14 16s13.833 7.16699 23.5 9.5s21.834 4 36.501 5s32.334 1.5 53.001 1.5
c21.333 0 39.166 -0.666992 53.499 -2s26.333 -3.33301 36 -6s17.5 -6 23.5 -10s11.333 -8.66699 16 -14l138 -223c8 -13.333 13.333 -24.333 16 -33s1.5 -15.5 -3.5 -20.5s-14.167 -8.33301 -27.5 -10s-31.666 -2.5 -54.999 -2.5c-20.667 0 -37.5 0.333008 -50.5 1
s-23.333 2.16699 -31 4.5s-13.334 5.83301 -17.001 10.5s-7.5 11 -11.5 19l-88 149z" />
    <glyph glyph-name="f_itilde.liga" unicode="f&#x129;" horiz-adv-x="1153" 
d="M1027 34c0 -6.66699 -2.00293 -12.5029 -6.00293 -17.5029s-10.667 -9.16699 -20 -12.5s-22.166 -5.83301 -38.499 -7.5s-36.833 -2.5 -61.5 -2.5c-24 0 -44.167 0.833008 -60.5 2.5s-29.166 4.16699 -38.499 7.5s-16 7.5 -20 12.5s-6 10.833 -6 17.5v722h-350v-722
c0 -6.66699 -2 -12.5 -6 -17.5s-10.667 -9.16699 -20 -12.5s-22.333 -5.83301 -39 -7.5s-37 -2.5 -61 -2.5s-44.167 0.833008 -60.5 2.5s-29.333 4.16699 -39 7.5s-16.334 7.5 -20.001 12.5s-5.5 10.833 -5.5 17.5v722h-112c-12.667 0 -22.167 7.83301 -28.5 23.5
s-9.5 41.834 -9.5 78.501c0 19.333 0.833008 35.666 2.5 48.999s4 23.833 7 31.5s7 13.167 12 16.5s10.833 5 17.5 5h111v102c0 54.667 6 103.167 18 145.5s30.167 77.666 54.5 105.999s54.833 49.833 91.5 64.5s79.334 22 128.001 22c10 0 20 -0.333008 30 -1
s19.667 -1.66699 29 -3s18 -3.16602 26 -5.49902s14.833 -4.66602 20.5 -6.99902s10.334 -5.33301 14.001 -9s6.5 -9.16699 8.5 -16.5s3.5 -17.166 4.5 -29.499s1.5 -28.166 1.5 -47.499c0 -32.667 -1.66699 -57 -5 -73s-9.33301 -24 -18 -24
c-3.33301 0 -6.83301 0.5 -10.5 1.5s-8.16699 2.33301 -13.5 4s-11.5 3 -18.5 4s-15.833 1.5 -26.5 1.5c-28.667 0 -49.667 -11 -63 -33s-20 -58.667 -20 -110v-92h525c25.333 0 44.333 -5.5 57 -16.5s19 -28.5 19 -52.5v-857zM1201 1308
c0 -40.667 -4.33301 -76.3311 -13 -106.998s-21.167 -56.667 -37.5 -78s-36.333 -37.5 -60 -48.5s-50.167 -16.5 -79.5 -16.5c-32 0 -59.167 5.83301 -81.5 17.5s-41.5 24.667 -57.5 39l-43 39c-12.667 11.667 -25.667 17.5 -39 17.5c-16.667 0 -28.667 -7.83301 -36 -23.5
s-11 -35.834 -11 -60.501c0 -12 -5.16699 -19.833 -15.5 -23.5s-29.5 -5.5 -57.5 -5.5c-23.333 0 -40.833 2.5 -52.5 7.5s-17.5 16.167 -17.5 33.5c0 78 16.333 139.167 49 183.5s79.667 66.5 141 66.5c20.667 0 39.167 -2.83301 55.5 -8.5s31.333 -12.667 45 -21
s26 -17.333 37 -27l31 -27.5c9.66699 -8.66699 18.667 -15.834 27 -21.501s16.5 -8.5 24.5 -8.5c16 0 27.833 7.33301 35.5 22s11.5 35.667 11.5 63c0 11.333 5.5 19 16.5 23s29.167 6 54.5 6s43.833 -2.66699 55.5 -8s17.5 -16.333 17.5 -33z" />
    <glyph glyph-name="f_idieresis.liga" unicode="f&#xef;" horiz-adv-x="1153" 
d="M1027 34c0 -6.66699 -2.00293 -12.5029 -6.00293 -17.5029s-10.667 -9.16699 -20 -12.5s-22.166 -5.83301 -38.499 -7.5s-36.5 -2.5 -60.5 -2.5c-24.667 0 -45.167 0.833008 -61.5 2.5s-29.166 4.16699 -38.499 7.5s-16 7.5 -20 12.5s-6 10.833 -6 17.5v722h-350v-722
c0 -6.66699 -2 -12.5 -6 -17.5s-10.667 -9.16699 -20 -12.5s-22.333 -5.83301 -39 -7.5s-37 -2.5 -61 -2.5s-44.167 0.833008 -60.5 2.5s-29.333 4.16699 -39 7.5s-16.334 7.5 -20.001 12.5s-5.5 10.833 -5.5 17.5v722h-112c-12.667 0 -22.167 7.83301 -28.5 23.5
s-9.5 41.834 -9.5 78.501c0 19.333 0.833008 35.666 2.5 48.999s4 23.833 7 31.5s7 13.167 12 16.5s10.833 5 17.5 5h111v102c0 54.667 6 103.167 18 145.5s30.167 77.666 54.5 105.999s54.833 49.833 91.5 64.5s79.334 22 128.001 22c10 0 20 -0.333008 30 -1
s19.667 -1.66699 29 -3s18 -3.16602 26 -5.49902s14.833 -4.66602 20.5 -6.99902s10.334 -5.33301 14.001 -9s6.5 -9.16699 8.5 -16.5s3.5 -17.166 4.5 -29.499s1.5 -28.166 1.5 -47.499c0 -32.667 -1.66699 -57 -5 -73s-9.33301 -24 -18 -24
c-3.33301 0 -6.83301 0.5 -10.5 1.5s-8.16699 2.33301 -13.5 4s-11.5 3 -18.5 4s-15.833 1.5 -26.5 1.5c-28.667 0 -49.667 -11 -63 -33s-20 -58.667 -20 -110v-92h525c25.333 0 44.333 -5.5 57 -16.5s19 -28.5 19 -52.5v-857zM641.997 1226c0 24.667 2 45 6 61
s10.667 28.5 20 37.5s21.5 15.167 36.5 18.5s33.167 5 54.5 5s39.333 -1.66699 54 -5s26.667 -9.5 36 -18.5s16 -21.5 20 -37.5s6 -36.333 6 -61s-2 -45.167 -6 -61.5s-10.667 -29.166 -20 -38.499s-21.333 -15.833 -36 -19.5s-32.667 -5.5 -54 -5.5
s-39.5 1.83301 -54.5 5.5s-27.167 10.167 -36.5 19.5s-16 22.166 -20 38.499s-6 36.833 -6 61.5zM949.997 1226c0 24.667 2 45 6 61s10.667 28.5 20 37.5s21.5 15.167 36.5 18.5s33.167 5 54.5 5s39.5 -1.66699 54.5 -5s27 -9.5 36 -18.5s15.5 -21.5 19.5 -37.5
s6 -36.333 6 -61s-2 -45.167 -6 -61.5s-10.5 -29.166 -19.5 -38.499s-21 -15.833 -36 -19.5s-33.167 -5.5 -54.5 -5.5s-39.5 1.83301 -54.5 5.5s-27.167 10.167 -36.5 19.5s-16 22.166 -20 38.499s-6 36.833 -6 61.5z" />
    <glyph glyph-name="f_imacron.liga" unicode="f&#x12b;" horiz-adv-x="1153" 
d="M1027 34c0 -6.66699 -2.00195 -12.5029 -6.00195 -17.5029s-10.667 -9.16699 -20 -12.5s-22.166 -5.83301 -38.499 -7.5s-36.833 -2.5 -61.5 -2.5c-24 0 -44.167 0.833008 -60.5 2.5s-29.166 4.16699 -38.499 7.5s-16 7.5 -20 12.5s-6 10.833 -6 17.5v722h-350v-722
c0 -6.66699 -2 -12.5 -6 -17.5s-10.667 -9.16699 -20 -12.5s-22.333 -5.83301 -39 -7.5s-37 -2.5 -61 -2.5s-44.167 0.833008 -60.5 2.5s-29.333 4.16699 -39 7.5s-16.334 7.5 -20.001 12.5s-5.5 10.833 -5.5 17.5v722h-112c-12.667 0 -22.167 7.83301 -28.5 23.5
s-9.5 41.834 -9.5 78.501c0 19.333 0.833008 35.666 2.5 48.999s4 23.833 7 31.5s7 13.167 12 16.5s10.833 5 17.5 5h111v102c0 54.667 6 103.167 18 145.5s30.167 77.666 54.5 105.999s54.833 49.833 91.5 64.5s79.334 22 128.001 22c10 0 20 -0.333008 30 -1
s19.667 -1.66699 29 -3s18 -3.16602 26 -5.49902s14.833 -4.66602 20.5 -6.99902s10.334 -5.33301 14.001 -9s6.5 -9.16699 8.5 -16.5s3.5 -17.166 4.5 -29.499s1.5 -28.166 1.5 -47.499c0 -32.667 -1.66699 -57 -5 -73s-9.33301 -24 -18 -24
c-3.33301 0 -6.83301 0.5 -10.5 1.5s-8.16699 2.33301 -13.5 4s-11.5 3 -18.5 4s-15.833 1.5 -26.5 1.5c-28.667 0 -49.834 -11 -63.501 -33s-20.167 -58.667 -19.5 -110v-92h525c25.333 0 44.333 -5.5 57 -16.5s19 -28.5 19 -52.5v-857zM1128 1323
c7.33301 0 13.666 -1.5 18.999 -4.5s9.66602 -8.16699 12.999 -15.5s5.66602 -16.833 6.99902 -28.5s2 -26.167 2 -43.5s-0.666992 -31.666 -2 -42.999s-3.66602 -20.666 -6.99902 -27.999s-7.66602 -12.5 -12.999 -15.5s-11.666 -4.5 -18.999 -4.5h-450
c-8 0 -14.833 1.5 -20.5 4.5s-10.167 8.16699 -13.5 15.5s-5.66602 16.666 -6.99902 27.999s-2 25.666 -2 42.999c0 16.667 0.666992 31 2 43s3.66602 21.5 6.99902 28.5s7.83301 12.167 13.5 15.5s12.5 5 20.5 5h450z" />
    <glyph glyph-name="f_ibreve.liga" unicode="f&#x12d;" horiz-adv-x="1153" 
d="M1027 34c0 -6.66699 -2.00391 -12.5029 -6.00391 -17.5029s-10.667 -9.16699 -20 -12.5s-22.166 -5.83301 -38.499 -7.5s-36.5 -2.5 -60.5 -2.5c-24.667 0 -45.167 0.833008 -61.5 2.5s-29.166 4.16699 -38.499 7.5s-16 7.5 -20 12.5s-6 10.833 -6 17.5v722h-350v-722
c0 -6.66699 -2 -12.5 -6 -17.5s-10.667 -9.16699 -20 -12.5s-22.166 -5.83301 -38.499 -7.5s-36.833 -2.5 -61.5 -2.5c-24 0 -44.167 0.833008 -60.5 2.5s-29.333 4.16699 -39 7.5s-16.334 7.5 -20.001 12.5s-5.5 10.833 -5.5 17.5v722h-112
c-12.667 0 -22.167 7.83301 -28.5 23.5s-9.5 41.834 -9.5 78.501c0 19.333 0.833008 35.666 2.5 48.999s4 23.833 7 31.5s7 13.167 12 16.5s10.833 5 17.5 5h111v102c0 54.667 6 103.167 18 145.5s30.167 77.666 54.5 105.999s54.833 49.833 91.5 64.5s79.334 22 128.001 22
c10 0 20 -0.333008 30 -1s19.667 -1.66699 29 -3s18 -3.16602 26 -5.49902s14.833 -4.66602 20.5 -6.99902s10.334 -5.33301 14.001 -9s6.5 -9.16699 8.5 -16.5s3.5 -17.166 4.5 -29.499s1.5 -28.166 1.5 -47.499c0 -32.667 -1.66699 -57 -5 -73s-9.33301 -24 -18 -24
c-3.33301 0 -6.83301 0.5 -10.5 1.5s-8.16699 2.33301 -13.5 4s-11.5 3 -18.5 4s-15.833 1.5 -26.5 1.5c-28.667 0 -49.667 -11 -63 -33s-20 -58.667 -20 -110v-92h525c25.333 0 44.333 -5.5 57 -16.5s19 -28.5 19 -52.5v-857zM1011 1346
c1.33301 13.333 8.16602 23.3291 20.499 29.9961s32.5 10 60.5 10c32.667 0 54.5 -2.5 65.5 -7.5s16.5 -14.5 16.5 -28.5c0 -44.667 -5.16699 -84.167 -15.5 -118.5s-26.5 -63.333 -48.5 -87s-50 -41.834 -84 -54.501s-74.667 -19 -122 -19c-50 0 -92.333 6.16699 -127 18.5
s-62.5 30.5 -83.5 54.5s-36.333 53 -46 87s-14.5 73 -14.5 117c0 13.333 5.33301 23 16 29s31 9 61 9c16 0 29.5 -0.666992 40.5 -2s19.833 -3.66602 26.5 -6.99902s11.334 -7.5 14.001 -12.5s4.33398 -11.167 5.00098 -18.5c1.33301 -18 4.16602 -34.167 8.49902 -48.5
s10.666 -26.666 18.999 -36.999s19 -18.166 32 -23.499s29.167 -8 48.5 -8c16.667 0 31.334 2.33301 44.001 7s23.5 11.834 32.5 21.501s16 21.834 21 36.501s8.16699 32 9.5 52z" />
    <glyph glyph-name="f_iogonek.liga" unicode="f&#x12f;" horiz-adv-x="1135" 
d="M1027 1226c0 -24.667 -2.16699 -45.5 -6.5 -62.5s-11.833 -30.667 -22.5 -41s-25.167 -17.666 -43.5 -21.999s-41.166 -6.5 -68.499 -6.5s-50.333 2.16699 -69 6.5s-33.5 11.666 -44.5 21.999s-18.667 24 -23 41s-6.5 37.833 -6.5 62.5c0 24 2.16699 44.333 6.5 61
s12 30.334 23 41.001s25.833 18.334 44.5 23.001s41.667 7 69 7s50.166 -2.33301 68.499 -7s32.833 -12.334 43.5 -23.001s18.167 -24.334 22.5 -41.001s6.5 -37 6.5 -61zM1008 35c0 -12 -2.50781 -23.168 -7.50781 -33.501s-11.167 -19.166 -18.5 -26.499l-58 -59
c-8.66699 -8 -15.667 -15.5 -21 -22.5s-9.66602 -13.333 -12.999 -19s-5.66602 -11.167 -6.99902 -16.5s-2 -11 -2 -17c0 -14 5 -24.333 15 -31s25.667 -10 47 -10h83c6.66699 0 12.334 -0.833008 17.001 -2.5s8.33398 -4.66699 11.001 -9s4.66699 -10.5 6 -18.5
s2 -18 2 -30c0 -14 -0.666992 -25.667 -2 -35s-3.5 -17.166 -6.5 -23.499s-7 -11.166 -12 -14.499s-11.167 -6 -18.5 -8c-23.333 -8 -48.5 -14 -75.5 -18s-58.5 -6 -94.5 -6c-32.667 0 -62.167 3.33301 -88.5 10s-48.833 16.834 -67.5 30.501s-33 30.667 -43 51
s-15 44.166 -15 71.499c0 14 1.16699 27.5 3.5 40.5s6.33301 25.833 12 38.5s13.334 25.5 23.001 38.5s21.834 26.833 36.501 41.5l43 43v756h-331v-722c0 -6.66699 -2 -12.5 -6 -17.5s-10.667 -9.16699 -20 -12.5s-22.166 -5.83301 -38.499 -7.5s-36.833 -2.5 -61.5 -2.5
c-24 0 -44.167 0.833008 -60.5 2.5s-29.333 4.16699 -39 7.5s-16.334 7.5 -20.001 12.5s-5.5 10.833 -5.5 17.5v722h-112c-12.667 0 -22.167 7.83301 -28.5 23.5s-9.5 41.834 -9.5 78.501c0 19.333 0.833008 35.666 2.5 48.999s4 23.833 7 31.5s7 13.167 12 16.5
s10.833 5 17.5 5h111v79c0 60.667 6.16699 113.667 18.5 159s31.166 83.166 56.499 113.499s57.333 53 96 68s84.334 22.5 137.001 22.5c14.667 0 29.5 -0.666992 44.5 -2s29.167 -3.33301 42.5 -6s25 -5.66699 35 -9s16.833 -6.83301 20.5 -10.5
s6.66699 -7.83398 9 -12.501s4.33301 -10.667 6 -18s2.83398 -16.833 3.50098 -28.5s1 -26.167 1 -43.5c0 -32 -1.83301 -54.5 -5.5 -67.5s-10.834 -19.5 -21.501 -19.5c-4 0 -8.5 0.666992 -13.5 2l-18 5c-7 2 -15.167 3.83301 -24.5 5.5s-21 2.5 -35 2.5
c-35.333 0 -61.166 -12 -77.499 -36s-24.166 -63.667 -23.499 -119v-85h506c25.333 0 44.333 -5.5 57 -16.5s19 -28.5 19 -52.5v-856z" />
    <glyph glyph-name="f_dotlessi.liga" unicode="f&#x131;" horiz-adv-x="1135" 
d="M1008 34c0 -6.66699 -2.00488 -12.499 -6.00488 -17.499s-10.667 -9.16699 -20 -12.5s-22.166 -5.83301 -38.499 -7.5s-36.5 -2.5 -60.5 -2.5c-24.667 0 -45.167 0.833008 -61.5 2.5s-29.166 4.16699 -38.499 7.5s-16 7.5 -20 12.5s-6 10.833 -6 17.5v722h-331v-722
c0 -6.66699 -2 -12.5 -6 -17.5s-10.667 -9.16699 -20 -12.5s-22.166 -5.83301 -38.499 -7.5s-36.833 -2.5 -61.5 -2.5c-24 0 -44.167 0.833008 -60.5 2.5s-29.333 4.16699 -39 7.5s-16.334 7.5 -20.001 12.5s-5.5 10.833 -5.5 17.5v722h-112
c-12.667 0 -22.167 7.83301 -28.5 23.5s-9.5 41.834 -9.5 78.501c0 19.333 0.833008 35.666 2.5 48.999s4 23.833 7 31.5s7 13.167 12 16.5s10.833 5 17.5 5h111v77c0 60 6.16699 112.667 18.5 158s31.333 83.166 57 113.499s58 53.166 97 68.499s84.833 23 137.5 23
c26.667 0 51.834 -2.16699 75.501 -6.5s41.5 -9 53.5 -14s20.333 -9.66699 25 -14s8.33398 -10.666 11.001 -18.999s4.5 -19 5.5 -32s1.5 -29.167 1.5 -48.5c0 -32.667 -1.83301 -55.5 -5.5 -68.5s-10.834 -19.5 -21.501 -19.5c-4 0 -9 1 -15 3s-13 4.16699 -21 6.5
s-17.167 4.66602 -27.5 6.99902s-22.166 3.5 -35.499 3.5c-37.333 0 -64.166 -12.167 -80.499 -36.5s-24.5 -64.166 -24.5 -119.499v-82h506c25.333 0 44.333 -5.5 57 -16.5s19 -28.5 19 -52.5v-857z" />
    <glyph glyph-name="f_f_igrave.liga" unicode="ff&#xec;" horiz-adv-x="1718" 
d="M1592 34c0 -6.66699 -1.99902 -12.4971 -5.99902 -17.4971s-10.833 -9.16699 -20.5 -12.5s-22.5 -5.83301 -38.5 -7.5s-36.333 -2.5 -61 -2.5s-45 0.833008 -61 2.5s-28.833 4.16699 -38.5 7.5s-16.5 7.5 -20.5 12.5s-6 10.833 -6 17.5v722h-332v-722
c0 -6.66699 -2 -12.5 -6 -17.5s-10.667 -9.16699 -20 -12.5s-22.166 -5.83301 -38.499 -7.5s-36.5 -2.5 -60.5 -2.5c-24.667 0 -45.167 0.833008 -61.5 2.5s-29.166 4.16699 -38.499 7.5s-16 7.5 -20 12.5s-6 10.833 -6 17.5v722h-331v-722c0 -6.66699 -2 -12.5 -6 -17.5
s-10.667 -9.16699 -20 -12.5s-22.333 -5.83301 -39 -7.5s-37 -2.5 -61 -2.5s-44.167 0.833008 -60.5 2.5s-29.333 4.16699 -39 7.5s-16.334 7.5 -20.001 12.5s-5.5 10.833 -5.5 17.5v722h-112c-12.667 0 -22.167 7.83301 -28.5 23.5s-9.5 41.834 -9.5 78.501
c0 19.333 0.833008 35.666 2.5 48.999s4 23.833 7 31.5s7 13.167 12 16.5s10.833 5 17.5 5h111v66c0 60 6.16699 112.667 18.5 158s31.333 83.166 57 113.499s58 53.166 97 68.499s85.167 23 138.5 23c29.333 0 55.666 -2.33301 78.999 -7s41.166 -9.33398 53.499 -14.001
s20.833 -9.16699 25.5 -13.5s8.5 -10.666 11.5 -18.999s5.16699 -19 6.5 -32s2 -29.167 2 -48.5c0 -32.667 -2.16699 -55.667 -6.5 -69s-11.5 -20 -21.5 -20c-4.66699 0 -10 1 -16 3l-21 7c-8 2.66699 -17.5 5.16699 -28.5 7.5s-23.167 3.5 -36.5 3.5
c-38.667 0 -66.334 -12.167 -83.001 -36.5s-25 -64.166 -25 -119.499v-71h331v89c0 58 6.16699 109 18.5 153s31.166 80.833 56.499 110.5s56.833 52 94.5 67s82.167 22.5 133.5 22.5c18.667 0 38 -1.5 58 -4.5s35.167 -6.33301 45.5 -10s17.833 -7.83398 22.5 -12.501
s8.33398 -11.334 11.001 -20.001s4.66699 -19.5 6 -32.5s2 -29.167 2 -48.5c0 -32 -2 -54.5 -6 -67.5s-11 -19.5 -21 -19.5c-4 0 -8.16699 0.666992 -12.5 2s-9.66602 2.83301 -15.999 4.5s-13.5 3.16699 -21.5 4.5s-17.333 2 -28 2c-30.667 0 -53.667 -11.5 -69 -34.5
s-23 -60.167 -23 -111.5v-94h507c25.333 0 44.5 -5.5 57.5 -16.5s19.5 -28.5 19.5 -52.5v-857zM1584 1131c3.33301 -9.33301 4.99707 -17.333 4.99707 -24s-3.16699 -12.167 -9.5 -16.5s-16.5 -7.5 -30.5 -9.5s-32.333 -3 -55 -3c-19.333 0 -35.333 0.666992 -48 2
s-22.667 3.33301 -30 6s-13.166 6.16699 -17.499 10.5s-8.16602 9.83301 -11.499 16.5l-142 232c-4.66699 7.33301 -6.66699 14.333 -6 21s5.5 12.5 14.5 17.5s22.667 9 41 12s42.833 4.5 73.5 4.5c22 0 40.333 -0.666992 55 -2s26.5 -3.5 35.5 -6.5
s15.833 -7.16699 20.5 -12.5s8.33398 -12 11.001 -20z" />
    <glyph glyph-name="f_f_iacute.liga" unicode="ff&#xed;" horiz-adv-x="1718" 
d="M1592 34c0 -6.66699 -2.00488 -12.498 -6.00488 -17.498s-10.833 -9.16699 -20.5 -12.5s-22.5 -5.83301 -38.5 -7.5s-36.333 -2.5 -61 -2.5s-45 0.833008 -61 2.5s-28.833 4.16699 -38.5 7.5s-16.5 7.5 -20.5 12.5s-6 10.833 -6 17.5v722h-332v-722
c0 -6.66699 -2 -12.5 -6 -17.5s-10.667 -9.16699 -20 -12.5s-22.166 -5.83301 -38.499 -7.5s-36.5 -2.5 -60.5 -2.5c-24.667 0 -45.167 0.833008 -61.5 2.5s-29.166 4.16699 -38.499 7.5s-16 7.5 -20 12.5s-6 10.833 -6 17.5v722h-331v-722c0 -6.66699 -2 -12.5 -6 -17.5
s-10.667 -9.16699 -20 -12.5s-22.166 -5.83301 -38.499 -7.5s-36.833 -2.5 -61.5 -2.5c-24 0 -44.167 0.833008 -60.5 2.5s-29.333 4.16699 -39 7.5s-16.334 7.5 -20.001 12.5s-5.5 10.833 -5.5 17.5v722h-112c-12.667 0 -22.167 7.83301 -28.5 23.5
s-9.5 41.834 -9.5 78.501c0 19.333 0.833008 35.666 2.5 48.999s4 23.833 7 31.5s7 13.167 12 16.5s10.833 5 17.5 5h111v66c0 60 6.16699 112.667 18.5 158s31.333 83.166 57 113.499s58 53.166 97 68.499s85.167 23 138.5 23c28.667 0 54.834 -2.33301 78.501 -7
s41.667 -9.33398 54 -14.001s20.833 -9.16699 25.5 -13.5s8.5 -10.666 11.5 -18.999s5.16699 -19 6.5 -32s2 -29.167 2 -48.5c0 -32.667 -2.16699 -55.667 -6.5 -69s-11.5 -20 -21.5 -20c-4.66699 0 -10 1 -16 3l-21 7c-8 2.66699 -17.5 5.16699 -28.5 7.5
s-23.167 3.5 -36.5 3.5c-38.667 0 -66.334 -12.167 -83.001 -36.5s-25 -64.166 -25 -119.499v-71h331v79c0 60.667 6.33301 113.667 19 159s31.834 83.166 57.501 113.499s58 53 97 68s85.167 22.5 138.5 22.5c28 0 53.833 -2.33301 77.5 -7s40.834 -9.16699 51.501 -13.5
s18.5 -8.83301 23.5 -13.5s8.83301 -11.167 11.5 -19.5s4.5 -19 5.5 -32s1.5 -29.167 1.5 -48.5c0 -32 -1.83301 -54.5 -5.5 -67.5s-10.834 -19.5 -21.501 -19.5c-4 0 -8.83301 1 -14.5 3s-12.667 4.16699 -21 6.5s-17.666 4.5 -27.999 6.5s-22.166 3 -35.499 3
c-37.333 0 -64.333 -12 -81 -36s-25 -63.667 -25 -119v-85h507c25.333 0 44.5 -5.5 57.5 -16.5s19.5 -28.5 19.5 -52.5v-857zM1496 1361c4.66699 7.33301 10.3291 13.666 16.9961 18.999s15 9.5 25 12.5s22.667 5.16699 38 6.5s34 2 56 2
c30.667 0 54.834 -1.33301 72.501 -4s30.334 -6.5 38.001 -11.5s11.167 -10.833 10.5 -17.5s-4 -13.667 -10 -21l-194 -232c-5.33301 -6.66699 -10.666 -12.167 -15.999 -16.5s-12.166 -7.83301 -20.499 -10.5s-18.833 -4.66699 -31.5 -6s-28.667 -2 -48 -2
c-23.333 0 -41.833 1 -55.5 3s-23.167 5.16699 -28.5 9.5s-7.5 9.83301 -6.5 16.5s4.5 14.334 10.5 23.001zM1239.99 957.002z" />
    <glyph glyph-name="f_f_icircumflex.liga" unicode="ff&#xee;" horiz-adv-x="1718" 
d="M1592 34c0 -6.66699 -1.99707 -12.501 -5.99707 -17.501s-10.833 -9.16699 -20.5 -12.5s-22.5 -5.83301 -38.5 -7.5s-36.333 -2.5 -61 -2.5s-45 0.833008 -61 2.5s-28.833 4.16699 -38.5 7.5s-16.5 7.5 -20.5 12.5s-6 10.833 -6 17.5v722h-332v-722
c0 -6.66699 -2 -12.5 -6 -17.5s-10.667 -9.16699 -20 -12.5s-22.166 -5.83301 -38.499 -7.5s-36.5 -2.5 -60.5 -2.5c-24.667 0 -45.167 0.833008 -61.5 2.5s-29.166 4.16699 -38.499 7.5s-16 7.5 -20 12.5s-6 10.833 -6 17.5v722h-331v-722c0 -6.66699 -2 -12.5 -6 -17.5
s-10.667 -9.16699 -20 -12.5s-22.333 -5.83301 -39 -7.5s-37 -2.5 -61 -2.5s-44.167 0.833008 -60.5 2.5s-29.333 4.16699 -39 7.5s-16.334 7.5 -20.001 12.5s-5.5 10.833 -5.5 17.5v722h-112c-12.667 0 -22.167 7.83301 -28.5 23.5s-9.5 41.834 -9.5 78.501
c0 19.333 0.833008 35.666 2.5 48.999s4 23.833 7 31.5s7 13.167 12 16.5s10.833 5 17.5 5h111v66c0 60 6.16699 112.667 18.5 158s31.333 83.166 57 113.499s58 53.166 97 68.499s85.167 23 138.5 23c29.333 0 55.666 -2.5 78.999 -7.5s41.166 -9.66699 53.499 -14
s20.833 -8.66602 25.5 -12.999s8.5 -10.666 11.5 -18.999s5.16699 -19 6.5 -32s2 -29.167 2 -48.5c0 -32.667 -2.16699 -55.667 -6.5 -69s-11.5 -20 -21.5 -20c-4.66699 0 -10 1 -16 3l-21 7c-8 2.66699 -17.5 5.16699 -28.5 7.5s-23.167 3.5 -36.5 3.5
c-38.667 0 -66.334 -12.167 -83.001 -36.5s-25 -64.166 -25 -119.499v-71h331v89c0 58 6.16699 109 18.5 153s31.166 80.833 56.499 110.5s56.833 52 94.5 67s82.167 22.5 133.5 22.5c18.667 0 38 -1.5 58 -4.5s35 -6.33301 45 -10s17.333 -7.66699 22 -12
s8.33398 -10.333 11.001 -18s4.5 -17.834 5.5 -30.501s1.5 -28.667 1.5 -48c0 -32 -1.83301 -54.5 -5.5 -67.5s-10.834 -19.5 -21.501 -19.5c-4 0 -8.16699 0.666992 -12.5 2s-9.66602 2.83301 -15.999 4.5s-13.5 3.33398 -21.5 5.00098s-17.333 2.5 -28 2.5
c-30.667 0 -53.334 -11.5 -68.001 -34.5s-22 -60.167 -22 -111.5v-100h507c25.333 0 44.5 -5.5 57.5 -16.5s19.5 -28.5 19.5 -52.5v-857zM1395 1112c-4 -8 -8.16602 -14.333 -12.499 -19s-10.5 -8.16699 -18.5 -10.5s-18.167 -3.83301 -30.5 -4.5s-28.166 -1 -47.499 -1
c-22.667 0 -40 1 -52 3s-20.167 5.66699 -24.5 11s-5 13 -2 23s8.83301 22.667 17.5 38l131 214c3.33301 6.66699 8 12 14 16s14 7.16699 24 9.5s22.333 4 37 5s32.667 1.5 54 1.5c20.667 0 38.167 -0.666992 52.5 -2s26.333 -3.33301 36 -6s17.5 -6 23.5 -10
s11 -8.66699 15 -14l139 -223c7.33301 -13.333 12.333 -24.333 15 -33s1.66699 -15.5 -3 -20.5s-13.5 -8.33301 -26.5 -10s-31.167 -2.5 -54.5 -2.5c-22 0 -39.333 0.333008 -52 1s-22.834 2.16699 -30.501 4.5s-13.334 5.83301 -17.001 10.5s-7.5 11 -11.5 19l-88 149z" />
    <glyph glyph-name="f_f_itilde.liga" unicode="ff&#x129;" horiz-adv-x="1736" 
d="M1610 34c0 -6.66699 -1.99707 -12.5 -5.99707 -17.5s-10.833 -9.16699 -20.5 -12.5s-22.5 -5.83301 -38.5 -7.5s-36.333 -2.5 -61 -2.5s-45 0.833008 -61 2.5s-28.667 4.16699 -38 7.5s-16 7.5 -20 12.5s-6 10.833 -6 17.5v722h-351v-722c0 -6.66699 -2 -12.5 -6 -17.5
s-10.667 -9.16699 -20 -12.5s-22.166 -5.83301 -38.499 -7.5s-36.5 -2.5 -60.5 -2.5c-24.667 0 -45.167 0.833008 -61.5 2.5s-29.166 4.16699 -38.499 7.5s-16 7.5 -20 12.5s-6 10.833 -6 17.5v722h-331v-722c0 -6.66699 -2 -12.5 -6 -17.5s-10.667 -9.16699 -20 -12.5
s-22.166 -5.83301 -38.499 -7.5s-36.833 -2.5 -61.5 -2.5c-24 0 -44.167 0.833008 -60.5 2.5s-29.333 4.16699 -39 7.5s-16.334 7.5 -20.001 12.5s-5.5 10.833 -5.5 17.5v722h-112c-12.667 0 -22.167 7.83301 -28.5 23.5s-9.5 41.834 -9.5 78.501
c0 19.333 0.833008 35.666 2.5 48.999s4 23.833 7 31.5s7 13.167 12 16.5s10.833 5 17.5 5h111v66c0 60 6.16699 112.667 18.5 158s31.333 83.166 57 113.499s58 53.166 97 68.499s85.167 23 138.5 23c29.333 0 55.666 -2.5 78.999 -7.5s41.166 -9.66699 53.499 -14
s20.833 -8.66602 25.5 -12.999s8.5 -10.666 11.5 -18.999s5.16699 -19 6.5 -32s2 -29.167 2 -48.5c0 -32.667 -2.16699 -55.667 -6.5 -69s-11.5 -20 -21.5 -20c-4.66699 0 -10 1 -16 3l-21 7c-8 2.66699 -17.5 5.16699 -28.5 7.5s-23.167 3.5 -36.5 3.5
c-38.667 0 -66.334 -12.167 -83.001 -36.5s-25 -64.166 -25 -119.499v-71h331v105c0 54.667 6 103 18 145s30.167 77.167 54.5 105.5s54.833 49.833 91.5 64.5s79.667 22 129 22c19.333 0 38.666 -1.33301 57.999 -4s33.5 -5.83398 42.5 -9.50098
s15.333 -7.33398 19 -11.001s6.5 -9.16699 8.5 -16.5s3.33301 -17.333 4 -30s1 -28.667 1 -48c0 -32 -1.5 -56 -4.5 -72s-8.83301 -24 -17.5 -24c-3.33301 0 -6.83301 0.5 -10.5 1.5s-8.16699 2.33301 -13.5 4s-11.5 3 -18.5 4s-15.833 1.5 -26.5 1.5
c-28.667 0 -49.834 -11.167 -63.501 -33.5s-20.5 -59.166 -20.5 -110.499v-94h525c25.333 0 44.5 -5.5 57.5 -16.5s19.5 -28.5 19.5 -52.5v-857zM1784 1308c0 -40.667 -4.33301 -76.3311 -13 -106.998s-21.167 -56.667 -37.5 -78s-36.333 -37.5 -60 -48.5
s-50.167 -16.5 -79.5 -16.5c-32.667 0 -60 5.83301 -82 17.5s-41.167 24.667 -57.5 39l-43 39c-12.333 11.667 -25.166 17.5 -38.499 17.5c-16.667 0 -28.5 -7.83301 -35.5 -23.5s-10.5 -35.834 -10.5 -60.501c0 -12 -5.33301 -19.833 -16 -23.5s-29.667 -5.5 -57 -5.5
c-24.667 0 -42.667 2.5 -54 7.5s-17 16.167 -17 33.5c0 78 16.333 139.167 49 183.5s79.667 66.5 141 66.5c20.667 0 39.167 -2.83301 55.5 -8.5s31.333 -12.667 45 -21s26 -17.333 37 -27l30.5 -27.5c9.33301 -8.66699 18.166 -15.834 26.499 -21.501
s16.833 -8.5 25.5 -8.5c15.333 0 27 7.33301 35 22s12 35.667 12 63c0 11.333 5.33301 19 16 23s29 6 55 6c25.333 0 43.833 -2.66699 55.5 -8s17.5 -16.333 17.5 -33z" />
    <glyph glyph-name="f_f_idieresis.liga" unicode="ff&#xef;" horiz-adv-x="1736" 
d="M1610 34c0 -6.66699 -1.99805 -12.498 -5.99805 -17.498s-10.833 -9.16699 -20.5 -12.5s-22.5 -5.83301 -38.5 -7.5s-36.333 -2.5 -61 -2.5s-45 0.833008 -61 2.5s-28.667 4.16699 -38 7.5s-16 7.5 -20 12.5s-6 10.833 -6 17.5v722h-351v-722
c0 -6.66699 -2 -12.5 -6 -17.5s-10.667 -9.16699 -20 -12.5s-22.166 -5.83301 -38.499 -7.5s-36.5 -2.5 -60.5 -2.5c-24.667 0 -45.167 0.833008 -61.5 2.5s-29.166 4.16699 -38.499 7.5s-16 7.5 -20 12.5s-6 10.833 -6 17.5v722h-331v-722c0 -6.66699 -2 -12.5 -6 -17.5
s-10.667 -9.16699 -20 -12.5s-22.166 -5.83301 -38.499 -7.5s-36.833 -2.5 -61.5 -2.5c-24 0 -44.167 0.833008 -60.5 2.5s-29.333 4.16699 -39 7.5s-16.334 7.5 -20.001 12.5s-5.5 10.833 -5.5 17.5v722h-112c-12.667 0 -22.167 7.83301 -28.5 23.5
s-9.5 41.834 -9.5 78.501c0 19.333 0.833008 35.666 2.5 48.999s4 23.833 7 31.5s7 13.167 12 16.5s10.833 5 17.5 5h111v66c0 60 6.16699 112.667 18.5 158s31.333 83.166 57 113.499s58 53.166 97 68.499s85.167 23 138.5 23c29.333 0 55.666 -2.5 78.999 -7.5
s41.166 -9.66699 53.499 -14s20.833 -8.66602 25.5 -12.999s8.5 -10.666 11.5 -18.999s5.16699 -19 6.5 -32s2 -29.167 2 -48.5c0 -32.667 -2.16699 -55.667 -6.5 -69s-11.5 -20 -21.5 -20c-4.66699 0 -10 1 -16 3l-21 7c-8 2.66699 -17.5 5.16699 -28.5 7.5
s-23.167 3.5 -36.5 3.5c-38.667 0 -66.334 -12.167 -83.001 -36.5s-25 -64.166 -25 -119.499v-71h331v105c0 54.667 6 103 18 145s30.167 77.167 54.5 105.5s54.833 49.833 91.5 64.5s79.667 22 129 22c19.333 0 39 -1.33301 59 -4s34.167 -5.83398 42.5 -9.50098
s14.333 -7.33398 18 -11.001s6.5 -9.16699 8.5 -16.5s3.33301 -17.333 4 -30s1 -28.667 1 -48c0 -32 -1.5 -56 -4.5 -72s-8.83301 -24 -17.5 -24c-3.33301 0 -6.83301 0.5 -10.5 1.5s-8.16699 2.33301 -13.5 4s-11.5 3 -18.5 4s-15.833 1.5 -26.5 1.5
c-28.667 0 -49.834 -11.333 -63.501 -34s-20.5 -59.334 -20.5 -110.001v-94h525c25.333 0 44.5 -5.5 57.5 -16.5s19.5 -28.5 19.5 -52.5v-857zM1225 1226c0 24.667 2 45 6 61s10.667 28.5 20 37.5s21.5 15.167 36.5 18.5s33.167 5 54.5 5s39.5 -1.66699 54.5 -5
s27 -9.5 36 -18.5s15.5 -21.5 19.5 -37.5s6 -36.333 6 -61s-2 -45.167 -6 -61.5s-10.5 -29.166 -19.5 -38.499s-21 -15.833 -36 -19.5s-33.167 -5.5 -54.5 -5.5s-39.5 1.83301 -54.5 5.5s-27.167 10.167 -36.5 19.5s-16 22.166 -20 38.499s-6 36.833 -6 61.5zM1533 1226
c0 24.667 2.16699 45 6.5 61s11 28.5 20 37.5s21 15.167 36 18.5s33.167 5 54.5 5s39.333 -1.66699 54 -5s26.667 -9.5 36 -18.5s16.166 -21.5 20.499 -37.5s6.5 -36.333 6.5 -61s-2.16699 -45.167 -6.5 -61.5s-11.166 -29.166 -20.499 -38.499s-21.333 -15.833 -36 -19.5
s-32.667 -5.5 -54 -5.5s-39.5 1.83301 -54.5 5.5s-27 10.167 -36 19.5s-15.667 22.166 -20 38.499s-6.5 36.833 -6.5 61.5z" />
    <glyph glyph-name="f_f_imacron.liga" unicode="ff&#x12b;" horiz-adv-x="1736" 
d="M1610 34c0 -6.66699 -1.99805 -12.5 -5.99805 -17.5s-10.833 -9.16699 -20.5 -12.5s-22.5 -5.83301 -38.5 -7.5s-36.333 -2.5 -61 -2.5s-45 0.833008 -61 2.5s-28.667 4.16699 -38 7.5s-16 7.5 -20 12.5s-6 10.833 -6 17.5v722h-351v-722c0 -6.66699 -2 -12.5 -6 -17.5
s-10.667 -9.16699 -20 -12.5s-22.166 -5.83301 -38.499 -7.5s-36.5 -2.5 -60.5 -2.5c-24.667 0 -45.167 0.833008 -61.5 2.5s-29.166 4.16699 -38.499 7.5s-16 7.5 -20 12.5s-6 10.833 -6 17.5v722h-331v-722c0 -6.66699 -2 -12.5 -6 -17.5s-10.667 -9.16699 -20 -12.5
s-22.166 -5.83301 -38.499 -7.5s-36.833 -2.5 -61.5 -2.5c-24 0 -44.167 0.833008 -60.5 2.5s-29.333 4.16699 -39 7.5s-16.334 7.5 -20.001 12.5s-5.5 10.833 -5.5 17.5v722h-112c-12.667 0 -22.167 7.83301 -28.5 23.5s-9.5 41.834 -9.5 78.501
c0 19.333 0.833008 35.666 2.5 48.999s4 23.833 7 31.5s7 13.167 12 16.5s10.833 5 17.5 5h111v66c0 60 6.16699 112.667 18.5 158s31.333 83.166 57 113.499s58 53.166 97 68.499s85.167 23 138.5 23c29.333 0 55.666 -2.5 78.999 -7.5s41.166 -9.66699 53.499 -14
s20.833 -8.66602 25.5 -12.999s8.5 -10.666 11.5 -18.999s5.16699 -19 6.5 -32s2 -29.167 2 -48.5c0 -32.667 -2.16699 -55.667 -6.5 -69s-11.5 -20 -21.5 -20c-4.66699 0 -10 1 -16 3l-21 7c-8 2.66699 -17.5 5.16699 -28.5 7.5s-23.167 3.5 -36.5 3.5
c-38.667 0 -66.334 -12.167 -83.001 -36.5s-25 -64.166 -25 -119.499v-71h331v105c0 54.667 6 103 18 145s30.167 77.167 54.5 105.5s54.833 49.833 91.5 64.5s79.667 22 129 22c19.333 0 39 -1.33301 59 -4s34.167 -5.83398 42.5 -9.50098s14.333 -7.33398 18 -11.001
s6.5 -9.16699 8.5 -16.5s3.33301 -17.333 4 -30s1 -28.667 1 -48c0 -32 -1.5 -56 -4.5 -72s-8.83301 -24 -17.5 -24c-3.33301 0 -6.83301 0.5 -10.5 1.5s-8.16699 2.33301 -13.5 4s-11.5 3 -18.5 4s-15.833 1.5 -26.5 1.5c-28.667 0 -49.834 -11.167 -63.501 -33.5
s-20.5 -59.166 -20.5 -110.499v-94h525c25.333 0 44.5 -5.5 57.5 -16.5s19.5 -28.5 19.5 -52.5v-857zM1712 1323c7.33301 0 13.5 -1.5 18.5 -4.5s9.16699 -8.16699 12.5 -15.5s5.66602 -16.833 6.99902 -28.5s2 -26.167 2 -43.5s-0.666992 -31.666 -2 -42.999
s-3.66602 -20.666 -6.99902 -27.999s-7.5 -12.5 -12.5 -15.5s-11.167 -4.5 -18.5 -4.5h-450c-8.66699 0 -15.834 1.5 -21.501 4.5s-10.167 8.16699 -13.5 15.5s-5.66602 16.666 -6.99902 27.999s-2 25.666 -2 42.999c0 33.333 3.16699 57 9.5 71s17.833 21 34.5 21h450z" />
    <glyph glyph-name="f_f_ibreve.liga" unicode="ff&#x12d;" horiz-adv-x="1736" 
d="M1610 34c0 -6.66699 -1.99805 -12.5 -5.99805 -17.5s-10.833 -9.16699 -20.5 -12.5s-22.5 -5.83301 -38.5 -7.5s-36.333 -2.5 -61 -2.5s-45 0.833008 -61 2.5s-28.667 4.16699 -38 7.5s-16 7.5 -20 12.5s-6 10.833 -6 17.5v722h-351v-722c0 -6.66699 -2 -12.5 -6 -17.5
s-10.667 -9.16699 -20 -12.5s-22.166 -5.83301 -38.499 -7.5s-36.5 -2.5 -60.5 -2.5c-24.667 0 -45.167 0.833008 -61.5 2.5s-29.166 4.16699 -38.499 7.5s-16 7.5 -20 12.5s-6 10.833 -6 17.5v722h-331v-722c0 -6.66699 -2 -12.5 -6 -17.5s-10.667 -9.16699 -20 -12.5
s-22.166 -5.83301 -38.499 -7.5s-36.833 -2.5 -61.5 -2.5c-24 0 -44.167 0.833008 -60.5 2.5s-29.333 4.16699 -39 7.5s-16.334 7.5 -20.001 12.5s-5.5 10.833 -5.5 17.5v722h-112c-12.667 0 -22.167 7.83301 -28.5 23.5s-9.5 41.834 -9.5 78.501
c0 19.333 0.833008 35.666 2.5 48.999s4 23.833 7 31.5s7 13.167 12 16.5s10.833 5 17.5 5h111v66c0 60 6.16699 112.667 18.5 158s31.333 83.166 57 113.499s58 53.166 97 68.499s85.167 23 138.5 23c29.333 0 55.666 -2.5 78.999 -7.5s41.166 -9.66699 53.499 -14
s20.833 -8.66602 25.5 -12.999s8.5 -10.666 11.5 -18.999s5.16699 -19 6.5 -32s2 -29.167 2 -48.5c0 -32.667 -2.16699 -55.667 -6.5 -69s-11.5 -20 -21.5 -20c-4.66699 0 -10 1 -16 3l-21 7c-8 2.66699 -17.5 5.16699 -28.5 7.5s-23.167 3.5 -36.5 3.5
c-38.667 0 -66.334 -12.167 -83.001 -36.5s-25 -64.166 -25 -119.499v-71h331v105c0 54.667 6 103 18 145s30.167 77.167 54.5 105.5s54.833 49.833 91.5 64.5s79.667 22 129 22c19.333 0 39 -1.33301 59 -4s34.167 -5.83398 42.5 -9.50098s14.333 -7.33398 18 -11.001
s6.5 -9.16699 8.5 -16.5s3.33301 -17.333 4 -30s1 -28.667 1 -48c0 -32 -1.5 -56 -4.5 -72s-8.83301 -24 -17.5 -24c-3.33301 0 -6.83301 0.5 -10.5 1.5s-8.16699 2.33301 -13.5 4s-11.5 3 -18.5 4s-15.833 1.5 -26.5 1.5c-28.667 0 -49.834 -11.167 -63.501 -33.5
s-20.5 -59.166 -20.5 -110.499v-94h525c25.333 0 44.5 -5.5 57.5 -16.5s19.5 -28.5 19.5 -52.5v-857zM1594 1346c1.33301 13.333 8.16406 23.334 20.4971 30.001s32.5 10 60.5 10c16.667 0 30.334 -0.666992 41.001 -2s18.834 -3.33301 24.501 -6
s9.66699 -6.33398 12 -11.001s3.5 -10.334 3.5 -17.001c0 -44.667 -5.16699 -84.167 -15.5 -118.5s-26.5 -63.333 -48.5 -87s-49.833 -41.834 -83.5 -54.501s-74.5 -19 -122.5 -19c-50 0 -92.167 6.16699 -126.5 18.5s-62.166 30.5 -83.499 54.5s-36.666 53 -45.999 87
s-14 73 -14 117c0 6.66699 1.16699 12.5 3.5 17.5s6.5 9 12.5 12s14 5.16699 24 6.5s22.333 2 37 2c32.667 0 55 -3 67 -9s18.333 -16.333 19 -31c1.33301 -18 4.16602 -34.167 8.49902 -48.5s10.666 -26.666 18.999 -36.999s19 -18.166 32 -23.499s28.833 -8 47.5 -8
c34 0 59.833 9.5 77.5 28.5s27.834 48.5 30.501 88.5z" />
    <glyph glyph-name="f_f_dotlessi.liga" unicode="ff&#x131;" horiz-adv-x="1718" 
d="M1592 34c0 -6.66699 -2.00488 -12.498 -6.00488 -17.498s-10.833 -9.16699 -20.5 -12.5s-22.5 -5.83301 -38.5 -7.5s-36.333 -2.5 -61 -2.5s-45 0.833008 -61 2.5s-28.833 4.16699 -38.5 7.5s-16.5 7.5 -20.5 12.5s-6 10.833 -6 17.5v722h-332v-722
c0 -6.66699 -2 -12.5 -6 -17.5s-10.667 -9.16699 -20 -12.5s-22.166 -5.83301 -38.499 -7.5s-36.5 -2.5 -60.5 -2.5c-24.667 0 -45.167 0.833008 -61.5 2.5s-29.166 4.16699 -38.499 7.5s-16 7.5 -20 12.5s-6 10.833 -6 17.5v722h-331v-722c0 -6.66699 -2 -12.5 -6 -17.5
s-10.667 -9.16699 -20 -12.5s-22.166 -5.83301 -38.499 -7.5s-36.833 -2.5 -61.5 -2.5c-24 0 -44.167 0.833008 -60.5 2.5s-29.333 4.16699 -39 7.5s-16.334 7.5 -20.001 12.5s-5.5 10.833 -5.5 17.5v722h-112c-12.667 0 -22.167 7.83301 -28.5 23.5
s-9.5 41.834 -9.5 78.501c0 19.333 0.833008 35.666 2.5 48.999s4 23.833 7 31.5s7 13.167 12 16.5s10.833 5 17.5 5h111v66c0 60 6.16699 112.667 18.5 158s31.333 83.166 57 113.499s58 53.166 97 68.499s85.167 23 138.5 23c28.667 0 54.834 -2.33301 78.501 -7
s41.667 -9.33398 54 -14.001s20.833 -9.16699 25.5 -13.5s8.5 -10.666 11.5 -18.999s5.16699 -19 6.5 -32s2 -29.167 2 -48.5c0 -32.667 -2.16699 -55.667 -6.5 -69s-11.5 -20 -21.5 -20c-4.66699 0 -10 1 -16 3l-21 7c-8 2.66699 -17.5 5.16699 -28.5 7.5
s-23.167 3.5 -36.5 3.5c-38.667 0 -66.334 -12.167 -83.001 -36.5s-25 -64.166 -25 -119.499v-71h331v79c0 60.667 6.33301 113.667 19 159s31.834 83.166 57.501 113.499s58 53 97 68s85.167 22.5 138.5 22.5c28 0 53.833 -2.33301 77.5 -7s40.834 -9.16699 51.501 -13.5
s18.5 -8.83301 23.5 -13.5s8.83301 -11.167 11.5 -19.5s4.5 -19 5.5 -32s1.5 -29.167 1.5 -48.5c0 -32 -1.83301 -54.5 -5.5 -67.5s-10.834 -19.5 -21.501 -19.5c-4 0 -8.83301 1 -14.5 3s-12.667 4.16699 -21 6.5s-17.666 4.5 -27.999 6.5s-22.166 3 -35.499 3
c-37.333 0 -64.333 -12 -81 -36s-25 -63.667 -25 -119v-85h507c25.333 0 44.5 -5.5 57.5 -16.5s19.5 -28.5 19.5 -52.5v-857z" />
    <glyph glyph-name="f_j.liga" unicode="fj" horiz-adv-x="1135" 
d="M1027 1226c0 -24.667 -2.16699 -45.5 -6.5 -62.5s-11.833 -30.667 -22.5 -41s-25.167 -17.666 -43.5 -21.999s-41.166 -6.5 -68.499 -6.5s-50.333 2.16699 -69 6.5s-33.5 11.666 -44.5 21.999s-18.667 24 -23 41s-6.5 37.833 -6.5 62.5c0 24 2.16699 44.333 6.5 61
s12 30.334 23 41.001s25.833 18.334 44.5 23.001s41.667 7 69 7s50.166 -2.33301 68.499 -7s32.833 -12.334 43.5 -23.001s18.167 -24.334 22.5 -41.001s6.5 -37 6.5 -61zM1008 0c0 -66 -4.99902 -120.164 -14.999 -162.497s-26.5 -78.5 -49.5 -108.5
s-53.667 -53.167 -92 -69.5s-85.833 -24.5 -142.5 -24.5c-14.667 0 -29.5 0.666992 -44.5 2s-29 3.5 -42 6.5s-24.333 6.33301 -34 10s-16.5 7.33398 -20.5 11.001s-7.16699 8 -9.5 13s-4.33301 11.167 -6 18.5s-2.83398 15.833 -3.50098 25.5s-1 22.167 -1 37.5
c0 18.667 0.666992 34.5 2 47.5s3.16602 23.333 5.49902 31s5.33301 13 9 16s7.83398 4.5 12.501 4.5c5.33301 0 11.833 -1.33301 19.5 -4s16.667 -5.16699 27 -7.5s23.5 -3.5 39.5 -3.5c14 0 27 2.5 39 7.5s22 13.167 30 24.5s14.167 26.166 18.5 44.499
s6.5 48.166 6.5 89.499v747h-331v-722c0 -6.66699 -2 -12.5 -6 -17.5s-10.667 -9.16699 -20 -12.5s-22.166 -5.83301 -38.499 -7.5s-36.833 -2.5 -61.5 -2.5c-24 0 -44.167 0.833008 -60.5 2.5s-29.333 4.16699 -39 7.5s-16.334 7.5 -20.001 12.5s-5.5 10.833 -5.5 17.5v722
h-112c-12.667 0 -22.167 7.83301 -28.5 23.5s-9.5 41.834 -9.5 78.501c0 19.333 0.833008 35.666 2.5 48.999s4 23.833 7 31.5s7 13.167 12 16.5s10.833 5 17.5 5h111v79c0 60.667 6.16699 113.667 18.5 159s31.166 83.166 56.499 113.499s57.333 53 96 68
s84.334 22.5 137.001 22.5c14.667 0 29.5 -0.666992 44.5 -2s29.167 -3.33301 42.5 -6s25 -5.66699 35 -9s16.833 -6.83301 20.5 -10.5s6.66699 -7.83398 9 -12.501s4.33301 -10.667 6 -18s2.83398 -16.833 3.50098 -28.5s1 -26.167 1 -43.5
c0 -32 -1.83301 -54.5 -5.5 -67.5s-10.834 -19.5 -21.501 -19.5c-4 0 -8.5 0.666992 -13.5 2l-18 5c-7 2 -15.167 3.83301 -24.5 5.5s-21 2.5 -35 2.5c-35.333 0 -61 -12 -77 -36s-24 -63.667 -24 -119v-85h506c25.333 0 44.333 -5.5 57 -16.5s19 -28.5 19 -52.5v-891z" />
    <glyph glyph-name="f_jcircumflex.liga" unicode="f&#x135;" horiz-adv-x="1135" 
d="M1008 -20c0 -52.667 -4.99902 -100.168 -14.999 -142.501s-26.5 -78.5 -49.5 -108.5s-53.667 -53.167 -92 -69.5s-85.833 -24.5 -142.5 -24.5c-14.667 0 -29.5 0.666992 -44.5 2s-29 3.5 -42 6.5s-24.333 6.33301 -34 10s-16.5 7.33398 -20.5 11.001s-7.16699 8 -9.5 13
s-4.33301 11.167 -6 18.5s-2.83398 16 -3.50098 26s-1 22.333 -1 37c0 18.667 0.666992 34.5 2 47.5s3.16602 23.333 5.49902 31s5.33301 13 9 16s7.83398 4.5 12.501 4.5c5.33301 0 12.666 -1.5 21.999 -4.5s18.833 -5.5 28.5 -7.5s21.5 -3 35.5 -3s27 2.5 39 7.5
s22 13.167 30 24.5s14.167 26.166 18.5 44.499s6.5 41.5 6.5 69.5v767h-331v-722c0 -6.66699 -2 -12.5 -6 -17.5s-10.667 -9.16699 -20 -12.5s-22.333 -5.83301 -39 -7.5s-37 -2.5 -61 -2.5s-44.167 0.833008 -60.5 2.5s-29.333 4.16699 -39 7.5s-16.334 7.5 -20.001 12.5
s-5.5 10.833 -5.5 17.5v722h-112c-12.667 0 -22.167 7.83301 -28.5 23.5s-9.5 41.834 -9.5 78.501c0 19.333 0.833008 35.666 2.5 48.999s4 23.833 7 31.5s7 13.167 12 16.5s10.833 5 17.5 5h111v86c0 58 6.16699 109 18.5 153s31 80.833 56 110.5s56.5 52.167 94.5 67.5
s82.333 23 133 23c18.667 0 37.667 -1.5 57 -4.5s34.333 -6.5 45 -10.5s18.334 -8.16699 23.001 -12.5s8.33398 -10.333 11.001 -18s4.5 -17.667 5.5 -30s1.5 -28.166 1.5 -47.499c0 -32 -2 -54.667 -6 -68s-11 -20 -21 -20c-4 0 -8.16699 0.666992 -12.5 2l-15.5 5
c-6 2 -13.167 3.66699 -21.5 5s-17.833 2 -28.5 2c-30.667 0 -53.167 -11.5 -67.5 -34.5s-21.5 -60.167 -21.5 -111.5v-97h506c25.333 0 44.333 -5.5 57 -16.5s19 -28.5 19 -52.5v-911zM812.001 1112c-4 -8 -8.16699 -14.333 -12.5 -19s-10.333 -8.16699 -18 -10.5
s-17.834 -3.83301 -30.501 -4.5s-28.667 -1 -48 -1c-22 0 -39.333 1 -52 3s-21 5.66699 -25 11s-4.5 13 -1.5 23s8.83301 22.667 17.5 38l132 214c3.33301 6.66699 8 12 14 16s13.833 7.16699 23.5 9.5s21.834 4 36.501 5s32.334 1.5 53.001 1.5
c21.333 0 39.166 -0.666992 53.499 -2s26.333 -3.33301 36 -6s17.5 -6 23.5 -10s11.333 -8.66699 16 -14l138 -223c8 -13.333 13.333 -24.333 16 -33s1.5 -15.5 -3.5 -20.5s-14.167 -8.33301 -27.5 -10s-31.666 -2.5 -54.999 -2.5c-20.667 0 -37.5 0.333008 -50.5 1
s-23.333 2.16699 -31 4.5s-13.334 5.83301 -17.001 10.5s-7.5 11 -11.5 19l-88 149z" />
    <glyph glyph-name="f_f_j.liga" unicode="ffj" horiz-adv-x="1718" 
d="M1611 1226c0 -24.667 -2.16699 -45.5 -6.5 -62.5s-12 -30.667 -23 -41s-25.667 -17.666 -44 -21.999s-41.5 -6.5 -69.5 -6.5c-27.333 0 -50.166 2.16699 -68.499 6.5s-33 11.666 -44 21.999s-18.833 24 -23.5 41s-7 37.833 -7 62.5c0 24 2.33301 44.333 7 61
s12.5 30.334 23.5 41.001s25.667 18.334 44 23.001s41.166 7 68.499 7c28 0 51.167 -2.33301 69.5 -7s33 -12.334 44 -23.001s18.667 -24.334 23 -41.001s6.5 -37 6.5 -61zM757 1039c0 60.667 6.32422 113.67 18.9912 159.003s31.667 83.166 57 113.499s57.333 53 96 68
s84.334 22.5 137.001 22.5c14.667 0 29.834 -0.666992 45.501 -2s30 -3.33301 43 -6s24.333 -5.66699 34 -9s16.334 -6.83301 20.001 -10.5s6.66699 -7.83398 9 -12.501s4.33301 -10.667 6 -18s2.83398 -16.833 3.50098 -28.5s1 -26.167 1 -43.5c0 -32 -2 -54.5 -6 -67.5
s-11 -19.5 -21 -19.5c-4.66699 0 -9.33398 0.666992 -14.001 2l-17.5 5c-7 2 -15.167 3.83301 -24.5 5.5s-20.666 2.5 -33.999 2.5c-36 0 -62.167 -12 -78.5 -36s-24.5 -63.667 -24.5 -119v-85h507c25.333 0 44.5 -5.5 57.5 -16.5s19.5 -28.5 19.5 -52.5v-911
c0 -52.667 -5.16699 -100.167 -15.5 -142.5s-27.166 -78.5 -50.499 -108.5s-54.166 -53.167 -92.499 -69.5s-85.166 -24.5 -140.499 -24.5c-16 0 -31.333 0.666992 -46 2s-28.667 3.5 -42 6.5s-24.833 6.33301 -34.5 10s-16.5 7.33398 -20.5 11.001s-7.16699 8 -9.5 13
s-4.16602 11.167 -5.49902 18.5s-2.33301 16 -3 26s-1 22.333 -1 37c0 18.667 0.5 34.5 1.5 47.5s2.83301 23.333 5.5 31s5.83398 13 9.50098 16s7.83398 4.5 12.501 4.5s9.33398 -0.833008 14.001 -2.5s10.167 -3.33398 16.5 -5.00098s13.833 -3.33398 22.5 -5.00098
s19.667 -2.5 33 -2.5c14 0 26.833 2.5 38.5 7.5s21.667 13.167 30 24.5s14.666 26.166 18.999 44.499s6.5 41.5 6.5 69.5v767h-332v-722c0 -6.66699 -2 -12.5 -6 -17.5s-10.667 -9.16699 -20 -12.5s-22.166 -5.83301 -38.499 -7.5s-36.5 -2.5 -60.5 -2.5
c-24.667 0 -45.167 0.833008 -61.5 2.5s-29.166 4.16699 -38.499 7.5s-16 7.5 -20 12.5s-6 10.833 -6 17.5v722h-331v-722c0 -6.66699 -2 -12.5 -6 -17.5s-10.667 -9.16699 -20 -12.5s-22.166 -5.83301 -38.499 -7.5s-36.833 -2.5 -61.5 -2.5
c-24 0 -44.167 0.833008 -60.5 2.5s-29.333 4 -39 7s-16.334 7 -20.001 12s-5.5 10.833 -5.5 17.5v723h-112c-12.667 0 -22.167 7.83301 -28.5 23.5s-9.5 41.834 -9.5 78.501c0 19.333 0.833008 35.666 2.5 48.999s4 23.833 7 31.5s7 13.167 12 16.5s10.833 5 17.5 5h111v66
c0 60 6.16699 112.667 18.5 158s31.333 83.166 57 113.499s58 53.166 97 68.499s85.167 23 138.5 23c29.333 0 55.666 -2.5 78.999 -7.5s41.166 -9.66699 53.499 -14s20.833 -8.66602 25.5 -12.999s8.5 -10.666 11.5 -18.999s5.16699 -19 6.5 -32s2 -29.167 2 -48.5
c0 -32.667 -2.16699 -55.667 -6.5 -69s-11.5 -20 -21.5 -20c-4.66699 0 -10 1 -16 3l-21 7c-8 2.66699 -17.5 5.16699 -28.5 7.5s-23.167 3.5 -36.5 3.5c-38.667 0 -66.334 -12.167 -83.001 -36.5s-25 -64.166 -25 -119.499v-71h331v79z" />
    <glyph glyph-name="f_k.liga" unicode="fk" horiz-adv-x="1613" 
d="M883 1392c24 0 44.1719 -1.00195 60.5049 -3.00195s29.166 -4.83301 38.499 -8.5s16 -8.16699 20 -13.5s6 -11.333 6 -18v-783l266 355c4.66699 8 10.334 15 17.001 21s15.334 10.667 26.001 14s24.334 5.83301 41.001 7.5s37.334 2.5 62.001 2.5
c25.333 0 46.5 -0.833008 63.5 -2.5s30.667 -4.16699 41 -7.5s17.666 -7.5 21.999 -12.5s6.5 -11.167 6.5 -18.5c0 -10 -2.83301 -20.667 -8.5 -32s-13.167 -23.333 -22.5 -36l-262 -296l303 -467c7.33301 -13.333 13 -24.833 17 -34.5s6 -18.5 6 -26.5
c0 -7.33301 -1.83301 -13.333 -5.5 -18s-10.334 -8.66699 -20.001 -12s-22.834 -5.66602 -39.501 -6.99902s-38.334 -2 -65.001 -2s-48.667 0.666992 -66 2s-31.5 3.5 -42.5 6.5s-19.5 7.16699 -25.5 12.5s-11.333 12.333 -16 21l-298 470v-472
c0 -6.66699 -2 -12.5 -6 -17.5s-10.667 -9.16699 -20 -12.5s-22.166 -5.83301 -38.499 -7.5s-36.5 -2.5 -60.5 -2.5c-24.667 0 -45.167 0.833008 -61.5 2.5s-29.166 4.16699 -38.499 7.5s-16 7.5 -20 12.5s-6 10.833 -6 17.5v1158c-2 -4 -4.83301 -7 -8.5 -9
s-8.16699 -3 -13.5 -3c-7.33301 0 -17 1.33301 -29 4s-25.333 5.16699 -40 7.5s-29.167 4 -43.5 5s-28.5 1.5 -42.5 1.5c-30 0 -55 -3 -75 -9s-35.833 -15.167 -47.5 -27.5s-19.834 -28.5 -24.501 -48.5s-7 -43.667 -7 -71v-82h148c6.66699 0 12.5 -1.66699 17.5 -5
s9.16699 -8.83301 12.5 -16.5s5.83301 -18.167 7.5 -31.5s2.5 -29.666 2.5 -48.999c0 -36.667 -3.33301 -62.834 -10 -78.501s-16.334 -23.5 -29.001 -23.5h-149v-722c0 -6.66699 -2 -12.5 -6 -17.5s-10.667 -9.16699 -20 -12.5s-22.333 -5.83301 -39 -7.5
s-37 -2.5 -61 -2.5s-44.167 0.833008 -60.5 2.5s-29.333 4.16699 -39 7.5s-16.334 7.5 -20.001 12.5s-5.5 10.833 -5.5 17.5v722h-112c-12.667 0 -22.167 7.83301 -28.5 23.5s-9.5 41.834 -9.5 78.501c0 19.333 0.833008 35.666 2.5 48.999s4 23.833 7 31.5
s7 13.167 12 16.5s10.833 5 17.5 5h111v77c0 60 6.66699 112.833 20 158.5s34.5 83.667 63.5 114s65.667 53 110 68s97.833 22.5 160.5 22.5c18 0 37.167 -0.666992 57.5 -2s40.166 -3.16602 59.499 -5.49902s36 -5 50 -8s25 -6 33 -9s14.333 -6.5 19 -10.5s8 -9 10 -15
c0.666992 6 2.5 11.333 5.5 16s8.66699 9 17 13s20.666 7.16699 36.999 9.5s38.166 3.5 65.499 3.5z" />
    <glyph glyph-name="f_f_k.liga" unicode="ffk" horiz-adv-x="2197" 
d="M2169 33c0 -7.33301 -1.83496 -13.333 -5.50195 -18s-10.334 -8.66699 -20 -12c-9.66699 -3.33301 -22.834 -5.66602 -39.5 -6.99902c-16.667 -1.33301 -38.334 -2 -65.001 -2c-27.333 0 -49.5 0.666992 -66.5 2s-31 3.5 -42 6.5s-19.667 7.16699 -26 12.5
s-11.5 12.333 -15.5 21l-297 470v-472c0 -6.66699 -2 -12.5 -6 -17.5s-10.833 -9.16699 -20.5 -12.5s-22.5 -5.83301 -38.5 -7.5s-36.333 -2.5 -61 -2.5s-45 0.833008 -61 2.5s-28.833 4.16699 -38.5 7.5s-16.5 7.5 -20.5 12.5s-6 10.833 -6 17.5v1161
c-2 -4 -4.83301 -7.16699 -8.5 -9.5s-8.16699 -3.5 -13.5 -3.5c-6.66699 0 -16.167 1.33301 -28.5 4s-25.833 5.16699 -40.5 7.5s-29.167 4 -43.5 5s-28.5 1.5 -42.5 1.5c-30 0 -55 -2.83301 -75 -8.5s-35.833 -14.834 -47.5 -27.501s-20 -28.834 -25 -48.501
s-7.5 -43.167 -7.5 -70.5v-85h149c6.66699 0 12.334 -1.66699 17.001 -5s8.83398 -8.83301 12.501 -16.5s6.33398 -18.167 8.00098 -31.5s2.5 -29.666 2.5 -48.999c0 -36.667 -3.5 -62.834 -10.5 -78.501s-16.5 -23.5 -28.5 -23.5h-150v-722c0 -6.66699 -2 -12.5 -6 -17.5
s-10.667 -9.16699 -20 -12.5s-22.166 -5.83301 -38.499 -7.5s-36.5 -2.5 -60.5 -2.5c-24.667 0 -45.167 0.833008 -61.5 2.5s-29.166 4.16699 -38.499 7.5s-16 7.5 -20 12.5s-6 10.833 -6 17.5v722h-331v-722c0 -6.66699 -2 -12.5 -6 -17.5s-10.667 -9.16699 -20 -12.5
s-22.333 -5.83301 -39 -7.5s-37 -2.5 -61 -2.5s-44.167 0.833008 -60.5 2.5s-29.333 4.16699 -39 7.5s-16.334 7.5 -20.001 12.5s-5.5 10.833 -5.5 17.5v722h-112c-12.667 0 -22.167 7.83301 -28.5 23.5s-9.5 41.834 -9.5 78.501c0 19.333 0.833008 35.666 2.5 48.999
s4 23.833 7 31.5s7 13.167 12 16.5s10.833 5 17.5 5h111v66c0 60 6.16699 112.667 18.5 158s31.333 83.166 57 113.499s58 53.166 97 68.499s85.167 23 138.5 23c29.333 0 55.666 -2.5 78.999 -7.5s41.166 -9.66699 53.499 -14s20.833 -8.66602 25.5 -12.999
s8.5 -10.666 11.5 -18.999s5.16699 -19 6.5 -32s2 -29.167 2 -48.5c0 -32.667 -2.16699 -55.667 -6.5 -69s-11.5 -20 -21.5 -20c-4.66699 0 -10 1 -16 3l-21 7c-8 2.66699 -17.5 5.16699 -28.5 7.5s-23.167 3.5 -36.5 3.5c-38.667 0 -66.334 -12.167 -83.001 -36.5
s-25 -64.166 -25 -119.499v-71h331v77c0 60 6.83301 113 20.5 159s35 84.167 64 114.5s65.667 53.166 110 68.499s97.833 23 160.5 23c18 0 37.333 -0.666992 58 -2s40.5 -3.16602 59.5 -5.49902s35.5 -5 49.5 -8s25 -5.83301 33 -8.5s14.333 -6 19 -10s8 -10 10 -18
c0.666992 6 2.5 11.333 5.5 16s8.83301 9 17.5 13s21.167 7.16699 37.5 9.5s37.833 3.5 64.5 3.5c24.667 0 45 -1 61 -3s28.833 -4.83301 38.5 -8.5s16.5 -8.16699 20.5 -13.5s6 -11.333 6 -18v-783l264 355c5.33301 8 11.333 15 18 21s15.334 10.667 26.001 14
s24.334 5.83301 41.001 7.5s37.667 2.5 63 2.5c24.667 0 45.5 -0.833008 62.5 -2.5s30.5 -4.16699 40.5 -7.5s17.167 -7.5 21.5 -12.5s6.5 -11.167 6.5 -18.5c0 -10 -2.5 -20.667 -7.5 -32s-12.5 -23.333 -22.5 -36l-262 -296l303 -467c8 -13.333 13.833 -24.833 17.5 -34.5
s5.5 -18.5 5.5 -26.5z" />
    <glyph glyph-name="f_lacute.liga" unicode="f&#x13a;" horiz-adv-x="1135" 
d="M1008 34c0 -6.66699 -1.99609 -12.501 -5.99609 -17.501s-10.667 -9.16699 -20 -12.5s-22.166 -5.83301 -38.499 -7.5s-36.5 -2.5 -60.5 -2.5c-24.667 0 -45.167 0.833008 -61.5 2.5s-29.166 4.16699 -38.499 7.5s-16 7.5 -20 12.5s-6 10.833 -6 17.5v1158
c-2 -4 -4.83301 -7 -8.5 -9s-8.16699 -3 -13.5 -3c-7.33301 0 -17 1.33301 -29 4s-25.333 5.16699 -40 7.5s-29.167 4 -43.5 5s-28.5 1.5 -42.5 1.5c-30 0 -55 -3 -75 -9s-35.833 -15.167 -47.5 -27.5s-19.834 -28.5 -24.501 -48.5s-7 -43.667 -7 -71v-82h148
c6.66699 0 12.5 -1.66699 17.5 -5s9.16699 -8.83301 12.5 -16.5s5.83301 -18.167 7.5 -31.5s2.5 -29.666 2.5 -48.999c0 -36.667 -3.33301 -62.834 -10 -78.501s-16.334 -23.5 -29.001 -23.5h-149v-722c0 -6.66699 -2 -12.5 -6 -17.5s-10.667 -9.16699 -20 -12.5
s-22.166 -5.83301 -38.499 -7.5s-36.833 -2.5 -61.5 -2.5c-24 0 -44.167 0.833008 -60.5 2.5s-29.333 4.16699 -39 7.5s-16.334 7.5 -20.001 12.5s-5.5 10.833 -5.5 17.5v722h-112c-12.667 0 -22.167 7.83301 -28.5 23.5s-9.5 41.834 -9.5 78.501
c0 19.333 0.833008 35.666 2.5 48.999s4 23.833 7 31.5s7 13.167 12 16.5s10.833 5 17.5 5h111v77c0 60 6.66699 112.833 20 158.5s34.5 83.667 63.5 114s65.667 53 110 68s97.833 22.5 160.5 22.5c18 0 37.167 -0.666992 57.5 -2s40.166 -3.16602 59.499 -5.49902
s36 -5 50 -8s25 -6 33 -9s14.333 -6.5 19 -10.5s8 -9 10 -15c0.666992 6 2.5 11.333 5.5 16s8.66699 9 17 13s20.666 7.16699 36.999 9.5s38.166 3.5 65.499 3.5c24 0 44.167 -1 60.5 -3s29.166 -4.83301 38.499 -8.5s16 -8.16699 20 -13.5s6 -11.333 6 -18v-1315z
M978.004 1712c8.66699 10 17.167 18 25.5 24s18.333 10.667 30 14s25.834 5.5 42.501 6.5s37.334 1.5 62.001 1.5c30.667 0 54.5 -2 71.5 -6s28.667 -9.16699 35 -15.5s7.83301 -13.5 4.5 -21.5s-9.66602 -16.333 -18.999 -25l-222 -200
c-6.66699 -6 -13.5 -11.167 -20.5 -15.5s-15.5 -8 -25.5 -11s-22 -5.16699 -36 -6.5s-31.333 -2 -52 -2c-22.667 0 -40.834 1 -54.501 3s-23.334 5.16699 -29.001 9.5s-7.83398 9.83301 -6.50098 16.5s6 14.667 14 24zM681.004 1363z" />
    <glyph glyph-name="f_lcaron.liga" unicode="f&#x13e;" horiz-adv-x="1258" 
d="M1008 34c0 -6.66699 -1.99609 -12.501 -5.99609 -17.501s-10.667 -9.16699 -20 -12.5s-22.166 -5.83301 -38.499 -7.5s-36.5 -2.5 -60.5 -2.5c-24.667 0 -45.167 0.833008 -61.5 2.5s-29.166 4.16699 -38.499 7.5s-16 7.5 -20 12.5s-6 10.833 -6 17.5v1158
c-2 -4 -4.83301 -7 -8.5 -9s-8.16699 -3 -13.5 -3c-7.33301 0 -17 1.33301 -29 4s-25.333 5.16699 -40 7.5s-29.167 4 -43.5 5s-28.5 1.5 -42.5 1.5c-30 0 -55 -3 -75 -9s-35.833 -15.167 -47.5 -27.5s-19.834 -28.5 -24.501 -48.5s-7 -43.667 -7 -71v-82h148
c6.66699 0 12.5 -1.66699 17.5 -5s9.16699 -8.83301 12.5 -16.5s5.83301 -18.167 7.5 -31.5s2.5 -29.666 2.5 -48.999c0 -36.667 -3.33301 -62.834 -10 -78.501s-16.334 -23.5 -29.001 -23.5h-149v-722c0 -6.66699 -2 -12.5 -6 -17.5s-10.667 -9.16699 -20 -12.5
s-22.166 -5.83301 -38.499 -7.5s-36.833 -2.5 -61.5 -2.5c-24 0 -44.167 0.833008 -60.5 2.5s-29.333 4.16699 -39 7.5s-16.334 7.5 -20.001 12.5s-5.5 10.833 -5.5 17.5v722h-112c-12.667 0 -22.167 7.83301 -28.5 23.5s-9.5 41.834 -9.5 78.501
c0 19.333 0.833008 35.666 2.5 48.999s4 23.833 7 31.5s7 13.167 12 16.5s10.833 5 17.5 5h111v77c0 60 6.66699 112.833 20 158.5s34.5 83.667 63.5 114s65.667 53 110 68s97.833 22.5 160.5 22.5c18 0 37.167 -0.666992 57.5 -2s40.166 -3.16602 59.499 -5.49902
s36 -5 50 -8s25 -6 33 -9s14.333 -6.5 19 -10.5s8 -9 10 -15c0.666992 6 2.5 11.333 5.5 16s8.66699 9 17 13s20.666 7.16699 36.999 9.5s38.166 3.5 65.499 3.5c24 0 44.167 -1 60.5 -3s29.166 -4.83301 38.499 -8.5s16 -8.16699 20 -13.5s6 -11.333 6 -18v-1315z
M1141 1355c2 8 5.50391 14.8311 10.5039 20.498s12.167 10.5 21.5 14.5s21.333 7 36 9s33 3 55 3c24 0 43.167 -1.16699 57.5 -3.5s24.833 -5.5 31.5 -9.5s10.167 -9.16699 10.5 -15.5s-0.833984 -13.5 -3.50098 -21.5l-124 -314
c-2.66699 -7.33301 -6.33398 -13.166 -11.001 -17.499s-11.334 -7.66602 -20.001 -9.99902s-19.334 -4 -32.001 -5s-28.667 -1.5 -48 -1.5c-15.333 0 -27.5 0.833008 -36.5 2.5s-15.667 4.16699 -20 7.5s-6.83301 8 -7.5 14s0 13.333 2 22zM958.008 987.997z" />
    <glyph glyph-name="f_lcommaaccent.liga" unicode="f&#x13c;" horiz-adv-x="1135" 
d="M1008 34c0 -6.66699 -1.99609 -12.501 -5.99609 -17.501s-10.667 -9.16699 -20 -12.5s-22.166 -5.83301 -38.499 -7.5s-36.5 -2.5 -60.5 -2.5c-24.667 0 -45.167 0.833008 -61.5 2.5s-29.166 4.16699 -38.499 7.5s-16 7.5 -20 12.5s-6 10.833 -6 17.5v1158
c-2 -4 -4.83301 -7 -8.5 -9s-8.16699 -3 -13.5 -3c-7.33301 0 -17 1.33301 -29 4s-25.333 5.16699 -40 7.5s-29.167 4 -43.5 5s-28.5 1.5 -42.5 1.5c-30 0 -55 -3 -75 -9s-35.833 -15.167 -47.5 -27.5s-19.834 -28.5 -24.501 -48.5s-7 -43.667 -7 -71v-82h148
c6.66699 0 12.5 -1.66699 17.5 -5s9.16699 -8.83301 12.5 -16.5s5.83301 -18.167 7.5 -31.5s2.5 -29.666 2.5 -48.999c0 -36.667 -3.33301 -62.834 -10 -78.501s-16.334 -23.5 -29.001 -23.5h-149v-722c0 -6.66699 -2 -12.5 -6 -17.5s-10.667 -9.16699 -20 -12.5
s-22.166 -5.83301 -38.499 -7.5s-36.833 -2.5 -61.5 -2.5c-24 0 -44.167 0.833008 -60.5 2.5s-29.333 4.16699 -39 7.5s-16.334 7.5 -20.001 12.5s-5.5 10.833 -5.5 17.5v722h-112c-12.667 0 -22.167 7.83301 -28.5 23.5s-9.5 41.834 -9.5 78.501
c0 19.333 0.833008 35.666 2.5 48.999s4 23.833 7 31.5s7 13.167 12 16.5s10.833 5 17.5 5h111v77c0 60 6.66699 112.833 20 158.5s34.5 83.667 63.5 114s65.667 53 110 68s97.833 22.5 160.5 22.5c18 0 37.167 -0.666992 57.5 -2s40.166 -3.16602 59.499 -5.49902
s36 -5 50 -8s25 -6 33 -9s14.333 -6.5 19 -10.5s8 -9 10 -15c0.666992 6 2.5 11.333 5.5 16s8.66699 9 17 13s20.666 7.16699 36.999 9.5s38.166 3.5 65.499 3.5c24 0 44.167 -1 60.5 -3s29.166 -4.83301 38.499 -8.5s16 -8.16699 20 -13.5s6 -11.333 6 -18v-1315z
M754.004 -123.001c2 7.33301 5.66699 13.833 11 19.5s13.166 10.167 23.499 13.5s24 5.66602 41 6.99902s38.833 2 65.5 2s47.667 -1.33301 63 -4s26.5 -6.5 33.5 -11.5s10.333 -11.167 10 -18.5s-2.83301 -15.666 -7.5 -24.999l-98 -190
c-3.33301 -6.66699 -7.33301 -12.167 -12 -16.5s-11.167 -8 -19.5 -11s-19.333 -5 -33 -6s-31.167 -1.5 -52.5 -1.5s-38.166 0.833008 -50.499 2.5s-21.333 4.66699 -27 9s-8.5 9.83301 -8.5 16.5s1.33301 14.667 4 24z" />
    <glyph glyph-name="f_t.liga" unicode="ft" horiz-adv-x="1302" 
d="M426 756l0.00195312 -722c0 -6.66699 -2 -12.5 -6 -17.5s-10.667 -9.16699 -20 -12.5s-22.333 -5.83301 -39 -7.5s-37 -2.5 -61 -2.5s-44.167 0.833008 -60.5 2.5s-29.333 4.16699 -39 7.5s-16.334 7.5 -20.001 12.5s-5.5 10.833 -5.5 17.5v722h-112
c-12.667 0 -22.167 7.83301 -28.5 23.5s-9.5 41.834 -9.5 78.501c0 19.333 0.833008 35.666 2.5 48.999s4 23.833 7 31.5s7 13.167 12 16.5s10.833 5 17.5 5h111v75c0 60.667 6 113.834 18 159.501s30.667 83.667 56 114s57.666 53.166 96.999 68.499s86 23 140 23
c26 0 51.5 -2.33301 76.5 -7s43.333 -9.33398 55 -14.001s19.834 -9.16699 24.501 -13.5s8.33398 -10.666 11.001 -18.999s4.5 -19 5.5 -32s1.5 -29.167 1.5 -48.5s-0.666992 -34.833 -2 -46.5s-3.33301 -20.667 -6 -27s-5.66699 -10.666 -9 -12.999s-7 -3.5 -11 -3.5
s-8.83301 1.16699 -14.5 3.5s-12.667 4.83301 -21 7.5s-18 5.16699 -29 7.5s-24.167 3.5 -39.5 3.5c-18 0 -33.5 -2.83301 -46.5 -8.5s-23.667 -14.667 -32 -27s-14.666 -28.333 -18.999 -48s-6.5 -43.834 -6.5 -72.501v-82h338v199c0 6.66699 2 12.667 6 18
s10.667 9.83301 20 13.5s22.166 6.33398 38.499 8.00098s36.5 2.5 60.5 2.5c24.667 0 45 -0.833008 61 -2.5s28.833 -4.33398 38.5 -8.00098s16.5 -8.16699 20.5 -13.5s6 -11.333 6 -18v-199h194c6.66699 0 12.5 -1.66699 17.5 -5s9.16699 -8.83301 12.5 -16.5
s5.83301 -18.167 7.5 -31.5s2.5 -29.666 2.5 -48.999c0 -36.667 -3.33301 -62.834 -10 -78.501s-16.334 -23.5 -29.001 -23.5h-195v-419c0 -48.667 7.5 -85.167 22.5 -109.5s42.5 -36.5 82.5 -36.5c13.333 0 25.333 1.16699 36 3.5s20 5 28 8l21 8
c6 2.33301 11.333 3.5 16 3.5c4 0 7.66699 -1.16699 11 -3.5s6.16602 -7 8.49902 -14s4.33301 -16.5 6 -28.5s2.5 -27.333 2.5 -46c0 -29.333 -1.83301 -52 -5.5 -68s-8.66699 -27 -15 -33s-15.166 -11.5 -26.499 -16.5s-24.833 -9.33301 -40.5 -13s-32.5 -6.5 -50.5 -8.5
s-36.333 -3 -55 -3c-50.667 0 -94.334 6.33301 -131.001 19s-67 32.167 -91 58.5s-41.667 59.5 -53 99.5s-17 87.333 -17 142v457h-336z" />
    <glyph glyph-name="f_tcommaaccent.liga" unicode="f&#x163;" horiz-adv-x="1302" 
d="M426 756l0.00195312 -722c0 -6.66699 -2 -12.5 -6 -17.5s-10.667 -9.16699 -20 -12.5s-22.333 -5.83301 -39 -7.5s-37 -2.5 -61 -2.5s-44.167 0.833008 -60.5 2.5s-29.333 4.16699 -39 7.5s-16.334 7.5 -20.001 12.5s-5.5 10.833 -5.5 17.5v722h-112
c-12.667 0 -22.167 7.83301 -28.5 23.5s-9.5 41.834 -9.5 78.501c0 19.333 0.833008 35.666 2.5 48.999s4 23.833 7 31.5s7 13.167 12 16.5s10.833 5 17.5 5h111v75c0 60.667 6 113.834 18 159.501s30.667 83.667 56 114s57.666 53.166 96.999 68.499s86 23 140 23
c26 0 51.5 -2.33301 76.5 -7s43.333 -9.33398 55 -14.001s19.834 -9.16699 24.501 -13.5s8.33398 -10.666 11.001 -18.999s4.5 -19 5.5 -32s1.5 -29.167 1.5 -48.5s-0.666992 -34.833 -2 -46.5s-3.33301 -20.667 -6 -27s-5.66699 -10.666 -9 -12.999s-7 -3.5 -11 -3.5
s-8.83301 1.16699 -14.5 3.5s-12.667 4.83301 -21 7.5s-18 5.16699 -29 7.5s-24.167 3.5 -39.5 3.5c-18 0 -33.5 -2.83301 -46.5 -8.5s-23.667 -14.667 -32 -27s-14.666 -28.333 -18.999 -48s-6.5 -43.834 -6.5 -72.501v-82h338v199c0 6.66699 2 12.667 6 18
s10.667 9.83301 20 13.5s22.166 6.33398 38.499 8.00098s36.5 2.5 60.5 2.5c24.667 0 45 -0.833008 61 -2.5s28.833 -4.33398 38.5 -8.00098s16.5 -8.16699 20.5 -13.5s6 -11.333 6 -18v-199h194c6.66699 0 12.5 -1.66699 17.5 -5s9.16699 -8.83301 12.5 -16.5
s5.83301 -18.167 7.5 -31.5s2.5 -29.666 2.5 -48.999c0 -36.667 -3.33301 -62.834 -10 -78.501s-16.334 -23.5 -29.001 -23.5h-195v-419c0 -48.667 7.5 -85.167 22.5 -109.5s42.5 -36.5 82.5 -36.5c13.333 0 25.333 1.16699 36 3.5s20 5 28 8l21 8
c6 2.33301 11.333 3.5 16 3.5c4 0 7.66699 -1.16699 11 -3.5s6.16602 -7 8.49902 -14s4.33301 -16.5 6 -28.5s2.5 -27.333 2.5 -46c0 -29.333 -1.83301 -52 -5.5 -68s-8.66699 -27 -15 -33s-15.166 -11.5 -26.499 -16.5s-24.833 -9.33301 -40.5 -13s-32.5 -6.5 -50.5 -8.5
s-36.333 -3 -55 -3c-50.667 0 -94.334 6.33301 -131.001 19s-67 32.167 -91 58.5s-41.667 59.5 -53 99.5s-17 87.333 -17 142v457h-336zM871.002 -123c2 7.33301 5.66699 13.833 11 19.5s13.166 10.167 23.499 13.5s24 5.66602 41 6.99902s38.833 2 65.5 2
s47.667 -1.33301 63 -4s26.5 -6.5 33.5 -11.5s10.333 -11.167 10 -18.5s-2.83301 -15.666 -7.5 -24.999l-98 -190c-3.33301 -6.66699 -7.33301 -12.167 -12 -16.5s-11.167 -8 -19.5 -11s-19.333 -5 -33 -6s-31.167 -1.5 -52.5 -1.5s-38.166 0.833008 -50.499 2.5
s-21.333 4.66699 -27 9s-8.5 9.83301 -8.5 16.5s1.33301 14.667 4 24z" />
    <glyph glyph-name="f_tcaron.liga" unicode="f&#x165;" horiz-adv-x="1349" 
d="M426 756l0.00195312 -722c0 -6.66699 -2 -12.5 -6 -17.5s-10.667 -9.16699 -20 -12.5s-22.333 -5.83301 -39 -7.5s-37 -2.5 -61 -2.5s-44.167 0.833008 -60.5 2.5s-29.333 4.16699 -39 7.5s-16.334 7.5 -20.001 12.5s-5.5 10.833 -5.5 17.5v722h-112
c-12.667 0 -22.167 7.83301 -28.5 23.5s-9.5 41.834 -9.5 78.501c0 19.333 0.833008 35.666 2.5 48.999s4 23.833 7 31.5s7 13.167 12 16.5s10.833 5 17.5 5h111v75c0 60.667 6 113.834 18 159.501s30.667 83.667 56 114s57.666 53.166 96.999 68.499s86 23 140 23
c26 0 51.5 -2.33301 76.5 -7s43.333 -9.33398 55 -14.001s19.834 -9.16699 24.501 -13.5s8.33398 -10.666 11.001 -18.999s4.5 -19 5.5 -32s1.5 -29.167 1.5 -48.5s-0.666992 -34.833 -2 -46.5s-3.33301 -20.667 -6 -27s-5.66699 -10.666 -9 -12.999s-7 -3.5 -11 -3.5
s-8.83301 1.16699 -14.5 3.5s-12.667 4.83301 -21 7.5s-18 5.16699 -29 7.5s-24.167 3.5 -39.5 3.5c-18 0 -33.5 -2.83301 -46.5 -8.5s-23.667 -14.667 -32 -27s-14.666 -28.333 -18.999 -48s-6.5 -43.834 -6.5 -72.501v-82h338v199c0 6.66699 2 12.667 6 18
s10.667 9.83301 20 13.5s22.166 6.33398 38.499 8.00098s36.5 2.5 60.5 2.5c24.667 0 45 -0.833008 61 -2.5s28.833 -4.33398 38.5 -8.00098s16.5 -8.16699 20.5 -13.5s6 -11.333 6 -18v-199h194c6.66699 0 12.5 -1.66699 17.5 -5s9.16699 -8.83301 12.5 -16.5
s5.83301 -18.167 7.5 -31.5s2.5 -29.666 2.5 -48.999c0 -36.667 -3.33301 -62.834 -10 -78.501s-16.334 -23.5 -29.001 -23.5h-195v-419c0 -48.667 7.5 -85.167 22.5 -109.5s42.5 -36.5 82.5 -36.5c13.333 0 25.333 1.16699 36 3.5s20 5 28 8l21 8
c6 2.33301 11.333 3.5 16 3.5c4 0 7.66699 -1.16699 11 -3.5s6.16602 -7 8.49902 -14s4.33301 -16.5 6 -28.5s2.5 -27.333 2.5 -46c0 -29.333 -1.83301 -52 -5.5 -68s-8.66699 -27 -15 -33s-15.166 -11.5 -26.499 -16.5s-24.833 -9.33301 -40.5 -13s-32.5 -6.5 -50.5 -8.5
s-36.333 -3 -55 -3c-50.667 0 -94.334 6.33301 -131.001 19s-67 32.167 -91 58.5s-41.667 59.5 -53 99.5s-17 87.333 -17 142v457h-336zM1191 1475c2 8 5.50391 14.8311 10.5039 20.498s12.167 10.5 21.5 14.5s21.333 7 36 9s33 3 55 3c24 0 43.167 -1.16699 57.5 -3.5
s24.833 -5.5 31.5 -9.5s10.167 -9.16699 10.5 -15.5s-0.833984 -13.5 -3.50098 -21.5l-124 -314c-2.66699 -7.33301 -6.33398 -13.166 -11.001 -17.499s-11.334 -7.66602 -20.001 -9.99902s-19.334 -4 -32.001 -5s-28.667 -1.5 -48 -1.5c-15.333 0 -27.5 0.833008 -36.5 2.5
s-15.667 4.16699 -20 7.5s-6.83301 8 -7.5 14s0 13.333 2 22zM1008.01 1108z" />
    <glyph glyph-name="t_f.liga" unicode="tf" horiz-adv-x="1296" 
d="M823 960l0.00195312 74.999c0 60.667 6.16699 113.834 18.5 159.501s31.333 83.667 57 114s58.167 53.166 97.5 68.499s86.333 23 141 23c25.333 0 49.833 -2.16699 73.5 -6.5s42 -9 55 -14s22 -9.66699 27 -14s8.83301 -10.666 11.5 -18.999s4.66699 -19 6 -32
s2 -29.167 2 -48.5s-0.666992 -34.833 -2 -46.5s-3.33301 -20.667 -6 -27s-5.5 -10.666 -8.5 -12.999s-6.5 -3.5 -10.5 -3.5c-4.66699 0 -12.834 2.16699 -24.501 6.5s-24.334 8 -38.001 11s-27.834 4.5 -42.501 4.5c-18.667 0 -34.667 -2.83301 -48 -8.5
s-24.166 -14.667 -32.499 -27s-14.666 -28.333 -18.999 -48s-6.5 -43.834 -6.5 -72.501v-82h163c6 0 11.5 -1.66699 16.5 -5s9.33301 -8.83301 13 -16.5s6.33398 -18.167 8.00098 -31.5s2.5 -29.666 2.5 -48.999c0 -36.667 -3.5 -62.834 -10.5 -78.501
s-16.5 -23.5 -28.5 -23.5h-164v-722c0 -6.66699 -2 -12.5 -6 -17.5s-10.667 -9.16699 -20 -12.5s-22.166 -5.83301 -38.499 -7.5s-36.833 -2.5 -61.5 -2.5c-24 0 -44.167 0.833008 -60.5 2.5s-29.333 4.16699 -39 7.5s-16.334 7.5 -20.001 12.5s-5.5 10.833 -5.5 17.5v722
h-403v-419c0 -48.667 7.66699 -85.167 23 -109.5s42.666 -36.5 81.999 -36.5c13.333 0 25.333 1.16699 36 3.5s20.167 5 28.5 8s15.333 5.66699 21 8s10.834 3.5 15.501 3.5c4 0 7.83301 -1.16699 11.5 -3.5s6.5 -7 8.5 -14s3.83301 -16.5 5.5 -28.5s2.5 -27.333 2.5 -46
c0 -29.333 -1.83301 -51.833 -5.5 -67.5s-8.5 -26.667 -14.5 -33s-14.833 -12 -26.5 -17s-25.334 -9.33301 -41.001 -13s-32.667 -6.5 -51 -8.5s-36.833 -3 -55.5 -3c-50 0 -93.333 6.33301 -130 19s-67 32.167 -91 58.5s-41.667 59.5 -53 99.5s-17 87.333 -17 142v457h-107
c-12.667 0 -22.334 7.83301 -29.001 23.5s-10 41.834 -10 78.501c0 19.333 0.833008 35.666 2.5 48.999s4.16699 23.833 7.5 31.5s7.5 13.167 12.5 16.5s10.833 5 17.5 5h106v199c0 6.66699 1.83301 12.667 5.5 18s10.334 9.83301 20.001 13.5s22.667 6.33398 39 8.00098
s36.5 2.5 60.5 2.5c24.667 0 45.167 -0.833008 61.5 -2.5s29.166 -4.33398 38.499 -8.00098s16 -8.16699 20 -13.5s6 -11.333 6 -18v-199h403z" />
    <glyph glyph-name="t_i.liga" unicode="ti" horiz-adv-x="1199" 
d="M997 960c28 0 47.499 -6 58.499 -18s16.5 -29.333 16.5 -52v-856c0 -6.66699 -2 -12.5 -6 -17.5s-10.667 -9.16699 -20 -12.5s-22.166 -5.83301 -38.499 -7.5s-36.5 -2.5 -60.5 -2.5c-24.667 0 -45.167 0.833008 -61.5 2.5s-29.166 4.16699 -38.499 7.5s-16 7.5 -20 12.5
s-6 10.833 -6 17.5v722h-401v-419c0 -48.667 7.66699 -85.167 23 -109.5s42.666 -36.5 81.999 -36.5c13.333 0 25.333 1.16699 36 3.5s20.167 5 28.5 8s15.333 5.66699 21 8s10.834 3.5 15.501 3.5c4 0 7.83301 -1.16699 11.5 -3.5s6.5 -7 8.5 -14s3.83301 -16.5 5.5 -28.5
s2.5 -27.333 2.5 -46c0 -29.333 -1.66699 -51.5 -5 -66.5s-8 -26 -14 -33s-15 -13 -27 -18s-25.833 -9.33301 -41.5 -13s-32.667 -6.5 -51 -8.5s-36.833 -3 -55.5 -3c-50 0 -93.333 6.33301 -130 19s-67 32.167 -91 58.5s-41.667 59.5 -53 99.5s-17 87.333 -17 142v457h-107
c-12.667 0 -22.334 7.83301 -29.001 23.5s-10 41.834 -10 78.501c0 19.333 0.833008 35.666 2.5 48.999s4.16699 23.833 7.5 31.5s7.5 13.167 12.5 16.5s10.833 5 17.5 5h106v199c0 6.66699 1.83301 12.667 5.5 18s10.334 9.83301 20.001 13.5s22.667 6.33398 39 8.00098
s36.5 2.5 60.5 2.5c24.667 0 45.167 -0.833008 61.5 -2.5s29.166 -4.33398 38.499 -8.00098s16 -8.16699 20 -13.5s6 -11.333 6 -18v-199h577zM1092 1228c0 -50.667 -10.332 -85.6689 -30.999 -105.002s-59 -29 -115 -29c-56.667 0 -94.834 9.33301 -114.501 28
s-29.5 52.334 -29.5 101.001c0 50.667 10.167 85.834 30.5 105.501s58.833 29.5 115.5 29.5c56 0 94 -9.5 114 -28.5s30 -52.833 30 -101.5zM695 959.998z" />
    <glyph glyph-name="t_igrave.liga" unicode="t&#xec;" horiz-adv-x="1199" 
d="M997 960c28 0 47.499 -6 58.499 -18s16.5 -29.333 16.5 -52v-856c0 -6.66699 -2 -12.5 -6 -17.5s-10.667 -9.16699 -20 -12.5s-22.166 -5.83301 -38.499 -7.5s-36.5 -2.5 -60.5 -2.5c-24.667 0 -45.167 0.833008 -61.5 2.5s-29.166 4.16699 -38.499 7.5s-16 7.5 -20 12.5
s-6 10.833 -6 17.5v722h-401v-419c0 -48.667 7.66699 -85.167 23 -109.5s42.666 -36.5 81.999 -36.5c13.333 0 25.333 1.16699 36 3.5s20.167 5 28.5 8s15.333 5.66699 21 8s10.834 3.5 15.501 3.5c4 0 7.83301 -1.16699 11.5 -3.5s6.5 -7 8.5 -14s3.83301 -16.5 5.5 -28.5
s2.5 -27.333 2.5 -46c0 -29.333 -1.66699 -51.5 -5 -66.5s-8 -26 -14 -33s-15 -13 -27 -18s-25.833 -9.33301 -41.5 -13s-32.667 -6.5 -51 -8.5s-36.833 -3 -55.5 -3c-50 0 -93.333 6.33301 -130 19s-67 32.167 -91 58.5s-41.667 59.5 -53 99.5s-17 87.333 -17 142v457h-107
c-12.667 0 -22.334 7.83301 -29.001 23.5s-10 41.834 -10 78.501c0 19.333 0.833008 35.666 2.5 48.999s4.16699 23.833 7.5 31.5s7.5 13.167 12.5 16.5s10.833 5 17.5 5h106v199c0 6.66699 1.83301 12.667 5.5 18s10.334 9.83301 20.001 13.5s22.667 6.33398 39 8.00098
s36.5 2.5 60.5 2.5c24.667 0 45.167 -0.833008 61.5 -2.5s29.166 -4.33398 38.499 -8.00098s16 -8.16699 20 -13.5s6 -11.333 6 -18v-199h577zM1041 1135c6 -8.66699 9.67188 -16.334 11.0049 -23.001s-0.833984 -12.167 -6.50098 -16.5s-15 -7.5 -28 -9.5
s-31.167 -3 -54.5 -3c-19.333 0 -35.333 0.666992 -48 2s-23.334 3.33301 -32.001 6s-15.834 6.16699 -21.501 10.5s-11.167 9.83301 -16.5 16.5l-193 232c-6.66699 7.33301 -10.334 14.333 -11.001 21s2.83301 12.5 10.5 17.5s20.5 8.83301 38.5 11.5s42.333 4 73 4
c22 0 40.5 -0.666992 55.5 -2s27.5 -3.5 37.5 -6.5s18.167 -7.16699 24.5 -12.5s12.166 -11.666 17.499 -18.999zM539.004 960z" />
    <glyph glyph-name="t_iacute.liga" unicode="t&#xed;" horiz-adv-x="1199" 
d="M997 960c28 0 47.499 -6 58.499 -18s16.5 -29.333 16.5 -52v-856c0 -6.66699 -2 -12.5 -6 -17.5s-10.667 -9.16699 -20 -12.5s-22.166 -5.83301 -38.499 -7.5s-36.5 -2.5 -60.5 -2.5c-24.667 0 -45.167 0.833008 -61.5 2.5s-29.166 4.16699 -38.499 7.5s-16 7.5 -20 12.5
s-6 10.833 -6 17.5v722h-401v-419c0 -48.667 7.66699 -85.167 23 -109.5s42.666 -36.5 81.999 -36.5c13.333 0 25.333 1.16699 36 3.5s20.167 5 28.5 8s15.333 5.66699 21 8s10.834 3.5 15.501 3.5c4 0 7.83301 -1.16699 11.5 -3.5s6.5 -7 8.5 -14s3.83301 -16.5 5.5 -28.5
s2.5 -27.333 2.5 -46c0 -29.333 -1.66699 -51.5 -5 -66.5s-8 -26 -14 -33s-15 -13 -27 -18s-25.833 -9.33301 -41.5 -13s-32.667 -6.5 -51 -8.5s-36.833 -3 -55.5 -3c-50 0 -93.333 6.33301 -130 19s-67 32.167 -91 58.5s-41.667 59.5 -53 99.5s-17 87.333 -17 142v457h-107
c-12.667 0 -22.334 7.83301 -29.001 23.5s-10 41.834 -10 78.501c0 19.333 0.833008 35.666 2.5 48.999s4.16699 23.833 7.5 31.5s7.5 13.167 12.5 16.5s10.833 5 17.5 5h106v199c0 6.66699 1.83301 12.667 5.5 18s10.334 9.83301 20.001 13.5s22.667 6.33398 39 8.00098
s36.5 2.5 60.5 2.5c24.667 0 45.167 -0.833008 61.5 -2.5s29.166 -4.33398 38.499 -8.00098s16 -8.16699 20 -13.5s6 -11.333 6 -18v-199h577zM974.999 1364c4.66699 7.33301 10.3291 13.666 16.9961 18.999s15 9.5 25 12.5s22.667 5.16699 38 6.5s34 2 56 2
c30.667 0 54.834 -1.33301 72.501 -4s30.334 -6.5 38.001 -11.5s11.167 -10.833 10.5 -17.5s-4 -13.667 -10 -21l-194 -232c-5.33301 -6.66699 -10.666 -12.167 -15.999 -16.5s-12.166 -7.83301 -20.499 -10.5s-18.833 -4.66699 -31.5 -6s-28.667 -2 -48 -2
c-23.333 0 -41.833 1 -55.5 3s-23.167 5.16699 -28.5 9.5s-7.5 9.83301 -6.5 16.5s4.5 14.334 10.5 23.001zM718.994 960z" />
    <glyph glyph-name="t_icircumflex.liga" unicode="t&#xee;" horiz-adv-x="1199" 
d="M997 960c28 0 47.499 -6 58.499 -18s16.5 -29.333 16.5 -52v-856c0 -6.66699 -2 -12.5 -6 -17.5s-10.667 -9.16699 -20 -12.5s-22.166 -5.83301 -38.499 -7.5s-36.5 -2.5 -60.5 -2.5c-24.667 0 -45.167 0.833008 -61.5 2.5s-29.166 4.16699 -38.499 7.5s-16 7.5 -20 12.5
s-6 10.833 -6 17.5v722h-401v-419c0 -48.667 7.66699 -85.167 23 -109.5s42.666 -36.5 81.999 -36.5c13.333 0 25.333 1.16699 36 3.5s20.167 5 28.5 8s15.333 5.66699 21 8s10.834 3.5 15.501 3.5c4 0 7.83301 -1.16699 11.5 -3.5s6.5 -7 8.5 -14s3.83301 -16.5 5.5 -28.5
s2.5 -27.333 2.5 -46c0 -29.333 -1.66699 -51.5 -5 -66.5s-8 -26 -14 -33s-15 -13 -27 -18s-25.833 -9.33301 -41.5 -13s-32.667 -6.5 -51 -8.5s-36.833 -3 -55.5 -3c-50 0 -93.333 6.33301 -130 19s-67 32.167 -91 58.5s-41.667 59.5 -53 99.5s-17 87.333 -17 142v457h-107
c-12.667 0 -22.334 7.83301 -29.001 23.5s-10 41.834 -10 78.501c0 19.333 0.833008 35.666 2.5 48.999s4.16699 23.833 7.5 31.5s7.5 13.167 12.5 16.5s10.833 5 17.5 5h106v199c0 6.66699 1.83301 12.667 5.5 18s10.334 9.83301 20.001 13.5s22.667 6.33398 39 8.00098
s36.5 2.5 60.5 2.5c24.667 0 45.167 -0.833008 61.5 -2.5s29.166 -4.33398 38.499 -8.00098s16 -8.16699 20 -13.5s6 -11.333 6 -18v-199h577zM827.999 1118c-4.66699 -7.33301 -9.33105 -13.334 -13.998 -18.001s-11 -8.16699 -19 -10.5s-18.167 -4 -30.5 -5
s-28.5 -1.5 -48.5 -1.5c-26.667 0 -47.167 1.16699 -61.5 3.5s-23.833 6 -28.5 11s-5.16699 11.833 -1.5 20.5s10.167 19 19.5 31l158 223c4 6.66699 9.16699 11.834 15.5 15.501s14.666 6.83398 24.999 9.50098s22.833 4.5 37.5 5.5s32.334 1.5 53.001 1.5
c21.333 0 39.166 -0.666992 53.499 -2s26.333 -3.33301 36 -6s17.5 -6 23.5 -10s11.333 -8.66699 16 -14l157 -223c9.33301 -12.667 15.666 -23.167 18.999 -31.5s2.66602 -15 -2.00098 -20s-14.167 -8.66699 -28.5 -11s-34.5 -3.5 -60.5 -3.5
c-21.333 0 -38.166 0.5 -50.499 1.5s-22.333 2.83301 -30 5.5s-13.5 6.16699 -17.5 10.5s-8.33301 10.166 -13 17.499l-104 150zM521.002 959.999z" />
    <glyph glyph-name="t_idieresis.liga" unicode="t&#xef;" horiz-adv-x="1199" 
d="M997 960c28 0 47.499 -6 58.499 -18s16.5 -29.333 16.5 -52v-856c0 -6.66699 -2 -12.5 -6 -17.5s-10.667 -9.16699 -20 -12.5s-22.166 -5.83301 -38.499 -7.5s-36.5 -2.5 -60.5 -2.5c-24.667 0 -45.167 0.833008 -61.5 2.5s-29.166 4.16699 -38.499 7.5s-16 7.5 -20 12.5
s-6 10.833 -6 17.5v722h-401v-419c0 -48.667 7.66699 -85.167 23 -109.5s42.666 -36.5 81.999 -36.5c13.333 0 25.333 1.16699 36 3.5s20.167 5 28.5 8s15.333 5.66699 21 8s10.834 3.5 15.501 3.5c4 0 7.83301 -1.16699 11.5 -3.5s6.5 -7 8.5 -14s3.83301 -16.5 5.5 -28.5
s2.5 -27.333 2.5 -46c0 -29.333 -1.66699 -51.5 -5 -66.5s-8 -26 -14 -33s-15 -13 -27 -18s-25.833 -9.33301 -41.5 -13s-32.667 -6.5 -51 -8.5s-36.833 -3 -55.5 -3c-50 0 -93.333 6.33301 -130 19s-67 32.167 -91 58.5s-41.667 59.5 -53 99.5s-17 87.333 -17 142v457h-107
c-12.667 0 -22.334 7.83301 -29.001 23.5s-10 41.834 -10 78.501c0 19.333 0.833008 35.666 2.5 48.999s4.16699 23.833 7.5 31.5s7.5 13.167 12.5 16.5s10.833 5 17.5 5h106v199c0 6.66699 1.83301 12.667 5.5 18s10.334 9.83301 20.001 13.5s22.667 6.33398 39 8.00098
s36.5 2.5 60.5 2.5c24.667 0 45.167 -0.833008 61.5 -2.5s29.166 -4.33398 38.499 -8.00098s16 -8.16699 20 -13.5s6 -11.333 6 -18v-199h577zM892.999 1227c0 -46.667 -8.66699 -79.167 -26 -97.5s-49.333 -27.5 -96 -27.5c-47.333 0 -79.333 8.83301 -96 26.5
s-25 48.834 -25 93.501c0 47.333 8.66699 80.166 26 98.499s49 27.5 95 27.5c48 0 80.333 -8.83301 97 -26.5s25 -49.167 25 -94.5zM1229 1227c0 -46.667 -8.66797 -79.167 -26.001 -97.5s-49.333 -27.5 -96 -27.5c-47.333 0 -79.166 8.83301 -95.499 26.5
s-24.5 48.834 -24.5 93.501c0 47.333 8.5 80.166 25.5 98.499s48.833 27.5 95.5 27.5c47.333 0 79.333 -8.83301 96 -26.5s25 -49.167 25 -94.5zM547.998 960z" />
    <glyph glyph-name="t_imacron.liga" unicode="t&#x12b;" horiz-adv-x="1199" 
d="M997 960c28 0 47.499 -6 58.499 -18s16.5 -29.333 16.5 -52v-856c0 -6.66699 -2 -12.5 -6 -17.5s-10.667 -9.16699 -20 -12.5s-22.166 -5.83301 -38.499 -7.5s-36.5 -2.5 -60.5 -2.5c-24.667 0 -45.167 0.833008 -61.5 2.5s-29.166 4.16699 -38.499 7.5s-16 7.5 -20 12.5
s-6 10.833 -6 17.5v722h-401v-419c0 -48.667 7.66699 -85.167 23 -109.5s42.666 -36.5 81.999 -36.5c13.333 0 25.333 1.16699 36 3.5s20.167 5 28.5 8s15.333 5.66699 21 8s10.834 3.5 15.501 3.5c4 0 7.83301 -1.16699 11.5 -3.5s6.5 -7 8.5 -14s3.83301 -16.5 5.5 -28.5
s2.5 -27.333 2.5 -46c0 -29.333 -1.66699 -51.5 -5 -66.5s-8 -26 -14 -33s-15 -13 -27 -18s-25.833 -9.33301 -41.5 -13s-32.667 -6.5 -51 -8.5s-36.833 -3 -55.5 -3c-50 0 -93.333 6.33301 -130 19s-67 32.167 -91 58.5s-41.667 59.5 -53 99.5s-17 87.333 -17 142v457h-107
c-12.667 0 -22.334 7.83301 -29.001 23.5s-10 41.834 -10 78.501c0 19.333 0.833008 35.666 2.5 48.999s4.16699 23.833 7.5 31.5s7.5 13.167 12.5 16.5s10.833 5 17.5 5h106v199c0 6.66699 1.83301 12.667 5.5 18s10.334 9.83301 20.001 13.5s22.667 6.33398 39 8.00098
s36.5 2.5 60.5 2.5c24.667 0 45.167 -0.833008 61.5 -2.5s29.166 -4.33398 38.499 -8.00098s16 -8.16699 20 -13.5s6 -11.333 6 -18v-199h577zM1193 1323c7.33301 0 13.666 -1.5 18.999 -4.5s9.5 -8.16699 12.5 -15.5s5.33301 -16.833 7 -28.5s2.5 -26.167 2.5 -43.5
s-0.833008 -31.666 -2.5 -42.999s-4 -20.666 -7 -27.999s-7.16699 -12.5 -12.5 -15.5s-11.666 -4.5 -18.999 -4.5h-510c-8 0 -14.833 1.5 -20.5 4.5s-10.167 8.16699 -13.5 15.5s-5.83301 16.666 -7.5 27.999s-2.5 25.666 -2.5 42.999c0 16.667 0.833008 31 2.5 43
s4.16699 21.5 7.5 28.5s7.83301 12.167 13.5 15.5s12.5 5 20.5 5h510zM536.999 960z" />
    <glyph glyph-name="t_itilde.liga" unicode="t&#x129;" horiz-adv-x="1199" 
d="M997 960c28 0 47.499 -6 58.499 -18s16.5 -29.333 16.5 -52v-856c0 -6.66699 -2 -12.5 -6 -17.5s-10.667 -9.16699 -20 -12.5s-22.166 -5.83301 -38.499 -7.5s-36.5 -2.5 -60.5 -2.5c-24.667 0 -45.167 0.833008 -61.5 2.5s-29.166 4.16699 -38.499 7.5s-16 7.5 -20 12.5
s-6 10.833 -6 17.5v722h-401v-419c0 -48.667 7.66699 -85.167 23 -109.5s42.666 -36.5 81.999 -36.5c13.333 0 25.333 1.16699 36 3.5s20.167 5 28.5 8s15.333 5.66699 21 8s10.834 3.5 15.501 3.5c4 0 7.83301 -1.16699 11.5 -3.5s6.5 -7 8.5 -14s3.83301 -16.5 5.5 -28.5
s2.5 -27.333 2.5 -46c0 -29.333 -1.66699 -51.5 -5 -66.5s-8 -26 -14 -33s-15 -13 -27 -18s-25.833 -9.33301 -41.5 -13s-32.667 -6.5 -51 -8.5s-36.833 -3 -55.5 -3c-50 0 -93.333 6.33301 -130 19s-67 32.167 -91 58.5s-41.667 59.5 -53 99.5s-17 87.333 -17 142v457h-107
c-12.667 0 -22.334 7.83301 -29.001 23.5s-10 41.834 -10 78.501c0 19.333 0.833008 35.666 2.5 48.999s4.16699 23.833 7.5 31.5s7.5 13.167 12.5 16.5s10.833 5 17.5 5h106v199c0 6.66699 1.83301 12.667 5.5 18s10.334 9.83301 20.001 13.5s22.667 6.33398 39 8.00098
s36.5 2.5 60.5 2.5c24.667 0 45.167 -0.833008 61.5 -2.5s29.166 -4.33398 38.499 -8.00098s16 -8.16699 20 -13.5s6 -11.333 6 -18v-199h577zM1283 1336c0 -80.667 -19.1631 -142.5 -57.4961 -185.5s-91.5 -64.5 -159.5 -64.5c-26 0 -49 2.66699 -69 8s-38 12.333 -54 21
s-30.5 17.834 -43.5 27.501l-37.5 27c-12 8.33301 -23.833 15.333 -35.5 21s-24.167 8.5 -37.5 8.5c-22 0 -37.667 -7.83301 -47 -23.5s-14 -36.167 -14 -61.5c0 -6 -1.16699 -10.833 -3.5 -14.5s-6.33301 -6.5 -12 -8.5s-13.667 -3.33301 -24 -4s-23.5 -1 -39.5 -1
c-14 0 -25.833 0.5 -35.5 1.5s-17.334 3 -23.001 6s-9.83398 7.16699 -12.501 12.5s-4 12.333 -4 21c0 77.333 18.667 138.166 56 182.499s90.666 66.5 159.999 66.5c38 0 70.167 -5.83301 96.5 -17.5s49.666 -24.667 69.999 -39l56.5 -39
c17.333 -11.667 35.333 -17.5 54 -17.5c20 0 35.333 7.16699 46 21.5s16 35.5 16 63.5c0 11.333 5 18.833 15 22.5s30.333 5.5 61 5.5c30 0 50.5 -2.5 61.5 -7.5s16.5 -15.833 16.5 -32.5zM473.003 960z" />
    <glyph glyph-name="t_ibreve.liga" unicode="t&#x12d;" horiz-adv-x="1199" 
d="M997 960c28 0 47.499 -6 58.499 -18s16.5 -29.333 16.5 -52v-856c0 -6.66699 -2 -12.5 -6 -17.5s-10.667 -9.16699 -20 -12.5s-22.166 -5.83301 -38.499 -7.5s-36.5 -2.5 -60.5 -2.5c-24.667 0 -45.167 0.833008 -61.5 2.5s-29.166 4.16699 -38.499 7.5s-16 7.5 -20 12.5
s-6 10.833 -6 17.5v722h-401v-419c0 -48.667 7.66699 -85.167 23 -109.5s42.666 -36.5 81.999 -36.5c13.333 0 25.333 1.16699 36 3.5s20.167 5 28.5 8s15.333 5.66699 21 8s10.834 3.5 15.501 3.5c4 0 7.83301 -1.16699 11.5 -3.5s6.5 -7 8.5 -14s3.83301 -16.5 5.5 -28.5
s2.5 -27.333 2.5 -46c0 -29.333 -1.66699 -51.5 -5 -66.5s-8 -26 -14 -33s-15 -13 -27 -18s-25.833 -9.33301 -41.5 -13s-32.667 -6.5 -51 -8.5s-36.833 -3 -55.5 -3c-50 0 -93.333 6.33301 -130 19s-67 32.167 -91 58.5s-41.667 59.5 -53 99.5s-17 87.333 -17 142v457h-107
c-12.667 0 -22.334 7.83301 -29.001 23.5s-10 41.834 -10 78.501c0 19.333 0.833008 35.666 2.5 48.999s4.16699 23.833 7.5 31.5s7.5 13.167 12.5 16.5s10.833 5 17.5 5h106v199c0 6.66699 1.83301 12.667 5.5 18s10.334 9.83301 20.001 13.5s22.667 6.33398 39 8.00098
s36.5 2.5 60.5 2.5c24.667 0 45.167 -0.833008 61.5 -2.5s29.166 -4.33398 38.499 -8.00098s16 -8.16699 20 -13.5s6 -11.333 6 -18v-199h577zM1060 1361c1.33301 12.667 7.83203 22.332 19.499 28.999s32.167 10 61.5 10c17.333 0 31.666 -0.666992 42.999 -2
s20.166 -3.33301 26.499 -6s10.666 -6.33398 12.999 -11.001s3.5 -10 3.5 -16c0 -44.667 -5.83301 -84.334 -17.5 -119.001s-29.334 -63.834 -53.001 -87.501s-54 -41.667 -91 -54s-80.5 -18.5 -130.5 -18.5c-52 0 -96.333 6.16699 -133 18.5s-66.667 30.333 -90 54
s-40.5 52.667 -51.5 87s-16.5 73.5 -16.5 117.5c0 13.333 5.66699 22.833 17 28.5s33 8.5 65 8.5c16.667 0 30.5 -0.666992 41.5 -2s19.833 -3.66602 26.5 -6.99902s11.334 -7.5 14.001 -12.5s4.33398 -10.833 5.00098 -17.5c2 -18 5.33301 -34.167 10 -48.5
s11.834 -26.666 21.501 -36.999s21.834 -18.166 36.501 -23.499s32.667 -8 54 -8c19.333 0 36.333 2.33301 51 7s27.334 11.834 38.001 21.501s19 21.667 25 36s9.66699 31.833 11 52.5zM541.998 959.998z" />
    <glyph glyph-name="t_iogonek.liga" unicode="t&#x12f;" horiz-adv-x="1199" 
d="M993 960c30 0 50.667 -6.00293 62 -18.0029s17 -31 17 -57v-850c0 -8.66699 -2.5 -19 -7.5 -31s-11.167 -21.667 -18.5 -29l-58 -59c-8.66699 -8 -15.834 -15.5 -21.501 -22.5s-10 -13.333 -13 -19s-5.16699 -11.167 -6.5 -16.5s-2 -11 -2 -17c0 -14 5 -24.333 15 -31
s25.667 -10 47 -10h83c6.66699 0 12.167 -0.833008 16.5 -2.5s8 -4.66699 11 -9s5 -10.5 6 -18.5s1.5 -18 1.5 -30c0 -14 -0.666992 -25.667 -2 -35s-3.33301 -17.166 -6 -23.499s-6.5 -11.166 -11.5 -14.499s-11.167 -6 -18.5 -8c-22.667 -8 -47.667 -14 -75 -18
s-59 -6 -95 -6c-32.667 0 -62.167 3.33301 -88.5 10s-48.833 16.834 -67.5 30.501s-33 30.667 -43 51s-15 44.166 -15 71.499c0 14 1.16699 27.5 3.5 40.5s6.33301 25.833 12 38.5s13.334 25.5 23.001 38.5s21.834 26.833 36.501 41.5l43 43v756h-401v-419
c0 -48.667 7.66699 -85.167 23 -109.5s42.666 -36.5 81.999 -36.5c13.333 0 25.333 1.16699 36 3.5s20.167 5 28.5 8s15.333 5.66699 21 8s10.834 3.5 15.501 3.5c4 0 7.83301 -1.16699 11.5 -3.5s6.5 -7 8.5 -14s3.83301 -16.5 5.5 -28.5s2.5 -27.333 2.5 -46
c0 -29.333 -1.66699 -51.666 -5 -66.999s-8 -26.333 -14 -33s-15 -12.5 -27 -17.5s-25.833 -9.33301 -41.5 -13s-32.667 -6.5 -51 -8.5s-36.833 -3 -55.5 -3c-50 0 -93.333 6.33301 -130 19s-67 32.167 -91 58.5s-41.667 59.5 -53 99.5s-17 87.333 -17 142v457h-107
c-12.667 0 -22.334 7.83301 -29.001 23.5s-10 41.834 -10 78.501c0 19.333 0.833008 35.666 2.5 48.999s4.16699 23.833 7.5 31.5s7.5 13.167 12.5 16.5s10.833 5 17.5 5h106v199c0 6.66699 1.83301 12.667 5.5 18s10.334 9.83301 20.001 13.5s22.667 6.33398 39 8.00098
s36.5 2.5 60.5 2.5c24.667 0 45.167 -0.833008 61.5 -2.5s29.166 -4.33398 38.499 -8.00098s16 -8.16699 20 -13.5s6 -11.333 6 -18v-199h573zM1091 1226c0 -24.667 -2.16699 -45.5 -6.5 -62.5s-12 -30.667 -23 -41s-25.833 -17.666 -44.5 -21.999s-42 -6.5 -70 -6.5
s-51.333 2.16699 -70 6.5s-33.667 11.666 -45 21.999s-19.166 24 -23.499 41s-6.5 37.833 -6.5 62.5c0 24 2.16699 44.333 6.5 61s12.166 30.334 23.499 41.001s26.333 18.334 45 23.001s42 7 70 7s51.333 -2.33301 70 -7s33.5 -12.334 44.5 -23.001
s18.667 -24.334 23 -41.001s6.5 -37 6.5 -61z" />
    <glyph glyph-name="t_dotlessi.liga" unicode="t&#x131;" horiz-adv-x="1199" 
d="M997 960c28 0 47.499 -6 58.499 -18s16.5 -29.333 16.5 -52v-856c0 -6.66699 -2 -12.5 -6 -17.5s-10.667 -9.16699 -20 -12.5s-22.166 -5.83301 -38.499 -7.5s-36.5 -2.5 -60.5 -2.5c-24.667 0 -45.167 0.833008 -61.5 2.5s-29.166 4.16699 -38.499 7.5s-16 7.5 -20 12.5
s-6 10.833 -6 17.5v722h-401v-419c0 -48.667 7.66699 -85.167 23 -109.5s42.666 -36.5 81.999 -36.5c13.333 0 25.333 1.16699 36 3.5s20.167 5 28.5 8s15.333 5.66699 21 8s10.834 3.5 15.501 3.5c4 0 7.83301 -1.16699 11.5 -3.5s6.5 -7 8.5 -14s3.83301 -16.5 5.5 -28.5
s2.5 -27.333 2.5 -46c0 -29.333 -1.66699 -51.5 -5 -66.5s-8 -26 -14 -33s-15 -13 -27 -18s-25.833 -9.33301 -41.5 -13s-32.667 -6.5 -51 -8.5s-36.833 -3 -55.5 -3c-50 0 -93.333 6.33301 -130 19s-67 32.167 -91 58.5s-41.667 59.5 -53 99.5s-17 87.333 -17 142v457h-107
c-12.667 0 -22.334 7.83301 -29.001 23.5s-10 41.834 -10 78.501c0 19.333 0.833008 35.666 2.5 48.999s4.16699 23.833 7.5 31.5s7.5 13.167 12.5 16.5s10.833 5 17.5 5h106v199c0 6.66699 1.83301 12.667 5.5 18s10.334 9.83301 20.001 13.5s22.667 6.33398 39 8.00098
s36.5 2.5 60.5 2.5c24.667 0 45.167 -0.833008 61.5 -2.5s29.166 -4.33398 38.499 -8.00098s16 -8.16699 20 -13.5s6 -11.333 6 -18v-199h577z" />
    <glyph glyph-name="t_t.liga" unicode="tt" horiz-adv-x="1344" 
d="M1288 122c0 -29.333 -1.83789 -51.665 -5.50488 -66.998s-8.66699 -26.333 -15 -33s-15.333 -12.334 -27 -17.001s-25.167 -9 -40.5 -13s-32.166 -7 -50.499 -9s-36.5 -3 -54.5 -3c-50.667 0 -94.334 6.33301 -131.001 19s-67 32.167 -91 58.5s-41.667 59.5 -53 99.5
s-17 87.333 -17 142v457h-383v-419c0 -48.667 7.66699 -85.167 23 -109.5s42.666 -36.5 81.999 -36.5c13.333 0 25.333 1.16699 36 3.5s20.167 5 28.5 8s15.333 5.66699 21 8s10.834 3.5 15.501 3.5c4 0 7.83301 -1.16699 11.5 -3.5s6.5 -7 8.5 -14s3.83301 -16.5 5.5 -28.5
s2.5 -27.333 2.5 -46s-0.5 -33.5 -1.5 -44.5s-2.33301 -20.167 -4 -27.5s-3.66699 -13.5 -6 -18.5s-6.16602 -9.66699 -11.499 -14s-13.666 -8.83301 -24.999 -13.5s-24.666 -8.83398 -39.999 -12.501s-32.166 -6.5 -50.499 -8.5s-36.833 -3 -55.5 -3
c-50 0 -93.333 6.33301 -130 19s-67 32.167 -91 58.5s-41.667 59.5 -53 99.5s-17 87.333 -17 142v457h-107c-12.667 0 -22.334 7.83301 -29.001 23.5s-10 41.834 -10 78.501c0 19.333 0.833008 35.666 2.5 48.999s4.16699 23.833 7.5 31.5s7.5 13.167 12.5 16.5
s10.833 5 17.5 5h106v199c0 6.66699 1.83301 12.667 5.5 18s10.334 9.83301 20.001 13.5s22.667 6.33398 39 8.00098s36.5 2.5 60.5 2.5c24.667 0 45.167 -0.833008 61.5 -2.5s29.166 -4.33398 38.499 -8.00098s16 -8.16699 20 -13.5s6 -11.333 6 -18v-199h383v247
c0 6.66699 1.83301 12.667 5.5 18s10.334 9.66602 20.001 12.999s22.667 6 39 8s36.5 3 60.5 3c24.667 0 45.167 -1 61.5 -3s29.166 -4.66699 38.499 -8s16 -7.66602 20 -12.999s6 -11.333 6 -18v-247h194c6.66699 0 12.334 -1.66699 17.001 -5
s8.83398 -8.83301 12.501 -16.5s6.33398 -18.167 8.00098 -31.5s2.5 -29.666 2.5 -48.999c0 -36.667 -3.5 -62.834 -10.5 -78.501s-16.5 -23.5 -28.5 -23.5h-195v-419c0 -48.667 7.5 -85.167 22.5 -109.5s42.5 -36.5 82.5 -36.5c13.333 0 25.333 1.16699 36 3.5s20 5 28 8
l21 8c6 2.33301 11.333 3.5 16 3.5c4 0 7.66699 -1.16699 11 -3.5s6.16602 -7 8.49902 -14s4.33301 -16.5 6 -28.5s2.5 -27.333 2.5 -46z" />
    <glyph glyph-name="t_t_f.liga" unicode="ttf" horiz-adv-x="1930" 
d="M1946 1266c0 -19.333 -0.671875 -34.833 -2.00488 -46.5s-3.16602 -20.667 -5.49902 -27s-5.33301 -10.666 -9 -12.999s-7.5 -3.5 -11.5 -3.5c-4.66699 0 -9.83398 1.16699 -15.501 3.5s-12.667 4.83301 -21 7.5s-18.166 5.16699 -29.499 7.5s-24.333 3.5 -39 3.5
c-18 0 -33.667 -2.83301 -47 -8.5s-24.166 -14.667 -32.499 -27s-14.666 -28.333 -18.999 -48s-6.5 -43.834 -6.5 -72.501v-82h163c6 0 11.5 -1.66699 16.5 -5s9.16699 -8.83301 12.5 -16.5s5.83301 -18.167 7.5 -31.5s2.5 -29.666 2.5 -48.999
c0 -36.667 -3.33301 -62.834 -10 -78.501s-16.334 -23.5 -29.001 -23.5h-163v-722c0 -6.66699 -2 -12.5 -6 -17.5s-10.667 -9.16699 -20 -12.5s-22.166 -5.83301 -38.499 -7.5s-36.5 -2.5 -60.5 -2.5c-24.667 0 -45.167 0.833008 -61.5 2.5s-29.166 4.16699 -38.499 7.5
s-16 7.5 -20 12.5s-6 10.833 -6 17.5v722h-403v-419c0 -48.667 7.5 -85.167 22.5 -109.5s42.5 -36.5 82.5 -36.5c13.333 0 25.333 1.16699 36 3.5s20 5 28 8l21 8c6 2.33301 11.333 3.5 16 3.5c4 0 7.66699 -1.16699 11 -3.5s6.16602 -7 8.49902 -14s4.33301 -16.5 6 -28.5
s2.5 -27.333 2.5 -46c0 -29.333 -1.66699 -51.333 -5 -66s-8.16602 -25.667 -14.499 -33s-15.5 -13.5 -27.5 -18.5s-25.667 -9.33301 -41 -13s-32.166 -6.5 -50.499 -8.5s-36.5 -3 -54.5 -3c-50.667 0 -94.334 6.33301 -131.001 19s-67 32.167 -91 58.5
s-41.667 59.5 -53 99.5s-17 87.333 -17 142v457h-383v-419c0 -48.667 7.66699 -85.167 23 -109.5s42.666 -36.5 81.999 -36.5c13.333 0 25.333 1.16699 36 3.5s20.167 5 28.5 8s15.333 5.66699 21 8s10.834 3.5 15.501 3.5c4 0 7.83301 -1.16699 11.5 -3.5s6.5 -7 8.5 -14
s3.83301 -16.5 5.5 -28.5s2.5 -27.333 2.5 -46c0 -29.333 -1.66699 -51.5 -5 -66.5s-8 -26 -14 -33s-15.167 -13 -27.5 -18s-26.166 -9.33301 -41.499 -13s-32.166 -6.5 -50.499 -8.5s-36.833 -3 -55.5 -3c-50 0 -93.333 6.33301 -130 19s-67 32.167 -91 58.5
s-41.667 59.5 -53 99.5s-17 87.333 -17 142v457h-107c-12.667 0 -22.334 7.83301 -29.001 23.5s-10 41.834 -10 78.501c0 19.333 0.833008 35.666 2.5 48.999s4.16699 23.833 7.5 31.5s7.5 13.167 12.5 16.5s10.833 5 17.5 5h106v199c0 6.66699 1.83301 12.667 5.5 18
s10.334 9.83301 20.001 13.5s22.667 6.33398 39 8.00098s36.5 2.5 60.5 2.5c24.667 0 45.167 -0.833008 61.5 -2.5s29.166 -4.33398 38.499 -8.00098s16 -8.16699 20 -13.5s6 -11.333 6 -18v-199h383v247c0 6.66699 1.83301 12.667 5.5 18s10.334 9.66602 20.001 12.999
s22.667 6 39 8s36.5 3 60.5 3c24.667 0 45.167 -1 61.5 -3s29.166 -4.66699 38.499 -8s16 -7.66602 20 -12.999s6 -11.333 6 -18v-247h403v75c0 60.667 6.16699 113.834 18.5 159.501s31.333 83.667 57 114s58.167 53.166 97.5 68.499s86.333 23 141 23
c24.667 0 49 -2.33301 73 -7s42.5 -9.33398 55.5 -14.001s22 -9.16699 27 -13.5s9 -10.666 12 -18.999s5 -19 6 -32s1.5 -29.167 1.5 -48.5z" />
    <glyph glyph-name="t_t_i.liga" unicode="tti" horiz-adv-x="1832" 
d="M420 756l-0.000976562 -419c0 -48.667 7.66699 -85.167 23 -109.5s42.666 -36.5 81.999 -36.5c13.333 0 25.333 1.16699 36 3.5s20.167 5 28.5 8s15.333 5.66699 21 8s10.834 3.5 15.501 3.5c4 0 7.83301 -1.16699 11.5 -3.5s6.5 -7 8.5 -14s3.83301 -16.5 5.5 -28.5
s2.5 -27.333 2.5 -46c0 -29.333 -1.83301 -52 -5.5 -68s-8.66699 -27 -15 -33s-15.166 -11.5 -26.499 -16.5s-24.833 -9.33301 -40.5 -13s-32.667 -6.5 -51 -8.5s-36.833 -3 -55.5 -3c-50 0 -93.333 6.33301 -130 19s-67 32.167 -91 58.5s-41.667 59.5 -53 99.5
s-17 87.333 -17 142v457h-107c-12.667 0 -22.334 7.83301 -29.001 23.5s-10 41.834 -10 78.501c0 19.333 0.833008 35.666 2.5 48.999s4.16699 23.833 7.5 31.5s7.5 13.167 12.5 16.5s10.833 5 17.5 5h106v199c0 6.66699 1.83301 12.667 5.5 18s10.334 9.83301 20.001 13.5
s22.667 6.33398 39 8.00098s36.5 2.5 60.5 2.5c24.667 0 45.167 -0.833008 61.5 -2.5s29.166 -4.33398 38.499 -8.00098s16 -8.16699 20 -13.5s6 -11.333 6 -18v-199h383v247c0 6.66699 1.83301 12.667 5.5 18s10.334 9.66602 20.001 12.999s22.667 6 39 8s36.5 3 60.5 3
c24.667 0 45.167 -1 61.5 -3s29.166 -4.66699 38.499 -8s16 -7.66602 20 -12.999s6 -11.333 6 -18v-247h576c28 0 47.667 -6 59 -18s17 -29.333 17 -52v-856c0 -6.66699 -2 -12.5 -6 -17.5s-10.667 -9.16699 -20 -12.5s-22.166 -5.83301 -38.499 -7.5s-36.5 -2.5 -60.5 -2.5
c-24.667 0 -45.167 0.833008 -61.5 2.5s-29.166 4.16699 -38.499 7.5s-16 7.5 -20 12.5s-6 10.833 -6 17.5v722h-401v-419c0 -48.667 7.5 -85.167 22.5 -109.5s42.5 -36.5 82.5 -36.5c13.333 0 25.333 1.16699 36 3.5s20 5 28 8l21 8c6 2.33301 11.333 3.5 16 3.5
c4 0 7.66699 -1.16699 11 -3.5s6.16602 -7 8.49902 -14s4.33301 -16.5 6 -28.5s2.5 -27.333 2.5 -46c0 -29.333 -1.83301 -52 -5.5 -68s-8.66699 -27 -15 -33s-15.166 -11.5 -26.499 -16.5s-24.833 -9.33301 -40.5 -13s-32.667 -6.5 -51 -8.5s-36.5 -3 -54.5 -3
c-50.667 0 -94.334 6.33301 -131.001 19s-67 32.167 -91 58.5s-41.667 59.5 -53 99.5s-17 87.333 -17 142v457h-383zM1726 1228c0 -50.667 -10.332 -85.6689 -30.999 -105.002s-59 -29 -115 -29c-56.667 0 -94.834 9.33301 -114.501 28s-29.5 52.334 -29.5 101.001
c0 50.667 10.167 85.834 30.5 105.501s58.833 29.5 115.5 29.5c56 0 94 -9.5 114 -28.5s30 -52.833 30 -101.5zM1329 959.998z" />
    <glyph glyph-name="t_t_igrave.liga" unicode="tt&#xec;" horiz-adv-x="1832" 
d="M420 756l-0.000976562 -419c0 -48.667 7.66699 -85.167 23 -109.5s42.666 -36.5 81.999 -36.5c13.333 0 25.333 1.16699 36 3.5s20.167 5 28.5 8s15.333 5.66699 21 8s10.834 3.5 15.501 3.5c4 0 7.83301 -1.16699 11.5 -3.5s6.5 -7 8.5 -14s3.83301 -16.5 5.5 -28.5
s2.5 -27.333 2.5 -46c0 -29.333 -1.83301 -52 -5.5 -68s-8.66699 -27 -15 -33s-15.166 -11.5 -26.499 -16.5s-24.833 -9.33301 -40.5 -13s-32.667 -6.5 -51 -8.5s-36.833 -3 -55.5 -3c-50 0 -93.333 6.33301 -130 19s-67 32.167 -91 58.5s-41.667 59.5 -53 99.5
s-17 87.333 -17 142v457h-107c-12.667 0 -22.334 7.83301 -29.001 23.5s-10 41.834 -10 78.501c0 19.333 0.833008 35.666 2.5 48.999s4.16699 23.833 7.5 31.5s7.5 13.167 12.5 16.5s10.833 5 17.5 5h106v199c0 6.66699 1.83301 12.667 5.5 18s10.334 9.83301 20.001 13.5
s22.667 6.33398 39 8.00098s36.5 2.5 60.5 2.5c24.667 0 45.167 -0.833008 61.5 -2.5s29.166 -4.33398 38.499 -8.00098s16 -8.16699 20 -13.5s6 -11.333 6 -18v-199h383v247c0 6.66699 1.83301 12.667 5.5 18s10.334 9.66602 20.001 12.999s22.667 6 39 8s36.5 3 60.5 3
c24.667 0 45.167 -1 61.5 -3s29.166 -4.66699 38.499 -8s16 -7.66602 20 -12.999s6 -11.333 6 -18v-247h576c28 0 47.667 -6 59 -18s17 -29.333 17 -52v-856c0 -6.66699 -2 -12.5 -6 -17.5s-10.667 -9.16699 -20 -12.5s-22.166 -5.83301 -38.499 -7.5s-36.5 -2.5 -60.5 -2.5
c-24.667 0 -45.167 0.833008 -61.5 2.5s-29.166 4.16699 -38.499 7.5s-16 7.5 -20 12.5s-6 10.833 -6 17.5v722h-401v-419c0 -48.667 7.5 -85.167 22.5 -109.5s42.5 -36.5 82.5 -36.5c13.333 0 25.333 1.16699 36 3.5s20 5 28 8l21 8c6 2.33301 11.333 3.5 16 3.5
c4 0 7.66699 -1.16699 11 -3.5s6.16602 -7 8.49902 -14s4.33301 -16.5 6 -28.5s2.5 -27.333 2.5 -46c0 -29.333 -1.83301 -52 -5.5 -68s-8.66699 -27 -15 -33s-15.166 -11.5 -26.499 -16.5s-24.833 -9.33301 -40.5 -13s-32.667 -6.5 -51 -8.5s-36.5 -3 -54.5 -3
c-50.667 0 -94.334 6.33301 -131.001 19s-67 32.167 -91 58.5s-41.667 59.5 -53 99.5s-17 87.333 -17 142v457h-383zM1676 1135c6 -8.66699 9.67188 -16.334 11.0049 -23.001s-0.833984 -12.167 -6.50098 -16.5s-15 -7.5 -28 -9.5s-31.167 -3 -54.5 -3
c-19.333 0 -35.333 0.666992 -48 2s-23.334 3.33301 -32.001 6s-15.834 6.16699 -21.501 10.5s-11.167 9.83301 -16.5 16.5l-193 232c-6.66699 7.33301 -10.334 14.333 -11.001 21s2.83301 12.5 10.5 17.5s20.5 8.83301 38.5 11.5s42.333 4 73 4
c22 0 40.5 -0.666992 55.5 -2s27.5 -3.5 37.5 -6.5s18.167 -7.16699 24.5 -12.5s12.166 -11.666 17.499 -18.999zM1174 960z" />
    <glyph glyph-name="t_t_iacute.liga" unicode="tt&#xed;" horiz-adv-x="1832" 
d="M420 756l-0.000976562 -419c0 -48.667 7.66699 -85.167 23 -109.5s42.666 -36.5 81.999 -36.5c13.333 0 25.333 1.16699 36 3.5s20.167 5 28.5 8s15.333 5.66699 21 8s10.834 3.5 15.501 3.5c4 0 7.83301 -1.16699 11.5 -3.5s6.5 -7 8.5 -14s3.83301 -16.5 5.5 -28.5
s2.5 -27.333 2.5 -46c0 -29.333 -1.83301 -52 -5.5 -68s-8.66699 -27 -15 -33s-15.166 -11.5 -26.499 -16.5s-24.833 -9.33301 -40.5 -13s-32.667 -6.5 -51 -8.5s-36.833 -3 -55.5 -3c-50 0 -93.333 6.33301 -130 19s-67 32.167 -91 58.5s-41.667 59.5 -53 99.5
s-17 87.333 -17 142v457h-107c-12.667 0 -22.334 7.83301 -29.001 23.5s-10 41.834 -10 78.501c0 19.333 0.833008 35.666 2.5 48.999s4.16699 23.833 7.5 31.5s7.5 13.167 12.5 16.5s10.833 5 17.5 5h106v199c0 6.66699 1.83301 12.667 5.5 18s10.334 9.83301 20.001 13.5
s22.667 6.33398 39 8.00098s36.5 2.5 60.5 2.5c24.667 0 45.167 -0.833008 61.5 -2.5s29.166 -4.33398 38.499 -8.00098s16 -8.16699 20 -13.5s6 -11.333 6 -18v-199h383v247c0 6.66699 1.83301 12.667 5.5 18s10.334 9.66602 20.001 12.999s22.667 6 39 8s36.5 3 60.5 3
c24.667 0 45.167 -1 61.5 -3s29.166 -4.66699 38.499 -8s16 -7.66602 20 -12.999s6 -11.333 6 -18v-247h576c28 0 47.667 -6 59 -18s17 -29.333 17 -52v-856c0 -6.66699 -2 -12.5 -6 -17.5s-10.667 -9.16699 -20 -12.5s-22.166 -5.83301 -38.499 -7.5s-36.5 -2.5 -60.5 -2.5
c-24.667 0 -45.167 0.833008 -61.5 2.5s-29.166 4.16699 -38.499 7.5s-16 7.5 -20 12.5s-6 10.833 -6 17.5v722h-401v-419c0 -48.667 7.5 -85.167 22.5 -109.5s42.5 -36.5 82.5 -36.5c13.333 0 25.333 1.16699 36 3.5s20 5 28 8l21 8c6 2.33301 11.333 3.5 16 3.5
c4 0 7.66699 -1.16699 11 -3.5s6.16602 -7 8.49902 -14s4.33301 -16.5 6 -28.5s2.5 -27.333 2.5 -46c0 -29.333 -1.83301 -52 -5.5 -68s-8.66699 -27 -15 -33s-15.166 -11.5 -26.499 -16.5s-24.833 -9.33301 -40.5 -13s-32.667 -6.5 -51 -8.5s-36.5 -3 -54.5 -3
c-50.667 0 -94.334 6.33301 -131.001 19s-67 32.167 -91 58.5s-41.667 59.5 -53 99.5s-17 87.333 -17 142v457h-383zM1609 1364c4.66699 7.33301 10.3291 13.666 16.9961 18.999s15 9.5 25 12.5s22.667 5.16699 38 6.5s34 2 56 2c30.667 0 54.834 -1.33301 72.501 -4
s30.334 -6.5 38.001 -11.5s11.167 -10.833 10.5 -17.5s-4 -13.667 -10 -21l-194 -232c-5.33301 -6.66699 -10.666 -12.167 -15.999 -16.5s-12.166 -7.83301 -20.499 -10.5s-18.833 -4.66699 -31.5 -6s-28.667 -2 -48 -2c-23.333 0 -41.833 1 -55.5 3
s-23.167 5.16699 -28.5 9.5s-7.5 9.83301 -6.5 16.5s4.5 14.334 10.5 23.001zM1352.99 960z" />
    <glyph glyph-name="t_t_icircumflex.liga" unicode="tt&#xee;" horiz-adv-x="1832" 
d="M420 756l-0.000976562 -419c0 -48.667 7.66699 -85.167 23 -109.5s42.666 -36.5 81.999 -36.5c13.333 0 25.333 1.16699 36 3.5s20.167 5 28.5 8s15.333 5.66699 21 8s10.834 3.5 15.501 3.5c4 0 7.83301 -1.16699 11.5 -3.5s6.5 -7 8.5 -14s3.83301 -16.5 5.5 -28.5
s2.5 -27.333 2.5 -46c0 -29.333 -1.83301 -52 -5.5 -68s-8.66699 -27 -15 -33s-15.166 -11.5 -26.499 -16.5s-24.833 -9.33301 -40.5 -13s-32.667 -6.5 -51 -8.5s-36.833 -3 -55.5 -3c-50 0 -93.333 6.33301 -130 19s-67 32.167 -91 58.5s-41.667 59.5 -53 99.5
s-17 87.333 -17 142v457h-107c-12.667 0 -22.334 7.83301 -29.001 23.5s-10 41.834 -10 78.501c0 19.333 0.833008 35.666 2.5 48.999s4.16699 23.833 7.5 31.5s7.5 13.167 12.5 16.5s10.833 5 17.5 5h106v199c0 6.66699 1.83301 12.667 5.5 18s10.334 9.83301 20.001 13.5
s22.667 6.33398 39 8.00098s36.5 2.5 60.5 2.5c24.667 0 45.167 -0.833008 61.5 -2.5s29.166 -4.33398 38.499 -8.00098s16 -8.16699 20 -13.5s6 -11.333 6 -18v-199h383v247c0 6.66699 1.83301 12.667 5.5 18s10.334 9.66602 20.001 12.999s22.667 6 39 8s36.5 3 60.5 3
c24.667 0 45.167 -1 61.5 -3s29.166 -4.66699 38.499 -8s16 -7.66602 20 -12.999s6 -11.333 6 -18v-247h576c28 0 47.667 -6 59 -18s17 -29.333 17 -52v-856c0 -6.66699 -2 -12.5 -6 -17.5s-10.667 -9.16699 -20 -12.5s-22.166 -5.83301 -38.499 -7.5s-36.5 -2.5 -60.5 -2.5
c-24.667 0 -45.167 0.833008 -61.5 2.5s-29.166 4.16699 -38.499 7.5s-16 7.5 -20 12.5s-6 10.833 -6 17.5v722h-401v-419c0 -48.667 7.5 -85.167 22.5 -109.5s42.5 -36.5 82.5 -36.5c13.333 0 25.333 1.16699 36 3.5s20 5 28 8l21 8c6 2.33301 11.333 3.5 16 3.5
c4 0 7.66699 -1.16699 11 -3.5s6.16602 -7 8.49902 -14s4.33301 -16.5 6 -28.5s2.5 -27.333 2.5 -46c0 -29.333 -1.83301 -52 -5.5 -68s-8.66699 -27 -15 -33s-15.166 -11.5 -26.499 -16.5s-24.833 -9.33301 -40.5 -13s-32.667 -6.5 -51 -8.5s-36.5 -3 -54.5 -3
c-50.667 0 -94.334 6.33301 -131.001 19s-67 32.167 -91 58.5s-41.667 59.5 -53 99.5s-17 87.333 -17 142v457h-383zM1461 1118c-4.66699 -7.33301 -9.33105 -13.334 -13.998 -18.001s-11 -8.16699 -19 -10.5s-18.167 -4 -30.5 -5s-28.5 -1.5 -48.5 -1.5
c-26.667 0 -47.167 1.16699 -61.5 3.5s-23.833 6 -28.5 11s-5.16699 11.833 -1.5 20.5s10.167 19 19.5 31l158 223c4 6.66699 9.16699 11.834 15.5 15.501s14.666 6.83398 24.999 9.50098s22.833 4.5 37.5 5.5s32.334 1.5 53.001 1.5c21.333 0 39.166 -0.666992 53.499 -2
s26.333 -3.33301 36 -6s17.5 -6 23.5 -10s11.333 -8.66699 16 -14l157 -223c9.33301 -12.667 15.666 -23.167 18.999 -31.5s2.66602 -15 -2.00098 -20s-14.167 -8.66699 -28.5 -11s-34.5 -3.5 -60.5 -3.5c-21.333 0 -38.166 0.5 -50.499 1.5s-22.333 2.83301 -30 5.5
s-13.5 6.16699 -17.5 10.5s-8.33301 10.166 -13 17.499l-104 150zM1154 959.999z" />
    <glyph glyph-name="t_t_idieresis.liga" unicode="tt&#xef;" horiz-adv-x="1832" 
d="M420 756l-0.000976562 -419c0 -48.667 7.66699 -85.167 23 -109.5s42.666 -36.5 81.999 -36.5c13.333 0 25.333 1.16699 36 3.5s20.167 5 28.5 8s15.333 5.66699 21 8s10.834 3.5 15.501 3.5c4 0 7.83301 -1.16699 11.5 -3.5s6.5 -7 8.5 -14s3.83301 -16.5 5.5 -28.5
s2.5 -27.333 2.5 -46c0 -29.333 -1.83301 -52 -5.5 -68s-8.66699 -27 -15 -33s-15.166 -11.5 -26.499 -16.5s-24.833 -9.33301 -40.5 -13s-32.667 -6.5 -51 -8.5s-36.833 -3 -55.5 -3c-50 0 -93.333 6.33301 -130 19s-67 32.167 -91 58.5s-41.667 59.5 -53 99.5
s-17 87.333 -17 142v457h-107c-12.667 0 -22.334 7.83301 -29.001 23.5s-10 41.834 -10 78.501c0 19.333 0.833008 35.666 2.5 48.999s4.16699 23.833 7.5 31.5s7.5 13.167 12.5 16.5s10.833 5 17.5 5h106v199c0 6.66699 1.83301 12.667 5.5 18s10.334 9.83301 20.001 13.5
s22.667 6.33398 39 8.00098s36.5 2.5 60.5 2.5c24.667 0 45.167 -0.833008 61.5 -2.5s29.166 -4.33398 38.499 -8.00098s16 -8.16699 20 -13.5s6 -11.333 6 -18v-199h383v247c0 6.66699 1.83301 12.667 5.5 18s10.334 9.66602 20.001 12.999s22.667 6 39 8s36.5 3 60.5 3
c24.667 0 45.167 -1 61.5 -3s29.166 -4.66699 38.499 -8s16 -7.66602 20 -12.999s6 -11.333 6 -18v-247h576c28 0 47.667 -6 59 -18s17 -29.333 17 -52v-856c0 -6.66699 -2 -12.5 -6 -17.5s-10.667 -9.16699 -20 -12.5s-22.166 -5.83301 -38.499 -7.5s-36.5 -2.5 -60.5 -2.5
c-24.667 0 -45.167 0.833008 -61.5 2.5s-29.166 4.16699 -38.499 7.5s-16 7.5 -20 12.5s-6 10.833 -6 17.5v722h-401v-419c0 -48.667 7.5 -85.167 22.5 -109.5s42.5 -36.5 82.5 -36.5c13.333 0 25.333 1.16699 36 3.5s20 5 28 8l21 8c6 2.33301 11.333 3.5 16 3.5
c4 0 7.66699 -1.16699 11 -3.5s6.16602 -7 8.49902 -14s4.33301 -16.5 6 -28.5s2.5 -27.333 2.5 -46c0 -29.333 -1.83301 -52 -5.5 -68s-8.66699 -27 -15 -33s-15.166 -11.5 -26.499 -16.5s-24.833 -9.33301 -40.5 -13s-32.667 -6.5 -51 -8.5s-36.5 -3 -54.5 -3
c-50.667 0 -94.334 6.33301 -131.001 19s-67 32.167 -91 58.5s-41.667 59.5 -53 99.5s-17 87.333 -17 142v457h-383zM1527 1227c0 -46.667 -8.66699 -79.167 -26 -97.5s-49.333 -27.5 -96 -27.5c-47.333 0 -79.333 8.83301 -96 26.5s-25 48.834 -25 93.501
c0 47.333 8.66699 80.166 26 98.499s49 27.5 95 27.5c48 0 80.333 -8.83301 97 -26.5s25 -49.167 25 -94.5zM1863 1227c0 -46.667 -8.66797 -79.167 -26.001 -97.5s-49.333 -27.5 -96 -27.5c-47.333 0 -79.166 8.83301 -95.499 26.5s-24.5 48.834 -24.5 93.501
c0 47.333 8.5 80.166 25.5 98.499s48.833 27.5 95.5 27.5c47.333 0 79.333 -8.83301 96 -26.5s25 -49.167 25 -94.5zM1182 960z" />
    <glyph glyph-name="t_t_imacron.liga" unicode="tt&#x12b;" horiz-adv-x="1832" 
d="M420 756l-0.000976562 -419c0 -48.667 7.66699 -85.167 23 -109.5s42.666 -36.5 81.999 -36.5c13.333 0 25.333 1.16699 36 3.5s20.167 5 28.5 8s15.333 5.66699 21 8s10.834 3.5 15.501 3.5c4 0 7.83301 -1.16699 11.5 -3.5s6.5 -7 8.5 -14s3.83301 -16.5 5.5 -28.5
s2.5 -27.333 2.5 -46c0 -29.333 -1.83301 -52 -5.5 -68s-8.66699 -27 -15 -33s-15.166 -11.5 -26.499 -16.5s-24.833 -9.33301 -40.5 -13s-32.667 -6.5 -51 -8.5s-36.833 -3 -55.5 -3c-50 0 -93.333 6.33301 -130 19s-67 32.167 -91 58.5s-41.667 59.5 -53 99.5
s-17 87.333 -17 142v457h-107c-12.667 0 -22.334 7.83301 -29.001 23.5s-10 41.834 -10 78.501c0 19.333 0.833008 35.666 2.5 48.999s4.16699 23.833 7.5 31.5s7.5 13.167 12.5 16.5s10.833 5 17.5 5h106v199c0 6.66699 1.83301 12.667 5.5 18s10.334 9.83301 20.001 13.5
s22.667 6.33398 39 8.00098s36.5 2.5 60.5 2.5c24.667 0 45.167 -0.833008 61.5 -2.5s29.166 -4.33398 38.499 -8.00098s16 -8.16699 20 -13.5s6 -11.333 6 -18v-199h383v247c0 6.66699 1.83301 12.667 5.5 18s10.334 9.66602 20.001 12.999s22.667 6 39 8s36.5 3 60.5 3
c24.667 0 45.167 -1 61.5 -3s29.166 -4.66699 38.499 -8s16 -7.66602 20 -12.999s6 -11.333 6 -18v-247h576c28 0 47.667 -6 59 -18s17 -29.333 17 -52v-856c0 -6.66699 -2 -12.5 -6 -17.5s-10.667 -9.16699 -20 -12.5s-22.166 -5.83301 -38.499 -7.5s-36.5 -2.5 -60.5 -2.5
c-24.667 0 -45.167 0.833008 -61.5 2.5s-29.166 4.16699 -38.499 7.5s-16 7.5 -20 12.5s-6 10.833 -6 17.5v722h-401v-419c0 -48.667 7.5 -85.167 22.5 -109.5s42.5 -36.5 82.5 -36.5c13.333 0 25.333 1.16699 36 3.5s20 5 28 8l21 8c6 2.33301 11.333 3.5 16 3.5
c4 0 7.66699 -1.16699 11 -3.5s6.16602 -7 8.49902 -14s4.33301 -16.5 6 -28.5s2.5 -27.333 2.5 -46c0 -29.333 -1.83301 -52 -5.5 -68s-8.66699 -27 -15 -33s-15.166 -11.5 -26.499 -16.5s-24.833 -9.33301 -40.5 -13s-32.667 -6.5 -51 -8.5s-36.5 -3 -54.5 -3
c-50.667 0 -94.334 6.33301 -131.001 19s-67 32.167 -91 58.5s-41.667 59.5 -53 99.5s-17 87.333 -17 142v457h-383zM1827 1323c7.33301 0 13.666 -1.5 18.999 -4.5s9.5 -8.16699 12.5 -15.5s5.33301 -16.833 7 -28.5s2.5 -26.167 2.5 -43.5s-0.833008 -31.666 -2.5 -42.999
s-4 -20.666 -7 -27.999s-7.16699 -12.5 -12.5 -15.5s-11.666 -4.5 -18.999 -4.5h-510c-8 0 -14.833 1.5 -20.5 4.5s-10.167 8.16699 -13.5 15.5s-5.83301 16.666 -7.5 27.999s-2.5 25.666 -2.5 42.999c0 16.667 0.833008 31 2.5 43s4.16699 21.5 7.5 28.5
s7.83301 12.167 13.5 15.5s12.5 5 20.5 5h510zM1171 960z" />
    <glyph glyph-name="t_t_itilde.liga" unicode="tt&#x129;" horiz-adv-x="1832" 
d="M420 756l-0.000976562 -419c0 -48.667 7.66699 -85.167 23 -109.5s42.666 -36.5 81.999 -36.5c13.333 0 25.333 1.16699 36 3.5s20.167 5 28.5 8s15.333 5.66699 21 8s10.834 3.5 15.501 3.5c4 0 7.83301 -1.16699 11.5 -3.5s6.5 -7 8.5 -14s3.83301 -16.5 5.5 -28.5
s2.5 -27.333 2.5 -46c0 -29.333 -1.83301 -52 -5.5 -68s-8.66699 -27 -15 -33s-15.166 -11.5 -26.499 -16.5s-24.833 -9.33301 -40.5 -13s-32.667 -6.5 -51 -8.5s-36.833 -3 -55.5 -3c-50 0 -93.333 6.33301 -130 19s-67 32.167 -91 58.5s-41.667 59.5 -53 99.5
s-17 87.333 -17 142v457h-107c-12.667 0 -22.334 7.83301 -29.001 23.5s-10 41.834 -10 78.501c0 19.333 0.833008 35.666 2.5 48.999s4.16699 23.833 7.5 31.5s7.5 13.167 12.5 16.5s10.833 5 17.5 5h106v199c0 6.66699 1.83301 12.667 5.5 18s10.334 9.83301 20.001 13.5
s22.667 6.33398 39 8.00098s36.5 2.5 60.5 2.5c24.667 0 45.167 -0.833008 61.5 -2.5s29.166 -4.33398 38.499 -8.00098s16 -8.16699 20 -13.5s6 -11.333 6 -18v-199h383v247c0 6.66699 1.83301 12.667 5.5 18s10.334 9.66602 20.001 12.999s22.667 6 39 8s36.5 3 60.5 3
c24.667 0 45.167 -1 61.5 -3s29.166 -4.66699 38.499 -8s16 -7.66602 20 -12.999s6 -11.333 6 -18v-247h576c28 0 47.667 -6 59 -18s17 -29.333 17 -52v-856c0 -6.66699 -2 -12.5 -6 -17.5s-10.667 -9.16699 -20 -12.5s-22.166 -5.83301 -38.499 -7.5s-36.5 -2.5 -60.5 -2.5
c-24.667 0 -45.167 0.833008 -61.5 2.5s-29.166 4.16699 -38.499 7.5s-16 7.5 -20 12.5s-6 10.833 -6 17.5v722h-401v-419c0 -48.667 7.5 -85.167 22.5 -109.5s42.5 -36.5 82.5 -36.5c13.333 0 25.333 1.16699 36 3.5s20 5 28 8l21 8c6 2.33301 11.333 3.5 16 3.5
c4 0 7.66699 -1.16699 11 -3.5s6.16602 -7 8.49902 -14s4.33301 -16.5 6 -28.5s2.5 -27.333 2.5 -46c0 -29.333 -1.83301 -52 -5.5 -68s-8.66699 -27 -15 -33s-15.166 -11.5 -26.499 -16.5s-24.833 -9.33301 -40.5 -13s-32.667 -6.5 -51 -8.5s-36.5 -3 -54.5 -3
c-50.667 0 -94.334 6.33301 -131.001 19s-67 32.167 -91 58.5s-41.667 59.5 -53 99.5s-17 87.333 -17 142v457h-383zM1917 1336c0 -80.667 -19.1631 -142.5 -57.4961 -185.5s-91.5 -64.5 -159.5 -64.5c-26 0 -49 2.66699 -69 8s-38 12.333 -54 21s-30.5 17.834 -43.5 27.501
l-37.5 27c-12 8.33301 -23.833 15.333 -35.5 21s-24.167 8.5 -37.5 8.5c-22 0 -37.667 -7.83301 -47 -23.5s-14 -36.167 -14 -61.5c0 -6 -1.16699 -10.833 -3.5 -14.5s-6.33301 -6.5 -12 -8.5s-13.667 -3.33301 -24 -4s-23.5 -1 -39.5 -1c-14 0 -25.833 0.5 -35.5 1.5
s-17.334 3 -23.001 6s-9.83398 7.16699 -12.501 12.5s-4 12.333 -4 21c0 77.333 18.667 138.166 56 182.499s90.666 66.5 159.999 66.5c38 0 70.167 -5.83301 96.5 -17.5s49.666 -24.667 69.999 -39l56.5 -39c17.333 -11.667 35.333 -17.5 54 -17.5
c20 0 35.333 7.16699 46 21.5s16 35.5 16 63.5c0 11.333 5 18.833 15 22.5s30.333 5.5 61 5.5c30 0 50.5 -2.5 61.5 -7.5s16.5 -15.833 16.5 -32.5zM1107 960z" />
    <glyph glyph-name="t_t_ibreve.liga" unicode="tt&#x12d;" horiz-adv-x="1832" 
d="M420 756l-0.000976562 -419c0 -48.667 7.66699 -85.167 23 -109.5s42.666 -36.5 81.999 -36.5c13.333 0 25.333 1.16699 36 3.5s20.167 5 28.5 8s15.333 5.66699 21 8s10.834 3.5 15.501 3.5c4 0 7.83301 -1.16699 11.5 -3.5s6.5 -7 8.5 -14s3.83301 -16.5 5.5 -28.5
s2.5 -27.333 2.5 -46c0 -29.333 -1.83301 -52 -5.5 -68s-8.66699 -27 -15 -33s-15.166 -11.5 -26.499 -16.5s-24.833 -9.33301 -40.5 -13s-32.667 -6.5 -51 -8.5s-36.833 -3 -55.5 -3c-50 0 -93.333 6.33301 -130 19s-67 32.167 -91 58.5s-41.667 59.5 -53 99.5
s-17 87.333 -17 142v457h-107c-12.667 0 -22.334 7.83301 -29.001 23.5s-10 41.834 -10 78.501c0 19.333 0.833008 35.666 2.5 48.999s4.16699 23.833 7.5 31.5s7.5 13.167 12.5 16.5s10.833 5 17.5 5h106v199c0 6.66699 1.83301 12.667 5.5 18s10.334 9.83301 20.001 13.5
s22.667 6.33398 39 8.00098s36.5 2.5 60.5 2.5c24.667 0 45.167 -0.833008 61.5 -2.5s29.166 -4.33398 38.499 -8.00098s16 -8.16699 20 -13.5s6 -11.333 6 -18v-199h383v247c0 6.66699 1.83301 12.667 5.5 18s10.334 9.66602 20.001 12.999s22.667 6 39 8s36.5 3 60.5 3
c24.667 0 45.167 -1 61.5 -3s29.166 -4.66699 38.499 -8s16 -7.66602 20 -12.999s6 -11.333 6 -18v-247h576c28 0 47.667 -6 59 -18s17 -29.333 17 -52v-856c0 -6.66699 -2 -12.5 -6 -17.5s-10.667 -9.16699 -20 -12.5s-22.166 -5.83301 -38.499 -7.5s-36.5 -2.5 -60.5 -2.5
c-24.667 0 -45.167 0.833008 -61.5 2.5s-29.166 4.16699 -38.499 7.5s-16 7.5 -20 12.5s-6 10.833 -6 17.5v722h-401v-419c0 -48.667 7.5 -85.167 22.5 -109.5s42.5 -36.5 82.5 -36.5c13.333 0 25.333 1.16699 36 3.5s20 5 28 8l21 8c6 2.33301 11.333 3.5 16 3.5
c4 0 7.66699 -1.16699 11 -3.5s6.16602 -7 8.49902 -14s4.33301 -16.5 6 -28.5s2.5 -27.333 2.5 -46c0 -29.333 -1.83301 -52 -5.5 -68s-8.66699 -27 -15 -33s-15.166 -11.5 -26.499 -16.5s-24.833 -9.33301 -40.5 -13s-32.667 -6.5 -51 -8.5s-36.5 -3 -54.5 -3
c-50.667 0 -94.334 6.33301 -131.001 19s-67 32.167 -91 58.5s-41.667 59.5 -53 99.5s-17 87.333 -17 142v457h-383zM1695 1361c1.33301 12.667 7.83203 22.332 19.499 28.999s32.167 10 61.5 10c17.333 0 31.666 -0.666992 42.999 -2s20.166 -3.33301 26.499 -6
s10.666 -6.33398 12.999 -11.001s3.5 -10 3.5 -16c0 -44.667 -5.83301 -84.334 -17.5 -119.001s-29.334 -63.834 -53.001 -87.501s-54 -41.667 -91 -54s-80.5 -18.5 -130.5 -18.5c-52 0 -96.333 6.16699 -133 18.5s-66.667 30.333 -90 54s-40.5 52.667 -51.5 87
s-16.5 73.5 -16.5 117.5c0 13.333 5.66699 22.833 17 28.5s33 8.5 65 8.5c16.667 0 30.5 -0.666992 41.5 -2s19.833 -3.66602 26.5 -6.99902s11.334 -7.5 14.001 -12.5s4.33398 -10.833 5.00098 -17.5c2 -18 5.33301 -34.167 10 -48.5s11.834 -26.666 21.501 -36.999
s21.834 -18.166 36.501 -23.499s32.667 -8 54 -8c19.333 0 36.333 2.33301 51 7s27.334 11.834 38.001 21.501s19 21.667 25 36s9.66699 31.833 11 52.5zM1177 959.998z" />
    <glyph glyph-name="t_t_iogonek.liga" unicode="tt&#x12f;" horiz-adv-x="1832" 
d="M1759 -260c0 -14 -0.666016 -25.6689 -1.99902 -35.002s-3.33301 -17.166 -6 -23.499s-6.5 -11.166 -11.5 -14.499s-11.167 -6 -18.5 -8c-23.333 -8 -48.5 -14 -75.5 -18s-58.5 -6 -94.5 -6c-32.667 0 -62.334 3.33301 -89.001 10s-49.334 16.834 -68.001 30.501
s-33 30.667 -43 51s-15 44.166 -15 71.499c0 14 1.16699 27.5 3.5 40.5s6.5 25.833 12.5 38.5s13.833 25.5 23.5 38.5s21.834 26.833 36.501 41.5l43 43v756h-401v-419c0 -48.667 7.5 -85.167 22.5 -109.5s42.5 -36.5 82.5 -36.5c13.333 0 25.333 1.16699 36 3.5s20 5 28 8
l21 8c6 2.33301 11.333 3.5 16 3.5c4 0 7.66699 -1.16699 11 -3.5s6.16602 -7 8.49902 -14s4.33301 -16.5 6 -28.5s2.5 -27.333 2.5 -46c0 -29.333 -1.83301 -52 -5.5 -68s-8.66699 -27 -15 -33s-15.166 -11.5 -26.499 -16.5s-24.833 -9.33301 -40.5 -13
s-32.667 -6.5 -51 -8.5s-36.5 -3 -54.5 -3c-50.667 0 -94.334 6.33301 -131.001 19s-67 32.167 -91 58.5s-41.667 59.5 -53 99.5s-17 87.333 -17 142v457h-383v-419c0 -48.667 7.66699 -85.167 23 -109.5s42.666 -36.5 81.999 -36.5c13.333 0 25.333 1.16699 36 3.5
s20.167 5 28.5 8s15.333 5.66699 21 8s10.834 3.5 15.501 3.5c4 0 7.83301 -1.16699 11.5 -3.5s6.5 -7 8.5 -14s3.83301 -16.5 5.5 -28.5s2.5 -27.333 2.5 -46c0 -29.333 -1.83301 -52 -5.5 -68s-8.66699 -27 -15 -33s-15.166 -11.5 -26.499 -16.5
s-24.833 -9.33301 -40.5 -13s-32.667 -6.5 -51 -8.5s-36.833 -3 -55.5 -3c-50 0 -93.333 6.33301 -130 19s-67 32.167 -91 58.5s-41.667 59.5 -53 99.5s-17 87.333 -17 142v457h-107c-12.667 0 -22.334 7.83301 -29.001 23.5s-10 41.834 -10 78.501
c0 19.333 0.833008 35.666 2.5 48.999s4.16699 23.833 7.5 31.5s7.5 13.167 12.5 16.5s10.833 5 17.5 5h106v199c0 6.66699 1.83301 12.667 5.5 18s10.334 9.83301 20.001 13.5s22.667 6.33398 39 8.00098s36.5 2.5 60.5 2.5c24.667 0 45.167 -0.833008 61.5 -2.5
s29.166 -4.33398 38.499 -8.00098s16 -8.16699 20 -13.5s6 -11.333 6 -18v-199h383v247c0 6.66699 1.83301 12.667 5.5 18s10.334 9.66602 20.001 12.999s22.667 6 39 8s36.5 3 60.5 3c24.667 0 45.167 -1 61.5 -3s29.166 -4.66699 38.499 -8s16 -7.66602 20 -12.999
s6 -11.333 6 -18v-247h576c28 0 47.667 -6 59 -18s17 -29.333 17 -52v-855c0 -8.66699 -2.5 -19 -7.5 -31s-11.167 -21.667 -18.5 -29l-59 -59c-16.667 -16.667 -27.834 -30.667 -33.501 -42s-8.5 -22.333 -8.5 -33c0 -27.333 20.667 -41 62 -41h83
c6.66699 0 12.334 -0.833008 17.001 -2.5s8.33398 -4.66699 11.001 -9s4.5 -10.5 5.5 -18.5s1.5 -18 1.5 -30zM1725 1226c0 -24.667 -2.16699 -45.5 -6.5 -62.5s-12 -30.667 -23 -41s-25.833 -17.666 -44.5 -21.999s-42 -6.5 -70 -6.5
c-28.667 0 -52.334 2.16699 -71.001 6.5s-33.5 11.666 -44.5 21.999s-18.667 24 -23 41s-6.5 37.833 -6.5 62.5c0 24 2.16699 44.333 6.5 61s12 30.334 23 41.001s25.833 18.334 44.5 23.001s42.334 7 71.001 7c28 0 51.333 -2.33301 70 -7s33.5 -12.334 44.5 -23.001
s18.667 -24.334 23 -41.001s6.5 -37 6.5 -61z" />
    <glyph glyph-name="t_t_dotlessi.liga" unicode="tt&#x131;" horiz-adv-x="1832" 
d="M420 756l-0.000976562 -419c0 -48.667 7.66699 -85.167 23 -109.5s42.666 -36.5 81.999 -36.5c13.333 0 25.333 1.16699 36 3.5s20.167 5 28.5 8s15.333 5.66699 21 8s10.834 3.5 15.501 3.5c4 0 7.83301 -1.16699 11.5 -3.5s6.5 -7 8.5 -14s3.83301 -16.5 5.5 -28.5
s2.5 -27.333 2.5 -46c0 -29.333 -1.83301 -52 -5.5 -68s-8.66699 -27 -15 -33s-15.166 -11.5 -26.499 -16.5s-24.833 -9.33301 -40.5 -13s-32.667 -6.5 -51 -8.5s-36.833 -3 -55.5 -3c-50 0 -93.333 6.33301 -130 19s-67 32.167 -91 58.5s-41.667 59.5 -53 99.5
s-17 87.333 -17 142v457h-107c-12.667 0 -22.334 7.83301 -29.001 23.5s-10 41.834 -10 78.501c0 19.333 0.833008 35.666 2.5 48.999s4.16699 23.833 7.5 31.5s7.5 13.167 12.5 16.5s10.833 5 17.5 5h106v199c0 6.66699 1.83301 12.667 5.5 18s10.334 9.83301 20.001 13.5
s22.667 6.33398 39 8.00098s36.5 2.5 60.5 2.5c24.667 0 45.167 -0.833008 61.5 -2.5s29.166 -4.33398 38.499 -8.00098s16 -8.16699 20 -13.5s6 -11.333 6 -18v-199h383v247c0 6.66699 1.83301 12.667 5.5 18s10.334 9.66602 20.001 12.999s22.667 6 39 8s36.5 3 60.5 3
c24.667 0 45.167 -1 61.5 -3s29.166 -4.66699 38.499 -8s16 -7.66602 20 -12.999s6 -11.333 6 -18v-247h576c28 0 47.667 -6 59 -18s17 -29.333 17 -52v-856c0 -6.66699 -2 -12.5 -6 -17.5s-10.667 -9.16699 -20 -12.5s-22.166 -5.83301 -38.499 -7.5s-36.5 -2.5 -60.5 -2.5
c-24.667 0 -45.167 0.833008 -61.5 2.5s-29.166 4.16699 -38.499 7.5s-16 7.5 -20 12.5s-6 10.833 -6 17.5v722h-401v-419c0 -48.667 7.5 -85.167 22.5 -109.5s42.5 -36.5 82.5 -36.5c13.333 0 25.333 1.16699 36 3.5s20 5 28 8l21 8c6 2.33301 11.333 3.5 16 3.5
c4 0 7.66699 -1.16699 11 -3.5s6.16602 -7 8.49902 -14s4.33301 -16.5 6 -28.5s2.5 -27.333 2.5 -46c0 -29.333 -1.83301 -52 -5.5 -68s-8.66699 -27 -15 -33s-15.166 -11.5 -26.499 -16.5s-24.833 -9.33301 -40.5 -13s-32.667 -6.5 -51 -8.5s-36.5 -3 -54.5 -3
c-50.667 0 -94.334 6.33301 -131.001 19s-67 32.167 -91 58.5s-41.667 59.5 -53 99.5s-17 87.333 -17 142v457h-383z" />
    <glyph glyph-name=".notdef" horiz-adv-x="1038" 
d="M987 1294v-1294h-945v1294h945zM879 101v1092h-732v-1092h732zM780 845c0 -38 -5.50098 -71.668 -16.501 -101.001s-26.333 -54.333 -46 -75s-43.334 -37 -71.001 -49s-57.834 -20 -90.501 -24l-5 -121c-0.666992 -8.66699 -8.16699 -14.834 -22.5 -18.501
s-33.833 -5.5 -58.5 -5.5c-15.333 0 -28.166 0.333008 -38.499 1s-18.666 1.83398 -24.999 3.50098s-10.833 4 -13.5 7s-4 7.16699 -4 12.5l-8 157c-2 26.667 2.16699 45 12.5 55s25.5 15 45.5 15h13c24.667 0 45.5 3.5 62.5 10.5s30.833 16.5 41.5 28.5
s18.5 26.167 23.5 42.5s7.5 33.833 7.5 52.5c0 40.667 -12.5 73.5 -37.5 98.5s-63.167 37.5 -114.5 37.5c-23.333 0 -44 -2.16699 -62 -6.5s-33.667 -9 -47 -14s-24.333 -9.66699 -33 -14s-14.667 -6.5 -18 -6.5c-2.66699 0 -5.33398 0.833008 -8.00098 2.5
s-5 4.83398 -7 9.50098s-3.5 11.5 -4.5 20.5s-1.5 21.167 -1.5 36.5c0 17.333 0.833008 30.666 2.5 39.999s5.16699 16.333 10.5 21c4.66699 5.33301 13.5 10.833 26.5 16.5s28.5 10.834 46.5 15.501s38 8.66699 60 12s44.667 5 68 5c56.667 0 104.834 -7 144.501 -21
s71.834 -33 96.501 -57s42.667 -52.167 54 -84.5s17 -66.5 17 -102.5zM573.999 283.999c0 -17.333 -1.66699 -32.166 -5 -44.499s-9 -22.333 -17 -30s-18.5 -13.167 -31.5 -16.5s-28.833 -5 -47.5 -5c-19.333 0 -35.5 1.66699 -48.5 5s-23.5 8.83301 -31.5 16.5
s-13.667 17.667 -17 30s-5 27.166 -5 44.499c0 18.667 1.66699 34.167 5 46.5s9 22.5 17 30.5s18.5 13.667 31.5 17s29.167 5 48.5 5c18.667 0 34.5 -1.66699 47.5 -5s23.5 -9 31.5 -17s13.667 -18.167 17 -30.5s5 -27.833 5 -46.5zM-0.000976562 -397.001z" />
    <glyph glyph-name="space" unicode=" " horiz-adv-x="463" 
 />
    <glyph glyph-name="space" unicode="&#xa0;" horiz-adv-x="463" 
 />
    <glyph glyph-name="exclam" unicode="!" horiz-adv-x="667" 
d="M481 424c-0.666992 -6.66699 -2.66895 -12.6699 -6.00195 -18.0029s-9.16602 -9.83301 -17.499 -13.5s-19.666 -6.5 -33.999 -8.5s-31.833 -3 -52.5 -3c-21.333 0 -39 1 -53 3s-25.167 4.83301 -33.5 8.5s-14.166 8.16699 -17.499 13.5s-5.33301 11.333 -6 18l-26 908
c0 8.66699 2 16.334 6 23.001s11.167 12.167 21.5 16.5s24.333 7.5 42 9.5s39.834 3 66.501 3s48.667 -1.16699 66 -3.5s31.166 -5.66602 41.499 -9.99902s17.666 -9.66602 21.999 -15.999s6.5 -13.833 6.5 -22.5zM511.998 130.997c0 -27.333 -2.16699 -50.333 -6.5 -69
s-12 -33.667 -23 -45s-25.5 -19.5 -43.5 -24.5s-40.667 -7.5 -68 -7.5s-50.166 2.5 -68.499 7.5s-32.833 13.167 -43.5 24.5s-18.167 26.333 -22.5 45s-6.5 41.667 -6.5 69c0 28 2.16699 51.5 6.5 70.5s11.833 34.333 22.5 46s25.167 20 43.5 25s41.166 7.5 68.499 7.5
s50 -2.5 68 -7.5s32.5 -13.333 43.5 -25s18.667 -27 23 -46s6.5 -42.5 6.5 -70.5z" />
    <glyph glyph-name="quotedbl" unicode="&#x22;" horiz-adv-x="898" 
d="M707 910c0 -6.66699 -1.5 -12.667 -4.5 -18s-8 -9.66602 -15 -12.999s-16.167 -6 -27.5 -8s-25.666 -3 -42.999 -3c-18 0 -32.833 1 -44.5 3s-20.834 4.66699 -27.501 8s-11.5 7.66602 -14.5 12.999s-4.5 11.333 -4.5 18l-24 447c0 6.66699 2 12.667 6 18
s10.5 9.83301 19.5 13.5s20.833 6.33398 35.5 8.00098s32.667 2.5 54 2.5s39.333 -0.833008 54 -2.5s26.5 -4.33398 35.5 -8.00098s15.167 -8.16699 18.5 -13.5s5 -11.333 5 -18zM326 910c0 -6.66699 -1.49707 -12.668 -4.49707 -18.001s-7.83301 -9.66602 -14.5 -12.999
s-15.834 -6 -27.501 -8s-26.167 -3 -43.5 -3c-18 0 -32.667 1 -44 3s-20.5 4.66699 -27.5 8s-11.833 7.66602 -14.5 12.999s-4.33398 11.333 -5.00098 18l-23 447c-0.666992 6.66699 1 12.667 5 18s10.5 9.83301 19.5 13.5s20.833 6.33398 35.5 8.00098s32.667 2.5 54 2.5
c43.333 0 73.166 -3.5 89.499 -10.5s24.5 -17.5 24.5 -31.5z" />
    <glyph glyph-name="numbersign" unicode="#" horiz-adv-x="1020" 
d="M991 886c0 -16 -1.00391 -29.502 -3.00391 -40.502s-4.66699 -19.833 -8 -26.5s-7.5 -11.5 -12.5 -14.5s-10.167 -4.5 -15.5 -4.5h-114l-34 -285h98c11.333 0 20.5 -6.5 27.5 -19.5s10.5 -34.833 10.5 -65.5c0 -16 -1 -29.667 -3 -41s-4.66699 -20.333 -8 -27
s-7.5 -11.5 -12.5 -14.5s-10.167 -4.5 -15.5 -4.5h-119l-37 -313c-0.666992 -6 -2.5 -11.167 -5.5 -15.5s-8.33301 -8.16602 -16 -11.499s-18 -5.66602 -31 -6.99902s-29.5 -2 -49.5 -2c-21.333 0 -38.5 0.666992 -51.5 2s-22.833 3.66602 -29.5 6.99902
s-11.167 7.16602 -13.5 11.499s-3.16602 9.5 -2.49902 15.5l38 313h-224l-37 -313c-0.666992 -5.33301 -2.5 -10.333 -5.5 -15s-8.16699 -8.66699 -15.5 -12s-17.5 -5.66602 -30.5 -6.99902s-30.167 -2 -51.5 -2c-20.667 0 -37.334 0.666992 -50.001 2
s-22.5 3.66602 -29.5 6.99902s-11.667 7.16602 -14 11.499s-2.83301 9.5 -1.5 15.5l36 313h-95c-11.333 0 -20.5 6.33301 -27.5 19s-10.5 34.667 -10.5 66c0 16 1 29.667 3 41s4.66699 20.333 8 27s7.33301 11.5 12 14.5s10 4.5 16 4.5h116l34 285h-101
c-11.333 0 -20.5 6.33301 -27.5 19s-10.5 34.667 -10.5 66c0 32 3.66699 54.333 11 67s16.666 19 27.999 19h120l36 292c0 6 1.66699 11.167 5 15.5s9 8.16602 17 11.499s18.667 5.83301 32 7.5s30.333 2.5 51 2.5s37.334 -0.833008 50.001 -2.5
s22.334 -4.16699 29.001 -7.5s10.834 -7.16602 12.501 -11.499s2.5 -9.16602 2.5 -14.499l-37 -293h224l34 292c0.666992 5.33301 2.66699 10.333 6 15s8.83301 8.66699 16.5 12s18.167 5.83301 31.5 7.5s30.666 2.5 51.999 2.5c20.667 0 37.334 -0.833008 50.001 -2.5
s22.334 -4.16699 29.001 -7.5s10.834 -7.16602 12.501 -11.499s2.16699 -9.16602 1.5 -14.499l-35 -293h96c11.333 0 20.5 -6.5 27.5 -19.5s10.5 -34.833 10.5 -65.5zM414.996 799.998l-34 -285h223l35 285h-224z" />
    <glyph glyph-name="dollar" unicode="$" horiz-adv-x="1038" 
d="M951 393c0 -57.333 -10.1768 -109.001 -30.5098 -155.001s-49.166 -85.667 -86.499 -119s-82.333 -60 -135 -80s-111 -32.667 -175 -38l-21 -214c-0.666992 -5.33301 -2.16699 -10 -4.5 -14s-6.66602 -7.33301 -12.999 -10s-15 -4.83398 -26 -6.50098
s-24.833 -2.5 -41.5 -2.5c-21.333 0 -38.5 1 -51.5 3s-23.167 4.83301 -30.5 8.5s-12.166 8.5 -14.499 14.5s-2.83301 12.667 -1.5 20l21 203c-28.667 4 -55.667 9.16699 -81 15.5s-48.333 13.333 -69 21s-38.5 15.5 -53.5 23.5s-26.333 15.833 -34 23.5
s-13.167 19 -16.5 34s-5 37.167 -5 66.5c0 22.667 0.666992 41.334 2 56.001s3.66602 26 6.99902 34s7.5 13.5 12.5 16.5s10.833 4.5 17.5 4.5c8.66699 0 21.334 -5 38.001 -15s38 -21 64 -33s57.5 -23 94.5 -33s80.5 -15 130.5 -15c78 0 136 14.5 174 43.5
s57 67.5 57 115.5c0 32 -8.16699 58.333 -24.5 79s-38.166 38.834 -65.499 54.501s-58.166 29.667 -92.499 42l-105.5 39.5c-36 14 -71.167 30.333 -105.5 49s-65.166 41.667 -92.499 69s-49.166 60.5 -65.499 99.5s-24.5 86.167 -24.5 141.5c0 50 8.33301 95.5 25 136.5
s40.667 76.833 72 107.5s69.833 55.5 115.5 74.5s97.5 31.833 155.5 38.5l20 201c0.666992 5.33301 2.16699 9.83301 4.5 13.5s6.66602 7 12.999 10s14.833 5.16699 25.5 6.5s24.667 2 42 2c20.667 0 37.834 -1 51.501 -3s24.167 -4.83301 31.5 -8.5s12 -8.5 14 -14.5
s3 -12.667 3 -20l-20 -189c18.667 -2.66699 38.334 -6.33398 59.001 -11.001s40 -10.167 58 -16.5s34.333 -13 49 -20s24.834 -13.333 30.501 -19s10 -11.334 13 -17.001s5.33301 -12.667 7 -21s2.83398 -18.333 3.50098 -30s1 -25.167 1 -40.5
c0 -20.667 -0.5 -37.667 -1.5 -51s-2.83301 -23.5 -5.5 -30.5s-5.66699 -11.667 -9 -14s-7.33301 -3.5 -12 -3.5c-8.66699 0 -21.334 4.33301 -38.001 13s-37.167 18 -61.5 28s-52.333 19.333 -84 28s-66.5 13 -104.5 13c-34.667 0 -64.334 -3.33301 -89.001 -10
s-44.667 -16 -60 -28s-26.666 -26.333 -33.999 -43s-11 -35 -11 -55c0 -31.333 8.33301 -57.666 25 -78.999s38.834 -39.666 66.501 -54.999s59 -29.333 94 -42l107 -40c36.333 -14 72 -30.167 107 -48.5s66.167 -41 93.5 -68s49.333 -59.667 66 -98s25 -84.5 25 -138.5z
" />
    <glyph glyph-name="percent" unicode="%" horiz-adv-x="1493" 
d="M656 976c0 -52.667 -5.83008 -100.167 -17.4971 -142.5s-29.834 -78.5 -54.501 -108.5s-56.167 -53.333 -94.5 -70s-84.166 -25 -137.499 -25c-56.667 0 -104 8.33301 -142 25s-68.333 39.834 -91 69.501s-38.667 65.167 -48 106.5s-14 87 -14 137
s5.66699 95.833 17 137.5s29.166 77.834 53.499 108.501s55.666 54.5 93.999 71.5s84.5 25.5 138.5 25.5c59.333 0 108.166 -9 146.499 -27s68.5 -42.333 90.5 -73s37.333 -66.334 46 -107.001s13 -83.334 13 -128.001zM458.003 969
c0 36.667 -2.00293 67.832 -6.00293 93.499s-10 46.5 -18 62.5s-18.667 27.667 -32 35s-29 11 -47 11c-16.667 0 -31.334 -3.5 -44.001 -10.5s-23.167 -18.333 -31.5 -34s-14.5 -36 -18.5 -61s-6 -55.5 -6 -91.5c0 -41.333 2.33301 -75.166 7 -101.499
s11.334 -47 20.001 -62s19.334 -25.333 32.001 -31s27.334 -8.5 44.001 -8.5c19.333 0 35.333 3.83301 48 11.5s22.834 19.5 30.501 35.5s13.167 36.5 16.5 61.5s5 54.833 5 89.5zM1436 328.998c0 -52.667 -5.83008 -100.167 -17.4971 -142.5s-29.834 -78.5 -54.501 -108.5
s-56.167 -53.333 -94.5 -70s-84.166 -25 -137.499 -25c-56.667 0 -104 8.33301 -142 25s-68.333 39.834 -91 69.501s-38.667 65.167 -48 106.5s-14 87 -14 137s5.66699 95.833 17 137.5s29.166 77.834 53.499 108.501s55.666 54.5 93.999 71.5s84.5 25.5 138.5 25.5
c59.333 0 108.166 -9 146.499 -27s68.5 -42.333 90.5 -73s37.333 -66.334 46 -107.001s13 -83.334 13 -128.001zM1238 321.998c0 36.667 -2.00293 67.832 -6.00293 93.499s-10 46.5 -18 62.5s-18.667 27.667 -32 35s-29 11 -47 11c-16.667 0 -31.334 -3.5 -44.001 -10.5
s-23.167 -18.333 -31.5 -34s-14.5 -36 -18.5 -61s-6 -55.5 -6 -91.5c0 -41.333 2.33301 -75.166 7 -101.499s11.334 -47 20.001 -62s19.334 -25.333 32.001 -31s27.334 -8.5 44.001 -8.5c19.333 0 35.333 3.83301 48 11.5s22.834 19.5 30.501 35.5s13.167 36.5 16.5 61.5
s5 54.833 5 89.5zM383 6.99609c-6 -8 -12.1699 -14.5 -18.5029 -19.5s-14.166 -9.16699 -23.499 -12.5s-20.666 -5.66602 -33.999 -6.99902s-29.666 -2 -48.999 -2c-22 0 -39.5 1.33301 -52.5 4s-22.333 6.66699 -28 12s-8 11.5 -7 18.5s5.16699 15.5 12.5 25.5l922 1263
c6 7.33301 12 13.666 18 18.999s13.833 9.66602 23.5 12.999s21.167 5.66602 34.5 6.99902s29.666 2 48.999 2c22 0 39.5 -1.33301 52.5 -4s22.333 -6.66699 28 -12s7.83398 -11.666 6.50098 -18.999s-5.33301 -15.666 -12 -24.999z" />
    <glyph glyph-name="ampersand" unicode="&#x26;" horiz-adv-x="1443" 
d="M82 361c0 37.333 5.49805 72.5039 16.498 105.504s27.5 64.167 49.5 93.5s49.167 57.333 81.5 84s69.833 52.667 112.5 78c-24 30.667 -44.833 59.5 -62.5 86.5s-32.334 52.833 -44.001 77.5s-20.334 48.167 -26.001 70.5s-8.5 44.5 -8.5 66.5
c0 46.667 8.33301 90.5 25 131.5s42.667 76.5 78 106.5s80.333 53.833 135 71.5s120.334 26.5 197.001 26.5c70 0 130.333 -6.66699 181 -20s92.334 -32.166 125.001 -56.499s57 -54.333 73 -90s24 -75.834 24 -120.501c0 -40 -6.83301 -77 -20.5 -111
s-34.334 -66.333 -62.001 -97s-62.167 -60.167 -103.5 -88.5s-89.666 -56.833 -144.999 -85.5c18 -20.667 38.167 -42.5 60.5 -65.5l69 -69l71.5 -68.5c24 -22.667 47.333 -43.667 70 -63c8.66699 13.333 16.5 28.666 23.5 45.999s13 35.666 18 54.999s9 39 12 59
s4.5 39.667 4.5 59v31c0 7.33301 1.33301 13.666 4 18.999s8.16699 9.66602 16.5 12.999s20.333 5.83301 36 7.5s35.834 2.5 60.501 2.5c23.333 0 42.666 -0.5 57.999 -1.5s27.5 -3.16699 36.5 -6.5s15.333 -7.83301 19 -13.5s5.5 -12.834 5.5 -21.501v-32
c0 -32 -2.33301 -64.333 -7 -97s-11.5 -64.5 -20.5 -95.5s-20.167 -60.667 -33.5 -89s-28 -54.833 -44 -79.5c23.333 -18 43.5 -33 60.5 -45s31.5 -21.5 43.5 -28.5s22 -11.833 30 -14.5s14.667 -4 20 -4h20.5c6.33301 0 11.5 -2.33301 15.5 -7s7 -13 9 -25s3 -29.667 3 -53
c0 -24.667 -0.5 -44 -1.5 -58s-2.66699 -24.333 -5 -31s-6.33301 -12.167 -12 -16.5s-15.167 -8.33301 -28.5 -12s-29.333 -5.5 -48 -5.5c-14.667 0 -29.834 1.83301 -45.501 5.5s-33.834 10.667 -54.501 21s-44.667 24 -72 41s-59 38.833 -95 65.5
c-31.333 -21.333 -63.666 -40.5 -96.999 -57.5s-68.166 -31.167 -104.499 -42.5s-73.833 -20 -112.5 -26s-80 -9 -124 -9c-43.333 0 -85.666 3.33301 -126.999 10s-80.166 16.834 -116.499 30.501s-69.5 30.834 -99.5 51.501s-55.667 45.167 -77 73.5s-38 60.666 -50 96.999
s-18 76.5 -18 120.5zM465.998 1036c0 -14 2.33594 -28.5 7.00293 -43.5s11.167 -30.667 19.5 -47s18.833 -33.666 31.5 -51.999l43 -59.5c39.333 21.333 72.166 41 98.499 59s47.5 35.5 63.5 52.5s27.333 34 34 51s10 34.5 10 52.5c0 16 -3 31 -9 45
s-15.333 26.167 -28 36.5s-28.334 18.5 -47.001 24.5s-40.667 9 -66 9c-28 0 -51.833 -3.16699 -71.5 -9.5s-35.834 -15.333 -48.501 -27s-22 -25.334 -28 -41.001s-9 -32.5 -9 -50.5zM354.001 375.004c0 -28.667 5.33203 -54.999 15.999 -78.999s26 -44.667 46 -62
s44.833 -30.833 74.5 -40.5s63.834 -14.5 102.501 -14.5c20 0 39.833 1.83301 59.5 5.5s39 8.66699 58 15s37 14 54 23s32.833 18.833 47.5 29.5c-30 24 -60.167 49.5 -90.5 76.5l-88.5 81.5l-82.5 81.5c-26.333 27 -49.833 52.5 -70.5 76.5
c-23.333 -14.667 -42.833 -29.834 -58.5 -45.501s-28.5 -31.5 -38.5 -47.5s-17.333 -32.333 -22 -49s-7 -33.667 -7 -51zM0 1294z" />
    <glyph glyph-name="quotesingle" unicode="'" horiz-adv-x="478" 
d="M332 910c0 -7.33301 -1.66602 -13.6699 -4.99902 -19.0029s-8.66602 -9.66602 -15.999 -12.999s-16.833 -5.83301 -28.5 -7.5s-26.167 -2.5 -43.5 -2.5c-18 0 -32.833 1 -44.5 3s-21.167 4.66699 -28.5 8s-12.5 7.66602 -15.5 12.999s-4.83301 11.333 -5.5 18l-23 447
c-0.666992 6.66699 1.16602 12.667 5.49902 18s11.166 9.83301 20.499 13.5s21.5 6.33398 36.5 8.00098s33.167 2.5 54.5 2.5c22 0 40.333 -0.833008 55 -2.5s26.667 -4.16699 36 -7.5s16 -7.66602 20 -12.999s5.66699 -11.666 5 -18.999z" />
    <glyph glyph-name="parenleft" unicode="(" horiz-adv-x="638" 
d="M535 1368c-56 -130 -98.3301 -264.167 -126.997 -402.5s-43 -280.166 -43 -425.499c0 -146 14.5 -287.833 43.5 -425.5s70.833 -272.5 125.5 -404.5c4 -10.667 6 -19.834 6 -27.501s-3.66699 -14.167 -11 -19.5s-18.5 -9.33301 -33.5 -12s-35.833 -4 -62.5 -4
c-18.667 0 -34.667 0.666992 -48 2s-24.5 3.16602 -33.5 5.49902s-16 5.33301 -21 9s-8.5 7.83398 -10.5 12.501c-36 69.333 -67.333 139.166 -94 209.499s-48.834 141.333 -66.501 213s-30.834 144 -39.501 217s-13 147.167 -13 222.5c0 74.667 4.5 148.5 13.5 221.5
s22.5 145.333 40.5 217s40.167 142.834 66.5 213.501s57.166 141 92.499 211c1.33301 3.33301 4 6.33301 8 9s10 5.16699 18 7.5s18.833 4 32.5 5s31.167 1.5 52.5 1.5c24 0 43.667 -1.16699 59 -3.5s27 -5.83301 35 -10.5s12.5 -10.667 13.5 -18
s-0.166992 -15.333 -3.5 -24z" />
    <glyph glyph-name="parenright" unicode=")" horiz-adv-x="638" 
d="M530 538c0 -75.333 -4.33203 -149.501 -12.999 -222.501s-21.834 -145.333 -39.501 -217s-39.667 -142.667 -66 -213s-57.5 -140.166 -93.5 -209.499c-2 -4.66699 -5.5 -8.83398 -10.5 -12.501s-12 -6.66699 -21 -9s-20.167 -4.16602 -33.5 -5.49902s-29.333 -2 -48 -2
c-27.333 0 -48.5 1.33301 -63.5 4s-26.167 6.66699 -33.5 12s-11 11.833 -11 19.5s2 16.834 6 27.501c55.333 130.667 97.5 265.167 126.5 403.5s43.5 280.5 43.5 426.5c0 145.333 -14.333 287.166 -43 425.499s-71.334 272.5 -128.001 402.5
c-3.33301 8.66699 -4.5 16.667 -3.5 24s5.66699 13.333 14 18s20 8.16699 35 10.5s34.833 3.5 59.5 3.5c20.667 0 37.667 -0.5 51 -1.5s24.333 -2.66699 33 -5s14.834 -4.83301 18.501 -7.5s6.5 -5.66699 8.5 -9c69.333 -140 122 -281.5 158 -424.5s54 -289.167 54 -438.5z
" />
    <glyph glyph-name="asterisk" unicode="*" horiz-adv-x="1020" 
d="M859 939c13.333 -4.66699 19.499 -15.0029 18.499 -31.0029s-11.167 -40.667 -30.5 -74s-35.666 -54.166 -48.999 -62.499s-25.333 -8.16602 -36 0.500977l-199 159l40 -251c3.33301 -14 -2.33398 -24.667 -17.001 -32s-41.334 -11 -80.001 -11
s-65.334 3.66699 -80.001 11s-20.334 18 -17.001 32l40 251l-199 -159c-10 -8.66699 -21.667 -8.66699 -35 0s-30 29.667 -50 63c-19.333 32.667 -29.333 57 -30 73s5.33301 26.333 18 31l238 92l-238 92c-12.667 4.66699 -18.667 15 -18 31s10.667 40.667 30 74
s35.833 54.333 49.5 63s25.5 8.33398 35.5 -0.999023l199 -159l-40 251c-3.33301 13.333 2.33398 23.833 17.001 31.5s41.334 11.5 80.001 11.5s65.334 -3.83301 80.001 -11.5s20.334 -18.167 17.001 -31.5l-40 -251l199 159c10.667 9.33301 22.5 9.5 35.5 0.5
s29.5 -30.167 49.5 -63.5c19.333 -32.667 29.5 -57 30.5 -73s-5.16699 -26.333 -18.5 -31l-237 -92z" />
    <glyph glyph-name="plus" unicode="+" horiz-adv-x="1020" 
d="M968 575c0 -18.667 -1.00098 -34.334 -3.00098 -47.001s-5 -22.834 -9 -30.501s-8.66699 -13.167 -14 -16.5s-11 -5 -17 -5h-311v-339c0 -6.66699 -1.66699 -12.5 -5 -17.5s-9 -9.33301 -17 -13s-18.667 -6.5 -32 -8.5s-30 -3 -50 -3s-36.667 1 -50 3
s-24 4.83301 -32 8.5s-13.833 8 -17.5 13s-5.5 10.833 -5.5 17.5v339h-310c-6 0 -11.5 1.66699 -16.5 5s-9.5 8.83301 -13.5 16.5s-7.16699 17.834 -9.5 30.501s-3.5 28.334 -3.5 47.001c0 18 1 33.5 3 46.5s4.83301 23.333 8.5 31s7.83398 13.167 12.501 16.5s10 5 16 5
h313v338c0 6.66699 1.83301 12.834 5.5 18.501s9.5 10.334 17.5 14.001s18.667 6.5 32 8.5s30 3 50 3s36.667 -1 50 -3s24 -4.83301 32 -8.5s13.667 -8.33398 17 -14.001s5 -11.834 5 -18.501v-338h314c5.33301 0 10.5 -1.66699 15.5 -5s9.33301 -8.83301 13 -16.5
s6.5 -18 8.5 -31s3 -28.5 3 -46.5z" />
    <glyph glyph-name="comma" unicode="," horiz-adv-x="528" 
d="M422 184c0 -26.667 -1.33203 -50.8301 -3.99902 -72.4971s-7 -42.167 -13 -61.5s-13.667 -38.166 -23 -56.499s-21 -37.166 -35 -56.499l-134 -192c-4.66699 -6.66699 -9.83398 -12.334 -15.501 -17.001s-12.5 -8.33398 -20.5 -11.001s-17.667 -4.83398 -29 -6.50098
s-25.666 -2.5 -42.999 -2.5c-19.333 0 -35 0.833008 -47 2.5s-20.667 4.16699 -26 7.5s-8.16602 7.66602 -8.49902 12.999s1.16699 11.666 4.5 18.999l122 276v158c0 22.667 2.66699 41 8 55s13.666 24.667 24.999 32s25.666 12.166 42.999 14.499s38.333 3.5 63 3.5
c23.333 0 43.333 -1.16699 60 -3.5s30.5 -7.16602 41.5 -14.499s19 -18 24 -32s7.5 -32.333 7.5 -55z" />
    <glyph glyph-name="hyphen" unicode="-" horiz-adv-x="627" 
d="M568 503c0 -38.667 -3.66699 -65.666 -11 -80.999s-19 -23 -35 -23h-416c-16.667 0 -28.667 7.83301 -36 23.5s-11 42.5 -11 80.5c0 37.333 3.66699 63.666 11 78.999s19.333 23 36 23h416c8 0 14.833 -1.66699 20.5 -5s10.5 -9 14.5 -17s6.83301 -18.667 8.5 -32
s2.5 -29.333 2.5 -48z" />
    <glyph glyph-name="hyphen" unicode="&#x2010;" horiz-adv-x="627" 
d="M568 503c0 -38.667 -3.66699 -65.666 -11 -80.999s-19 -23 -35 -23h-416c-16.667 0 -28.667 7.83301 -36 23.5s-11 42.5 -11 80.5c0 37.333 3.66699 63.666 11 78.999s19.333 23 36 23h416c8 0 14.833 -1.66699 20.5 -5s10.5 -9 14.5 -17s6.83301 -18.667 8.5 -32
s2.5 -29.333 2.5 -48z" />
    <glyph glyph-name="hyphen" unicode="&#xad;" horiz-adv-x="627" 
d="M568 503c0 -38.667 -3.66699 -65.666 -11 -80.999s-19 -23 -35 -23h-416c-16.667 0 -28.667 7.83301 -36 23.5s-11 42.5 -11 80.5c0 37.333 3.66699 63.666 11 78.999s19.333 23 36 23h416c8 0 14.833 -1.66699 20.5 -5s10.5 -9 14.5 -17s6.83301 -18.667 8.5 -32
s2.5 -29.333 2.5 -48z" />
    <glyph glyph-name="period" unicode="." horiz-adv-x="547" 
d="M422 144c0 -62 -10.833 -103.667 -32.5 -125s-60.5 -32 -116.5 -32s-94.667 10.5 -116 31.5s-32 60.833 -32 119.5c0 62.667 10.833 104.667 32.5 126s60.834 32 117.501 32c55.333 0 93.666 -10.5 114.999 -31.5s32 -61.167 32 -120.5z" />
    <glyph glyph-name="slash" unicode="/" horiz-adv-x="880" 
d="M252 -259c-3.33301 -8.66699 -7.66699 -15.6689 -13 -21.002s-12.833 -9.66602 -22.5 -12.999s-21.667 -5.83301 -36 -7.5s-32.5 -2.5 -54.5 -2.5c-27.333 0 -49.666 1.33301 -66.999 4s-30.5 6.66699 -39.5 12s-14.167 12.166 -15.5 20.499s0 18.166 4 29.499l598 1679
c2.66699 8.66699 6.66699 15.834 12 21.501s12.666 10.167 21.999 13.5s21.5 5.83301 36.5 7.5s33.167 2.5 54.5 2.5c28 0 50.5 -1.33301 67.5 -4s29.833 -6.66699 38.5 -12s13.667 -12.166 15 -20.499s0.333008 -18.166 -3 -29.499z" />
    <glyph glyph-name="zero" unicode="0" horiz-adv-x="1038" 
d="M982 652c0 -103.333 -8.33301 -196.669 -25 -280.002s-43.834 -154.333 -81.501 -213s-86.667 -103.667 -147 -135s-134.166 -47 -221.499 -47c-88.667 0 -162 15.167 -220 45.5s-104 74 -138 131s-57.833 126.667 -71.5 209s-20.5 175.5 -20.5 279.5
c0 102.667 8.5 195.834 25.5 279.501s44.333 154.834 82 213.501s86.667 103.667 147 135s133.833 47 220.5 47c88.667 0 162.167 -15.167 220.5 -45.5s104.5 -74 138.5 -131s57.667 -126.667 71 -209s20 -175.5 20 -279.5zM717 638.997
c0 61.333 -1.66602 115.501 -4.99902 162.501s-8.5 87.833 -15.5 122.5s-15.667 64 -26 88s-22.833 43.167 -37.5 57.5s-31.334 24.5 -50.001 30.5s-39.334 9 -62.001 9c-39.333 0 -71.833 -9.5 -97.5 -28.5s-46 -47.5 -61 -85.5s-25.5 -85.333 -31.5 -142
s-9 -122.667 -9 -198c0 -92 3.66699 -168.167 11 -228.5s18.833 -108.333 34.5 -144s35.834 -60.667 60.501 -75s54.334 -21.5 89.001 -21.5c26 0 49 4.16699 69 12.5s37.5 20.833 52.5 37.5s27.5 37.667 37.5 63s18.167 54.666 24.5 87.999s10.666 71 12.999 113
s3.5 88.333 3.5 139z" />
    <glyph glyph-name="one" unicode="1" horiz-adv-x="1038" 
d="M944 100c0 -18.667 -1.00195 -34.5 -3.00195 -47.5s-4.83301 -23.333 -8.5 -31s-7.83398 -13.167 -12.501 -16.5s-10 -5 -16 -5h-714c-5.33301 0 -10.333 1.66699 -15 5s-8.83398 8.83301 -12.501 16.5s-6.5 18 -8.5 31s-3 28.833 -3 47.5
c0 19.333 0.833008 35.5 2.5 48.5s4.33398 23.5 8.00098 31.5s7.83398 13.833 12.501 17.5s10 5.5 16 5.5h241v842l-208 -115c-15.333 -7.33301 -27.833 -11.833 -37.5 -13.5s-17.334 0.333008 -23.001 6s-9.5 15.5 -11.5 29.5s-3 33.667 -3 59c0 16 0.333008 29.167 1 39.5
s2.33398 19.166 5.00098 26.499s6.33398 13.333 11.001 18s11 9.66699 19 15l278 180c3.33301 2.66699 7.5 4.83398 12.5 6.50098s11.5 3 19.5 4s18.5 1.66699 31.5 2s29.833 0.5 50.5 0.5c25.333 0 45.833 -0.5 61.5 -1.5s27.5 -2.66699 35.5 -5s13.333 -5.5 16 -9.5
s4 -9 4 -15v-1069h211c6 0 11.5 -1.83301 16.5 -5.5s9.33301 -9.5 13 -17.5s6.33398 -18.5 8.00098 -31.5s2.5 -29.167 2.5 -48.5z" />
    <glyph glyph-name="two" unicode="2" horiz-adv-x="1038" 
d="M956 107c0 -19.333 -0.824219 -35.8359 -2.49121 -49.5029s-4.16699 -24.834 -7.5 -33.501s-7.66602 -14.834 -12.999 -18.501s-11.333 -5.5 -18 -5.5h-744c-14.667 0 -27.334 1.33301 -38.001 4s-19.334 7.83398 -26.001 15.501s-11.5 18.834 -14.5 33.501
s-4.5 33.667 -4.5 57c0 22 1 40.833 3 56.5s5.66699 29.667 11 42s12.166 24.333 20.499 36s19.166 24.5 32.499 38.5l224 240c44.667 46.667 80.667 89.167 108 127.5s48.666 73.333 63.999 105s25.833 60.834 31.5 87.501s8.5 52 8.5 76c0 22 -3.5 42.833 -10.5 62.5
s-17.333 36.834 -31 51.501s-30.834 26.167 -51.501 34.5s-45 12.5 -73 12.5c-39.333 0 -74.166 -5 -104.499 -15s-57 -21.167 -80 -33.5s-42.167 -23.666 -57.5 -33.999s-27.333 -15.5 -36 -15.5c-6 0 -11.167 2 -15.5 6s-7.83301 10.667 -10.5 20
s-4.83398 21.833 -6.50098 37.5s-2.5 34.834 -2.5 57.501c0 15.333 0.5 28.166 1.5 38.499s2.5 19.333 4.5 27s4.66699 14.334 8 20.001s9.16602 12.5 17.499 20.5s23.666 18.167 45.999 30.5s49.833 24.333 82.5 36s68.667 21.5 108 29.5s80.333 12 123 12
c67.333 0 126.166 -8.5 176.499 -25.5s92.166 -40.667 125.499 -71s58.166 -66.333 74.499 -108s24.5 -86.5 24.5 -134.5c0 -42 -4 -83.333 -12 -124s-24.667 -84.5 -50 -131.5s-61 -99 -107 -156s-107 -123.167 -183 -198.5l-151 -155h510c6.66699 0 12.834 -2 18.501 -6
s10.5 -10.167 14.5 -18.5s7 -19.333 9 -33s3 -29.834 3 -48.501z" />
    <glyph glyph-name="three" unicode="3" horiz-adv-x="1038" 
d="M950 379c0 -64.667 -12.334 -121.994 -37.001 -171.994s-59 -92 -103 -126s-96.667 -59.833 -158 -77.5s-128.333 -26.5 -201 -26.5c-44 0 -85.333 3.16699 -124 9.5s-72.834 14.166 -102.501 23.499s-54.167 19 -73.5 29s-32 17.667 -38 23s-10.5 11.333 -13.5 18
s-5.66699 14.5 -8 23.5s-4 20.333 -5 34s-1.5 30.167 -1.5 49.5c0 32 2.66699 54.167 8 66.5s13.333 18.5 24 18.5c6.66699 0 18.167 -4.5 34.5 -13.5s37.166 -18.667 62.499 -29s55 -20 89 -29s72.667 -13.5 116 -13.5c36.667 0 69 4.33301 97 13
s51.833 20.834 71.5 36.501s34.334 34.667 44.001 57s14.5 47.166 14.5 74.499c0 30 -5.83301 57 -17.5 81s-29 44.5 -52 61.5s-52 30.167 -87 39.5s-76.167 14 -123.5 14h-112c-8.66699 0 -16 1.16699 -22 3.5s-11 7.16602 -15 14.499s-6.83301 17.5 -8.5 30.5
s-2.5 29.833 -2.5 50.5c0 19.333 0.833008 35.166 2.5 47.499s4.33398 21.833 8.00098 28.5s8.33398 11.334 14.001 14.001s12.5 4 20.5 4h113c38.667 0 73 4.5 103 13.5s55.167 21.833 75.5 38.5s35.833 36.834 46.5 60.501s16 49.834 16 78.501
c0 22 -3.66699 42.833 -11 62.5s-18.166 36.667 -32.499 51s-32.833 25.666 -55.5 33.999s-49.334 12.5 -80.001 12.5c-34.667 0 -67.334 -5.16699 -98.001 -15.5s-58.167 -21.666 -82.5 -33.999s-45 -23.833 -62 -34.5s-29.5 -16 -37.5 -16c-5.33301 0 -10 1.16699 -14 3.5
s-7.33301 6.83301 -10 13.5s-4.66699 16.334 -6 29.001s-2 29 -2 49c0 16.667 0.333008 30.5 1 41.5s2 20.167 4 27.5s4.5 13.666 7.5 18.999s7.83301 11.166 14.5 17.499s20.334 15.833 41.001 28.5s46.667 25 78 37s67.5 22.167 108.5 30.5s85.5 12.5 133.5 12.5
c62.667 0 118.167 -7.33301 166.5 -22s89 -35.834 122 -63.501s58 -61.667 75 -102s25.5 -85.833 25.5 -136.5c0 -39.333 -5 -76 -15 -110s-24.667 -64.333 -44 -91s-43.5 -49.334 -72.5 -68.001s-62.5 -32.667 -100.5 -42v-3c45.333 -5.33301 86 -16.833 122 -34.5
s66.5 -39.834 91.5 -66.501s44.167 -56.834 57.5 -90.501s20 -69.834 20 -108.501z" />
    <glyph glyph-name="four" unicode="4" horiz-adv-x="1038" 
d="M996 372c0 -34 -3.5 -59.833 -10.5 -77.5s-16.5 -26.5 -28.5 -26.5h-115v-234c0 -6.66699 -2 -12.5 -6 -17.5s-11 -9.16699 -21 -12.5s-23 -5.83301 -39 -7.5s-36.667 -2.5 -62 -2.5c-24 0 -44.167 0.833008 -60.5 2.5s-29.333 4.16699 -39 7.5s-16.334 7.5 -20.001 12.5
s-5.5 10.833 -5.5 17.5v234h-495c-9.33301 0 -17.666 1.16699 -24.999 3.5s-13.5 7.66602 -18.5 15.999s-8.66699 20.333 -11 36s-3.5 36.5 -3.5 62.5c0 21.333 0.5 39.833 1.5 55.5s2.66699 29.834 5 42.501s5.66602 24.667 9.99902 36s9.83301 23.333 16.5 36l402 709
c3.33301 6 9 11.167 17 15.5s19.167 8 33.5 11s32.5 5.16699 54.5 6.5s48.667 2 80 2c34 0 63 -0.833008 87 -2.5s43.167 -4.33398 57.5 -8.00098s24.833 -8.16699 31.5 -13.5s10 -11.666 10 -18.999v-779h115c10.667 0 19.834 -8.16699 27.501 -24.5s11.5 -43.5 11.5 -81.5
zM589 1073h-2l-341 -595h343v595z" />
    <glyph glyph-name="five" unicode="5" horiz-adv-x="1038" 
d="M944 420c0 -70 -12.1689 -132.504 -36.502 -187.504s-58.666 -101.333 -102.999 -139s-97.666 -66.5 -159.999 -86.5s-131.5 -30 -207.5 -30c-40 0 -78 2.5 -114 7.5s-68.333 11.333 -97 19s-52.167 15.334 -70.5 23.001s-30.333 14 -36 19s-9.83398 10.5 -12.501 16.5
s-4.83398 13.167 -6.50098 21.5s-2.83398 18.833 -3.50098 31.5s-1 27.667 -1 45c0 18.667 0.666992 34.5 2 47.5s3.5 23.5 6.5 31.5s6.5 13.667 10.5 17s8.66699 5 14 5c6.66699 0 16.834 -3.83301 30.501 -11.5s31.667 -16.167 54 -25.5s49.5 -17.833 81.5 -25.5
s70.333 -11.5 115 -11.5c38.667 0 73.834 4 105.501 12s58.5 20.833 80.5 38.5s39 39.834 51 66.501s18 58.667 18 96c0 32 -5 60.5 -15 85.5s-25.667 46.167 -47 63.5s-49 30.333 -83 39s-75.333 13 -124 13c-38.667 0 -73.834 -2 -105.501 -6s-61.5 -6 -89.5 -6
c-19.333 0 -33.166 4.83301 -41.499 14.5s-12.5 27.5 -12.5 53.5v562c0 26.667 5.16699 45.834 15.5 57.501s26.833 17.5 49.5 17.5h613c6 0 11.667 -2 17 -6s9.83301 -10.333 13.5 -19s6.33398 -20.167 8.00098 -34.5s2.5 -31.5 2.5 -51.5c0 -40 -3.5 -69 -10.5 -87
s-17.167 -27 -30.5 -27h-460v-277c23.333 2.66699 46.5 4.33398 69.5 5.00098s47.167 1 72.5 1c70 0 132.167 -8.16699 186.5 -24.5s100 -40.333 137 -72s65.167 -71 84.5 -118s29 -101.5 29 -163.5z" />
    <glyph glyph-name="six" unicode="6" horiz-adv-x="1038" 
d="M976 432c0 -65.333 -9.99805 -125.833 -29.998 -181.5s-49.333 -103.667 -88 -144s-86.334 -72 -143.001 -95s-122 -34.5 -196 -34.5c-60 0 -112.333 6.83301 -157 20.5s-83.334 33.334 -116.001 59.001s-59.334 56.834 -80.001 93.501s-37.167 78 -49.5 124
s-20.833 96 -25.5 150s-7 111.333 -7 172c0 50.667 2.5 103.667 7.5 159s14.667 109.666 29 162.999s34.5 104.166 60.5 152.499s59.5 90.666 100.5 126.999s90.667 65.166 149 86.499s127.5 32 207.5 32c25.333 0 50.833 -1.5 76.5 -4.5s49.5 -6.83301 71.5 -11.5
s40.667 -10 56 -16s25.5 -11.167 30.5 -15.5s8.83301 -9.16602 11.5 -14.499s4.83398 -11.166 6.50098 -17.499s2.83398 -14.166 3.50098 -23.499s1 -20.666 1 -33.999c0 -20.667 -0.5 -37.834 -1.5 -51.501s-2.83301 -24.334 -5.5 -32.001s-6.33398 -13.167 -11.001 -16.5
s-10.334 -5 -17.001 -5c-8 0 -18.333 2.16699 -31 6.5s-28 9.16602 -46 14.499s-39.167 10 -63.5 14s-52.5 6 -84.5 6c-54 0 -99.667 -10 -137 -30s-67.666 -47.167 -90.999 -81.5s-40.333 -74.166 -51 -119.499s-16.334 -93.333 -17.001 -144
c14.667 9.33301 31.5 18.666 50.5 27.999s39.667 17.333 62 24s46.5 12.167 72.5 16.5s53.667 6.5 83 6.5c65.333 0 121.333 -9 168 -27s84.834 -43.667 114.501 -77s51.5 -73.666 65.5 -120.999s21 -100 21 -158zM718.002 407c0 34 -3.00098 63.8291 -9.00098 89.4961
s-15.667 47.334 -29 65.001s-31 31 -53 40s-48.667 13.5 -80 13.5c-18.667 0 -37 -1.66699 -55 -5s-35.667 -8 -53 -14s-34 -13.167 -50 -21.5s-31 -17.166 -45 -26.499c0 -71.333 4 -130.833 12 -178.5s19.833 -85.5 35.5 -113.5s35.334 -47.833 59.001 -59.5
s51.167 -17.5 82.5 -17.5c30.667 0 57.5 5.66699 80.5 17s42.167 27.333 57.5 48s27 44.834 35 72.501s12 57.834 12 90.501z" />
    <glyph glyph-name="seven" unicode="7" horiz-adv-x="1038" 
d="M955 1183c0 -19.333 -0.666016 -36.167 -1.99902 -50.5s-3.16602 -27.666 -5.49902 -39.999s-5.5 -24 -9.5 -35s-8.66699 -22.833 -14 -35.5l-426 -987c-4 -8.66699 -9.16699 -15.667 -15.5 -21s-15.166 -9.5 -26.499 -12.5s-25.833 -5 -43.5 -6s-39.5 -1.5 -65.5 -1.5
c-35.333 0 -63.333 1.16699 -84 3.5s-35.834 6 -45.501 11s-14.834 11.333 -15.501 19s1.66602 17.167 6.99902 28.5l458 1010h-544c-14 0 -24.5 9.16699 -31.5 27.5s-10.5 47.5 -10.5 87.5c0 20 1 37.167 3 51.5s4.83301 26.166 8.5 35.499s8 16 13 20s10.833 6 17.5 6h769
c12 0 22 -1.16699 30 -3.5s14.333 -7.5 19 -15.5s8.16699 -19.333 10.5 -34s3.5 -34 3.5 -58z" />
    <glyph glyph-name="eight" unicode="8" horiz-adv-x="1038" 
d="M976 347c0 -58.667 -10.168 -111.001 -30.501 -157.001s-50.333 -84.833 -90 -116.5s-88.834 -55.667 -147.501 -72s-126.334 -24.5 -203.001 -24.5c-73.333 0 -137.666 7.33301 -192.999 22s-101.666 36.167 -138.999 64.5s-65.333 63.333 -84 105s-28 89.5 -28 143.5
c0 36.667 5.5 71.167 16.5 103.5s27.333 62.333 49 90s48.667 53.667 81 78s69.5 47.5 111.5 69.5c-34 18.667 -64.667 38.834 -92 60.501s-50.666 45.334 -69.999 71.001s-34 53.834 -44 84.501s-15 64 -15 100c0 52 9.16699 99.167 27.5 141.5s45.666 79 81.999 110
s81.833 54.833 136.5 71.5s118 25 190 25c71.333 0 132.5 -7.66699 183.5 -23s92.833 -37 125.5 -65s56.834 -61.5 72.501 -100.5s23.5 -82.167 23.5 -129.5c0 -31.333 -5.16699 -61.833 -15.5 -91.5s-24.833 -57.834 -43.5 -84.501s-41.667 -51.834 -69 -75.501
s-58.333 -45.167 -93 -64.5c40.667 -21.333 77 -44 109 -68s59 -49.833 81 -77.5s38.833 -57.167 50.5 -88.5s17.5 -65.333 17.5 -102zM685.999 974.999c0 23.333 -3.33301 44.3311 -10 62.998s-17.167 34.5 -31.5 47.5s-32 22.833 -53 29.5s-45.833 10 -74.5 10
c-56 0 -97.667 -12.833 -125 -38.5s-41 -61.167 -41 -106.5c0 -21.333 3.5 -41 10.5 -59s17.833 -35 32.5 -51s33.667 -31.667 57 -47s51 -31.666 83 -48.999c48.667 28.667 86.167 59.334 112.5 92.001s39.5 69 39.5 109zM715.999 328.997
c0 24.667 -4.16699 47.166 -12.5 67.499s-21.333 39.5 -39 57.5s-39.834 35.333 -66.501 52s-57.667 33.667 -93 51c-30.667 -16.667 -57.667 -33.334 -81 -50.001s-42.666 -34.167 -57.999 -52.5s-26.833 -37.666 -34.5 -57.999s-11.5 -42.166 -11.5 -65.499
c0 -52 16.833 -91.667 50.5 -119s83.834 -41 150.501 -41c65.333 0 114.166 14 146.499 42s48.5 66.667 48.5 116z" />
    <glyph glyph-name="nine" unicode="9" horiz-adv-x="1038" 
d="M959 706c0 -52.667 -2.6709 -107.167 -8.00391 -163.5s-15.5 -111.5 -30.5 -165.5s-35.667 -105.333 -62 -154s-60.333 -91.167 -102 -127.5s-92.334 -65.166 -152.001 -86.499s-130.167 -32 -211.5 -32c-28.667 0 -57.167 2 -85.5 6s-54.166 9 -77.499 15
s-43.166 12.333 -59.499 19s-28.166 13.5 -35.499 20.5s-12.666 17.167 -15.999 30.5s-5 32 -5 56c0 22 0.5 39.667 1.5 53s3 23.666 6 30.999s6.66699 12.166 11 14.499s9.5 3.5 15.5 3.5c8 0 19.333 -2.33301 34 -7s32.5 -10 53.5 -16s44.833 -11.333 71.5 -16
s56.334 -7 89.001 -7c56 0 103.333 10 142 30s70 47 94 81s41.667 73.333 53 118s17.666 91.667 18.999 141c-30.667 -19.333 -67.667 -36.166 -111 -50.499s-93 -21.5 -149 -21.5c-68.667 0 -127 9 -175 27s-87 44 -117 78s-51.833 75.333 -65.5 124
s-20.5 103.667 -20.5 165c0 64.667 9.66699 124.167 29 178.5s48 101.333 86 141s85.333 70.5 142 92.5s122.334 33 197.001 33c60 0 112.5 -7 157.5 -21s83.667 -34 116 -60s59.333 -57.5 81 -94.5s38.667 -78.167 51 -123.5s21 -94.333 26 -147s7.5 -107.667 7.5 -165z
M697.996 742c0 71.333 -4 131.001 -12 179.001s-20 86.333 -36 115s-36 49 -60 61s-52 18 -84 18c-31.333 0 -58.333 -5.5 -81 -16.5s-41.5 -26.5 -56.5 -46.5s-26.167 -43.667 -33.5 -71s-11 -57.333 -11 -90c0 -35.333 3.16699 -66.5 9.5 -93.5s16.333 -49.333 30 -67
s31.5 -30.834 53.5 -39.501s48.667 -13 80 -13c38.667 0 75.167 5.83301 109.5 17.5s64.833 27.167 91.5 46.5z" />
    <glyph glyph-name="colon" unicode=":" horiz-adv-x="565" 
d="M442 790c0 -28 -2.33301 -51.333 -7 -70s-12.5 -34 -23.5 -46s-25.5 -20.5 -43.5 -25.5s-40.667 -7.5 -68 -7.5s-50 2.5 -68 7.5s-32.5 13.5 -43.5 25.5s-18.5 27.333 -22.5 46s-6 42 -6 70c0 28.667 2 52.667 6 72s11.5 35 22.5 47s25.5 20.667 43.5 26s40.667 8 68 8
s50 -2.66699 68 -8s32.5 -14 43.5 -26s18.833 -27.667 23.5 -47s7 -43.333 7 -72zM442 137c0 -28 -2.33301 -51.5 -7 -70.5s-12.5 -34.5 -23.5 -46.5s-25.5 -20.5 -43.5 -25.5s-40.667 -7.5 -68 -7.5s-50 2.5 -68 7.5s-32.5 13.5 -43.5 25.5s-18.5 27.5 -22.5 46.5
s-6 42.5 -6 70.5s2 51.833 6 71.5s11.5 35.5 22.5 47.5s25.5 20.5 43.5 25.5s40.667 7.5 68 7.5s50 -2.5 68 -7.5s32.5 -13.5 43.5 -25.5s18.833 -27.833 23.5 -47.5s7 -43.5 7 -71.5z" />
    <glyph glyph-name="semicolon" unicode=";" horiz-adv-x="565" 
d="M442 790c0 -28 -2.33301 -51.333 -7 -70s-12.5 -34 -23.5 -46s-25.5 -20.5 -43.5 -25.5s-40.667 -7.5 -68 -7.5s-50 2.5 -68 7.5s-32.5 13.5 -43.5 25.5s-18.5 27.333 -22.5 46s-6 42 -6 70c0 28.667 2 52.667 6 72s11.5 35 22.5 47s25.5 20.667 43.5 26s40.667 8 68 8
s50 -2.66699 68 -8s32.5 -14 43.5 -26s18.833 -27.667 23.5 -47s7 -43.333 7 -72zM442 184c0 -26.667 -1.33301 -50.833 -4 -72.5s-6.83398 -42.167 -12.501 -61.5s-13.167 -38.166 -22.5 -56.499s-20.666 -37.166 -33.999 -56.499l-130 -188
c-4.66699 -6.66699 -9.83398 -12.334 -15.501 -17.001s-12.5 -8.5 -20.5 -11.5s-17.5 -5.16699 -28.5 -6.5s-24.833 -2 -41.5 -2c-18.667 0 -33.667 0.666992 -45 2s-19.666 3.83301 -24.999 7.5s-8.16602 8.16699 -8.49902 13.5s1.16699 11.666 4.5 18.999l117 272v158
c0 22.667 2.66699 41 8 55s13.5 24.667 24.5 32s25.167 12.166 42.5 14.499s37.666 3.5 60.999 3.5c22.667 0 42.167 -1.16699 58.5 -3.5s29.833 -7.16602 40.5 -14.499s18.5 -18 23.5 -32s7.5 -32.333 7.5 -55z" />
    <glyph glyph-name="less" unicode="&#x3c;" horiz-adv-x="1020" 
d="M915 174c0 -24.667 -1 -43.999 -3 -57.999s-5.16699 -24 -9.5 -30s-9.66602 -8.66699 -15.999 -8s-14.5 3.33398 -24.5 8.00098l-767 382c-9.33301 5.33301 -16.166 16.5 -20.499 33.5s-6.5 42.5 -6.5 76.5c0 17.333 0.666992 32.5 2 45.5s3 23.667 5 32
s4.83301 15 8.5 20s7.83398 8.83301 12.501 11.5l766 380c19.333 9.33301 33 7.5 41 -5.5s12 -39.5 12 -79.5c0 -27.333 -0.5 -49 -1.5 -65s-2.83301 -28.667 -5.5 -38s-6.33398 -16 -11.001 -20s-11 -8 -19 -12l-576 -270l565 -262
c10 -4.66699 18.167 -9.33398 24.5 -14.001s11.166 -11.834 14.499 -21.501s5.66602 -22.667 6.99902 -39s2 -38.5 2 -66.5z" />
    <glyph glyph-name="equal" unicode="=" horiz-adv-x="1020" 
d="M934 779c0 -35.333 -3.83301 -60.333 -11.5 -75s-18.5 -22 -32.5 -22h-763c-14 0 -24.833 7.33301 -32.5 22s-11.5 39.667 -11.5 75c0 34 3.5 58.333 10.5 73s18.167 22 33.5 22h763c15.333 0 26.5 -7.33301 33.5 -22s10.5 -39 10.5 -73zM934 375
c0 -36 -3.83301 -61 -11.5 -75s-18.5 -21 -32.5 -21h-763c-14 0 -24.833 7 -32.5 21s-11.5 39 -11.5 75c0 34 3.5 58.5 10.5 73.5s18.167 22.5 33.5 22.5h763c15.333 0 26.5 -7.5 33.5 -22.5s10.5 -39.5 10.5 -73.5z" />
    <glyph glyph-name="greater" unicode="&#x3e;" horiz-adv-x="1020" 
d="M950 575c0 -17.333 -0.668945 -32.332 -2.00195 -44.999s-3.16602 -23.334 -5.49902 -32.001s-5.33301 -15.5 -9 -20.5s-7.83398 -8.5 -12.501 -10.5l-767 -380c-9.33301 -4.66699 -17.333 -6.66699 -24 -6s-12.167 4.33398 -16.5 11.001s-7.33301 16.5 -9 29.5
s-2.5 29.5 -2.5 49.5c0 27.333 0.5 49 1.5 65s2.83301 28.667 5.5 38s6.33398 16.166 11.001 20.499s11 8.16602 19 11.499l576 270l-565 262c-10.667 4.66699 -19.167 9.33398 -25.5 14.001s-11.166 11.834 -14.499 21.501s-5.5 22.667 -6.5 39s-1.5 38.5 -1.5 66.5
c0 24.667 0.833008 44 2.5 58s4.66699 24 9 30s9.83301 8.66699 16.5 8s14.667 -3.33398 24 -8.00098l768 -383c8.66699 -4 15.5 -14.667 20.5 -32s7.5 -43 7.5 -77z" />
    <glyph glyph-name="question" unicode="?" horiz-adv-x="949" 
d="M866 988c0 -54.667 -7.83691 -104.001 -23.5039 -148.001s-37.667 -82 -66 -114s-62.333 -57.667 -102 -77s-83.5 -31.666 -131.5 -36.999l-8 -195c-0.666992 -12 -10.167 -21 -28.5 -27s-44.833 -9 -79.5 -9c-22 0 -40.5 0.5 -55.5 1.5s-26.833 2.83301 -35.5 5.5
s-15 6.33398 -19 11.001s-6.33301 10.667 -7 18l-9 236c-0.666992 21.333 0.333008 38.666 3 51.999s7.5 24 14.5 32s15.833 13.5 26.5 16.5s23.334 4.5 38.001 4.5h14c35.333 0 65.833 5.66699 91.5 17s46.834 26.333 63.501 45s28.834 40.667 36.501 66
s11.5 52.333 11.5 81c0 32 -4.5 61.333 -13.5 88s-22.667 49.667 -41 69s-41.333 34.166 -69 44.499s-60.167 15.5 -97.5 15.5c-34 0 -64 -3.33301 -90 -10s-48.333 -14 -67 -22s-34.167 -15.333 -46.5 -22s-21.833 -10 -28.5 -10c-4.66699 0 -9 1.5 -13 4.5
s-7.33301 8.5 -10 16.5s-4.83398 19.333 -6.50098 34s-2.5 33.334 -2.5 56.001c0 23.333 1 40.333 3 51s6.33301 19.334 13 26.001s19.334 14.5 38.001 23.5s41 17.333 67 25s55 14.167 87 19.5s65.333 8 100 8c78.667 0 146 -10.833 202 -32.5
s101.833 -50.834 137.5 -87.501s61.834 -78.667 78.501 -126s25 -97.333 25 -150zM569.996 130.999c0 -27.333 -2.16699 -50.333 -6.5 -69s-12 -33.667 -23 -45s-25.667 -19.5 -44 -24.5s-40.833 -7.5 -67.5 -7.5c-28 0 -51 2.5 -69 7.5s-32.5 13.167 -43.5 24.5
s-18.667 26.333 -23 45s-6.5 41.667 -6.5 69c0 28 2.16699 51.5 6.5 70.5s12 34.333 23 46s25.5 20 43.5 25s41 7.5 69 7.5c26.667 0 49.167 -2.5 67.5 -7.5s33 -13.333 44 -25s18.667 -27 23 -46s6.5 -42.5 6.5 -70.5z" />
    <glyph glyph-name="at" unicode="@" horiz-adv-x="1840" 
d="M1711 769c0 -48.667 -3.3291 -97.8301 -9.99609 -147.497s-17.5 -97.334 -32.5 -143.001s-34.167 -88.5 -57.5 -128.5s-51.5 -74.667 -84.5 -104s-71.167 -52.5 -114.5 -69.5s-92.333 -25.5 -147 -25.5c-32.667 0 -62.334 3.16699 -89.001 9.5s-50 15.666 -70 27.999
s-36.5 27.666 -49.5 45.999s-22.833 39.5 -29.5 63.5c-26 -26.667 -51.5 -49.167 -76.5 -67.5s-49.667 -33.5 -74 -45.5s-48.5 -20.667 -72.5 -26s-48.333 -8 -73 -8c-31.333 0 -59 3.83301 -83 11.5s-44.833 18.167 -62.5 31.5s-32.334 28.833 -44.001 46.5
s-21.167 37.167 -28.5 58.5s-12.5 43.666 -15.5 66.999s-4.5 47 -4.5 71c0 31.333 2.5 66.333 7.5 105s13.333 78.167 25 118.5s27.167 79.333 46.5 117s43.333 71.334 72 101.001s62.167 53.5 100.5 71.5s82.5 27 132.5 27c22.667 0 43.667 -2.33301 63 -7s38 -12 56 -22
s35.5 -23 52.5 -39s34.833 -35.667 53.5 -59l17 77c2.66699 12 10.834 21 24.501 27s37.834 9 72.501 9c17.333 0 31.833 -0.833008 43.5 -2.5s20.834 -4 27.501 -7s11 -6.66699 13 -11s2.66699 -9.5 2 -15.5l-86 -447c-9.33301 -49.333 -7.83301 -85.5 4.5 -108.5
s36.5 -34.5 72.5 -34.5c23.333 0 44.666 6.33301 63.999 19s36.166 29.834 50.499 51.501s26.5 46.667 36.5 75s18.167 58 24.5 89s11 62.333 14 94s4.5 62.167 4.5 91.5c0 53.333 -7.33301 103.833 -22 151.5s-40.5 89.667 -77.5 126s-87 65 -150 86
s-143.167 31.5 -240.5 31.5c-65.333 0 -124.833 -6.5 -178.5 -19.5s-101.834 -31 -144.501 -54s-80.667 -50.167 -114 -81.5s-62.333 -65.5 -87 -102.5s-45.5 -76.333 -62.5 -118s-30.5 -83.834 -40.5 -126.501s-17.333 -85.334 -22 -128.001s-7 -84 -7 -124
c0 -72.667 8 -137.667 24 -195s43.667 -106 83 -146s91.833 -70.5 157.5 -91.5s147.834 -31.5 246.501 -31.5c51.333 0 98.166 3 140.499 9s79.333 12.333 111 19s57.5 13 77.5 19s33.667 9 41 9c4.66699 0 8.66699 -1.16699 12 -3.5s6 -6.83301 8 -13.5
s3.5 -15.667 4.5 -27s1.5 -25.666 1.5 -42.999c0 -14.667 -0.333008 -27 -1 -37s-1.83398 -18.5 -3.50098 -25.5s-3.83398 -13 -6.50098 -18s-6 -9.33301 -10 -13s-16.5 -9.16699 -37.5 -16.5s-49 -14.5 -84 -21.5s-76 -13.167 -123 -18.5s-98.5 -8 -154.5 -8
c-126.667 0 -234.667 14.5 -324 43.5s-162.5 71 -219.5 126s-98.667 121.667 -125 200s-39.5 166.5 -39.5 264.5c0 54.667 3.83301 110.334 11.5 167.001s19.5 112.667 35.5 168s36.833 109.166 62.5 161.499s56.167 101.833 91.5 148.5s76.166 89.5 122.499 128.5
s98.333 72.5 156 100.5s121.334 49.667 191.001 65s146.167 23 229.5 23c122 0 226.5 -13.667 313.5 -41s158.5 -66 214.5 -116s97.167 -110.167 123.5 -180.5s39.5 -148.5 39.5 -234.5zM1039 680.004c-20 36.667 -40.8359 64.332 -62.5029 82.999s-46.167 28 -73.5 28
c-23.333 0 -44.166 -5.5 -62.499 -16.5s-34.5 -25.667 -48.5 -44s-25.833 -39 -35.5 -62s-17.667 -46.5 -24 -70.5s-10.833 -47.5 -13.5 -70.5s-4 -43.167 -4 -60.5c0 -40 7.33301 -71.667 22 -95s39.334 -35 74.001 -35c12.667 0 25.834 2.16699 39.501 6.5
s28 11.333 43 21s31 22.334 48 38.001s35.833 34.5 56.5 56.5zM0.000976562 1294z" />
    <glyph glyph-name="A" unicode="A" horiz-adv-x="1241" 
d="M1201 98c8 -24 13.0029 -43.001 15.0029 -57.001s-0.666992 -24.5 -8 -31.5s-20.333 -11.333 -39 -13s-44.334 -2.5 -77.001 -2.5c-34 0 -60.5 0.5 -79.5 1.5s-33.5 3 -43.5 6s-17 7.16699 -21 12.5s-7.33301 12.333 -10 21l-87 260h-486l-82 -253
c-2.66699 -9.33301 -6.16699 -17.166 -10.5 -23.499s-11.333 -11.333 -21 -15s-23.334 -6.16699 -41.001 -7.5s-40.834 -2 -69.501 -2c-30.667 0 -54.667 1 -72 3s-29.333 6.83301 -36 14.5s-9 18.5 -7 32.5s7 32.667 15 56l399 1148c4 11.333 8.66699 20.5 14 27.5
s13.833 12.333 25.5 16s27.834 6 48.501 7s48 1.5 82 1.5c39.333 0 70.666 -0.5 93.999 -1.5s41.5 -3.33301 54.5 -7s22.333 -9.16699 28 -16.5s10.5 -17.333 14.5 -30zM607.003 1047h-1l-183 -550h367z" />
    <glyph glyph-name="B" unicode="B" horiz-adv-x="1148" 
d="M1078 388c0 -46 -6.33496 -87.666 -19.002 -124.999s-30.167 -70.333 -52.5 -99s-49 -53.334 -80 -74.001s-65.167 -37.667 -102.5 -51s-77.166 -23.166 -119.499 -29.499s-89.5 -9.5 -141.5 -9.5h-344c-22 0 -40.5 6.5 -55.5 19.5s-22.5 34.167 -22.5 63.5v1128
c0 29.333 7.5 50.5 22.5 63.5s33.5 19.5 55.5 19.5h325c79.333 0 146.5 -6.66699 201.5 -20s101.333 -33.5 139 -60.5s66.5 -61.167 86.5 -102.5s30 -90 30 -146c0 -31.333 -4 -60.833 -12 -88.5s-19.667 -52.834 -35 -75.501s-34.166 -42.667 -56.499 -60
s-47.833 -31.333 -76.5 -42c36.667 -6.66699 70.5 -18.334 101.5 -35.001s58 -38.167 81 -64.5s41.167 -57.166 54.5 -92.499s20 -75 20 -119zM737.998 933.001c0 26 -4 49.332 -12 69.999s-20 37.834 -36 51.501s-36.167 24.167 -60.5 31.5s-56.833 11 -97.5 11h-133v-336
h147c38 0 68.333 4.5 91 13.5s41.5 21.333 56.5 37s26.167 34 33.5 55s11 43.167 11 66.5zM804.998 379c0 30 -4.99902 56.833 -14.999 80.5s-24.667 43.5 -44 59.5s-44 28.333 -74 37s-69 13 -117 13h-156v-368h190c36.667 0 67.5 3.83301 92.5 11.5s46.667 19 65 34
s32.666 33.667 42.999 56s15.5 47.833 15.5 76.5z" />
    <glyph glyph-name="C" unicode="C" horiz-adv-x="1084" 
d="M1036 196c0 -16.667 -0.505859 -30.8301 -1.50586 -42.4971s-2.5 -21.667 -4.5 -30s-4.66699 -15.5 -8 -21.5s-8.66602 -12.833 -15.999 -20.5s-21.5 -17.5 -42.5 -29.5s-46.667 -23.5 -77 -34.5s-65 -20.167 -104 -27.5s-81.167 -11 -126.5 -11
c-88.667 0 -168.667 13.667 -240 41s-132 68.166 -182 122.499s-88.333 122.166 -115 203.499s-40 176 -40 284c0 110 14.667 207.667 44 293s70.333 157 123 215s115.834 102 189.501 132s154.834 45 243.501 45c36 0 70.667 -3 104 -9s64.166 -13.833 92.499 -23.5
s53.833 -20.834 76.5 -33.501s38.5 -23.5 47.5 -32.5s15.167 -16.5 18.5 -22.5s6 -13.667 8 -23s3.5 -20.333 4.5 -33s1.5 -28.334 1.5 -47.001c0 -20 -0.666992 -37 -2 -51s-3.66602 -25.333 -6.99902 -34s-7.33301 -15 -12 -19s-10 -6 -16 -6
c-10 0 -22.667 5.83301 -38 17.5s-35.166 24.667 -59.499 39s-53.333 27.333 -87 39s-73.834 17.5 -120.501 17.5c-51.333 0 -97.166 -10.5 -137.499 -31.5s-74.666 -51 -102.999 -90s-49.833 -86.167 -64.5 -141.5s-22 -117.666 -22 -186.999
c0 -76 7.83301 -141.833 23.5 -197.5s38 -101.5 67 -137.5s64 -62.833 105 -80.5s87.167 -26.5 138.5 -26.5c46.667 0 87 5.5 121 16.5s63.167 23.167 87.5 36.5s44.333 25.333 60 36s27.834 16 36.501 16c6.66699 0 12 -1.33301 16 -4s7.33301 -8 10 -16
s4.66699 -19.167 6 -33.5s2 -33.5 2 -57.5z" />
    <glyph glyph-name="D" unicode="D" horiz-adv-x="1291" 
d="M1216 666c0 -118.667 -15.499 -220.168 -46.499 -304.501s-75.5 -153.166 -133.5 -206.499s-128.5 -92.5 -211.5 -117.5s-181.833 -37.5 -296.5 -37.5h-309c-22 0 -40.5 6.5 -55.5 19.5s-22.5 34.167 -22.5 63.5v1128c0 29.333 7.5 50.5 22.5 63.5s33.5 19.5 55.5 19.5
h332c115.333 0 213.166 -13.5 293.499 -40.5s148 -67 203 -120s96.833 -118.5 125.5 -196.5s43 -168.333 43 -271zM944.001 656.999c0 61.333 -7.16504 118.33 -21.498 170.997s-37.333 98.334 -69 137.001s-72.334 68.834 -122.001 90.501s-114.834 32.5 -195.501 32.5
h-133v-880h137c72 0 132.667 9.33301 182 28s90.5 46.834 123.5 84.501s57.667 84.5 74 140.5s24.5 121.333 24.5 196z" />
    <glyph glyph-name="E" unicode="E" horiz-adv-x="999" 
d="M908 103c0 -19.333 -0.833008 -35.499 -2.5 -48.499s-4.16699 -23.5 -7.5 -31.5s-7.5 -13.833 -12.5 -17.5s-10.5 -5.5 -16.5 -5.5h-650c-22 0 -40.5 6.5 -55.5 19.5s-22.5 34.167 -22.5 63.5v1128c0 29.333 7.5 50.5 22.5 63.5s33.5 19.5 55.5 19.5h646
c6 0 11.333 -1.66699 16 -5s8.66699 -9.16602 12 -17.499s5.83301 -19 7.5 -32s2.5 -29.5 2.5 -49.5c0 -18.667 -0.833008 -34.5 -2.5 -47.5s-4.16699 -23.5 -7.5 -31.5s-7.33301 -13.833 -12 -17.5s-10 -5.5 -16 -5.5h-462v-316h391c6 0 11.5 -1.83301 16.5 -5.5
s9.16699 -9.33398 12.5 -17.001s5.83301 -18 7.5 -31s2.5 -28.833 2.5 -47.5c0 -19.333 -0.833008 -35.333 -2.5 -48s-4.16699 -22.834 -7.5 -30.501s-7.5 -13.167 -12.5 -16.5s-10.5 -5 -16.5 -5h-391v-365h466c6 0 11.5 -1.83301 16.5 -5.5s9.16699 -9.5 12.5 -17.5
s5.83301 -18.5 7.5 -31.5s2.5 -29.167 2.5 -48.5z" />
    <glyph glyph-name="F" unicode="F" horiz-adv-x="940" 
d="M867 1186c0 -20 -0.833008 -36.832 -2.5 -50.499s-4.33398 -24.5 -8.00098 -32.5s-7.83398 -14 -12.501 -18s-10 -6 -16 -6h-423v-348h397c6 0 11.333 -1.66699 16 -5s8.83398 -9 12.501 -17s6.33398 -18.667 8.00098 -32s2.5 -30 2.5 -50s-0.833008 -36.667 -2.5 -50
s-4.33398 -24.333 -8.00098 -33s-7.83398 -14.834 -12.501 -18.501s-10 -5.5 -16 -5.5h-397v-482c0 -7.33301 -2 -13.666 -6 -18.999s-11.167 -9.83301 -21.5 -13.5s-23.833 -6.5 -40.5 -8.5s-38 -3 -64 -3c-25.333 0 -46.5 1 -63.5 3s-30.5 4.83301 -40.5 8.5
s-17.167 8.16699 -21.5 13.5s-6.5 11.666 -6.5 18.999v1173c0 29.333 7.5 50.5 22.5 63.5s33.5 19.5 55.5 19.5h609c6 0 11.333 -1.83301 16 -5.5s8.83398 -9.66699 12.501 -18s6.33398 -19.5 8.00098 -33.5s2.5 -31 2.5 -51z" />
    <glyph glyph-name="G" unicode="G" horiz-adv-x="1305" 
d="M1179 1093c0 -19.333 -0.830078 -36.0039 -2.49707 -50.0039s-4 -25.167 -7 -33.5s-6.66699 -14.166 -11 -17.499s-9.5 -5 -15.5 -5c-8.66699 0 -22.667 6 -42 18s-45 25 -77 39s-70.167 27 -114.5 39s-95.833 18 -154.5 18c-62.667 0 -119.334 -10.833 -170.001 -32.5
s-94 -52.334 -130 -92.001s-63.667 -87.334 -83 -143.001s-29 -117.167 -29 -184.5c0 -74 9.83301 -139.167 29.5 -195.5s47.167 -103.5 82.5 -141.5s77.833 -66.667 127.5 -86s104.5 -29 164.5 -29c29.333 0 58.333 3.33301 87 10s55.334 16.667 80.001 30v300h-245
c-12 0 -21.333 7.5 -28 22.5s-10 40.5 -10 76.5c0 18.667 0.833008 34.334 2.5 47.001s4.16699 22.834 7.5 30.501s7.33301 13.334 12 17.001s10 5.5 16 5.5h437c10.667 0 20.167 -1.83301 28.5 -5.5s15.666 -9.16699 21.999 -16.5s11.166 -16.166 14.499 -26.499
s5 -22.166 5 -35.499v-515c0 -20 -3.5 -37.5 -10.5 -52.5s-21.333 -26.833 -43 -35.5s-48.5 -17.667 -80.5 -27s-65.167 -17.333 -99.5 -24s-69 -11.667 -104 -15s-70.167 -5 -105.5 -5c-103.333 0 -195.833 14.833 -277.5 44.5s-150.834 72.667 -207.501 129
s-100 125 -130 206s-45 172.833 -45 275.5c0 106 16 201.167 48 285.5s77.333 156 136 215s129.5 104.167 212.5 135.5s175.5 47 277.5 47c56 0 107 -3.83301 153 -11.5s86.167 -17 120.5 -28s62.833 -22.833 85.5 -35.5s38.5 -23.667 47.5 -33s15.5 -22.5 19.5 -39.5
s6 -42.167 6 -75.5z" />
    <glyph glyph-name="H" unicode="H" horiz-adv-x="1292" 
d="M1151 36c0 -6.66699 -2.16699 -12.667 -6.5 -18s-11.5 -9.66602 -21.5 -12.999s-23.333 -6 -40 -8s-37.667 -3 -63 -3c-26 0 -47.5 1 -64.5 3s-30.333 4.66699 -40 8s-16.667 7.66602 -21 12.999s-6.5 11.333 -6.5 18v523h-484v-523c0 -6.66699 -2 -12.667 -6 -18
s-11 -9.66602 -21 -12.999s-23.333 -6 -40 -8s-38 -3 -64 -3c-25.333 0 -46.5 1 -63.5 3s-30.5 4.66699 -40.5 8s-17.167 7.66602 -21.5 12.999s-6.5 11.333 -6.5 18v1222c0 6.66699 2.16699 12.667 6.5 18s11.5 9.66602 21.5 12.999s23.5 6 40.5 8s38.167 3 63.5 3
c26 0 47.333 -1 64 -3s30 -4.66699 40 -8s17 -7.66602 21 -12.999s6 -11.333 6 -18v-475h484v475c0 6.66699 2.16699 12.667 6.5 18s11.333 9.66602 21 12.999s23 6 40 8s38.5 3 64.5 3c25.333 0 46.333 -1 63 -3s30 -4.66699 40 -8s17.167 -7.66602 21.5 -12.999
s6.5 -11.333 6.5 -18v-1222z" />
    <glyph glyph-name="I" unicode="I" horiz-adv-x="546" 
d="M405 36c0 -6.66699 -2.16602 -12.667 -6.49902 -18s-11.5 -9.66602 -21.5 -12.999s-23.333 -6 -40 -8s-38 -3 -64 -3c-25.333 0 -46.5 1 -63.5 3s-30.5 4.66699 -40.5 8s-17.167 7.66602 -21.5 12.999s-6.5 11.333 -6.5 18v1222c0 6.66699 2.16699 12.667 6.5 18
s11.666 9.66602 21.999 12.999s23.833 6 40.5 8s37.667 3 63 3c26 0 47.333 -1 64 -3s30 -4.66699 40 -8s17.167 -7.66602 21.5 -12.999s6.5 -11.333 6.5 -18v-1222z" />
    <glyph glyph-name="J" unicode="J" horiz-adv-x="678" 
d="M539 360c0 -58.667 -5.49609 -111.501 -16.4961 -158.501s-29.667 -87 -56 -120s-60.833 -58.167 -103.5 -75.5s-95.334 -26 -158.001 -26c-20 0 -39.833 1.5 -59.5 4.5s-37.667 6.83301 -54 11.5s-30.5 9.66699 -42.5 15s-20 10.166 -24 14.499
s-7.33301 8.83301 -10 13.5s-5 10.834 -7 18.501s-3.33301 17.167 -4 28.5s-1 25.666 -1 42.999c0 22.667 0.5 41.834 1.5 57.501s2.66699 28 5 37s5.66602 15.333 9.99902 19s9.83301 5.5 16.5 5.5c6 0 13 -2.16699 21 -6.5s17 -8.83301 27 -13.5s21.667 -9.16699 35 -13.5
s29 -6.5 47 -6.5s33.833 2.5 47.5 7.5s25 13.667 34 26s15.833 28.833 20.5 49.5s7 47.334 7 80.001v889c0 6.66699 2.16699 12.5 6.5 17.5s11.333 9.16699 21 12.5s23.167 5.83301 40.5 7.5s38.666 2.5 63.999 2.5s46.333 -0.833008 63 -2.5s30.167 -4.16699 40.5 -7.5
s17.666 -7.5 21.999 -12.5s6.5 -10.833 6.5 -17.5v-900z" />
    <glyph glyph-name="K" unicode="K" horiz-adv-x="1120" 
d="M1086 39c0 -7.33301 -1.83496 -13.832 -5.50195 -19.499s-10.667 -10.334 -21 -14.001s-24.5 -6.5 -42.5 -8.5s-40.667 -3 -68 -3c-43.333 0 -74.5 1.66699 -93.5 5s-32.667 8.33301 -41 15s-14.833 14.667 -19.5 24l-391 614v-614c0 -7.33301 -2 -13.666 -6 -18.999
s-11 -9.83301 -21 -13.5s-23.333 -6.5 -40 -8.5s-38 -3 -64 -3c-25.333 0 -46.5 1 -63.5 3s-30.5 4.83301 -40.5 8.5s-17.167 8.16699 -21.5 13.5s-6.5 11.666 -6.5 18.999v1219c0 7.33301 2.16699 13.666 6.5 18.999s11.5 9.66602 21.5 12.999s23.5 6 40.5 8
s38.167 3 63.5 3c26 0 47.333 -1 64 -3s30 -4.66699 40 -8s17 -7.66602 21 -12.999s6 -11.666 6 -18.999v-551l379 550c4.66699 8.66699 10.334 15.834 17.001 21.501s15.334 10.167 26.001 13.5s24.334 5.66602 41.001 6.99902s38 2 64 2c26.667 0 48.667 -1 66 -3
s31.166 -4.83301 41.499 -8.5s17.5 -8.16699 21.5 -13.5s6 -11.333 6 -18c0 -11.333 -3 -23 -9 -35s-17.333 -31 -34 -57l-355 -465l387 -585c14.667 -27.333 23.5 -45.5 26.5 -54.5s4.5 -16.167 4.5 -21.5z" />
    <glyph glyph-name="L" unicode="L" horiz-adv-x="866" 
d="M852 110c0 -20 -0.833008 -36.833 -2.5 -50.5s-4.16699 -25 -7.5 -34s-7.5 -15.5 -12.5 -19.5s-10.833 -6 -17.5 -6h-593c-22 0 -40.5 6.5 -55.5 19.5s-22.5 34.167 -22.5 63.5v1175c0 6.66699 2.16699 12.667 6.5 18s11.5 9.66602 21.5 12.999s23.5 6 40.5 8
s38.167 3 63.5 3c26 0 47.333 -1 64 -3s30 -4.66699 40 -8s17.167 -7.66602 21.5 -12.999s6.5 -11.333 6.5 -18v-1041h407c6.66699 0 12.5 -1.83301 17.5 -5.5s9.16699 -9.66699 12.5 -18s5.83301 -19.333 7.5 -33s2.5 -30.5 2.5 -50.5z" />
    <glyph glyph-name="M" unicode="M" horiz-adv-x="1790" 
d="M1649 36c0 -6.66699 -1.83105 -12.666 -5.49805 -17.999s-10.334 -9.66602 -20.001 -12.999s-22.5 -6 -38.5 -8s-36.333 -3 -61 -3c-24 0 -44 1 -60 3s-28.667 4.66699 -38 8s-16 7.66602 -20 12.999s-6 11.333 -6 18v1053h-2l-375 -1052
c-2.66699 -8.66699 -7 -15.834 -13 -21.501s-14.167 -10.167 -24.5 -13.5s-23.5 -5.5 -39.5 -6.5s-35.333 -1.5 -58 -1.5s-42 0.833008 -58 2.5s-29.167 4.33398 -39.5 8.00098s-18.5 8.16699 -24.5 13.5s-10 11.666 -12 18.999l-362 1052h-2v-1053
c0 -6.66699 -1.83301 -12.667 -5.5 -18s-10.5 -9.66602 -20.5 -12.999s-22.833 -6 -38.5 -8s-35.834 -3 -60.501 -3c-24 0 -44 1 -60 3s-28.833 4.66699 -38.5 8s-16.334 7.66602 -20.001 12.999s-5.5 11.333 -5.5 18v1153c0 34 9 60 27 78s42 27 72 27h172
c30.667 0 57 -2.5 79 -7.5s41 -13.333 57 -25s29.333 -27 40 -46s20 -42.5 28 -70.5l280 -771h4l290 769c8.66699 28 18.167 51.667 28.5 71s22.333 35 36 47s29.834 20.5 48.501 25.5s40.334 7.5 65.001 7.5h177c18 0 33.5 -2.33301 46.5 -7s23.667 -11.5 32 -20.5
s14.666 -20 18.999 -33s6.5 -27.833 6.5 -44.5v-1153z" />
    <glyph glyph-name="N" unicode="N" horiz-adv-x="1349" 
d="M1208 92c0 -15.333 -2.66602 -29 -7.99902 -41s-12.5 -22 -21.5 -30s-19.667 -13.833 -32 -17.5s-24.833 -5.5 -37.5 -5.5h-112c-23.333 0 -43.5 2.33301 -60.5 7s-32.667 13.167 -47 25.5s-28.166 29 -41.499 50s-28.333 48.167 -45 81.5l-322 605
c-18.667 36 -37.667 74.833 -57 116.5s-36.666 82.167 -51.999 121.5h-2c2.66699 -48 4.66699 -95.833 6 -143.5s2 -96.834 2 -147.501v-677c0 -6.66699 -1.83301 -12.667 -5.5 -18s-10 -9.83301 -19 -13.5s-21.167 -6.5 -36.5 -8.5s-35 -3 -59 -3
c-23.333 0 -42.666 1 -57.999 3s-27.333 4.83301 -36 8.5s-14.667 8.16699 -18 13.5s-5 11.333 -5 18v1163c0 31.333 9.16699 54.833 27.5 70.5s40.833 23.5 67.5 23.5h141c25.333 0 46.666 -2.16699 63.999 -6.5s32.833 -11.5 46.5 -21.5s26.5 -23.833 38.5 -41.5
s24.333 -39.5 37 -65.5l252 -473l43.5 -84.5l41.5 -83l39 -81.5l37 -80h1c-2 46.667 -3.5 95.334 -4.5 146.001s-1.5 99 -1.5 145v607c0 6.66699 2 12.667 6 18s10.667 10 20 14s21.666 6.83301 36.999 8.5s35 2.5 59 2.5c22.667 0 41.667 -0.833008 57 -2.5
s27.166 -4.5 35.499 -8.5s14.166 -8.66699 17.499 -14s5 -11.333 5 -18v-1163z" />
    <glyph glyph-name="O" unicode="O" horiz-adv-x="1385" 
d="M1305 662c0 -107.333 -13.334 -203.335 -40.001 -288.002s-66.334 -156.5 -119.001 -215.5s-117.834 -104 -195.501 -135s-167.5 -46.5 -269.5 -46.5c-100.667 0 -188.5 13.167 -263.5 39.5s-137.5 66.5 -187.5 120.5s-87.5 122.667 -112.5 206s-37.5 182 -37.5 296
c0 104.667 13.333 198.834 40 282.501s66.334 154.834 119.001 213.501s117.834 103.667 195.501 135s167.834 47 270.501 47c98 0 184.5 -13 259.5 -39s137.667 -66 188 -120s88.333 -122.167 114 -204.5s38.5 -179.5 38.5 -291.5zM1029 647.998
c0 68 -5.33203 129.831 -15.999 185.498s-28.834 103.334 -54.501 143.001s-59.834 70.334 -102.501 92.001s-96 32.5 -160 32.5c-64.667 0 -118.667 -12.167 -162 -36.5s-78.333 -56.833 -105 -97.5s-45.5 -88.167 -56.5 -142.5s-16.5 -111.833 -16.5 -172.5
c0 -70.667 5.33301 -134.167 16 -190.5s28.667 -104.5 54 -144.5s59.333 -70.5 102 -91.5s96.334 -31.5 161.001 -31.5s118.667 12 162 36s78.333 56.667 105 98s45.5 89.5 56.5 144.5s16.5 113.5 16.5 175.5z" />
    <glyph glyph-name="P" unicode="P" horiz-adv-x="1090" 
d="M1027 901c0 -72.667 -11.3359 -136.998 -34.0029 -192.998s-55.667 -103.167 -99 -141.5s-96.5 -67.5 -159.5 -87.5s-137.167 -30 -222.5 -30h-108v-413c0 -6.66699 -2.16699 -12.667 -6.5 -18s-11.5 -9.66602 -21.5 -12.999s-23.333 -6 -40 -8s-38 -3 -64 -3
c-25.333 0 -46.5 1 -63.5 3s-30.5 4.66699 -40.5 8s-17 7.66602 -21 12.999s-6 11.333 -6 18v1164c0 31.333 8.16699 54.833 24.5 70.5s37.833 23.5 64.5 23.5h305c30.667 0 59.834 -1.16699 87.501 -3.5s60.834 -7.33301 99.501 -15s77.834 -21.834 117.501 -42.501
s73.5 -46.834 101.5 -78.501s49.333 -68.667 64 -111s22 -89.833 22 -142.5zM751.997 882.002c0 45.333 -8 82.6699 -24 112.003s-35.667 51 -59 65s-47.833 22.833 -73.5 26.5s-52.167 5.5 -79.5 5.5h-112v-439h118c42 0 77.167 5.66699 105.5 17s51.5 27.166 69.5 47.499
s31.667 44.666 41 72.999s14 59.166 14 92.499z" />
    <glyph glyph-name="Q" unicode="Q" horiz-adv-x="1405" 
d="M1427 -123c0 -24 -1.16797 -43.333 -3.50098 -58s-5.5 -26 -9.5 -34s-8.33301 -13.167 -13 -15.5s-9.66699 -3.5 -15 -3.5c-22 0 -50.833 6 -86.5 18s-74.167 29.167 -115.5 51.5s-83.5 49.666 -126.5 81.999s-82.833 69.5 -119.5 111.5
c-30.667 -14 -67.834 -26.167 -111.501 -36.5s-92.167 -15.5 -145.5 -15.5c-100.667 0 -188.5 12.833 -263.5 38.5s-137.5 65.5 -187.5 119.5s-87.5 122.833 -112.5 206.5s-37.5 183.167 -37.5 298.5c0 104.667 13.333 198.834 40 282.501s66.334 154.667 119.001 213
s117.834 103.166 195.501 134.499s167.834 47 270.501 47c96.667 0 182.167 -13 256.5 -39s137 -65.833 188 -119.5s89.667 -121.5 116 -203.5s39.5 -179 39.5 -291c0 -58 -3.83301 -112.5 -11.5 -163.5s-18.834 -98.167 -33.501 -141.5s-32.667 -83 -54 -119
s-45.666 -67.667 -72.999 -95c41.333 -36 78 -63.333 110 -82s58.833 -32.667 80.5 -42s39 -16.166 52 -20.499s23.167 -10 30.5 -17s12.666 -19 15.999 -36s5 -40.5 5 -70.5zM1029 650c0 67.333 -5.33203 128.667 -15.999 184s-28.834 102.833 -54.501 142.5
s-59.834 70.334 -102.501 92.001s-96 32.5 -160 32.5c-64.667 0 -118.667 -12 -162 -36s-78.333 -56.333 -105 -97s-45.5 -88.167 -56.5 -142.5s-16.5 -111.5 -16.5 -171.5c0 -71.333 5.33301 -135.333 16 -192s28.667 -105 54 -145s59.333 -70.5 102 -91.5
s96.334 -31.5 161.001 -31.5s118.667 12 162 36s78.333 56.667 105 98s45.5 89.666 56.5 144.999s16.5 114.333 16.5 177z" />
    <glyph glyph-name="R" unicode="R" horiz-adv-x="1153" 
d="M1101 34c0 -7.33301 -1.33594 -13.501 -4.00293 -18.501s-9 -9.16699 -19 -12.5s-24.667 -5.66602 -44 -6.99902s-45.666 -2 -78.999 -2c-28 0 -50.333 0.666992 -67 2s-29.834 3.83301 -39.501 7.5s-16.5 8.33398 -20.5 14.001s-7.33301 12.5 -10 20.5l-116 289
c-14 32.667 -27.667 61.667 -41 87s-28.166 46.5 -44.499 63.5s-35.166 29.833 -56.499 38.5s-46 13 -74 13h-82v-493c0 -6.66699 -2.16699 -12.667 -6.5 -18s-11.5 -9.66602 -21.5 -12.999s-23.333 -6 -40 -8s-38 -3 -64 -3c-25.333 0 -46.5 1 -63.5 3
s-30.5 4.66699 -40.5 8s-17 7.66602 -21 12.999s-6 11.333 -6 18v1175c0 29.333 7.5 50.5 22.5 63.5s33.5 19.5 55.5 19.5h335c34 0 62 -0.666992 84 -2s42 -3 60 -5c52 -7.33301 98.833 -20 140.5 -38s77 -41.5 106 -70.5s51.167 -63.333 66.5 -103s23 -85.167 23 -136.5
c0 -43.333 -5.5 -82.833 -16.5 -118.5s-27.167 -67.5 -48.5 -95.5s-47.666 -52.333 -78.999 -73s-67 -37.334 -107 -50.001c19.333 -9.33301 37.5 -20.666 54.5 -33.999s33 -29.5 48 -48.5s29.167 -40.667 42.5 -65s26.333 -51.833 39 -82.5l109 -255
c10 -25.333 16.667 -43.833 20 -55.5s5 -20.834 5 -27.501zM761.997 911.999c0 42.667 -9.66699 78.667 -29 108s-51 50 -95 62c-13.333 3.33301 -28.5 6 -45.5 8s-40.5 3 -70.5 3h-118v-367h134c37.333 0 70 4.5 98 13.5s51.333 21.667 70 38s32.667 35.833 42 58.5
s14 48 14 76z" />
    <glyph glyph-name="S" unicode="S" horiz-adv-x="968" 
d="M908 388c0 -68 -12.6699 -127.669 -38.0029 -179.002s-59.666 -94.166 -102.999 -128.499s-94 -60.166 -152 -77.499s-120 -26 -186 -26c-44.667 0 -86.167 3.66699 -124.5 11s-72.166 16.166 -101.499 26.499s-53.833 21.166 -73.5 32.499s-33.834 21.333 -42.501 30
s-14.834 21.167 -18.501 37.5s-5.5 39.833 -5.5 70.5c0 20.667 0.666992 38 2 52s3.5 25.333 6.5 34s7 14.834 12 18.501s10.833 5.5 17.5 5.5c9.33301 0 22.5 -5.5 39.5 -16.5s38.833 -23.167 65.5 -36.5s58.5 -25.5 95.5 -36.5s79.833 -16.5 128.5 -16.5
c32 0 60.667 3.83301 86 11.5s46.833 18.5 64.5 32.5s31.167 31.333 40.5 52s14 43.667 14 69c0 29.333 -8 54.5 -24 75.5s-36.833 39.667 -62.5 56s-54.834 31.666 -87.501 45.999l-101 45.5c-34.667 16 -68.334 34.167 -101.001 54.5s-61.834 44.666 -87.501 72.999
s-46.5 61.833 -62.5 100.5s-24 85 -24 139c0 62 11.5 116.5 34.5 163.5s54 86 93 117s85 54.167 138 69.5s109.167 23 168.5 23c30.667 0 61.334 -2.33301 92.001 -7s59.334 -11 86.001 -19s50.334 -17 71.001 -27s34.334 -18.333 41.001 -25s11.167 -12.334 13.5 -17.001
s4.33301 -10.834 6 -18.501s2.83398 -17.334 3.50098 -29.001s1 -26.167 1 -43.5c0 -19.333 -0.5 -35.666 -1.5 -48.999s-2.66699 -24.333 -5 -33s-5.66602 -15 -9.99902 -19s-10.166 -6 -17.499 -6s-19 4.66699 -35 14s-35.667 19.5 -59 30.5s-50.333 21 -81 30
s-64.334 13.5 -101.001 13.5c-28.667 0 -53.667 -3.5 -75 -10.5s-39.166 -16.667 -53.499 -29s-25 -27.166 -32 -44.499s-10.5 -35.666 -10.5 -54.999c0 -28.667 7.83301 -53.5 23.5 -74.5s36.667 -39.667 63 -56s56.166 -31.666 89.499 -45.999l102 -45.5
c34.667 -16 68.667 -34.167 102 -54.5s63 -44.666 89 -72.999s47 -61.666 63 -99.999s24 -83.5 24 -135.5z" />
    <glyph glyph-name="T" unicode="T" horiz-adv-x="1014" 
d="M1002 1186c0 -19.333 -0.833008 -35.833 -2.5 -49.5s-4.16699 -24.667 -7.5 -33s-7.5 -14.5 -12.5 -18.5s-10.5 -6 -16.5 -6h-324v-1043c0 -6.66699 -2.16699 -12.667 -6.5 -18s-11.5 -9.66602 -21.5 -12.999s-23.5 -6 -40.5 -8s-38.167 -3 -63.5 -3s-46.5 1 -63.5 3
s-30.5 4.66699 -40.5 8s-17.167 7.66602 -21.5 12.999s-6.5 11.333 -6.5 18v1043h-324c-6.66699 0 -12.334 2 -17.001 6s-8.66699 10.167 -12 18.5s-5.83301 19.333 -7.5 33s-2.5 30.167 -2.5 49.5c0 20 0.833008 37 2.5 51s4.16699 25.167 7.5 33.5s7.33301 14.333 12 18
s10.334 5.5 17.001 5.5h912c6 0 11.5 -1.83301 16.5 -5.5s9.16699 -9.66699 12.5 -18s5.83301 -19.5 7.5 -33.5s2.5 -31 2.5 -51z" />
    <glyph glyph-name="U" unicode="U" horiz-adv-x="1337" 
d="M1197 482c0 -79.333 -11.666 -150.332 -34.999 -212.999s-57.666 -115.667 -102.999 -159s-101.333 -76.333 -168 -99s-143.334 -34 -230.001 -34c-81.333 0 -154.333 10.167 -219 30.5s-119.334 51.166 -164.001 92.499s-78.834 92.833 -102.501 154.5
s-35.5 133.834 -35.5 216.501v787c0 6.66699 2 12.667 6 18s11.167 9.66602 21.5 12.999s23.833 6 40.5 8s38 3 64 3c25.333 0 46.333 -1 63 -3s30 -4.66699 40 -8s17.167 -7.66602 21.5 -12.999s6.5 -11.333 6.5 -18v-764c0 -51.333 6.33301 -95.833 19 -133.5
s30.834 -68.834 54.501 -93.501s52 -43.167 85 -55.5s69.833 -18.5 110.5 -18.5c41.333 0 78.333 6.33301 111 19s60.334 31.167 83.001 55.5s40.167 54.333 52.5 90s18.5 76.167 18.5 121.5v779c0 6.66699 2 12.667 6 18s11 9.66602 21 12.999s23.5 6 40.5 8
s38.167 3 63.5 3s46.166 -1 62.499 -3s29.5 -4.66699 39.5 -8s17 -7.66602 21 -12.999s6 -11.333 6 -18v-776z" />
    <glyph glyph-name="V" unicode="V" horiz-adv-x="1211" 
d="M785 46c-3.33301 -11.333 -7.66602 -20.501 -12.999 -27.501s-14 -12.333 -26 -16s-28.333 -6 -49 -7s-47.667 -1.5 -81 -1.5c-26.667 0 -49.5 0.166992 -68.5 0.5s-35.167 1.16602 -48.5 2.49902s-24.166 3.33301 -32.499 6s-15.333 6 -21 10s-10 8.83301 -13 14.5
s-5.83301 12.834 -8.5 21.501l-385 1147c-8 24 -12.833 43 -14.5 57s1.66602 24.5 9.99902 31.5s22.5 11.333 42.5 13s48 2.5 84 2.5c30.667 0 54.667 -0.666992 72 -2s30.666 -3.66602 39.999 -6.99902s15.833 -8.33301 19.5 -15s7.16699 -15 10.5 -25l315 -998h1l309 993
c2.66699 11.333 6 20.5 10 27.5s10.833 12.5 20.5 16.5s23.5 6.66699 41.5 8s42.667 2 74 2c30.667 0 54.5 -1 71.5 -3s28.667 -6.83301 35 -14.5s8.33301 -18.5 6 -32.5s-7.5 -32.667 -15.5 -56z" />
    <glyph glyph-name="W" unicode="W" horiz-adv-x="1856" 
d="M1503 67c-4 -16 -9.49121 -28.8359 -16.4912 -38.5029s-17.5 -17 -31.5 -22s-32 -8.33301 -54 -10s-50 -2.5 -84 -2.5c-38 0 -68.5 0.833008 -91.5 2.5s-41.167 5 -54.5 10s-23 12.333 -29 22s-10.667 22.5 -14 38.5l-207 820h-2l-196 -820
c-3.33301 -15.333 -8 -27.833 -14 -37.5s-15.5 -17.167 -28.5 -22.5s-30.667 -8.83301 -53 -10.5s-51.833 -2.5 -88.5 -2.5c-38.667 0 -69.5 0.833008 -92.5 2.5s-41.167 5 -54.5 10s-23 12.333 -29 22s-11 22.5 -15 38.5l-294 1129c-6 24 -9.33301 42.833 -10 56.5
s3.16602 24.167 11.499 31.5s22 11.833 41 13.5s45.5 2.5 79.5 2.5c31.333 0 56.166 -0.5 74.499 -1.5s32.166 -3.33301 41.499 -7s15.666 -9 18.999 -16s6 -16.833 8 -29.5l227 -991h1l236 984c2.66699 12.667 6.16699 23 10.5 31s11.666 14.167 21.999 18.5
s24.5 7.33301 42.5 9s42 2.5 72 2.5c32 0 57.5 -0.666992 76.5 -2s33.667 -4.16602 44 -8.49902s17.833 -10.5 22.5 -18.5s8.33398 -18.667 11.001 -32l244 -984h2l227 988c2 10.667 4.66699 19.834 8 27.501s9.66602 13.667 18.999 18s22.666 7.33301 39.999 9
s41.666 2.5 72.999 2.5c29.333 0 52.166 -0.833008 68.499 -2.5s28.166 -6.16699 35.499 -13.5s10.5 -18.166 9.5 -32.499s-4.5 -33.833 -10.5 -58.5z" />
    <glyph glyph-name="X" unicode="X" horiz-adv-x="1128" 
d="M1063 99c12 -23.333 19.834 -42 23.501 -56s1.5 -24.667 -6.5 -32s-22.5 -12 -43.5 -14s-50.167 -3 -87.5 -3c-31.333 0 -56 0.666992 -74 2s-32.167 3.5 -42.5 6.5s-17.833 7.16699 -22.5 12.5s-8.66699 12 -12 20l-243 467l-242 -467c-4 -8 -8.33301 -14.667 -13 -20
s-12.167 -9.5 -22.5 -12.5s-24.666 -5.16699 -42.999 -6.5s-42.5 -2 -72.5 -2c-34.667 0 -61.5 1 -80.5 3s-31.833 6.66699 -38.5 14s-8 18 -4 32s12.333 32.667 25 56l310 565l-288 531c-12 24 -20.167 43.167 -24.5 57.5s-2.66602 25 5.00098 32s21.834 11.333 42.501 13
s50 2.5 88 2.5c31.333 0 56.166 -0.666992 74.499 -2s32.833 -3.5 43.5 -6.5s18.167 -7.16699 22.5 -12.5s8.5 -12 12.5 -20l227 -428l221 428c4 8 8.16699 14.667 12.5 20s11.333 9.5 21 12.5s23 5.16699 40 6.5s40.5 2 70.5 2c33.333 0 59.666 -0.833008 78.999 -2.5
s32.666 -6.16699 39.999 -13.5s9.16602 -18 5.49902 -32s-11.167 -33 -22.5 -57l-288 -528z" />
    <glyph glyph-name="Y" unicode="Y" horiz-adv-x="1064" 
d="M664 491l-0.000976562 -455.001c0 -6.66699 -2.16699 -12.667 -6.5 -18s-11.5 -9.66602 -21.5 -12.999s-23.5 -6 -40.5 -8s-38.167 -3 -63.5 -3c-26 0 -47.333 1 -64 3s-30.167 4.66699 -40.5 8s-17.5 7.66602 -21.5 12.999s-6 11.333 -6 18v455l-354 705
c-12.667 24.667 -20.834 43.834 -24.501 57.501s-1.66699 24 6 31s21.834 11.333 42.501 13s49.334 2.5 86.001 2.5c30.667 0 55.167 -0.666992 73.5 -2s32.833 -3.83301 43.5 -7.5s18.5 -8.5 23.5 -14.5s9.83301 -13.667 14.5 -23l144 -318c14 -30.667 27.833 -63 41.5 -97
l41.5 -107h2c12.667 36 25.667 71 39 105l39 97l142 316c3.33301 10.667 7.5 19.167 12.5 25.5s12.5 11.5 22.5 15.5s23.667 6.66699 41 8s40.333 2 69 2c38 0 67.5 -0.833008 88.5 -2.5s35.333 -6 43 -13s9.5 -17.5 5.5 -31.5s-12 -33 -24 -57z" />
    <glyph glyph-name="Z" unicode="Z" horiz-adv-x="979" 
d="M936 104c0 -19.333 -0.835938 -35.666 -2.50293 -48.999s-4.16699 -24.166 -7.5 -32.499s-7.5 -14.166 -12.5 -17.499s-10.5 -5 -16.5 -5h-763c-26.667 0 -47.167 7.66699 -61.5 23s-21.5 37.666 -21.5 66.999v44c0 13.333 0.833008 25.5 2.5 36.5s4.5 22.167 8.5 33.5
s9.83301 23.666 17.5 36.999l28.5 48l502 796h-498c-8 0 -14.833 1.83301 -20.5 5.5s-10.334 9.5 -14.001 17.5s-6.33398 18.667 -8.00098 32s-2.5 29.333 -2.5 48c0 20 0.833008 36.833 2.5 50.5s4.33398 24.667 8.00098 33s8.33398 14.166 14.001 17.499s12.5 5 20.5 5
h715c27.333 0 47.5 -7 60.5 -21s19.5 -33.667 19.5 -59v-49c0 -18 -0.833008 -33.5 -2.5 -46.5s-4.66699 -25.667 -9 -38s-10.166 -25 -17.499 -38s-16.666 -28.5 -27.999 -46.5l-494 -785h541c12.667 0 22.334 -8 29.001 -24s10 -43.667 10 -83z" />
    <glyph glyph-name="bracketleft" unicode="[" horiz-adv-x="665" 
d="M578 -248c0 -33.333 -3 -56.6719 -9 -70.0049s-14.667 -20 -26 -20h-309c-11.333 0 -21.666 1.66699 -30.999 5s-17.333 8.33301 -24 15s-12 15.334 -16 26.001s-6 23.334 -6 38.001v1586c0 14 2 26.333 6 37s9.33301 19.5 16 26.5s14.667 12 24 15
s19.666 4.5 30.999 4.5h309c5.33301 0 10.333 -1.5 15 -4.5s8.5 -8 11.5 -15s5.16699 -16.167 6.5 -27.5s2 -25.666 2 -42.999c0 -34 -3 -57.5 -9 -70.5s-14.667 -19.5 -26 -19.5h-151v-1393h151c5.33301 0 10.333 -1.33301 15 -4s8.5 -7.66699 11.5 -15
s5.16699 -16.666 6.5 -27.999s2 -25.666 2 -42.999z" />
    <glyph glyph-name="backslash" unicode="\" horiz-adv-x="880" 
d="M866 -218c5.33301 -16.667 8.33301 -30.167 9 -40.5s-2.83301 -17.833 -10.5 -22.5s-19.834 -7.83398 -36.501 -9.50098s-39.667 -2.5 -69 -2.5c-26.667 0 -48.167 0.666992 -64.5 2s-29.166 3.33301 -38.499 6s-16 6.5 -20 11.5s-7.66699 11.167 -11 18.5l-586 1651
c-6 17.333 -9.33301 31 -10 41s2.83301 17.333 10.5 22s19.834 7.83398 36.501 9.50098s39.667 2.5 69 2.5c26.667 0 48.167 -0.666992 64.5 -2s29.166 -3.33301 38.499 -6s16 -6.5 20 -11.5s7.33301 -11.167 10 -18.5z" />
    <glyph glyph-name="bracketright" unicode="]" horiz-adv-x="665" 
d="M510 -254c0 -14.667 -2.16504 -27.3281 -6.49805 -37.9951s-9.83301 -19.334 -16.5 -26.001s-14.667 -11.667 -24 -15s-19.666 -5 -30.999 -5h-310c-11.333 0 -20 6.66699 -26 20s-9 36.666 -9 69.999c0 17.333 0.833008 31.666 2.5 42.999s4 20.666 7 27.999
s6.66699 12.333 11 15s9.16602 4 14.499 4h152v1393h-152c-11.333 0 -20 6.5 -26 19.5s-9 36.5 -9 70.5c0 17.333 0.833008 31.666 2.5 42.999s4 20.5 7 27.5s6.66699 12 11 15s9.16602 4.5 14.499 4.5h310c11.333 0 21.666 -1.5 30.999 -4.5s17.333 -8 24 -15
s12.167 -15.833 16.5 -26.5s6.5 -23 6.5 -37v-1586z" />
    <glyph glyph-name="asciicircum" unicode="^" horiz-adv-x="1020" 
d="M968 596c8.66699 -18.667 13.999 -33.667 15.999 -45s-0.5 -20 -7.5 -26s-19 -9.83301 -36 -11.5s-40.167 -2.5 -69.5 -2.5c-26 0 -47.5 0.833008 -64.5 2.5s-31 4.33398 -42 8.00098s-19.333 8.33398 -25 14.001s-10.167 12.5 -13.5 20.5l-221 541l-5 -1l-212 -540
c-3.33301 -8 -7.83301 -14.833 -13.5 -20.5s-13.834 -10.334 -24.501 -14.001s-24.5 -6.33398 -41.5 -8.00098s-38.5 -2.5 -64.5 -2.5c-29.333 0 -52.166 0.833008 -68.499 2.5s-28 5.5 -35 11.5s-9.5 14.667 -7.5 26s7.33301 26.333 16 45l288 656
c4 8.66699 10 16.167 18 22.5s18.833 11.666 32.5 15.999s30.167 7.66602 49.5 9.99902s42.333 3.5 69 3.5s49.834 -1.16699 69.501 -3.5s36.167 -5.66602 49.5 -9.99902s24 -9.66602 32 -15.999s14 -13.833 18 -22.5z" />
    <glyph glyph-name="underscore" unicode="_" horiz-adv-x="1020" 
d="M1026 -272c0 -33.333 -3.16699 -57.167 -9.5 -71.5s-16.833 -21.5 -31.5 -21.5h-950c-15.333 0 -26.166 7 -32.499 21s-9.5 37.667 -9.5 71s3.16699 57.333 9.5 72s17.166 22 32.499 22h950c14.667 0 25.167 -7 31.5 -21s9.5 -38 9.5 -72z" />
    <glyph glyph-name="grave" unicode="`" horiz-adv-x="615" 
d="M502 1135c6 -8.66699 9.67188 -16.334 11.0049 -23.001s-0.833984 -12.167 -6.50098 -16.5s-15 -7.5 -28 -9.5s-31.167 -3 -54.5 -3c-19.333 0 -35.333 0.666992 -48 2s-23.334 3.33301 -32.001 6s-15.834 6.16699 -21.501 10.5s-11.167 9.83301 -16.5 16.5l-193 232
c-6.66699 7.33301 -10.334 14.333 -11.001 21s2.83301 12.5 10.5 17.5s20.5 8.83301 38.5 11.5s42.333 4 73 4c22 0 40.5 -0.666992 55.5 -2s27.5 -3.5 37.5 -6.5s18.167 -7.16699 24.5 -12.5s12.166 -11.666 17.499 -18.999zM0.00488281 960z" />
    <glyph glyph-name="a" unicode="a" horiz-adv-x="1011" 
d="M886 31c0 -9.33301 -3.32715 -16.6699 -9.99414 -22.0029s-17.167 -9.16602 -31.5 -11.499s-35.5 -3.5 -63.5 -3.5c-30 0 -51.833 1.16699 -65.5 3.5s-23.334 6.16602 -29.001 11.499s-8.5 12.666 -8.5 21.999v71c-36.667 -39.333 -78.5 -70 -125.5 -92
s-99.167 -33 -156.5 -33c-47.333 0 -90.833 6.16699 -130.5 18.5s-74 30.666 -103 54.999s-51.5 54.5 -67.5 90.5s-24 78 -24 126c0 52 10.167 97.167 30.5 135.5s50.666 70 90.999 95s90.5 43.5 150.5 55.5s129.667 18 209 18h87v54c0 28 -2.83301 52.5 -8.5 73.5
s-15 38.5 -28 52.5s-30.333 24.333 -52 31s-48.5 10 -80.5 10c-42 0 -79.5 -4.66699 -112.5 -14s-62.167 -19.666 -87.5 -30.999s-46.5 -21.666 -63.5 -30.999s-30.833 -14 -41.5 -14c-7.33301 0 -13.833 2.33301 -19.5 7s-10.334 11.334 -14.001 20.001
s-6.5 19.334 -8.5 32.001s-3 26.667 -3 42c0 20.667 1.66699 37 5 49s9.66602 22.833 18.999 32.5s25.666 20.334 48.999 32.001s50.666 22.5 81.999 32.5s65.5 18.167 102.5 24.5s75.167 9.5 114.5 9.5c70 0 129.833 -6.83301 179.5 -20.5s90.5 -34.667 122.5 -63
s55.333 -64.833 70 -109.5s22 -97.667 22 -159v-600zM639.006 412.996l-96 -0.000976562c-40.667 0 -75.334 -3 -104.001 -9s-52 -15 -70 -27s-31.167 -26.5 -39.5 -43.5s-12.5 -36.5 -12.5 -58.5c0 -37.333 11.833 -66.666 35.5 -87.999s56.5 -32 98.5 -32
c35.333 0 67.833 9 97.5 27s59.834 44.333 90.501 79v152z" />
    <glyph glyph-name="b" unicode="b" 
d="M1024 492c0 -79.333 -8.66699 -150.666 -26 -213.999s-42.333 -117.333 -75 -162s-72.834 -79 -120.501 -103s-101.834 -36 -162.501 -36c-30 0 -58 2.83301 -84 8.5s-50.833 14.834 -74.5 27.501s-47 28.667 -70 48s-46.5 42.666 -70.5 69.999v-97
c0 -7.33301 -1.83301 -13.5 -5.5 -18.5s-9.66699 -9.16699 -18 -12.5s-19.5 -5.66602 -33.5 -6.99902s-31 -2 -51 -2c-20.667 0 -37.834 0.666992 -51.501 2s-24.667 3.66602 -33 6.99902s-14.166 7.5 -17.499 12.5s-5 11.167 -5 18.5v1315c0 6.66699 2 12.667 6 18
s10.833 9.83301 20.5 13.5s22.5 6.5 38.5 8.5s36.333 3 61 3s45 -1 61 -3s28.833 -4.83301 38.5 -8.5s16.5 -8.16699 20.5 -13.5s6 -11.333 6 -18v-493c22.667 22.667 45.334 42 68.001 58s45.334 29.167 68.001 39.5s46 17.833 70 22.5s49.333 7 76 7
c66 0 122 -13.167 168 -39.5s83.5 -61.833 112.5 -106.5s50.167 -96.834 63.5 -156.501s20 -122.5 20 -188.5zM763 474c0 38 -2.83203 74.668 -8.49902 110.001s-15.5 66.666 -29.5 93.999s-32.167 49.166 -54.5 65.499s-50.5 24.5 -84.5 24.5
c-16.667 0 -33 -2.33301 -49 -7s-32.5 -12.667 -49.5 -24s-34.5 -26 -52.5 -44s-37 -40.333 -57 -67v-296c35.333 -45.333 69.166 -79.833 101.499 -103.5s66.166 -35.5 101.499 -35.5c32.667 0 60.334 8.33301 83.001 25s41.5 38.334 56.5 65.001s25.833 57 32.5 91
s10 68 10 102z" />
    </font>
</defs>
</svg>
